<?xml version="1.0" encoding="utf-8" standalone="no"?>
<!DOCTYPE svg PUBLIC "-//W3C//DTD SVG 1.1//EN"
  "http://www.w3.org/Graphics/SVG/1.1/DTD/svg11.dtd">
<!-- Created with matplotlib (https://matplotlib.org/) -->
<svg height="384.44pt" version="1.1" viewBox="0 0 860.357313 384.44" width="860.357313pt" xmlns="http://www.w3.org/2000/svg" xmlns:xlink="http://www.w3.org/1999/xlink">
 <defs>
  <style type="text/css">
*{stroke-linecap:butt;stroke-linejoin:round;}
  </style>
 </defs>
 <g id="figure_1">
  <g id="patch_1">
   <path d="M 0 384.44 
L 860.357313 384.44 
L 860.357313 0 
L 0 0 
z
" style="fill:none;"/>
  </g>
  <g id="axes_1">
   <g id="patch_2">
    <path d="M 41.245313 347.949375 
L 710.845313 347.949375 
L 710.845313 21.789375 
L 41.245313 21.789375 
z
" style="fill:#e6e6e6;"/>
   </g>
   <g id="matplotlib.axis_1">
    <g id="xtick_1">
     <g id="line2d_1">
      <path clip-path="url(#p0f55f936e5)" d="M 70.790421 347.949375 
L 70.790421 21.789375 
" style="fill:none;stroke:#ffffff;stroke-linecap:round;stroke-width:0.8;"/>
     </g>
     <g id="text_1">
      <!-- 2018-01 -->
      <defs>
       <path d="M 50.34375 8.453125 
L 50.34375 0 
L 3.03125 0 
Q 2.9375 3.171875 4.046875 6.109375 
Q 5.859375 10.9375 9.828125 15.625 
Q 13.8125 20.3125 21.34375 26.46875 
Q 33.015625 36.03125 37.109375 41.625 
Q 41.21875 47.21875 41.21875 52.203125 
Q 41.21875 57.421875 37.46875 61 
Q 33.734375 64.59375 27.734375 64.59375 
Q 21.390625 64.59375 17.578125 60.78125 
Q 13.765625 56.984375 13.71875 50.25 
L 4.6875 51.171875 
Q 5.609375 61.28125 11.65625 66.578125 
Q 17.71875 71.875 27.9375 71.875 
Q 38.234375 71.875 44.234375 66.15625 
Q 50.25 60.453125 50.25 52 
Q 50.25 47.703125 48.484375 43.546875 
Q 46.734375 39.40625 42.65625 34.8125 
Q 38.578125 30.21875 29.109375 22.21875 
Q 21.1875 15.578125 18.9375 13.203125 
Q 16.703125 10.84375 15.234375 8.453125 
z
" id="ArialMT-50"/>
       <path d="M 4.15625 35.296875 
Q 4.15625 48 6.765625 55.734375 
Q 9.375 63.484375 14.515625 67.671875 
Q 19.671875 71.875 27.484375 71.875 
Q 33.25 71.875 37.59375 69.546875 
Q 41.9375 67.234375 44.765625 62.859375 
Q 47.609375 58.5 49.21875 52.21875 
Q 50.828125 45.953125 50.828125 35.296875 
Q 50.828125 22.703125 48.234375 14.96875 
Q 45.65625 7.234375 40.5 3 
Q 35.359375 -1.21875 27.484375 -1.21875 
Q 17.140625 -1.21875 11.234375 6.203125 
Q 4.15625 15.140625 4.15625 35.296875 
z
M 13.1875 35.296875 
Q 13.1875 17.671875 17.3125 11.828125 
Q 21.4375 6 27.484375 6 
Q 33.546875 6 37.671875 11.859375 
Q 41.796875 17.71875 41.796875 35.296875 
Q 41.796875 52.984375 37.671875 58.78125 
Q 33.546875 64.59375 27.390625 64.59375 
Q 21.34375 64.59375 17.71875 59.46875 
Q 13.1875 52.9375 13.1875 35.296875 
z
" id="ArialMT-48"/>
       <path d="M 37.25 0 
L 28.46875 0 
L 28.46875 56 
Q 25.296875 52.984375 20.140625 49.953125 
Q 14.984375 46.921875 10.890625 45.40625 
L 10.890625 53.90625 
Q 18.265625 57.375 23.78125 62.296875 
Q 29.296875 67.234375 31.59375 71.875 
L 37.25 71.875 
z
" id="ArialMT-49"/>
       <path d="M 17.671875 38.8125 
Q 12.203125 40.828125 9.5625 44.53125 
Q 6.9375 48.25 6.9375 53.421875 
Q 6.9375 61.234375 12.546875 66.546875 
Q 18.171875 71.875 27.484375 71.875 
Q 36.859375 71.875 42.578125 66.421875 
Q 48.296875 60.984375 48.296875 53.171875 
Q 48.296875 48.1875 45.671875 44.5 
Q 43.0625 40.828125 37.75 38.8125 
Q 44.34375 36.671875 47.78125 31.875 
Q 51.21875 27.09375 51.21875 20.453125 
Q 51.21875 11.28125 44.71875 5.03125 
Q 38.234375 -1.21875 27.640625 -1.21875 
Q 17.046875 -1.21875 10.546875 5.046875 
Q 4.046875 11.328125 4.046875 20.703125 
Q 4.046875 27.6875 7.59375 32.390625 
Q 11.140625 37.109375 17.671875 38.8125 
z
M 15.921875 53.71875 
Q 15.921875 48.640625 19.1875 45.40625 
Q 22.46875 42.1875 27.6875 42.1875 
Q 32.765625 42.1875 36.015625 45.375 
Q 39.265625 48.578125 39.265625 53.21875 
Q 39.265625 58.0625 35.90625 61.359375 
Q 32.5625 64.65625 27.59375 64.65625 
Q 22.5625 64.65625 19.234375 61.421875 
Q 15.921875 58.203125 15.921875 53.71875 
z
M 13.09375 20.65625 
Q 13.09375 16.890625 14.875 13.375 
Q 16.65625 9.859375 20.171875 7.921875 
Q 23.6875 6 27.734375 6 
Q 34.03125 6 38.125 10.046875 
Q 42.234375 14.109375 42.234375 20.359375 
Q 42.234375 26.703125 38.015625 30.859375 
Q 33.796875 35.015625 27.4375 35.015625 
Q 21.234375 35.015625 17.15625 30.90625 
Q 13.09375 26.8125 13.09375 20.65625 
z
" id="ArialMT-56"/>
       <path d="M 3.171875 21.484375 
L 3.171875 30.328125 
L 30.171875 30.328125 
L 30.171875 21.484375 
z
" id="ArialMT-45"/>
      </defs>
      <g style="fill:#262626;" transform="translate(52.442765 362.107188)scale(0.1 -0.1)">
       <use xlink:href="#ArialMT-50"/>
       <use x="55.615234" xlink:href="#ArialMT-48"/>
       <use x="111.230469" xlink:href="#ArialMT-49"/>
       <use x="166.845703" xlink:href="#ArialMT-56"/>
       <use x="222.460938" xlink:href="#ArialMT-45"/>
       <use x="255.761719" xlink:href="#ArialMT-48"/>
       <use x="311.376953" xlink:href="#ArialMT-49"/>
      </g>
     </g>
    </g>
    <g id="xtick_2">
     <g id="line2d_2">
      <path clip-path="url(#p0f55f936e5)" d="M 151.449013 347.949375 
L 151.449013 21.789375 
" style="fill:none;stroke:#ffffff;stroke-linecap:round;stroke-width:0.8;"/>
     </g>
     <g id="text_2">
      <!-- 2018-07 -->
      <defs>
       <path d="M 4.734375 62.203125 
L 4.734375 70.65625 
L 51.078125 70.65625 
L 51.078125 63.8125 
Q 44.234375 56.546875 37.515625 44.484375 
Q 30.8125 32.421875 27.15625 19.671875 
Q 24.515625 10.6875 23.78125 0 
L 14.75 0 
Q 14.890625 8.453125 18.0625 20.40625 
Q 21.234375 32.375 27.171875 43.484375 
Q 33.109375 54.59375 39.796875 62.203125 
z
" id="ArialMT-55"/>
      </defs>
      <g style="fill:#262626;" transform="translate(133.101357 362.107188)scale(0.1 -0.1)">
       <use xlink:href="#ArialMT-50"/>
       <use x="55.615234" xlink:href="#ArialMT-48"/>
       <use x="111.230469" xlink:href="#ArialMT-49"/>
       <use x="166.845703" xlink:href="#ArialMT-56"/>
       <use x="222.460938" xlink:href="#ArialMT-45"/>
       <use x="255.761719" xlink:href="#ArialMT-48"/>
       <use x="311.376953" xlink:href="#ArialMT-55"/>
      </g>
     </g>
    </g>
    <g id="xtick_3">
     <g id="line2d_3">
      <path clip-path="url(#p0f55f936e5)" d="M 233.444487 347.949375 
L 233.444487 21.789375 
" style="fill:none;stroke:#ffffff;stroke-linecap:round;stroke-width:0.8;"/>
     </g>
     <g id="text_3">
      <!-- 2019-01 -->
      <defs>
       <path d="M 5.46875 16.546875 
L 13.921875 17.328125 
Q 14.984375 11.375 18.015625 8.6875 
Q 21.046875 6 25.78125 6 
Q 29.828125 6 32.875 7.859375 
Q 35.9375 9.71875 37.890625 12.8125 
Q 39.84375 15.921875 41.15625 21.1875 
Q 42.484375 26.46875 42.484375 31.9375 
Q 42.484375 32.515625 42.4375 33.6875 
Q 39.796875 29.5 35.234375 26.875 
Q 30.671875 24.265625 25.34375 24.265625 
Q 16.453125 24.265625 10.296875 30.703125 
Q 4.15625 37.15625 4.15625 47.703125 
Q 4.15625 58.59375 10.578125 65.234375 
Q 17 71.875 26.65625 71.875 
Q 33.640625 71.875 39.421875 68.109375 
Q 45.21875 64.359375 48.21875 57.390625 
Q 51.21875 50.4375 51.21875 37.25 
Q 51.21875 23.53125 48.234375 15.40625 
Q 45.265625 7.28125 39.375 3.03125 
Q 33.5 -1.21875 25.59375 -1.21875 
Q 17.1875 -1.21875 11.859375 3.4375 
Q 6.546875 8.109375 5.46875 16.546875 
z
M 41.453125 48.140625 
Q 41.453125 55.71875 37.421875 60.15625 
Q 33.40625 64.59375 27.734375 64.59375 
Q 21.875 64.59375 17.53125 59.8125 
Q 13.1875 55.03125 13.1875 47.40625 
Q 13.1875 40.578125 17.3125 36.296875 
Q 21.4375 32.03125 27.484375 32.03125 
Q 33.59375 32.03125 37.515625 36.296875 
Q 41.453125 40.578125 41.453125 48.140625 
z
" id="ArialMT-57"/>
      </defs>
      <g style="fill:#262626;" transform="translate(215.096831 362.107188)scale(0.1 -0.1)">
       <use xlink:href="#ArialMT-50"/>
       <use x="55.615234" xlink:href="#ArialMT-48"/>
       <use x="111.230469" xlink:href="#ArialMT-49"/>
       <use x="166.845703" xlink:href="#ArialMT-57"/>
       <use x="222.460938" xlink:href="#ArialMT-45"/>
       <use x="255.761719" xlink:href="#ArialMT-48"/>
       <use x="311.376953" xlink:href="#ArialMT-49"/>
      </g>
     </g>
    </g>
    <g id="xtick_4">
     <g id="line2d_4">
      <path clip-path="url(#p0f55f936e5)" d="M 314.103079 347.949375 
L 314.103079 21.789375 
" style="fill:none;stroke:#ffffff;stroke-linecap:round;stroke-width:0.8;"/>
     </g>
     <g id="text_4">
      <!-- 2019-07 -->
      <g style="fill:#262626;" transform="translate(295.755423 362.107188)scale(0.1 -0.1)">
       <use xlink:href="#ArialMT-50"/>
       <use x="55.615234" xlink:href="#ArialMT-48"/>
       <use x="111.230469" xlink:href="#ArialMT-49"/>
       <use x="166.845703" xlink:href="#ArialMT-57"/>
       <use x="222.460938" xlink:href="#ArialMT-45"/>
       <use x="255.761719" xlink:href="#ArialMT-48"/>
       <use x="311.376953" xlink:href="#ArialMT-55"/>
      </g>
     </g>
    </g>
    <g id="xtick_5">
     <g id="line2d_5">
      <path clip-path="url(#p0f55f936e5)" d="M 396.098554 347.949375 
L 396.098554 21.789375 
" style="fill:none;stroke:#ffffff;stroke-linecap:round;stroke-width:0.8;"/>
     </g>
     <g id="text_5">
      <!-- 2020-01 -->
      <g style="fill:#262626;" transform="translate(377.750897 362.107188)scale(0.1 -0.1)">
       <use xlink:href="#ArialMT-50"/>
       <use x="55.615234" xlink:href="#ArialMT-48"/>
       <use x="111.230469" xlink:href="#ArialMT-50"/>
       <use x="166.845703" xlink:href="#ArialMT-48"/>
       <use x="222.460938" xlink:href="#ArialMT-45"/>
       <use x="255.761719" xlink:href="#ArialMT-48"/>
       <use x="311.376953" xlink:href="#ArialMT-49"/>
      </g>
     </g>
    </g>
    <g id="xtick_6">
     <g id="line2d_6">
      <path clip-path="url(#p0f55f936e5)" d="M 477.202773 347.949375 
L 477.202773 21.789375 
" style="fill:none;stroke:#ffffff;stroke-linecap:round;stroke-width:0.8;"/>
     </g>
     <g id="text_6">
      <!-- 2020-07 -->
      <g style="fill:#262626;" transform="translate(458.855117 362.107188)scale(0.1 -0.1)">
       <use xlink:href="#ArialMT-50"/>
       <use x="55.615234" xlink:href="#ArialMT-48"/>
       <use x="111.230469" xlink:href="#ArialMT-50"/>
       <use x="166.845703" xlink:href="#ArialMT-48"/>
       <use x="222.460938" xlink:href="#ArialMT-45"/>
       <use x="255.761719" xlink:href="#ArialMT-48"/>
       <use x="311.376953" xlink:href="#ArialMT-55"/>
      </g>
     </g>
    </g>
    <g id="xtick_7">
     <g id="line2d_7">
      <path clip-path="url(#p0f55f936e5)" d="M 559.198247 347.949375 
L 559.198247 21.789375 
" style="fill:none;stroke:#ffffff;stroke-linecap:round;stroke-width:0.8;"/>
     </g>
     <g id="text_7">
      <!-- 2021-01 -->
      <g style="fill:#262626;" transform="translate(540.850591 362.107188)scale(0.1 -0.1)">
       <use xlink:href="#ArialMT-50"/>
       <use x="55.615234" xlink:href="#ArialMT-48"/>
       <use x="111.230469" xlink:href="#ArialMT-50"/>
       <use x="166.845703" xlink:href="#ArialMT-49"/>
       <use x="222.460938" xlink:href="#ArialMT-45"/>
       <use x="255.761719" xlink:href="#ArialMT-48"/>
       <use x="311.376953" xlink:href="#ArialMT-49"/>
      </g>
     </g>
    </g>
    <g id="xtick_8">
     <g id="line2d_8">
      <path clip-path="url(#p0f55f936e5)" d="M 639.856839 347.949375 
L 639.856839 21.789375 
" style="fill:none;stroke:#ffffff;stroke-linecap:round;stroke-width:0.8;"/>
     </g>
     <g id="text_8">
      <!-- 2021-07 -->
      <g style="fill:#262626;" transform="translate(621.509183 362.107188)scale(0.1 -0.1)">
       <use xlink:href="#ArialMT-50"/>
       <use x="55.615234" xlink:href="#ArialMT-48"/>
       <use x="111.230469" xlink:href="#ArialMT-50"/>
       <use x="166.845703" xlink:href="#ArialMT-49"/>
       <use x="222.460938" xlink:href="#ArialMT-45"/>
       <use x="255.761719" xlink:href="#ArialMT-48"/>
       <use x="311.376953" xlink:href="#ArialMT-55"/>
      </g>
     </g>
    </g>
    <g id="text_9">
     <!-- date -->
     <defs>
      <path d="M 40.234375 0 
L 40.234375 6.546875 
Q 35.296875 -1.171875 25.734375 -1.171875 
Q 19.53125 -1.171875 14.328125 2.25 
Q 9.125 5.671875 6.265625 11.796875 
Q 3.421875 17.921875 3.421875 25.875 
Q 3.421875 33.640625 6 39.96875 
Q 8.59375 46.296875 13.765625 49.65625 
Q 18.953125 53.03125 25.34375 53.03125 
Q 30.03125 53.03125 33.6875 51.046875 
Q 37.359375 49.078125 39.65625 45.90625 
L 39.65625 71.578125 
L 48.390625 71.578125 
L 48.390625 0 
z
M 12.453125 25.875 
Q 12.453125 15.921875 16.640625 10.984375 
Q 20.84375 6.0625 26.5625 6.0625 
Q 32.328125 6.0625 36.34375 10.765625 
Q 40.375 15.484375 40.375 25.140625 
Q 40.375 35.796875 36.265625 40.765625 
Q 32.171875 45.75 26.171875 45.75 
Q 20.3125 45.75 16.375 40.96875 
Q 12.453125 36.1875 12.453125 25.875 
z
" id="ArialMT-100"/>
      <path d="M 40.4375 6.390625 
Q 35.546875 2.25 31.03125 0.53125 
Q 26.515625 -1.171875 21.34375 -1.171875 
Q 12.796875 -1.171875 8.203125 3 
Q 3.609375 7.171875 3.609375 13.671875 
Q 3.609375 17.484375 5.34375 20.625 
Q 7.078125 23.78125 9.890625 25.6875 
Q 12.703125 27.59375 16.21875 28.5625 
Q 18.796875 29.25 24.03125 29.890625 
Q 34.671875 31.15625 39.703125 32.90625 
Q 39.75 34.71875 39.75 35.203125 
Q 39.75 40.578125 37.25 42.78125 
Q 33.890625 45.75 27.25 45.75 
Q 21.046875 45.75 18.09375 43.578125 
Q 15.140625 41.40625 13.71875 35.890625 
L 5.125 37.0625 
Q 6.296875 42.578125 8.984375 45.96875 
Q 11.671875 49.359375 16.75 51.1875 
Q 21.828125 53.03125 28.515625 53.03125 
Q 35.15625 53.03125 39.296875 51.46875 
Q 43.453125 49.90625 45.40625 47.53125 
Q 47.359375 45.171875 48.140625 41.546875 
Q 48.578125 39.3125 48.578125 33.453125 
L 48.578125 21.734375 
Q 48.578125 9.46875 49.140625 6.21875 
Q 49.703125 2.984375 51.375 0 
L 42.1875 0 
Q 40.828125 2.734375 40.4375 6.390625 
z
M 39.703125 26.03125 
Q 34.90625 24.078125 25.34375 22.703125 
Q 19.921875 21.921875 17.671875 20.9375 
Q 15.4375 19.96875 14.203125 18.09375 
Q 12.984375 16.21875 12.984375 13.921875 
Q 12.984375 10.40625 15.640625 8.0625 
Q 18.3125 5.71875 23.4375 5.71875 
Q 28.515625 5.71875 32.46875 7.9375 
Q 36.421875 10.15625 38.28125 14.015625 
Q 39.703125 17 39.703125 22.796875 
z
" id="ArialMT-97"/>
      <path d="M 25.78125 7.859375 
L 27.046875 0.09375 
Q 23.34375 -0.6875 20.40625 -0.6875 
Q 15.625 -0.6875 12.984375 0.828125 
Q 10.359375 2.34375 9.28125 4.8125 
Q 8.203125 7.28125 8.203125 15.1875 
L 8.203125 45.015625 
L 1.765625 45.015625 
L 1.765625 51.859375 
L 8.203125 51.859375 
L 8.203125 64.703125 
L 16.9375 69.96875 
L 16.9375 51.859375 
L 25.78125 51.859375 
L 25.78125 45.015625 
L 16.9375 45.015625 
L 16.9375 14.703125 
Q 16.9375 10.9375 17.40625 9.859375 
Q 17.875 8.796875 18.921875 8.15625 
Q 19.96875 7.515625 21.921875 7.515625 
Q 23.390625 7.515625 25.78125 7.859375 
z
" id="ArialMT-116"/>
      <path d="M 42.09375 16.703125 
L 51.171875 15.578125 
Q 49.03125 7.625 43.21875 3.21875 
Q 37.40625 -1.171875 28.375 -1.171875 
Q 17 -1.171875 10.328125 5.828125 
Q 3.65625 12.84375 3.65625 25.484375 
Q 3.65625 38.578125 10.390625 45.796875 
Q 17.140625 53.03125 27.875 53.03125 
Q 38.28125 53.03125 44.875 45.953125 
Q 51.46875 38.875 51.46875 26.03125 
Q 51.46875 25.25 51.421875 23.6875 
L 12.75 23.6875 
Q 13.234375 15.140625 17.578125 10.59375 
Q 21.921875 6.0625 28.421875 6.0625 
Q 33.25 6.0625 36.671875 8.59375 
Q 40.09375 11.140625 42.09375 16.703125 
z
M 13.234375 30.90625 
L 42.1875 30.90625 
Q 41.609375 37.453125 38.875 40.71875 
Q 34.671875 45.796875 27.984375 45.796875 
Q 21.921875 45.796875 17.796875 41.75 
Q 13.671875 37.703125 13.234375 30.90625 
z
" id="ArialMT-101"/>
     </defs>
     <g style="fill:#262626;" transform="translate(366.314844 375.2525)scale(0.1 -0.1)">
      <use xlink:href="#ArialMT-100"/>
      <use x="55.615234" xlink:href="#ArialMT-97"/>
      <use x="111.230469" xlink:href="#ArialMT-116"/>
      <use x="139.013672" xlink:href="#ArialMT-101"/>
     </g>
    </g>
   </g>
   <g id="matplotlib.axis_2">
    <g id="ytick_1">
     <g id="line2d_9">
      <path clip-path="url(#p0f55f936e5)" d="M 41.245313 333.12392 
L 710.845313 333.12392 
" style="fill:none;stroke:#ffffff;stroke-linecap:round;stroke-width:0.8;"/>
     </g>
     <g id="line2d_10">
      <defs>
       <path d="M 0 0 
L -3.5 0 
" id="m24f3dc5c4a" style="stroke:#262626;stroke-width:0.8;"/>
      </defs>
      <g>
       <use style="fill:#262626;stroke:#262626;stroke-width:0.8;" x="41.245313" xlink:href="#m24f3dc5c4a" y="333.12392"/>
      </g>
     </g>
     <g id="text_10">
      <!-- 0.0 -->
      <defs>
       <path d="M 9.078125 0 
L 9.078125 10.015625 
L 19.09375 10.015625 
L 19.09375 0 
z
" id="ArialMT-46"/>
      </defs>
      <g style="fill:#82c6e2;" transform="translate(20.345313 336.702827)scale(0.1 -0.1)">
       <use xlink:href="#ArialMT-48"/>
       <use x="55.615234" xlink:href="#ArialMT-46"/>
       <use x="83.398438" xlink:href="#ArialMT-48"/>
      </g>
     </g>
    </g>
    <g id="ytick_2">
     <g id="line2d_11">
      <path clip-path="url(#p0f55f936e5)" d="M 41.245313 273.805355 
L 710.845313 273.805355 
" style="fill:none;stroke:#ffffff;stroke-linecap:round;stroke-width:0.8;"/>
     </g>
     <g id="line2d_12">
      <g>
       <use style="fill:#262626;stroke:#262626;stroke-width:0.8;" x="41.245313" xlink:href="#m24f3dc5c4a" y="273.805355"/>
      </g>
     </g>
     <g id="text_11">
      <!-- 0.2 -->
      <g style="fill:#82c6e2;" transform="translate(20.345313 277.384261)scale(0.1 -0.1)">
       <use xlink:href="#ArialMT-48"/>
       <use x="55.615234" xlink:href="#ArialMT-46"/>
       <use x="83.398438" xlink:href="#ArialMT-50"/>
      </g>
     </g>
    </g>
    <g id="ytick_3">
     <g id="line2d_13">
      <path clip-path="url(#p0f55f936e5)" d="M 41.245313 214.48679 
L 710.845313 214.48679 
" style="fill:none;stroke:#ffffff;stroke-linecap:round;stroke-width:0.8;"/>
     </g>
     <g id="line2d_14">
      <g>
       <use style="fill:#262626;stroke:#262626;stroke-width:0.8;" x="41.245313" xlink:href="#m24f3dc5c4a" y="214.48679"/>
      </g>
     </g>
     <g id="text_12">
      <!-- 0.4 -->
      <defs>
       <path d="M 32.328125 0 
L 32.328125 17.140625 
L 1.265625 17.140625 
L 1.265625 25.203125 
L 33.9375 71.578125 
L 41.109375 71.578125 
L 41.109375 25.203125 
L 50.78125 25.203125 
L 50.78125 17.140625 
L 41.109375 17.140625 
L 41.109375 0 
z
M 32.328125 25.203125 
L 32.328125 57.46875 
L 9.90625 25.203125 
z
" id="ArialMT-52"/>
      </defs>
      <g style="fill:#82c6e2;" transform="translate(20.345313 218.065696)scale(0.1 -0.1)">
       <use xlink:href="#ArialMT-48"/>
       <use x="55.615234" xlink:href="#ArialMT-46"/>
       <use x="83.398438" xlink:href="#ArialMT-52"/>
      </g>
     </g>
    </g>
    <g id="ytick_4">
     <g id="line2d_15">
      <path clip-path="url(#p0f55f936e5)" d="M 41.245313 155.168224 
L 710.845313 155.168224 
" style="fill:none;stroke:#ffffff;stroke-linecap:round;stroke-width:0.8;"/>
     </g>
     <g id="line2d_16">
      <g>
       <use style="fill:#262626;stroke:#262626;stroke-width:0.8;" x="41.245313" xlink:href="#m24f3dc5c4a" y="155.168224"/>
      </g>
     </g>
     <g id="text_13">
      <!-- 0.6 -->
      <defs>
       <path d="M 49.75 54.046875 
L 41.015625 53.375 
Q 39.84375 58.546875 37.703125 60.890625 
Q 34.125 64.65625 28.90625 64.65625 
Q 24.703125 64.65625 21.53125 62.3125 
Q 17.390625 59.28125 14.984375 53.46875 
Q 12.59375 47.65625 12.5 36.921875 
Q 15.671875 41.75 20.265625 44.09375 
Q 24.859375 46.4375 29.890625 46.4375 
Q 38.671875 46.4375 44.84375 39.96875 
Q 51.03125 33.5 51.03125 23.25 
Q 51.03125 16.5 48.125 10.71875 
Q 45.21875 4.9375 40.140625 1.859375 
Q 35.0625 -1.21875 28.609375 -1.21875 
Q 17.625 -1.21875 10.6875 6.859375 
Q 3.765625 14.9375 3.765625 33.5 
Q 3.765625 54.25 11.421875 63.671875 
Q 18.109375 71.875 29.4375 71.875 
Q 37.890625 71.875 43.28125 67.140625 
Q 48.6875 62.40625 49.75 54.046875 
z
M 13.875 23.1875 
Q 13.875 18.65625 15.796875 14.5 
Q 17.71875 10.359375 21.1875 8.171875 
Q 24.65625 6 28.46875 6 
Q 34.03125 6 38.03125 10.484375 
Q 42.046875 14.984375 42.046875 22.703125 
Q 42.046875 30.125 38.078125 34.390625 
Q 34.125 38.671875 28.125 38.671875 
Q 22.171875 38.671875 18.015625 34.390625 
Q 13.875 30.125 13.875 23.1875 
z
" id="ArialMT-54"/>
      </defs>
      <g style="fill:#82c6e2;" transform="translate(20.345313 158.747131)scale(0.1 -0.1)">
       <use xlink:href="#ArialMT-48"/>
       <use x="55.615234" xlink:href="#ArialMT-46"/>
       <use x="83.398438" xlink:href="#ArialMT-54"/>
      </g>
     </g>
    </g>
    <g id="ytick_5">
     <g id="line2d_17">
      <path clip-path="url(#p0f55f936e5)" d="M 41.245313 95.849659 
L 710.845313 95.849659 
" style="fill:none;stroke:#ffffff;stroke-linecap:round;stroke-width:0.8;"/>
     </g>
     <g id="line2d_18">
      <g>
       <use style="fill:#262626;stroke:#262626;stroke-width:0.8;" x="41.245313" xlink:href="#m24f3dc5c4a" y="95.849659"/>
      </g>
     </g>
     <g id="text_14">
      <!-- 0.8 -->
      <g style="fill:#82c6e2;" transform="translate(20.345313 99.428565)scale(0.1 -0.1)">
       <use xlink:href="#ArialMT-48"/>
       <use x="55.615234" xlink:href="#ArialMT-46"/>
       <use x="83.398438" xlink:href="#ArialMT-56"/>
      </g>
     </g>
    </g>
    <g id="ytick_6">
     <g id="line2d_19">
      <path clip-path="url(#p0f55f936e5)" d="M 41.245313 36.531093 
L 710.845313 36.531093 
" style="fill:none;stroke:#ffffff;stroke-linecap:round;stroke-width:0.8;"/>
     </g>
     <g id="line2d_20">
      <g>
       <use style="fill:#262626;stroke:#262626;stroke-width:0.8;" x="41.245313" xlink:href="#m24f3dc5c4a" y="36.531093"/>
      </g>
     </g>
     <g id="text_15">
      <!-- 1.0 -->
      <g style="fill:#82c6e2;" transform="translate(20.345313 40.11)scale(0.1 -0.1)">
       <use xlink:href="#ArialMT-49"/>
       <use x="55.615234" xlink:href="#ArialMT-46"/>
       <use x="83.398438" xlink:href="#ArialMT-48"/>
      </g>
     </g>
    </g>
    <g id="text_16">
     <!-- media -->
     <defs>
      <path d="M 6.59375 0 
L 6.59375 51.859375 
L 14.453125 51.859375 
L 14.453125 44.578125 
Q 16.890625 48.390625 20.9375 50.703125 
Q 25 53.03125 30.171875 53.03125 
Q 35.9375 53.03125 39.625 50.640625 
Q 43.3125 48.25 44.828125 43.953125 
Q 50.984375 53.03125 60.84375 53.03125 
Q 68.5625 53.03125 72.703125 48.75 
Q 76.859375 44.484375 76.859375 35.59375 
L 76.859375 0 
L 68.109375 0 
L 68.109375 32.671875 
Q 68.109375 37.9375 67.25 40.25 
Q 66.40625 42.578125 64.15625 43.984375 
Q 61.921875 45.40625 58.890625 45.40625 
Q 53.421875 45.40625 49.796875 41.765625 
Q 46.1875 38.140625 46.1875 30.125 
L 46.1875 0 
L 37.40625 0 
L 37.40625 33.6875 
Q 37.40625 39.546875 35.25 42.46875 
Q 33.109375 45.40625 28.21875 45.40625 
Q 24.515625 45.40625 21.359375 43.453125 
Q 18.21875 41.5 16.796875 37.734375 
Q 15.375 33.984375 15.375 26.90625 
L 15.375 0 
z
" id="ArialMT-109"/>
      <path d="M 6.640625 61.46875 
L 6.640625 71.578125 
L 15.4375 71.578125 
L 15.4375 61.46875 
z
M 6.640625 0 
L 6.640625 51.859375 
L 15.4375 51.859375 
L 15.4375 0 
z
" id="ArialMT-105"/>
     </defs>
     <g style="fill:#82c6e2;" transform="translate(14.357813 198.486563)rotate(-90)scale(0.1 -0.1)">
      <use xlink:href="#ArialMT-109"/>
      <use x="83.300781" xlink:href="#ArialMT-101"/>
      <use x="138.916016" xlink:href="#ArialMT-100"/>
      <use x="194.53125" xlink:href="#ArialMT-105"/>
      <use x="216.748047" xlink:href="#ArialMT-97"/>
     </g>
    </g>
   </g>
   <g id="line2d_21">
    <path clip-path="url(#p0f55f936e5)" d="M 71.681676 333.12392 
L 75.246697 333.12392 
L 75.692324 45.455615 
L 76.137952 333.12392 
L 85.050504 333.12392 
L 85.496131 51.691276 
L 85.941759 46.724386 
L 86.387386 333.12392 
L 89.506779 333.12392 
L 89.952407 63.426012 
L 90.398034 333.12392 
L 92.626172 333.12392 
L 93.0718 45.552075 
L 93.517428 333.12392 
L 93.963055 54.475273 
L 94.408683 333.12392 
L 94.85431 333.12392 
L 95.299938 59.702635 
L 95.745565 333.12392 
L 101.093096 333.12392 
L 101.538724 40.420334 
L 101.984351 333.12392 
L 116.690062 333.12392 
L 117.135689 63.946214 
L 117.581317 333.12392 
L 120.255082 333.12392 
L 120.70071 57.382266 
L 121.146337 333.12392 
L 130.058889 333.12392 
L 130.504517 53.463666 
L 130.950144 333.12392 
L 132.287027 333.12392 
L 132.732654 44.900325 
L 133.178282 47.668956 
L 133.62391 333.12392 
L 137.18893 333.12392 
L 137.634558 63.738774 
L 138.080185 333.12392 
L 138.971441 333.12392 
L 139.417068 40.787066 
L 139.862696 333.12392 
L 149.666502 333.12392 
L 150.11213 55.296525 
L 150.557758 333.12392 
L 151.449013 333.12392 
L 151.89464 58.866426 
L 152.340268 333.12392 
L 155.905289 333.12392 
L 156.350916 66.066383 
L 156.796544 333.12392 
L 171.056626 333.12392 
L 171.502254 44.535969 
L 171.947881 333.12392 
L 177.295412 333.12392 
L 177.74104 54.19065 
L 178.186667 50.195547 
L 178.632295 61.781705 
L 179.077923 333.12392 
L 179.52355 333.12392 
L 179.969178 57.791294 
L 180.414805 333.12392 
L 180.860433 46.421035 
L 181.306061 47.321147 
L 181.751688 333.12392 
L 184.425454 333.12392 
L 184.871081 55.467129 
L 185.316709 333.12392 
L 186.653591 333.12392 
L 187.099219 39.48105 
L 187.544847 333.12392 
L 192.001122 333.12392 
L 192.44675 62.263323 
L 192.892378 333.12392 
L 206.261205 333.12392 
L 206.706833 43.693193 
L 207.15246 333.12392 
L 209.826226 333.12392 
L 210.271853 47.609306 
L 210.717481 333.12392 
L 214.728129 333.12392 
L 215.173757 49.917727 
L 215.619384 333.12392 
L 229.879467 333.12392 
L 230.325094 54.258375 
L 230.770722 333.12392 
L 232.553232 333.12392 
L 232.99886 53.892211 
L 233.444487 333.12392 
L 233.890115 48.041694 
L 234.335742 64.603414 
L 234.78137 333.12392 
L 244.139549 333.12392 
L 244.585177 39.3472 
L 245.030804 333.12392 
L 246.367687 333.12392 
L 246.813315 57.067974 
L 247.258942 333.12392 
L 249.041453 333.12392 
L 249.48708 65.433202 
L 249.932708 333.12392 
L 252.160846 333.12392 
L 252.606473 64.594121 
L 253.052101 333.12392 
L 253.497728 333.12392 
L 253.943356 51.342356 
L 254.388983 51.180659 
L 254.834611 333.12392 
L 266.866556 333.12392 
L 267.312183 40.493699 
L 267.757811 333.12392 
L 268.649066 333.12392 
L 269.094694 52.176787 
L 269.540321 40.683078 
L 269.985949 333.12392 
L 272.214087 333.12392 
L 272.659714 64.305711 
L 273.105342 333.12392 
L 277.11599 333.12392 
L 277.561618 47.750444 
L 278.007245 333.12392 
L 279.344128 333.12392 
L 279.789755 47.439024 
L 280.235383 333.12392 
L 280.681011 45.464817 
L 281.126638 333.12392 
L 282.017893 333.12392 
L 282.463521 38.617684 
L 282.909149 333.12392 
L 283.354776 333.12392 
L 283.800404 45.635741 
L 284.246031 333.12392 
L 286.474169 333.12392 
L 286.919797 65.846919 
L 287.365424 333.12392 
L 287.811052 333.12392 
L 288.256679 51.238692 
L 288.702307 333.12392 
L 292.267328 333.12392 
L 292.712955 44.12541 
L 293.158583 40.620888 
L 293.60421 333.12392 
L 295.832348 333.12392 
L 296.277976 62.949452 
L 296.723603 333.12392 
L 297.169231 51.420079 
L 297.614859 333.12392 
L 298.506114 333.12392 
L 298.951741 56.483343 
L 299.397369 333.12392 
L 301.179879 333.12392 
L 301.625507 40.304902 
L 302.071134 333.12392 
L 302.96239 333.12392 
L 303.408017 45.454267 
L 303.853645 333.12392 
L 306.973038 333.12392 
L 307.418665 36.61483 
L 307.864293 37.528583 
L 308.309921 333.12392 
L 308.755548 333.12392 
L 309.201176 52.913182 
L 309.646803 333.12392 
L 310.983686 333.12392 
L 311.429314 50.159229 
L 311.874941 333.12392 
L 323.461258 333.12392 
L 323.906886 64.956937 
L 324.352513 333.12392 
L 326.580651 333.12392 
L 327.026279 51.502914 
L 327.471906 333.12392 
L 327.917534 58.304677 
L 328.363162 333.12392 
L 329.254417 333.12392 
L 329.700044 42.453288 
L 330.145672 333.12392 
L 344.405754 333.12392 
L 344.851382 59.999772 
L 345.29701 333.12392 
L 364.904623 333.12392 
L 365.350251 40.530574 
L 365.795878 333.12392 
L 371.143409 333.12392 
L 371.589037 41.757469 
L 372.034664 333.12392 
L 372.480292 333.12392 
L 372.925919 45.585944 
L 373.371547 333.12392 
L 375.154057 333.12392 
L 375.599685 57.477669 
L 376.045312 333.12392 
L 384.512236 333.12392 
L 384.957864 39.508817 
L 385.403492 333.12392 
L 388.968512 333.12392 
L 389.41414 57.432244 
L 389.859767 333.12392 
L 390.305395 46.903861 
L 390.751023 333.12392 
L 391.19665 333.12392 
L 391.642278 54.818872 
L 392.087905 333.12392 
L 403.674222 333.12392 
L 404.11985 64.270794 
L 404.565478 333.12392 
L 405.011105 333.12392 
L 405.456733 54.376454 
L 405.90236 333.12392 
L 420.162443 333.12392 
L 420.60807 63.684 
L 421.053698 333.12392 
L 421.944953 333.12392 
L 422.390581 52.166477 
L 422.836208 333.12392 
L 425.064346 333.12392 
L 425.509974 56.664324 
L 425.955601 333.12392 
L 426.401229 333.12392 
L 426.846856 59.517221 
L 427.292484 333.12392 
L 429.520622 333.12392 
L 429.96625 55.997366 
L 430.411877 58.606939 
L 430.857505 333.12392 
L 431.303132 333.12392 
L 431.74876 41.027085 
L 432.194387 333.12392 
L 432.640015 333.12392 
L 433.085643 60.008823 
L 433.53127 333.12392 
L 437.987546 333.12392 
L 438.433174 60.301343 
L 438.878801 333.12392 
L 442.889449 333.12392 
L 443.335077 61.787188 
L 443.780704 333.12392 
L 446.008842 333.12392 
L 446.45447 48.077358 
L 446.900098 333.12392 
L 447.791353 333.12392 
L 448.23698 37.458168 
L 448.682608 333.12392 
L 457.595159 333.12392 
L 458.040787 52.512861 
L 458.486415 333.12392 
L 478.985283 333.12392 
L 479.430911 51.819473 
L 479.876538 333.12392 
L 485.669697 333.12392 
L 486.115324 41.157295 
L 486.560952 333.12392 
L 487.897835 333.12392 
L 488.343462 61.949453 
L 488.78909 333.12392 
L 492.354111 333.12392 
L 492.799738 66.184847 
L 493.245366 333.12392 
L 495.027876 333.12392 
L 495.473504 61.915896 
L 495.919131 333.12392 
L 503.049172 333.12392 
L 503.4948 55.26694 
L 503.940428 333.12392 
L 514.189862 333.12392 
L 514.63549 61.055294 
L 515.081117 333.12392 
L 515.526745 51.290337 
L 515.972372 333.12392 
L 520.874276 333.12392 
L 521.319903 40.188674 
L 521.765531 53.122692 
L 522.211158 333.12392 
L 522.656786 333.12392 
L 523.102414 58.701906 
L 523.548041 333.12392 
L 523.993669 333.12392 
L 524.439296 61.596658 
L 524.884924 333.12392 
L 525.776179 333.12392 
L 526.221807 58.95464 
L 526.667434 45.11501 
L 527.113062 53.061253 
L 527.558689 333.12392 
L 539.145006 333.12392 
L 539.590634 54.603177 
L 540.036262 333.12392 
L 540.481889 37.143821 
L 540.927517 333.12392 
L 543.155655 333.12392 
L 543.601282 41.251822 
L 544.04691 333.12392 
L 548.948813 333.12392 
L 549.394441 40.172545 
L 549.840068 333.12392 
L 551.176951 333.12392 
L 551.622579 51.372247 
L 552.068206 333.12392 
L 553.405089 333.12392 
L 553.850716 52.923179 
L 554.296344 333.12392 
L 555.187599 333.12392 
L 555.633227 39.150416 
L 556.078854 333.12392 
L 556.524482 53.516438 
L 556.97011 333.12392 
L 560.980758 333.12392 
L 561.426385 45.695032 
L 561.872013 333.12392 
L 562.31764 57.959248 
L 562.763268 38.041397 
L 563.208896 333.12392 
L 569.893309 333.12392 
L 570.338937 49.684541 
L 570.784564 333.12392 
L 592.174688 333.12392 
L 592.620316 42.111138 
L 593.065943 333.12392 
L 596.185336 333.12392 
L 596.630964 47.5074 
L 597.076592 333.12392 
L 597.522219 333.12392 
L 597.967847 56.69107 
L 598.413474 333.12392 
L 598.859102 55.148674 
L 599.30473 333.12392 
L 603.315378 333.12392 
L 603.761005 44.394075 
L 604.206633 45.761698 
L 604.65226 333.12392 
L 609.108536 333.12392 
L 609.554164 37.383946 
L 609.999791 333.12392 
L 614.01044 333.12392 
L 614.456067 51.104608 
L 614.901695 333.12392 
L 615.347322 333.12392 
L 615.79295 53.254207 
L 616.238578 333.12392 
L 617.57546 333.12392 
L 618.021088 41.283208 
L 618.466715 333.12392 
L 622.031736 333.12392 
L 622.477364 45.964695 
L 622.922991 333.12392 
L 626.488012 333.12392 
L 626.933639 60.007054 
L 627.379267 333.12392 
L 639.411212 333.12392 
L 639.856839 40.486873 
L 640.302467 333.12392 
L 650.106274 333.12392 
L 650.551901 55.450084 
L 650.997529 333.12392 
L 660.355708 333.12392 
L 660.801335 43.689285 
L 661.246963 333.12392 
L 664.366356 333.12392 
L 664.811984 37.618428 
L 665.257611 44.007261 
L 665.703239 333.12392 
L 671.05077 333.12392 
L 671.496397 40.194144 
L 671.942025 333.12392 
L 674.61579 333.12392 
L 675.061418 65.982208 
L 675.507045 333.12392 
L 676.398301 333.12392 
L 676.843928 62.523497 
L 677.289556 333.12392 
L 679.517694 333.12392 
L 679.963321 63.511395 
L 680.408949 333.12392 
L 680.408949 333.12392 
" style="fill:none;stroke:#82c6e2;stroke-linecap:round;stroke-width:1.5;"/>
   </g>
   <g id="patch_3">
    <path d="M 41.245313 347.949375 
L 41.245313 21.789375 
" style="fill:none;stroke:#ffffff;stroke-linecap:square;stroke-linejoin:miter;stroke-width:0.8;"/>
   </g>
   <g id="patch_4">
    <path d="M 710.845313 347.949375 
L 710.845313 21.789375 
" style="fill:none;stroke:#ffffff;stroke-linecap:square;stroke-linejoin:miter;stroke-width:0.8;"/>
   </g>
   <g id="patch_5">
    <path d="M 41.245312 347.949375 
L 710.845312 347.949375 
" style="fill:none;stroke:#ffffff;stroke-linecap:square;stroke-linejoin:miter;stroke-width:0.8;"/>
   </g>
   <g id="patch_6">
    <path d="M 41.245312 21.789375 
L 710.845312 21.789375 
" style="fill:none;stroke:#ffffff;stroke-linecap:square;stroke-linejoin:miter;stroke-width:0.8;"/>
   </g>
   <g id="text_17">
    <!-- Sales and Media -->
    <defs>
     <path d="M 4.5 23 
L 13.421875 23.78125 
Q 14.0625 18.40625 16.375 14.96875 
Q 18.703125 11.53125 23.578125 9.40625 
Q 28.46875 7.28125 34.578125 7.28125 
Q 39.984375 7.28125 44.140625 8.890625 
Q 48.296875 10.5 50.3125 13.296875 
Q 52.34375 16.109375 52.34375 19.4375 
Q 52.34375 22.796875 50.390625 25.3125 
Q 48.4375 27.828125 43.953125 29.546875 
Q 41.0625 30.671875 31.203125 33.03125 
Q 21.34375 35.40625 17.390625 37.5 
Q 12.25 40.1875 9.734375 44.15625 
Q 7.234375 48.140625 7.234375 53.078125 
Q 7.234375 58.5 10.296875 63.203125 
Q 13.375 67.921875 19.28125 70.359375 
Q 25.203125 72.796875 32.421875 72.796875 
Q 40.375 72.796875 46.453125 70.234375 
Q 52.546875 67.671875 55.8125 62.6875 
Q 59.078125 57.71875 59.328125 51.421875 
L 50.25 50.734375 
Q 49.515625 57.515625 45.28125 60.984375 
Q 41.0625 64.453125 32.8125 64.453125 
Q 24.21875 64.453125 20.28125 61.296875 
Q 16.359375 58.15625 16.359375 53.71875 
Q 16.359375 49.859375 19.140625 47.359375 
Q 21.875 44.875 33.421875 42.265625 
Q 44.96875 39.65625 49.265625 37.703125 
Q 55.515625 34.8125 58.484375 30.390625 
Q 61.46875 25.984375 61.46875 20.21875 
Q 61.46875 14.5 58.203125 9.4375 
Q 54.9375 4.390625 48.796875 1.578125 
Q 42.671875 -1.21875 35.015625 -1.21875 
Q 25.296875 -1.21875 18.71875 1.609375 
Q 12.15625 4.4375 8.421875 10.125 
Q 4.6875 15.828125 4.5 23 
z
" id="ArialMT-83"/>
     <path d="M 6.390625 0 
L 6.390625 71.578125 
L 15.1875 71.578125 
L 15.1875 0 
z
" id="ArialMT-108"/>
     <path d="M 3.078125 15.484375 
L 11.765625 16.84375 
Q 12.5 11.625 15.84375 8.84375 
Q 19.1875 6.0625 25.203125 6.0625 
Q 31.25 6.0625 34.171875 8.515625 
Q 37.109375 10.984375 37.109375 14.3125 
Q 37.109375 17.28125 34.515625 19 
Q 32.71875 20.171875 25.53125 21.96875 
Q 15.875 24.421875 12.140625 26.203125 
Q 8.40625 27.984375 6.46875 31.125 
Q 4.546875 34.28125 4.546875 38.09375 
Q 4.546875 41.546875 6.125 44.5 
Q 7.71875 47.46875 10.453125 49.421875 
Q 12.5 50.921875 16.03125 51.96875 
Q 19.578125 53.03125 23.640625 53.03125 
Q 29.734375 53.03125 34.34375 51.265625 
Q 38.96875 49.515625 41.15625 46.5 
Q 43.359375 43.5 44.1875 38.484375 
L 35.59375 37.3125 
Q 35.015625 41.3125 32.203125 43.546875 
Q 29.390625 45.796875 24.265625 45.796875 
Q 18.21875 45.796875 15.625 43.796875 
Q 13.03125 41.796875 13.03125 39.109375 
Q 13.03125 37.40625 14.109375 36.03125 
Q 15.1875 34.625 17.484375 33.6875 
Q 18.796875 33.203125 25.25 31.453125 
Q 34.578125 28.953125 38.25 27.359375 
Q 41.9375 25.78125 44.03125 22.75 
Q 46.140625 19.734375 46.140625 15.234375 
Q 46.140625 10.84375 43.578125 6.953125 
Q 41.015625 3.078125 36.171875 0.953125 
Q 31.34375 -1.171875 25.25 -1.171875 
Q 15.140625 -1.171875 9.84375 3.03125 
Q 4.546875 7.234375 3.078125 15.484375 
z
" id="ArialMT-115"/>
     <path id="ArialMT-32"/>
     <path d="M 6.59375 0 
L 6.59375 51.859375 
L 14.5 51.859375 
L 14.5 44.484375 
Q 20.21875 53.03125 31 53.03125 
Q 35.6875 53.03125 39.625 51.34375 
Q 43.5625 49.65625 45.515625 46.921875 
Q 47.46875 44.1875 48.25 40.4375 
Q 48.734375 37.984375 48.734375 31.890625 
L 48.734375 0 
L 39.9375 0 
L 39.9375 31.546875 
Q 39.9375 36.921875 38.90625 39.578125 
Q 37.890625 42.234375 35.28125 43.8125 
Q 32.671875 45.40625 29.15625 45.40625 
Q 23.53125 45.40625 19.453125 41.84375 
Q 15.375 38.28125 15.375 28.328125 
L 15.375 0 
z
" id="ArialMT-110"/>
     <path d="M 7.421875 0 
L 7.421875 71.578125 
L 21.6875 71.578125 
L 38.625 20.90625 
Q 40.96875 13.8125 42.046875 10.296875 
Q 43.265625 14.203125 45.84375 21.78125 
L 62.984375 71.578125 
L 75.734375 71.578125 
L 75.734375 0 
L 66.609375 0 
L 66.609375 59.90625 
L 45.796875 0 
L 37.25 0 
L 16.546875 60.9375 
L 16.546875 0 
z
" id="ArialMT-77"/>
    </defs>
    <g style="fill:#262626;" transform="translate(331.352813 15.789375)scale(0.12 -0.12)">
     <use xlink:href="#ArialMT-83"/>
     <use x="66.699219" xlink:href="#ArialMT-97"/>
     <use x="122.314453" xlink:href="#ArialMT-108"/>
     <use x="144.53125" xlink:href="#ArialMT-101"/>
     <use x="200.146484" xlink:href="#ArialMT-115"/>
     <use x="250.146484" xlink:href="#ArialMT-32"/>
     <use x="277.929688" xlink:href="#ArialMT-97"/>
     <use x="333.544922" xlink:href="#ArialMT-110"/>
     <use x="389.160156" xlink:href="#ArialMT-100"/>
     <use x="444.775391" xlink:href="#ArialMT-32"/>
     <use x="472.558594" xlink:href="#ArialMT-77"/>
     <use x="555.859375" xlink:href="#ArialMT-101"/>
     <use x="611.474609" xlink:href="#ArialMT-100"/>
     <use x="667.089844" xlink:href="#ArialMT-105"/>
     <use x="689.306641" xlink:href="#ArialMT-97"/>
    </g>
   </g>
   <g id="legend_1">
    <g id="patch_7">
     <path d="M 791.922938 233.107488 
L 851.157313 233.107488 
Q 853.157313 233.107488 853.157313 231.107488 
L 853.157313 217.962175 
Q 853.157313 215.962175 851.157313 215.962175 
L 791.922938 215.962175 
Q 789.922938 215.962175 789.922938 217.962175 
L 789.922938 231.107488 
Q 789.922938 233.107488 791.922938 233.107488 
z
" style="fill:#e6e6e6;opacity:0.8;stroke:#cccccc;stroke-linejoin:miter;"/>
    </g>
    <g id="line2d_22">
     <path d="M 793.922938 223.619988 
L 813.922938 223.619988 
" style="fill:none;stroke:#82c6e2;stroke-linecap:round;stroke-width:1.5;"/>
    </g>
    <g id="line2d_23"/>
    <g id="text_18">
     <!-- media -->
     <g style="fill:#262626;" transform="translate(821.922938 227.119988)scale(0.1 -0.1)">
      <use xlink:href="#ArialMT-109"/>
      <use x="83.300781" xlink:href="#ArialMT-101"/>
      <use x="138.916016" xlink:href="#ArialMT-100"/>
      <use x="194.53125" xlink:href="#ArialMT-105"/>
      <use x="216.748047" xlink:href="#ArialMT-97"/>
     </g>
    </g>
   </g>
  </g>
  <g id="axes_2">
   <g id="matplotlib.axis_3">
    <g id="ytick_7">
     <g id="line2d_24">
      <defs>
       <path d="M 0 0 
L 3.5 0 
" id="m1094c38beb" style="stroke:#262626;stroke-width:0.8;"/>
      </defs>
      <g>
       <use style="fill:#262626;stroke:#262626;stroke-width:0.8;" x="710.845313" xlink:href="#m1094c38beb" y="307.161431"/>
      </g>
     </g>
     <g id="text_19">
      <!-- 4 -->
      <g style="fill:#8c613c;" transform="translate(717.845313 310.740337)scale(0.1 -0.1)">
       <use xlink:href="#ArialMT-52"/>
      </g>
     </g>
    </g>
    <g id="ytick_8">
     <g id="line2d_25">
      <g>
       <use style="fill:#262626;stroke:#262626;stroke-width:0.8;" x="710.845313" xlink:href="#m1094c38beb" y="250.834401"/>
      </g>
     </g>
     <g id="text_20">
      <!-- 6 -->
      <g style="fill:#8c613c;" transform="translate(717.845313 254.413307)scale(0.1 -0.1)">
       <use xlink:href="#ArialMT-54"/>
      </g>
     </g>
    </g>
    <g id="ytick_9">
     <g id="line2d_26">
      <g>
       <use style="fill:#262626;stroke:#262626;stroke-width:0.8;" x="710.845313" xlink:href="#m1094c38beb" y="194.50737"/>
      </g>
     </g>
     <g id="text_21">
      <!-- 8 -->
      <g style="fill:#8c613c;" transform="translate(717.845313 198.086276)scale(0.1 -0.1)">
       <use xlink:href="#ArialMT-56"/>
      </g>
     </g>
    </g>
    <g id="ytick_10">
     <g id="line2d_27">
      <g>
       <use style="fill:#262626;stroke:#262626;stroke-width:0.8;" x="710.845313" xlink:href="#m1094c38beb" y="138.18034"/>
      </g>
     </g>
     <g id="text_22">
      <!-- 10 -->
      <g style="fill:#8c613c;" transform="translate(717.845313 141.759246)scale(0.1 -0.1)">
       <use xlink:href="#ArialMT-49"/>
       <use x="55.615234" xlink:href="#ArialMT-48"/>
      </g>
     </g>
    </g>
    <g id="ytick_11">
     <g id="line2d_28">
      <g>
       <use style="fill:#262626;stroke:#262626;stroke-width:0.8;" x="710.845313" xlink:href="#m1094c38beb" y="81.85331"/>
      </g>
     </g>
     <g id="text_23">
      <!-- 12 -->
      <g style="fill:#8c613c;" transform="translate(717.845313 85.432216)scale(0.1 -0.1)">
       <use xlink:href="#ArialMT-49"/>
       <use x="55.615234" xlink:href="#ArialMT-50"/>
      </g>
     </g>
    </g>
    <g id="ytick_12">
     <g id="line2d_29">
      <g>
       <use style="fill:#262626;stroke:#262626;stroke-width:0.8;" x="710.845313" xlink:href="#m1094c38beb" y="25.526279"/>
      </g>
     </g>
     <g id="text_24">
      <!-- 14 -->
      <g style="fill:#8c613c;" transform="translate(717.845313 29.105185)scale(0.1 -0.1)">
       <use xlink:href="#ArialMT-49"/>
       <use x="55.615234" xlink:href="#ArialMT-52"/>
      </g>
     </g>
    </g>
    <g id="text_25">
     <!-- sales -->
     <g style="fill:#8c613c;" transform="translate(740.125 196.54125)rotate(-90)scale(0.1 -0.1)">
      <use xlink:href="#ArialMT-115"/>
      <use x="50" xlink:href="#ArialMT-97"/>
      <use x="105.615234" xlink:href="#ArialMT-108"/>
      <use x="127.832031" xlink:href="#ArialMT-101"/>
      <use x="183.447266" xlink:href="#ArialMT-115"/>
     </g>
    </g>
   </g>
   <g id="line2d_30">
    <path clip-path="url(#p0f55f936e5)" d="M 71.681676 243.554933 
L 72.127304 246.021553 
L 72.572931 257.743786 
L 73.018559 251.723989 
L 73.464186 270.963936 
L 73.909814 257.578676 
L 74.355442 265.813942 
L 74.801069 257.798304 
L 75.246697 257.679496 
L 75.692324 233.059516 
L 76.137952 234.864193 
L 76.58358 256.602359 
L 77.029207 253.442303 
L 77.474835 263.449402 
L 77.920462 267.933978 
L 78.36609 260.346548 
L 78.811717 270.192039 
L 79.257345 256.476702 
L 79.702973 258.828786 
L 80.1486 249.825012 
L 80.594228 252.472696 
L 81.039855 263.273888 
L 81.485483 259.415288 
L 81.93111 250.977314 
L 82.822366 245.342872 
L 83.267993 244.495574 
L 83.713621 250.918032 
L 84.159248 247.420814 
L 84.604876 241.173397 
L 85.050504 249.200923 
L 85.496131 217.614589 
L 85.941759 200.049131 
L 86.833014 232.876822 
L 87.278641 246.157893 
L 87.724269 241.954608 
L 88.169897 245.975795 
L 89.061152 235.478521 
L 89.506779 240.25371 
L 89.952407 210.214046 
L 90.398034 214.829863 
L 90.843662 221.624286 
L 91.28929 233.494794 
L 91.734917 225.603501 
L 92.180545 242.544535 
L 92.626172 213.168554 
L 93.0718 206.336952 
L 93.517428 205.022236 
L 93.963055 195.416029 
L 94.408683 202.429123 
L 94.85431 213.514608 
L 95.299938 201.808192 
L 95.745565 197.720478 
L 96.191193 213.575897 
L 96.636821 218.477967 
L 97.082448 225.918697 
L 97.528076 220.139691 
L 97.973703 207.915061 
L 98.419331 213.030387 
L 99.310586 219.55534 
L 99.756214 215.963777 
L 100.201841 214.569085 
L 100.647469 212.510047 
L 101.093096 220.483886 
L 101.538724 182.259539 
L 101.984351 198.529951 
L 102.429979 193.067506 
L 102.875607 216.484161 
L 103.321234 209.946864 
L 103.766862 205.455916 
L 104.212489 212.059098 
L 104.658117 208.259012 
L 105.103745 201.653682 
L 105.549372 206.138865 
L 105.995 206.915966 
L 106.440627 218.02978 
L 106.886255 213.441168 
L 107.331882 201.947613 
L 107.77751 204.318205 
L 108.223138 203.170129 
L 108.668765 203.381981 
L 109.114393 199.445181 
L 109.56002 207.953652 
L 110.005648 205.596337 
L 110.451275 211.885937 
L 110.896903 213.130184 
L 111.342531 215.053259 
L 111.788158 210.667089 
L 112.233786 196.846541 
L 112.679413 214.272061 
L 113.125041 207.194103 
L 113.570669 212.750701 
L 114.461924 204.54784 
L 114.907551 209.50142 
L 115.353179 199.497857 
L 115.798806 197.096117 
L 116.244434 218.52877 
L 116.690062 209.853349 
L 117.135689 180.280463 
L 117.581317 180.849071 
L 118.026944 199.544427 
L 118.918199 213.559884 
L 119.363827 215.940687 
L 119.809455 199.44372 
L 120.255082 218.152074 
L 120.70071 168.882912 
L 121.146337 184.777103 
L 122.037593 205.917575 
L 122.48322 210.921962 
L 122.928848 207.633803 
L 123.374475 211.251957 
L 123.820103 207.418299 
L 124.26573 211.066876 
L 124.711358 216.569462 
L 125.156986 216.453035 
L 125.602613 217.417858 
L 126.048241 206.718631 
L 126.939496 223.544398 
L 127.385123 210.80757 
L 127.830751 204.761647 
L 128.276379 209.166448 
L 128.722006 217.124847 
L 129.167634 222.845221 
L 129.613261 214.817602 
L 130.058889 215.084148 
L 130.504517 193.187197 
L 130.950144 191.328444 
L 131.395772 194.022357 
L 131.841399 213.130183 
L 132.287027 213.444259 
L 132.732654 192.189672 
L 133.178282 158.67151 
L 134.069537 206.956456 
L 134.515165 213.290156 
L 134.960792 210.743914 
L 135.40642 212.336661 
L 135.852047 206.011122 
L 136.743303 213.673623 
L 137.18893 209.401829 
L 137.634558 182.825092 
L 138.080185 198.866233 
L 138.525813 194.185845 
L 138.971441 211.426952 
L 139.417068 182.980815 
L 139.862696 183.575149 
L 140.308323 193.428892 
L 140.753951 211.400283 
L 141.199578 202.323579 
L 141.645206 209.386954 
L 142.090834 195.358522 
L 142.536461 209.64652 
L 142.982089 203.0059 
L 143.427716 208.135258 
L 143.873344 190.591497 
L 144.318971 209.472762 
L 144.764599 198.947381 
L 145.210227 205.455168 
L 145.655854 202.741964 
L 146.547109 192.775439 
L 146.992737 190.028377 
L 147.438365 207.356612 
L 147.883992 196.748182 
L 148.32962 189.62448 
L 148.775247 206.961386 
L 149.220875 195.356807 
L 149.666502 196.836056 
L 150.11213 167.843403 
L 151.449013 206.788028 
L 151.89464 164.371321 
L 152.340268 170.107215 
L 153.231523 198.883645 
L 153.677151 205.089102 
L 154.122778 249.214397 
L 154.568406 202.415076 
L 155.014033 200.414931 
L 155.459661 199.944156 
L 155.905289 198.021244 
L 156.350916 176.128241 
L 156.796544 178.339992 
L 157.242171 191.907123 
L 157.687799 194.358405 
L 158.133426 192.921959 
L 158.579054 198.56197 
L 159.024682 197.031604 
L 159.470309 188.189735 
L 159.915937 207.219945 
L 160.361564 208.070227 
L 160.807192 197.723496 
L 161.252819 191.194793 
L 161.698447 204.149224 
L 162.144075 193.476744 
L 162.589702 203.177449 
L 163.03533 208.065437 
L 163.480957 210.309377 
L 163.926585 201.669001 
L 164.372213 210.836551 
L 164.81784 205.674123 
L 165.263468 197.63961 
L 165.709095 208.688871 
L 166.154723 199.934273 
L 166.60035 214.522169 
L 167.045978 211.002033 
L 167.491606 216.200823 
L 167.937233 208.108455 
L 168.382861 204.333677 
L 168.828488 208.473974 
L 169.274116 202.116472 
L 169.719743 213.338441 
L 170.165371 207.898893 
L 170.610999 212.14765 
L 171.056626 207.106271 
L 171.502254 178.82814 
L 171.947881 185.12012 
L 172.393509 204.550587 
L 172.839137 213.611431 
L 173.284764 212.330733 
L 173.730392 209.434921 
L 174.176019 207.286965 
L 174.621647 203.442704 
L 175.067274 211.827355 
L 175.512902 215.655193 
L 175.95853 194.05097 
L 176.404157 212.094942 
L 176.849785 200.513021 
L 177.295412 204.525701 
L 177.74104 176.256092 
L 178.186667 156.873251 
L 178.632295 149.33589 
L 179.52355 194.625103 
L 179.969178 168.488202 
L 180.414805 177.770929 
L 180.860433 159.550311 
L 181.306061 154.629097 
L 181.751688 169.472393 
L 182.197316 194.596537 
L 182.642943 199.454824 
L 183.088571 202.6972 
L 183.534198 188.864836 
L 183.979826 195.391331 
L 184.425454 194.145226 
L 184.871081 169.454479 
L 185.316709 173.129206 
L 185.762336 169.729732 
L 186.207964 194.697458 
L 186.653591 196.199744 
L 187.099219 161.22295 
L 187.544847 184.98354 
L 187.990474 180.459297 
L 188.436102 193.003764 
L 188.881729 196.162345 
L 189.327357 187.405319 
L 189.772985 189.683871 
L 190.218612 199.893761 
L 190.66424 193.167624 
L 191.109867 205.610908 
L 191.555495 187.538406 
L 192.001122 187.474939 
L 192.44675 167.731713 
L 192.892378 166.596434 
L 193.338005 186.485656 
L 193.783633 194.361544 
L 194.22926 186.611004 
L 194.674888 192.916263 
L 195.120515 189.499291 
L 195.566143 192.463298 
L 196.011771 191.778126 
L 196.457398 191.740046 
L 196.903026 193.893828 
L 197.348653 188.483912 
L 197.794281 194.032658 
L 198.239909 190.749382 
L 199.131164 200.266791 
L 199.576791 186.930663 
L 200.022419 189.737496 
L 200.468046 180.176773 
L 200.913674 199.502328 
L 201.359302 195.389992 
L 201.804929 195.565959 
L 202.250557 189.937332 
L 202.696184 199.074355 
L 203.141812 203.562589 
L 203.587439 190.953343 
L 204.033067 200.372891 
L 204.478695 194.516482 
L 204.924322 196.093322 
L 205.36995 201.521487 
L 206.261205 205.63267 
L 206.706833 177.138587 
L 207.15246 180.22104 
L 207.598088 201.084043 
L 208.043715 207.551149 
L 208.489343 215.776855 
L 208.93497 216.439348 
L 209.380598 212.430665 
L 209.826226 224.766875 
L 210.271853 176.530389 
L 210.717481 203.210599 
L 211.608736 213.55347 
L 212.499991 236.621189 
L 212.945619 227.991285 
L 213.391246 232.29581 
L 213.836874 242.120957 
L 214.282501 229.670474 
L 214.728129 232.128815 
L 215.173757 202.030288 
L 215.619384 223.601879 
L 216.065012 238.517998 
L 216.510639 244.056878 
L 216.956267 244.464559 
L 217.401894 241.005109 
L 217.847522 240.500471 
L 218.29315 243.87519 
L 218.738777 251.4436 
L 219.184405 250.793987 
L 219.630032 261.207278 
L 220.07566 258.954759 
L 220.521287 268.913746 
L 220.966915 264.142279 
L 221.412543 266.274186 
L 221.85817 259.332441 
L 222.303798 272.557281 
L 222.749425 272.965273 
L 223.195053 274.307326 
L 223.640681 280.332606 
L 224.086308 284.373131 
L 224.531936 274.56726 
L 224.977563 289.380899 
L 225.423191 293.245063 
L 225.868818 283.77483 
L 226.314446 282.852616 
L 226.760074 293.60589 
L 227.205701 295.124749 
L 227.651329 292.594069 
L 228.096956 299.596697 
L 228.542584 301.33948 
L 228.988211 293.207253 
L 229.433839 295.862214 
L 229.879467 292.908237 
L 230.325094 281.768607 
L 230.770722 284.948374 
L 231.216349 291.132058 
L 231.661977 308.407781 
L 232.107605 300.006318 
L 232.553232 297.026645 
L 232.99886 280.875409 
L 233.444487 284.009244 
L 233.890115 258.767902 
L 234.335742 247.788056 
L 235.226998 289.933734 
L 235.672625 307.020788 
L 236.118253 299.442513 
L 236.56388 297.465412 
L 237.009508 300.80732 
L 237.455135 301.880478 
L 237.900763 304.545855 
L 238.346391 305.809135 
L 238.792018 305.582861 
L 239.237646 289.838838 
L 239.683273 290.668294 
L 240.128901 292.533393 
L 240.574529 289.89833 
L 241.020156 284.988937 
L 241.465784 285.169586 
L 241.911411 289.792067 
L 242.357039 275.032555 
L 242.802666 276.337274 
L 243.248294 274.374227 
L 243.693922 268.927893 
L 244.139549 275.959947 
L 244.585177 234.338682 
L 245.030804 246.601261 
L 245.476432 248.905581 
L 246.367687 265.441768 
L 246.813315 228.136291 
L 247.258942 233.271554 
L 248.150197 250.480023 
L 248.595825 248.033595 
L 249.041453 240.587236 
L 249.48708 214.123626 
L 249.932708 221.216784 
L 250.378335 237.004686 
L 251.26959 229.508536 
L 251.715218 218.403909 
L 252.160846 223.118818 
L 252.606473 212.230602 
L 253.052101 205.364131 
L 253.497728 203.107758 
L 253.943356 190.592527 
L 254.388983 170.207458 
L 254.834611 181.801123 
L 255.280239 208.58742 
L 256.171494 212.958437 
L 256.617121 209.949053 
L 257.062749 203.5152 
L 257.508377 211.796935 
L 257.954004 197.769788 
L 258.399632 205.905694 
L 258.845259 200.606951 
L 259.290887 208.565974 
L 259.736514 195.275324 
L 260.182142 189.884667 
L 260.62777 199.682733 
L 261.073397 201.837264 
L 261.964652 185.130255 
L 262.41028 200.430918 
L 262.855907 197.480183 
L 263.301535 192.835335 
L 263.747163 193.969247 
L 264.19279 193.065254 
L 264.638418 199.413203 
L 265.084045 183.495851 
L 265.529673 184.142288 
L 265.975301 194.895257 
L 266.420928 176.433179 
L 266.866556 174.5256 
L 267.312183 159.828831 
L 267.757811 155.404802 
L 268.203438 175.090585 
L 268.649066 180.767747 
L 269.094694 159.359634 
L 269.540321 120.659237 
L 269.985949 151.361819 
L 270.877204 183.745495 
L 271.322831 169.115026 
L 271.768459 168.738921 
L 272.214087 169.983366 
L 272.659714 148.098701 
L 273.105342 163.267281 
L 273.550969 164.576073 
L 273.996597 178.808307 
L 274.442225 171.371989 
L 274.887852 172.513164 
L 275.33348 182.528651 
L 275.779107 173.643924 
L 276.224735 175.29045 
L 276.670362 194.94209 
L 277.561618 155.139906 
L 278.452873 175.025371 
L 278.8985 181.567157 
L 279.344128 178.502843 
L 279.789755 162.204125 
L 280.235383 160.690046 
L 280.681011 141.86228 
L 281.126638 152.147155 
L 281.572266 179.489214 
L 282.017893 186.207875 
L 282.463521 155.391751 
L 282.909149 158.005515 
L 283.354776 177.297423 
L 283.800404 152.662647 
L 284.246031 177.805291 
L 284.691659 184.851783 
L 285.137286 186.733115 
L 285.582914 197.313935 
L 286.028542 196.65223 
L 286.474169 193.675354 
L 286.919797 161.636139 
L 287.365424 183.654058 
L 287.811052 182.167432 
L 288.256679 160.676416 
L 289.147935 186.472943 
L 289.593562 192.717238 
L 290.03919 196.579924 
L 290.484817 188.150333 
L 290.930445 202.692032 
L 291.376073 197.133478 
L 291.8217 196.053874 
L 292.267328 199.670665 
L 292.712955 186.550561 
L 293.158583 150.602555 
L 293.60421 162.044392 
L 294.049838 183.571493 
L 294.495466 196.452353 
L 294.941093 204.662002 
L 295.386721 196.22466 
L 295.832348 201.599972 
L 296.277976 170.587822 
L 296.723603 178.117304 
L 297.169231 166.926955 
L 297.614859 182.46332 
L 298.060486 185.116109 
L 298.506114 197.989324 
L 298.951741 174.754991 
L 299.842997 187.10339 
L 300.288624 185.819711 
L 300.734252 196.98431 
L 301.179879 193.430788 
L 301.625507 164.270076 
L 302.516762 190.651505 
L 302.96239 196.144194 
L 303.408017 160.845783 
L 304.299272 173.693773 
L 304.7449 186.505077 
L 305.190527 186.819883 
L 305.636155 188.758735 
L 306.081783 179.532769 
L 306.52741 188.861626 
L 306.973038 189.121398 
L 307.418665 150.718245 
L 307.864293 139.615231 
L 308.309921 135.329893 
L 308.755548 168.846083 
L 309.201176 150.570166 
L 309.646803 163.088761 
L 310.092431 169.683846 
L 310.538058 179.72949 
L 310.983686 179.8651 
L 311.429314 145.916266 
L 311.874941 158.322028 
L 312.320569 159.780315 
L 312.766196 160.289504 
L 313.211824 176.716363 
L 313.657451 174.01464 
L 314.103079 172.616552 
L 314.548707 164.492959 
L 314.994334 175.166016 
L 315.439962 179.435092 
L 315.885589 182.024062 
L 316.331217 175.403227 
L 316.776845 234.17338 
L 317.222472 164.300267 
L 317.6681 166.009582 
L 318.113727 182.214862 
L 318.559355 180.852694 
L 319.004982 176.942398 
L 319.45061 170.041602 
L 319.896238 178.18635 
L 320.341865 182.787358 
L 320.787493 180.142231 
L 321.23312 184.050475 
L 321.678748 177.84357 
L 322.124375 185.980401 
L 322.570003 185.629705 
L 323.015631 176.991787 
L 323.461258 188.6563 
L 323.906886 167.806559 
L 324.352513 166.289565 
L 324.798141 179.198034 
L 325.243769 184.621697 
L 325.689396 186.487193 
L 326.135024 189.211412 
L 326.580651 190.110634 
L 327.026279 167.879924 
L 327.471906 170.632184 
L 327.917534 150.718348 
L 328.363162 178.330009 
L 329.254417 187.673193 
L 329.700044 163.559167 
L 330.145672 166.36777 
L 331.036927 205.479028 
L 331.482555 194.318051 
L 331.928182 193.632312 
L 332.37381 188.13678 
L 332.819437 189.265415 
L 333.265065 192.990379 
L 333.710693 191.700764 
L 334.601948 202.703842 
L 335.047575 195.001736 
L 335.493203 189.903085 
L 335.93883 191.459582 
L 336.384458 190.126937 
L 336.830086 196.849464 
L 337.275713 195.504039 
L 337.721341 190.807582 
L 338.166968 196.087703 
L 338.612596 195.352309 
L 339.058223 190.169106 
L 339.503851 186.926818 
L 340.395106 196.403058 
L 340.840734 193.275489 
L 341.286361 187.241708 
L 341.731989 186.549865 
L 342.177617 185.494733 
L 342.623244 183.130865 
L 343.068872 185.240244 
L 343.514499 182.981462 
L 343.960127 183.928624 
L 344.405754 176.407532 
L 344.851382 148.083781 
L 345.29701 168.550495 
L 345.742637 172.246197 
L 346.188265 179.594374 
L 346.633892 180.544597 
L 347.07952 168.225096 
L 347.525147 176.368627 
L 347.970775 181.497975 
L 348.416403 172.961111 
L 348.86203 174.18327 
L 349.307658 173.41672 
L 349.753285 164.400882 
L 350.198913 172.097185 
L 350.644541 175.308822 
L 351.090168 184.174855 
L 351.981423 165.048346 
L 352.427051 172.59992 
L 352.872678 184.427004 
L 353.763934 165.789714 
L 354.209561 168.156272 
L 354.655189 175.85371 
L 355.100816 174.242119 
L 355.546444 173.349584 
L 355.992071 174.79027 
L 356.437699 182.554247 
L 356.883327 166.927976 
L 357.328954 164.29881 
L 357.774582 180.125831 
L 358.220209 164.802993 
L 358.665837 172.668922 
L 359.111465 165.510215 
L 359.557092 172.56276 
L 360.00272 172.421777 
L 360.448347 171.539608 
L 360.893975 178.583481 
L 361.339602 167.943897 
L 361.78523 181.57385 
L 362.230858 178.1514 
L 362.676485 173.608389 
L 363.122113 180.150471 
L 363.56774 173.670548 
L 364.013368 171.115875 
L 364.458995 174.02657 
L 364.904623 191.549352 
L 365.350251 153.115715 
L 365.795878 155.99254 
L 366.241506 180.69178 
L 366.687133 180.741273 
L 367.132761 182.236203 
L 367.578389 194.058358 
L 368.024016 183.825009 
L 368.469644 188.339928 
L 368.915271 187.624661 
L 369.360899 198.204415 
L 369.806526 193.451528 
L 370.252154 205.499325 
L 370.697782 210.385102 
L 371.143409 198.494417 
L 371.589037 167.214814 
L 372.480292 194.849307 
L 372.925919 180.61218 
L 373.371547 193.749634 
L 374.70843 217.938591 
L 375.154057 213.577076 
L 375.599685 192.906343 
L 376.49094 210.302314 
L 376.936568 230.644948 
L 377.382195 226.571858 
L 377.827823 235.121516 
L 378.27345 233.73825 
L 378.719078 242.037941 
L 379.164706 246.320088 
L 379.610333 243.498615 
L 380.055961 257.491909 
L 380.501588 251.425621 
L 380.947216 261.71036 
L 381.392843 251.194474 
L 381.838471 252.600962 
L 382.284099 266.319451 
L 382.729726 261.976513 
L 383.175354 262.253128 
L 383.620981 265.149166 
L 384.066609 271.918998 
L 384.512236 271.858142 
L 384.957864 254.60439 
L 385.403492 260.241445 
L 386.294747 291.188159 
L 386.740374 289.480011 
L 387.186002 290.285081 
L 387.63163 288.172776 
L 388.077257 295.634389 
L 388.522885 295.824513 
L 388.968512 297.977373 
L 389.41414 262.455133 
L 389.859767 296.340181 
L 390.305395 274.551246 
L 390.751023 280.758628 
L 391.19665 302.885065 
L 391.642278 281.196846 
L 392.087905 292.882164 
L 392.533533 293.475954 
L 392.97916 322.617171 
L 393.424788 310.423336 
L 393.870416 308.259284 
L 394.316043 324.485351 
L 394.761671 314.865403 
L 395.207298 325.061809 
L 395.652926 319.64546 
L 396.098554 321.236384 
L 396.544181 333.12392 
L 396.989809 316.842402 
L 397.435436 317.910906 
L 397.881064 309.719096 
L 398.326691 313.787585 
L 398.772319 303.355825 
L 399.217947 314.539375 
L 399.663574 314.475536 
L 400.109202 313.518232 
L 400.554829 313.418553 
L 401.000457 321.709228 
L 401.446084 308.718359 
L 401.891712 317.208602 
L 402.33734 300.9817 
L 402.782967 308.36936 
L 403.674222 300.561718 
L 404.11985 269.978774 
L 404.565478 272.645894 
L 405.011105 273.549137 
L 405.456733 263.343511 
L 405.90236 261.266947 
L 406.347988 255.721475 
L 406.793615 276.059831 
L 407.239243 276.31431 
L 407.684871 276.762149 
L 408.130498 270.514067 
L 408.576126 271.434342 
L 409.021753 261.93597 
L 409.467381 259.862899 
L 409.913008 199.209794 
L 410.358636 184.131039 
L 410.804264 174.969172 
L 411.249891 180.297215 
L 411.695519 178.76453 
L 412.141146 179.909549 
L 412.586774 179.706738 
L 413.032402 161.684318 
L 413.478029 164.553357 
L 414.369284 149.363991 
L 414.814912 150.10157 
L 415.260539 155.699031 
L 415.706167 149.236143 
L 416.151795 150.980279 
L 416.597422 149.031573 
L 417.04305 140.696571 
L 417.488677 144.963643 
L 417.934305 150.430776 
L 418.379932 140.766252 
L 418.82556 135.333709 
L 419.271188 122.942799 
L 419.716815 132.250822 
L 420.162443 124.641007 
L 420.60807 100.992067 
L 421.053698 97.702314 
L 421.944953 113.707615 
L 422.390581 101.782907 
L 422.836208 95.945621 
L 423.281836 101.325552 
L 423.727463 112.00207 
L 424.173091 109.17083 
L 424.618719 111.091464 
L 425.064346 114.335821 
L 425.509974 92.224572 
L 425.955601 91.695665 
L 426.401229 81.703501 
L 426.846856 82.324919 
L 427.292484 96.11016 
L 427.738112 89.729057 
L 428.183739 97.869439 
L 428.629367 94.575194 
L 429.074994 98.360033 
L 429.520622 95.484162 
L 429.96625 62.848129 
L 430.411877 57.252147 
L 431.303132 94.041829 
L 431.74876 70.87833 
L 432.194387 67.753534 
L 432.640015 82.812154 
L 433.085643 67.104558 
L 433.53127 86.237693 
L 433.976898 89.31511 
L 434.422525 105.216869 
L 434.868153 88.067325 
L 435.31378 85.566937 
L 435.759408 89.987666 
L 436.205036 99.863974 
L 436.650663 85.93162 
L 437.096291 95.726427 
L 437.541918 101.207886 
L 437.987546 99.913363 
L 438.433174 71.158195 
L 438.878801 75.13924 
L 439.324429 86.294642 
L 439.770056 103.355563 
L 440.215684 88.906426 
L 440.661311 96.974973 
L 441.106939 100.575717 
L 441.552567 90.771598 
L 441.998194 104.201824 
L 442.443822 107.260216 
L 442.889449 91.503678 
L 443.335077 62.873418 
L 443.780704 83.225249 
L 444.226332 91.227997 
L 444.67196 107.802716 
L 445.117587 102.05132 
L 445.563215 105.5228 
L 446.008842 104.199251 
L 446.45447 75.048835 
L 446.900098 91.116741 
L 447.345725 97.939444 
L 447.791353 117.038025 
L 448.23698 81.630585 
L 448.682608 88.003539 
L 449.573863 108.819594 
L 450.019491 105.87753 
L 450.465118 120.424541 
L 450.910746 120.885857 
L 451.356373 110.271804 
L 451.802001 125.444556 
L 452.247628 113.603107 
L 452.693256 121.923485 
L 453.138884 107.015912 
L 453.584511 115.021028 
L 454.030139 118.176354 
L 454.475766 110.487139 
L 454.921394 123.80056 
L 455.367022 123.083565 
L 455.812649 125.565076 
L 456.258277 123.568437 
L 456.703904 118.526598 
L 457.595159 113.615491 
L 458.040787 102.646131 
L 458.486415 99.915093 
L 458.932042 115.033087 
L 459.37767 119.725989 
L 459.823297 105.143292 
L 460.268925 116.304066 
L 460.714552 112.475747 
L 461.16018 106.030908 
L 461.605808 110.198081 
L 462.051435 118.48716 
L 462.497063 122.511983 
L 462.94269 114.805088 
L 463.388318 117.094213 
L 463.833946 121.69989 
L 464.279573 110.930681 
L 464.725201 109.927956 
L 465.170828 100.565707 
L 465.616456 111.644937 
L 466.062083 107.0823 
L 466.507711 111.44266 
L 466.953339 101.796012 
L 467.844594 111.338153 
L 468.290221 103.818379 
L 468.735849 100.55877 
L 469.181476 100.348548 
L 469.627104 94.940316 
L 470.072732 108.055383 
L 470.518359 103.740455 
L 470.963987 94.516549 
L 471.409614 101.369075 
L 471.855242 95.134257 
L 472.30087 109.369018 
L 472.746497 79.741442 
L 473.192125 95.912548 
L 473.637752 87.078836 
L 474.08338 95.172602 
L 474.529007 90.473047 
L 474.974635 84.004905 
L 475.420263 85.50904 
L 475.86589 92.96403 
L 476.311518 92.38183 
L 477.202773 78.308851 
L 477.6484 90.392776 
L 478.094028 80.549216 
L 478.539656 93.101286 
L 478.985283 86.618791 
L 479.430911 59.37537 
L 479.876538 131.268228 
L 480.322166 87.298493 
L 480.767794 87.159917 
L 481.213421 97.169677 
L 481.659049 99.833764 
L 482.104676 99.322285 
L 482.550304 99.209439 
L 482.995931 92.135204 
L 483.441559 94.867657 
L 483.887187 94.582219 
L 484.332814 97.115706 
L 484.778442 103.736446 
L 485.224069 97.388596 
L 485.669697 95.594578 
L 486.115324 72.189184 
L 486.560952 80.836198 
L 487.00658 99.042909 
L 487.897835 111.632608 
L 488.343462 82.324302 
L 488.78909 98.771627 
L 489.234718 109.265238 
L 490.125973 114.482113 
L 490.5716 111.568896 
L 491.017228 113.664041 
L 491.462855 113.422623 
L 491.908483 110.801982 
L 492.354111 117.423355 
L 492.799738 91.22954 
L 493.245366 88.602807 
L 493.690993 106.693192 
L 494.136621 117.56869 
L 494.582248 116.372844 
L 495.027876 117.958741 
L 495.473504 95.438787 
L 496.364759 111.925658 
L 496.810386 112.308724 
L 497.256014 120.649656 
L 497.701642 117.784354 
L 498.147269 112.71022 
L 498.592897 117.907919 
L 499.038524 112.393771 
L 499.484152 124.20273 
L 499.929779 115.776501 
L 500.375407 114.038157 
L 500.821035 113.753976 
L 501.266662 122.54892 
L 501.71229 105.771788 
L 502.157917 116.632113 
L 502.603545 109.163346 
L 503.049172 110.20508 
L 503.4948 77.3822 
L 503.940428 76.455556 
L 504.386055 105.063477 
L 504.831683 110.451598 
L 505.27731 104.825544 
L 505.722938 111.202173 
L 506.168566 99.650916 
L 506.614193 98.386194 
L 507.059821 99.068593 
L 507.505448 99.97738 
L 507.951076 92.695734 
L 508.396703 106.035458 
L 508.842331 98.291589 
L 509.287959 101.974839 
L 509.733586 91.979132 
L 510.179214 106.524004 
L 510.624841 95.591059 
L 511.070469 92.812654 
L 511.516096 99.340925 
L 511.961724 96.871302 
L 512.407352 92.636863 
L 512.852979 86.764008 
L 513.298607 97.424505 
L 513.744234 95.948948 
L 514.189862 84.325617 
L 514.63549 65.967044 
L 515.081117 74.913566 
L 515.526745 49.049261 
L 515.972372 72.024563 
L 516.418 73.31483 
L 516.863627 92.717304 
L 517.309255 89.768465 
L 517.754883 83.487428 
L 518.20051 90.075285 
L 518.646138 84.58288 
L 519.091765 89.301403 
L 519.537393 77.910567 
L 519.98302 80.426942 
L 520.428648 96.984576 
L 520.874276 86.852347 
L 521.319903 66.9163 
L 521.765531 41.994788 
L 522.211158 60.206035 
L 522.656786 87.426958 
L 523.102414 59.97212 
L 523.993669 85.055284 
L 524.439296 70.600165 
L 524.884924 74.534942 
L 525.330551 83.489747 
L 525.776179 97.009805 
L 526.221807 87.129992 
L 526.667434 51.198853 
L 527.113062 50.434082 
L 527.558689 71.23303 
L 528.004317 99.32299 
L 528.449944 110.552303 
L 528.895572 96.866715 
L 529.3412 106.939114 
L 529.786827 108.746267 
L 530.232455 105.23483 
L 530.678082 111.547214 
L 531.12371 99.184362 
L 531.569338 114.215977 
L 532.90622 109.010187 
L 533.351848 124.146037 
L 533.797475 124.326456 
L 534.243103 116.873443 
L 534.688731 121.646134 
L 535.134358 122.384734 
L 535.579986 138.458134 
L 536.025613 124.412618 
L 536.471241 139.879469 
L 536.916868 137.040727 
L 537.362496 141.565443 
L 538.253751 154.115329 
L 538.699379 158.799615 
L 539.145006 151.191057 
L 539.590634 136.95375 
L 540.036262 144.369112 
L 540.481889 124.089258 
L 540.927517 157.788423 
L 541.373144 152.245533 
L 541.818772 183.960975 
L 542.264399 174.076797 
L 542.710027 176.845617 
L 543.155655 177.218266 
L 543.601282 156.111072 
L 544.04691 154.798998 
L 544.492537 178.711423 
L 544.938165 187.764311 
L 545.383792 201.147542 
L 545.82942 199.756215 
L 546.275048 195.066353 
L 546.720675 208.444663 
L 547.166303 209.313221 
L 547.61193 208.12135 
L 548.503186 232.170157 
L 548.948813 221.637528 
L 549.394441 192.700938 
L 549.840068 215.767139 
L 550.285696 217.654216 
L 550.731323 230.795259 
L 551.176951 250.058652 
L 551.622579 218.306126 
L 552.068206 224.366552 
L 552.513834 235.473041 
L 552.959461 250.840117 
L 553.405089 253.166025 
L 553.850716 214.533616 
L 554.741972 247.797425 
L 555.187599 255.507635 
L 555.633227 225.58768 
L 556.078854 236.385324 
L 556.524482 222.665879 
L 556.97011 243.013895 
L 557.861365 263.582094 
L 558.306992 258.512825 
L 558.75262 266.047699 
L 559.643875 252.204158 
L 560.089503 257.905607 
L 560.53513 261.220949 
L 560.980758 265.673756 
L 561.426385 221.228003 
L 561.872013 242.40803 
L 562.31764 213.853634 
L 562.763268 202.329204 
L 564.100151 258.579462 
L 564.545778 244.316854 
L 564.991406 240.482472 
L 565.437034 247.775194 
L 565.882661 240.059539 
L 566.328289 236.391337 
L 566.773916 230.623465 
L 567.219544 231.102586 
L 567.665171 237.396221 
L 568.556427 220.936227 
L 569.002054 214.331386 
L 569.447682 219.355765 
L 569.893309 200.303103 
L 570.338937 193.08199 
L 570.784564 188.974017 
L 571.230192 192.98583 
L 571.67582 200.342942 
L 572.121447 202.735941 
L 572.567075 189.846186 
L 573.012702 186.848728 
L 573.45833 185.242847 
L 573.903958 180.228408 
L 574.349585 181.086183 
L 574.795213 184.434032 
L 575.686468 167.781125 
L 576.577723 161.932739 
L 577.023351 155.896274 
L 577.468978 159.134605 
L 578.360233 146.560856 
L 578.805861 147.315758 
L 579.251488 150.961039 
L 579.697116 146.561879 
L 580.142744 133.724638 
L 580.588371 127.891473 
L 581.033999 126.518223 
L 581.479626 129.308098 
L 581.925254 134.945031 
L 582.816509 114.6993 
L 583.707764 120.300162 
L 584.153392 113.519206 
L 584.599019 122.212838 
L 585.044647 117.05715 
L 585.490275 117.393843 
L 585.935902 106.861524 
L 586.38153 103.773868 
L 587.272785 109.498108 
L 587.718412 103.185054 
L 588.16404 104.372265 
L 588.609668 104.737505 
L 589.055295 97.027282 
L 589.500923 101.951251 
L 589.94655 105.309395 
L 590.392178 102.921294 
L 590.837806 103.302362 
L 591.283433 91.855575 
L 591.729061 91.436381 
L 592.174688 90.806152 
L 592.620316 59.571186 
L 593.065943 62.272768 
L 593.511571 81.935073 
L 593.957199 85.974385 
L 594.402826 96.516097 
L 594.848454 79.259452 
L 595.294081 93.495734 
L 595.739709 89.99416 
L 596.185336 88.923575 
L 596.630964 66.646929 
L 597.076592 64.313018 
L 597.522219 73.180565 
L 597.967847 59.144371 
L 598.413474 73.13875 
L 598.859102 36.61483 
L 599.30473 61.063987 
L 599.750357 59.199699 
L 600.195985 88.505168 
L 600.641612 78.661978 
L 601.08724 79.807967 
L 601.532867 86.026541 
L 601.978495 76.68636 
L 602.424123 87.214175 
L 602.86975 87.310669 
L 603.315378 105.228894 
L 603.761005 56.401305 
L 604.206633 46.233521 
L 604.65226 59.514087 
L 605.097888 83.29326 
L 605.543516 90.438738 
L 605.989143 86.547519 
L 606.434771 89.696269 
L 606.880398 86.510069 
L 607.326026 84.160976 
L 607.771654 94.181409 
L 608.217281 95.64248 
L 608.662909 88.420372 
L 609.108536 88.863653 
L 609.554164 63.359407 
L 609.999791 80.837963 
L 610.445419 84.558654 
L 610.891047 97.79413 
L 611.336674 93.425131 
L 611.782302 103.521757 
L 612.227929 110.617597 
L 612.673557 98.266825 
L 613.119184 117.474969 
L 613.564812 108.075169 
L 614.01044 110.584631 
L 614.456067 84.681201 
L 614.901695 90.599562 
L 615.347322 90.334613 
L 615.79295 76.764477 
L 616.238578 90.13112 
L 616.684205 92.927724 
L 617.129833 115.844112 
L 617.57546 117.135767 
L 618.021088 78.276122 
L 618.466715 87.208162 
L 619.357971 118.265723 
L 619.803598 103.851538 
L 620.249226 121.89562 
L 620.694853 115.638487 
L 621.140481 110.96812 
L 621.586108 102.018822 
L 622.031736 109.852413 
L 622.477364 81.803937 
L 622.922991 94.227179 
L 623.368619 97.664994 
L 623.814246 110.050291 
L 624.259874 119.072925 
L 624.705502 105.07461 
L 625.151129 103.426291 
L 625.596757 103.657147 
L 626.042384 107.226648 
L 626.488012 111.978054 
L 626.933639 92.792317 
L 627.379267 84.46574 
L 627.824895 88.021405 
L 628.270522 97.236715 
L 628.71615 97.219134 
L 629.161777 101.179025 
L 629.607405 93.559885 
L 630.053032 93.388579 
L 630.49866 99.87387 
L 630.944288 92.577537 
L 631.389915 98.304781 
L 631.835543 91.149172 
L 632.28117 100.427251 
L 632.726798 98.932266 
L 633.172426 85.050702 
L 633.618053 84.724384 
L 634.063681 85.466746 
L 634.509308 87.611957 
L 634.954936 100.69507 
L 635.400563 86.817062 
L 635.846191 83.062441 
L 636.291819 87.91819 
L 636.737446 88.268907 
L 637.183074 75.53661 
L 637.628701 83.499855 
L 638.074329 80.159697 
L 638.519956 77.998006 
L 638.965584 87.71413 
L 639.411212 80.779292 
L 639.411212 80.779292 
" style="fill:none;stroke:#8c613c;stroke-linecap:round;stroke-width:1.5;"/>
   </g>
   <g id="patch_8">
    <path d="M 41.245313 347.949375 
L 41.245313 21.789375 
" style="fill:none;stroke:#ffffff;stroke-linecap:square;stroke-linejoin:miter;stroke-width:0.8;"/>
   </g>
   <g id="patch_9">
    <path d="M 710.845313 347.949375 
L 710.845313 21.789375 
" style="fill:none;stroke:#ffffff;stroke-linecap:square;stroke-linejoin:miter;stroke-width:0.8;"/>
   </g>
   <g id="patch_10">
    <path d="M 41.245312 347.949375 
L 710.845312 347.949375 
" style="fill:none;stroke:#ffffff;stroke-linecap:square;stroke-linejoin:miter;stroke-width:0.8;"/>
   </g>
   <g id="patch_11">
    <path d="M 41.245312 21.789375 
L 710.845312 21.789375 
" style="fill:none;stroke:#ffffff;stroke-linecap:square;stroke-linejoin:miter;stroke-width:0.8;"/>
   </g>
   <g id="legend_2">
    <g id="patch_12">
     <path d="M 795.813563 207.014688 
L 851.157313 207.014688 
Q 853.157313 207.014688 853.157313 205.014688 
L 853.157313 191.869375 
Q 853.157313 189.869375 851.157313 189.869375 
L 795.813563 189.869375 
Q 793.813563 189.869375 793.813563 191.869375 
L 793.813563 205.014688 
Q 793.813563 207.014688 795.813563 207.014688 
z
" style="fill:#e6e6e6;opacity:0.8;stroke:#cccccc;stroke-linejoin:miter;"/>
    </g>
    <g id="line2d_31">
     <path d="M 797.813563 197.527188 
L 817.813563 197.527188 
" style="fill:none;stroke:#8c613c;stroke-linecap:round;stroke-width:1.5;"/>
    </g>
    <g id="line2d_32"/>
    <g id="text_26">
     <!-- sales -->
     <g style="fill:#262626;" transform="translate(825.813563 201.027188)scale(0.1 -0.1)">
      <use xlink:href="#ArialMT-115"/>
      <use x="50" xlink:href="#ArialMT-97"/>
      <use x="105.615234" xlink:href="#ArialMT-108"/>
      <use x="127.832031" xlink:href="#ArialMT-101"/>
      <use x="183.447266" xlink:href="#ArialMT-115"/>
     </g>
    </g>
   </g>
  </g>
 </g>
 <defs>
  <clipPath id="p0f55f936e5">
   <rect height="326.16" width="669.6" x="41.245313" y="21.789375"/>
  </clipPath>
 </defs>
</svg>
