<?xml version="1.0" encoding="utf-8" standalone="no"?>
<!DOCTYPE svg PUBLIC "-//W3C//DTD SVG 1.1//EN"
  "http://www.w3.org/Graphics/SVG/1.1/DTD/svg11.dtd">
<!-- Created with matplotlib (https://matplotlib.org/) -->
<svg height="371.294688pt" version="1.1" viewBox="0 0 799.24375 371.294688" width="799.24375pt" xmlns="http://www.w3.org/2000/svg" xmlns:xlink="http://www.w3.org/1999/xlink">
 <defs>
  <style type="text/css">
*{stroke-linecap:butt;stroke-linejoin:round;}
  </style>
 </defs>
 <g id="figure_1">
  <g id="patch_1">
   <path d="M 0 371.294688 
L 799.24375 371.294688 
L 799.24375 0 
L 0 0 
z
" style="fill:none;"/>
  </g>
  <g id="axes_1">
   <g id="patch_2">
    <path d="M 28.1 347.949375 
L 697.7 347.949375 
L 697.7 21.789375 
L 28.1 21.789375 
z
" style="fill:#e6e6e6;"/>
   </g>
   <g id="matplotlib.axis_1">
    <g id="xtick_1">
     <g id="line2d_1">
      <path clip-path="url(#p8140bdd02d)" d="M 58.536364 347.949375 
L 58.536364 21.789375 
" style="fill:none;stroke:#ffffff;stroke-linecap:round;stroke-width:0.8;"/>
     </g>
     <g id="text_1">
      <!-- 0.0 -->
      <defs>
       <path d="M 4.15625 35.296875 
Q 4.15625 48 6.765625 55.734375 
Q 9.375 63.484375 14.515625 67.671875 
Q 19.671875 71.875 27.484375 71.875 
Q 33.25 71.875 37.59375 69.546875 
Q 41.9375 67.234375 44.765625 62.859375 
Q 47.609375 58.5 49.21875 52.21875 
Q 50.828125 45.953125 50.828125 35.296875 
Q 50.828125 22.703125 48.234375 14.96875 
Q 45.65625 7.234375 40.5 3 
Q 35.359375 -1.21875 27.484375 -1.21875 
Q 17.140625 -1.21875 11.234375 6.203125 
Q 4.15625 15.140625 4.15625 35.296875 
z
M 13.1875 35.296875 
Q 13.1875 17.671875 17.3125 11.828125 
Q 21.4375 6 27.484375 6 
Q 33.546875 6 37.671875 11.859375 
Q 41.796875 17.71875 41.796875 35.296875 
Q 41.796875 52.984375 37.671875 58.78125 
Q 33.546875 64.59375 27.390625 64.59375 
Q 21.34375 64.59375 17.71875 59.46875 
Q 13.1875 52.9375 13.1875 35.296875 
z
" id="ArialMT-48"/>
       <path d="M 9.078125 0 
L 9.078125 10.015625 
L 19.09375 10.015625 
L 19.09375 0 
z
" id="ArialMT-46"/>
      </defs>
      <g style="fill:#262626;" transform="translate(51.586364 362.107188)scale(0.1 -0.1)">
       <use xlink:href="#ArialMT-48"/>
       <use x="55.615234" xlink:href="#ArialMT-46"/>
       <use x="83.398438" xlink:href="#ArialMT-48"/>
      </g>
     </g>
    </g>
    <g id="xtick_2">
     <g id="line2d_2">
      <path clip-path="url(#p8140bdd02d)" d="M 180.281818 347.949375 
L 180.281818 21.789375 
" style="fill:none;stroke:#ffffff;stroke-linecap:round;stroke-width:0.8;"/>
     </g>
     <g id="text_2">
      <!-- 0.2 -->
      <defs>
       <path d="M 50.34375 8.453125 
L 50.34375 0 
L 3.03125 0 
Q 2.9375 3.171875 4.046875 6.109375 
Q 5.859375 10.9375 9.828125 15.625 
Q 13.8125 20.3125 21.34375 26.46875 
Q 33.015625 36.03125 37.109375 41.625 
Q 41.21875 47.21875 41.21875 52.203125 
Q 41.21875 57.421875 37.46875 61 
Q 33.734375 64.59375 27.734375 64.59375 
Q 21.390625 64.59375 17.578125 60.78125 
Q 13.765625 56.984375 13.71875 50.25 
L 4.6875 51.171875 
Q 5.609375 61.28125 11.65625 66.578125 
Q 17.71875 71.875 27.9375 71.875 
Q 38.234375 71.875 44.234375 66.15625 
Q 50.25 60.453125 50.25 52 
Q 50.25 47.703125 48.484375 43.546875 
Q 46.734375 39.40625 42.65625 34.8125 
Q 38.578125 30.21875 29.109375 22.21875 
Q 21.1875 15.578125 18.9375 13.203125 
Q 16.703125 10.84375 15.234375 8.453125 
z
" id="ArialMT-50"/>
      </defs>
      <g style="fill:#262626;" transform="translate(173.331818 362.107188)scale(0.1 -0.1)">
       <use xlink:href="#ArialMT-48"/>
       <use x="55.615234" xlink:href="#ArialMT-46"/>
       <use x="83.398438" xlink:href="#ArialMT-50"/>
      </g>
     </g>
    </g>
    <g id="xtick_3">
     <g id="line2d_3">
      <path clip-path="url(#p8140bdd02d)" d="M 302.027273 347.949375 
L 302.027273 21.789375 
" style="fill:none;stroke:#ffffff;stroke-linecap:round;stroke-width:0.8;"/>
     </g>
     <g id="text_3">
      <!-- 0.4 -->
      <defs>
       <path d="M 32.328125 0 
L 32.328125 17.140625 
L 1.265625 17.140625 
L 1.265625 25.203125 
L 33.9375 71.578125 
L 41.109375 71.578125 
L 41.109375 25.203125 
L 50.78125 25.203125 
L 50.78125 17.140625 
L 41.109375 17.140625 
L 41.109375 0 
z
M 32.328125 25.203125 
L 32.328125 57.46875 
L 9.90625 25.203125 
z
" id="ArialMT-52"/>
      </defs>
      <g style="fill:#262626;" transform="translate(295.077273 362.107188)scale(0.1 -0.1)">
       <use xlink:href="#ArialMT-48"/>
       <use x="55.615234" xlink:href="#ArialMT-46"/>
       <use x="83.398438" xlink:href="#ArialMT-52"/>
      </g>
     </g>
    </g>
    <g id="xtick_4">
     <g id="line2d_4">
      <path clip-path="url(#p8140bdd02d)" d="M 423.772727 347.949375 
L 423.772727 21.789375 
" style="fill:none;stroke:#ffffff;stroke-linecap:round;stroke-width:0.8;"/>
     </g>
     <g id="text_4">
      <!-- 0.6 -->
      <defs>
       <path d="M 49.75 54.046875 
L 41.015625 53.375 
Q 39.84375 58.546875 37.703125 60.890625 
Q 34.125 64.65625 28.90625 64.65625 
Q 24.703125 64.65625 21.53125 62.3125 
Q 17.390625 59.28125 14.984375 53.46875 
Q 12.59375 47.65625 12.5 36.921875 
Q 15.671875 41.75 20.265625 44.09375 
Q 24.859375 46.4375 29.890625 46.4375 
Q 38.671875 46.4375 44.84375 39.96875 
Q 51.03125 33.5 51.03125 23.25 
Q 51.03125 16.5 48.125 10.71875 
Q 45.21875 4.9375 40.140625 1.859375 
Q 35.0625 -1.21875 28.609375 -1.21875 
Q 17.625 -1.21875 10.6875 6.859375 
Q 3.765625 14.9375 3.765625 33.5 
Q 3.765625 54.25 11.421875 63.671875 
Q 18.109375 71.875 29.4375 71.875 
Q 37.890625 71.875 43.28125 67.140625 
Q 48.6875 62.40625 49.75 54.046875 
z
M 13.875 23.1875 
Q 13.875 18.65625 15.796875 14.5 
Q 17.71875 10.359375 21.1875 8.171875 
Q 24.65625 6 28.46875 6 
Q 34.03125 6 38.03125 10.484375 
Q 42.046875 14.984375 42.046875 22.703125 
Q 42.046875 30.125 38.078125 34.390625 
Q 34.125 38.671875 28.125 38.671875 
Q 22.171875 38.671875 18.015625 34.390625 
Q 13.875 30.125 13.875 23.1875 
z
" id="ArialMT-54"/>
      </defs>
      <g style="fill:#262626;" transform="translate(416.822727 362.107188)scale(0.1 -0.1)">
       <use xlink:href="#ArialMT-48"/>
       <use x="55.615234" xlink:href="#ArialMT-46"/>
       <use x="83.398438" xlink:href="#ArialMT-54"/>
      </g>
     </g>
    </g>
    <g id="xtick_5">
     <g id="line2d_5">
      <path clip-path="url(#p8140bdd02d)" d="M 545.518182 347.949375 
L 545.518182 21.789375 
" style="fill:none;stroke:#ffffff;stroke-linecap:round;stroke-width:0.8;"/>
     </g>
     <g id="text_5">
      <!-- 0.8 -->
      <defs>
       <path d="M 17.671875 38.8125 
Q 12.203125 40.828125 9.5625 44.53125 
Q 6.9375 48.25 6.9375 53.421875 
Q 6.9375 61.234375 12.546875 66.546875 
Q 18.171875 71.875 27.484375 71.875 
Q 36.859375 71.875 42.578125 66.421875 
Q 48.296875 60.984375 48.296875 53.171875 
Q 48.296875 48.1875 45.671875 44.5 
Q 43.0625 40.828125 37.75 38.8125 
Q 44.34375 36.671875 47.78125 31.875 
Q 51.21875 27.09375 51.21875 20.453125 
Q 51.21875 11.28125 44.71875 5.03125 
Q 38.234375 -1.21875 27.640625 -1.21875 
Q 17.046875 -1.21875 10.546875 5.046875 
Q 4.046875 11.328125 4.046875 20.703125 
Q 4.046875 27.6875 7.59375 32.390625 
Q 11.140625 37.109375 17.671875 38.8125 
z
M 15.921875 53.71875 
Q 15.921875 48.640625 19.1875 45.40625 
Q 22.46875 42.1875 27.6875 42.1875 
Q 32.765625 42.1875 36.015625 45.375 
Q 39.265625 48.578125 39.265625 53.21875 
Q 39.265625 58.0625 35.90625 61.359375 
Q 32.5625 64.65625 27.59375 64.65625 
Q 22.5625 64.65625 19.234375 61.421875 
Q 15.921875 58.203125 15.921875 53.71875 
z
M 13.09375 20.65625 
Q 13.09375 16.890625 14.875 13.375 
Q 16.65625 9.859375 20.171875 7.921875 
Q 23.6875 6 27.734375 6 
Q 34.03125 6 38.125 10.046875 
Q 42.234375 14.109375 42.234375 20.359375 
Q 42.234375 26.703125 38.015625 30.859375 
Q 33.796875 35.015625 27.4375 35.015625 
Q 21.234375 35.015625 17.15625 30.90625 
Q 13.09375 26.8125 13.09375 20.65625 
z
" id="ArialMT-56"/>
      </defs>
      <g style="fill:#262626;" transform="translate(538.568182 362.107188)scale(0.1 -0.1)">
       <use xlink:href="#ArialMT-48"/>
       <use x="55.615234" xlink:href="#ArialMT-46"/>
       <use x="83.398438" xlink:href="#ArialMT-56"/>
      </g>
     </g>
    </g>
    <g id="xtick_6">
     <g id="line2d_6">
      <path clip-path="url(#p8140bdd02d)" d="M 667.263636 347.949375 
L 667.263636 21.789375 
" style="fill:none;stroke:#ffffff;stroke-linecap:round;stroke-width:0.8;"/>
     </g>
     <g id="text_6">
      <!-- 1.0 -->
      <defs>
       <path d="M 37.25 0 
L 28.46875 0 
L 28.46875 56 
Q 25.296875 52.984375 20.140625 49.953125 
Q 14.984375 46.921875 10.890625 45.40625 
L 10.890625 53.90625 
Q 18.265625 57.375 23.78125 62.296875 
Q 29.296875 67.234375 31.59375 71.875 
L 37.25 71.875 
z
" id="ArialMT-49"/>
      </defs>
      <g style="fill:#262626;" transform="translate(660.313636 362.107188)scale(0.1 -0.1)">
       <use xlink:href="#ArialMT-49"/>
       <use x="55.615234" xlink:href="#ArialMT-46"/>
       <use x="83.398438" xlink:href="#ArialMT-48"/>
      </g>
     </g>
    </g>
   </g>
   <g id="matplotlib.axis_2">
    <g id="ytick_1">
     <g id="line2d_7">
      <path clip-path="url(#p8140bdd02d)" d="M 28.1 333.12392 
L 697.7 333.12392 
" style="fill:none;stroke:#ffffff;stroke-linecap:round;stroke-width:0.8;"/>
     </g>
     <g id="text_7">
      <!-- 0.0 -->
      <g style="fill:#262626;" transform="translate(7.2 336.702827)scale(0.1 -0.1)">
       <use xlink:href="#ArialMT-48"/>
       <use x="55.615234" xlink:href="#ArialMT-46"/>
       <use x="83.398438" xlink:href="#ArialMT-48"/>
      </g>
     </g>
    </g>
    <g id="ytick_2">
     <g id="line2d_8">
      <path clip-path="url(#p8140bdd02d)" d="M 28.1 286.387351 
L 697.7 286.387351 
" style="fill:none;stroke:#ffffff;stroke-linecap:round;stroke-width:0.8;"/>
     </g>
     <g id="text_8">
      <!-- 0.5 -->
      <defs>
       <path d="M 4.15625 18.75 
L 13.375 19.53125 
Q 14.40625 12.796875 18.140625 9.390625 
Q 21.875 6 27.15625 6 
Q 33.5 6 37.890625 10.78125 
Q 42.28125 15.578125 42.28125 23.484375 
Q 42.28125 31 38.0625 35.34375 
Q 33.84375 39.703125 27 39.703125 
Q 22.75 39.703125 19.328125 37.765625 
Q 15.921875 35.84375 13.96875 32.765625 
L 5.71875 33.84375 
L 12.640625 70.609375 
L 48.25 70.609375 
L 48.25 62.203125 
L 19.671875 62.203125 
L 15.828125 42.96875 
Q 22.265625 47.46875 29.34375 47.46875 
Q 38.71875 47.46875 45.15625 40.96875 
Q 51.609375 34.46875 51.609375 24.265625 
Q 51.609375 14.546875 45.953125 7.46875 
Q 39.0625 -1.21875 27.15625 -1.21875 
Q 17.390625 -1.21875 11.203125 4.25 
Q 5.03125 9.71875 4.15625 18.75 
z
" id="ArialMT-53"/>
      </defs>
      <g style="fill:#262626;" transform="translate(7.2 289.966257)scale(0.1 -0.1)">
       <use xlink:href="#ArialMT-48"/>
       <use x="55.615234" xlink:href="#ArialMT-46"/>
       <use x="83.398438" xlink:href="#ArialMT-53"/>
      </g>
     </g>
    </g>
    <g id="ytick_3">
     <g id="line2d_9">
      <path clip-path="url(#p8140bdd02d)" d="M 28.1 239.650781 
L 697.7 239.650781 
" style="fill:none;stroke:#ffffff;stroke-linecap:round;stroke-width:0.8;"/>
     </g>
     <g id="text_9">
      <!-- 1.0 -->
      <g style="fill:#262626;" transform="translate(7.2 243.229688)scale(0.1 -0.1)">
       <use xlink:href="#ArialMT-49"/>
       <use x="55.615234" xlink:href="#ArialMT-46"/>
       <use x="83.398438" xlink:href="#ArialMT-48"/>
      </g>
     </g>
    </g>
    <g id="ytick_4">
     <g id="line2d_10">
      <path clip-path="url(#p8140bdd02d)" d="M 28.1 192.914212 
L 697.7 192.914212 
" style="fill:none;stroke:#ffffff;stroke-linecap:round;stroke-width:0.8;"/>
     </g>
     <g id="text_10">
      <!-- 1.5 -->
      <g style="fill:#262626;" transform="translate(7.2 196.493118)scale(0.1 -0.1)">
       <use xlink:href="#ArialMT-49"/>
       <use x="55.615234" xlink:href="#ArialMT-46"/>
       <use x="83.398438" xlink:href="#ArialMT-53"/>
      </g>
     </g>
    </g>
    <g id="ytick_5">
     <g id="line2d_11">
      <path clip-path="url(#p8140bdd02d)" d="M 28.1 146.177642 
L 697.7 146.177642 
" style="fill:none;stroke:#ffffff;stroke-linecap:round;stroke-width:0.8;"/>
     </g>
     <g id="text_11">
      <!-- 2.0 -->
      <g style="fill:#262626;" transform="translate(7.2 149.756549)scale(0.1 -0.1)">
       <use xlink:href="#ArialMT-50"/>
       <use x="55.615234" xlink:href="#ArialMT-46"/>
       <use x="83.398438" xlink:href="#ArialMT-48"/>
      </g>
     </g>
    </g>
    <g id="ytick_6">
     <g id="line2d_12">
      <path clip-path="url(#p8140bdd02d)" d="M 28.1 99.441073 
L 697.7 99.441073 
" style="fill:none;stroke:#ffffff;stroke-linecap:round;stroke-width:0.8;"/>
     </g>
     <g id="text_12">
      <!-- 2.5 -->
      <g style="fill:#262626;" transform="translate(7.2 103.019979)scale(0.1 -0.1)">
       <use xlink:href="#ArialMT-50"/>
       <use x="55.615234" xlink:href="#ArialMT-46"/>
       <use x="83.398438" xlink:href="#ArialMT-53"/>
      </g>
     </g>
    </g>
    <g id="ytick_7">
     <g id="line2d_13">
      <path clip-path="url(#p8140bdd02d)" d="M 28.1 52.704503 
L 697.7 52.704503 
" style="fill:none;stroke:#ffffff;stroke-linecap:round;stroke-width:0.8;"/>
     </g>
     <g id="text_13">
      <!-- 3.0 -->
      <defs>
       <path d="M 4.203125 18.890625 
L 12.984375 20.0625 
Q 14.5 12.59375 18.140625 9.296875 
Q 21.78125 6 27 6 
Q 33.203125 6 37.46875 10.296875 
Q 41.75 14.59375 41.75 20.953125 
Q 41.75 27 37.796875 30.921875 
Q 33.84375 34.859375 27.734375 34.859375 
Q 25.25 34.859375 21.53125 33.890625 
L 22.515625 41.609375 
Q 23.390625 41.5 23.921875 41.5 
Q 29.546875 41.5 34.03125 44.421875 
Q 38.53125 47.359375 38.53125 53.46875 
Q 38.53125 58.296875 35.25 61.46875 
Q 31.984375 64.65625 26.8125 64.65625 
Q 21.6875 64.65625 18.265625 61.421875 
Q 14.84375 58.203125 13.875 51.765625 
L 5.078125 53.328125 
Q 6.6875 62.15625 12.390625 67.015625 
Q 18.109375 71.875 26.609375 71.875 
Q 32.46875 71.875 37.390625 69.359375 
Q 42.328125 66.84375 44.9375 62.5 
Q 47.5625 58.15625 47.5625 53.265625 
Q 47.5625 48.640625 45.0625 44.828125 
Q 42.578125 41.015625 37.703125 38.765625 
Q 44.046875 37.3125 47.5625 32.6875 
Q 51.078125 28.078125 51.078125 21.140625 
Q 51.078125 11.765625 44.234375 5.25 
Q 37.40625 -1.265625 26.953125 -1.265625 
Q 17.53125 -1.265625 11.296875 4.34375 
Q 5.078125 9.96875 4.203125 18.890625 
z
" id="ArialMT-51"/>
      </defs>
      <g style="fill:#262626;" transform="translate(7.2 56.28341)scale(0.1 -0.1)">
       <use xlink:href="#ArialMT-51"/>
       <use x="55.615234" xlink:href="#ArialMT-46"/>
       <use x="83.398438" xlink:href="#ArialMT-48"/>
      </g>
     </g>
    </g>
   </g>
   <g id="line2d_14">
    <path clip-path="url(#p8140bdd02d)" d="M 58.536364 333.12392 
L 61.595295 307.60311 
L 64.654226 283.609617 
L 67.713157 261.086027 
L 70.772088 239.976469 
L 73.831019 220.226582 
L 76.88995 201.783493 
L 79.948881 184.595784 
L 83.007812 168.613463 
L 86.066743 153.787939 
L 89.125674 140.071992 
L 92.184605 127.419748 
L 95.243536 115.786652 
L 98.302467 105.129438 
L 101.361398 95.406108 
L 104.420329 86.575902 
L 107.47926 78.599275 
L 110.538191 71.437872 
L 113.597122 65.054501 
L 116.656053 59.41311 
L 119.714984 54.478762 
L 122.773915 50.217614 
L 125.832846 46.59689 
L 128.891777 43.584859 
L 131.950708 41.150812 
L 135.009639 39.265041 
L 138.06857 37.898815 
L 141.127501 37.024358 
L 144.186432 36.61483 
L 147.245363 36.6443 
L 150.304294 37.087733 
L 153.363225 37.920963 
L 156.422156 39.120675 
L 159.481087 40.664384 
L 162.540018 42.530416 
L 165.598949 44.69789 
L 168.65788 47.146696 
L 171.716811 49.857476 
L 174.775742 52.811609 
L 177.834673 55.991189 
L 180.893604 59.379008 
L 183.952535 62.958539 
L 190.070397 70.62993 
L 196.188259 78.886099 
L 202.306122 87.617584 
L 208.423984 96.724203 
L 217.600777 110.889834 
L 229.836501 130.305418 
L 248.190087 159.49646 
L 257.36688 173.739647 
L 266.543673 187.564604 
L 275.720466 200.866062 
L 281.838328 209.401203 
L 287.95619 217.647133 
L 294.074052 225.588131 
L 300.191914 233.211866 
L 306.309776 240.509123 
L 312.427638 247.47353 
L 318.5455 254.101313 
L 324.663362 260.391053 
L 330.781224 266.343456 
L 336.899086 271.961137 
L 343.016948 277.248416 
L 349.13481 282.211123 
L 355.252672 286.856415 
L 361.370534 291.192602 
L 367.488397 295.228987 
L 373.606259 298.975711 
L 379.724121 302.443611 
L 385.841983 305.644089 
L 391.959845 308.588988 
L 398.077707 311.290472 
L 404.195569 313.760928 
L 410.313431 316.012862 
L 416.431293 318.058811 
L 422.549155 319.911262 
L 428.667017 321.582579 
L 434.784879 323.084931 
L 443.961672 325.047647 
L 453.138465 326.695841 
L 462.315258 328.066535 
L 471.492051 329.194605 
L 480.668844 330.112569 
L 492.904568 331.061198 
L 505.140292 331.753318 
L 520.434947 332.341703 
L 535.729603 332.706245 
L 557.14212 332.973639 
L 587.73143 333.101285 
L 667.263636 333.12392 
L 667.263636 333.12392 
" style="fill:none;stroke:#a6cee3;stroke-linecap:round;stroke-width:1.5;"/>
   </g>
   <g id="line2d_15">
    <path clip-path="url(#p8140bdd02d)" d="M 58.536364 333.12392 
L 64.654226 322.076235 
L 70.772088 311.47491 
L 76.88995 301.313112 
L 83.007812 291.584009 
L 89.125674 282.28077 
L 95.243536 273.396563 
L 101.361398 264.924555 
L 107.47926 256.857914 
L 113.597122 249.189809 
L 119.714984 241.913407 
L 125.832846 235.021876 
L 131.950708 228.508385 
L 138.06857 222.366101 
L 144.186432 216.588192 
L 150.304294 211.167826 
L 156.422156 206.098171 
L 162.540018 201.372396 
L 168.65788 196.983667 
L 174.775742 192.925154 
L 180.893604 189.190023 
L 187.011466 185.771444 
L 193.129328 182.662583 
L 199.24719 179.85661 
L 205.365053 177.346691 
L 211.482915 175.125995 
L 217.600777 173.187689 
L 223.718639 171.524943 
L 229.836501 170.130923 
L 235.954363 168.998798 
L 242.072225 168.121736 
L 248.190087 167.492904 
L 254.307949 167.10547 
L 260.425811 166.952604 
L 266.543673 167.027471 
L 272.661535 167.323241 
L 278.779397 167.833082 
L 284.897259 168.550161 
L 291.015121 169.467646 
L 297.132983 170.578706 
L 303.250845 171.876508 
L 309.368707 173.35422 
L 315.486569 175.005011 
L 321.604431 176.822047 
L 330.781224 179.844369 
L 339.958017 183.202314 
L 349.13481 186.872825 
L 358.311603 190.832843 
L 367.488397 195.059311 
L 376.66519 199.52917 
L 385.841983 204.219362 
L 398.077707 210.775838 
L 410.313431 217.628369 
L 422.549155 224.722299 
L 437.84381 233.845912 
L 459.256327 246.905916 
L 492.904568 267.456962 
L 508.199223 276.547839 
L 520.434947 283.605331 
L 532.670672 290.412315 
L 544.906396 296.914135 
L 554.083189 301.557357 
L 563.259982 305.975121 
L 572.436775 310.144371 
L 581.613568 314.042047 
L 590.790361 317.645091 
L 599.967154 320.930446 
L 609.143947 323.875053 
L 615.261809 325.637433 
L 621.379671 327.23129 
L 627.497533 328.649792 
L 633.615395 329.886105 
L 639.733257 330.933399 
L 645.851119 331.784842 
L 651.968981 332.4336 
L 658.086843 332.872843 
L 664.204705 333.095738 
L 667.263636 333.12392 
L 667.263636 333.12392 
" style="fill:none;stroke:#1f78b4;stroke-linecap:round;stroke-width:1.5;"/>
   </g>
   <g id="line2d_16">
    <path clip-path="url(#p8140bdd02d)" d="M 58.536364 333.12392 
L 64.654226 314.896165 
L 70.772088 297.767496 
L 76.88995 281.704439 
L 83.007812 266.673978 
L 89.125674 252.643557 
L 95.243536 239.581074 
L 101.361398 227.454886 
L 107.47926 216.23381 
L 113.597122 205.887118 
L 119.714984 196.384541 
L 122.773915 191.940461 
L 125.832846 187.696267 
L 128.891777 183.648303 
L 131.950708 179.792943 
L 135.009639 176.126589 
L 138.06857 172.645672 
L 141.127501 169.346652 
L 144.186432 166.226017 
L 147.245363 163.280284 
L 150.304294 160.505998 
L 153.363225 157.899732 
L 156.422156 155.45809 
L 159.481087 153.177703 
L 162.540018 151.055231 
L 165.598949 149.087361 
L 168.65788 147.270811 
L 171.716811 145.602327 
L 174.775742 144.078682 
L 177.834673 142.696681 
L 180.893604 141.453153 
L 183.952535 140.34496 
L 187.011466 139.368989 
L 190.070397 138.522158 
L 193.129328 137.801414 
L 196.188259 137.20373 
L 199.24719 136.72611 
L 202.306122 136.365585 
L 208.423984 135.984092 
L 214.541846 136.036076 
L 220.659708 136.498821 
L 226.77757 137.35007 
L 232.895432 138.56802 
L 239.013294 140.13133 
L 245.131156 142.019113 
L 251.249018 144.210943 
L 257.36688 146.68685 
L 263.484742 149.427322 
L 269.602604 152.413305 
L 275.720466 155.626202 
L 281.838328 159.047875 
L 287.95619 162.660642 
L 297.132983 168.400546 
L 306.309776 174.475571 
L 315.486569 180.831838 
L 327.722293 189.655563 
L 339.958017 198.772062 
L 358.311603 212.760446 
L 388.900914 236.105891 
L 404.195569 247.444146 
L 416.431293 256.222929 
L 428.667017 264.673882 
L 437.84381 270.763362 
L 447.020603 276.616468 
L 456.197396 282.214853 
L 465.374189 287.542488 
L 474.550982 292.585663 
L 483.727775 297.332983 
L 492.904568 301.775373 
L 502.081361 305.906072 
L 511.258154 309.720639 
L 520.434947 313.21695 
L 529.611741 316.395198 
L 538.788534 319.257893 
L 547.965327 321.809865 
L 557.14212 324.058256 
L 566.318913 326.012532 
L 575.495706 327.68447 
L 584.672499 329.08817 
L 593.849292 330.240046 
L 603.026085 331.158831 
L 612.202878 331.865573 
L 621.379671 332.38364 
L 633.615395 332.825629 
L 645.851119 333.045415 
L 664.204705 333.123684 
L 667.263636 333.12392 
L 667.263636 333.12392 
" style="fill:none;stroke:#b2df8a;stroke-linecap:round;stroke-width:1.5;"/>
   </g>
   <g id="line2d_17">
    <path clip-path="url(#p8140bdd02d)" d="M 58.536364 333.12392 
L 61.595295 313.886643 
L 64.654226 295.611181 
L 67.713157 278.268535 
L 70.772088 261.830294 
L 73.831019 246.268623 
L 76.88995 231.556259 
L 79.948881 217.666502 
L 83.007812 204.57321 
L 86.066743 192.250787 
L 89.125674 180.674183 
L 92.184605 169.81888 
L 95.243536 159.660887 
L 98.302467 150.176735 
L 101.361398 141.343469 
L 104.420329 133.138639 
L 107.47926 125.540296 
L 110.538191 118.526983 
L 113.597122 112.077728 
L 116.656053 106.17204 
L 119.714984 100.789899 
L 122.773915 95.911751 
L 125.832846 91.518501 
L 128.891777 87.591506 
L 131.950708 84.112569 
L 135.009639 81.063933 
L 138.06857 78.428273 
L 141.127501 76.18869 
L 144.186432 74.328705 
L 147.245363 72.832254 
L 150.304294 71.683678 
L 153.363225 70.867722 
L 156.422156 70.369523 
L 159.481087 70.174608 
L 162.540018 70.268887 
L 165.598949 70.638646 
L 168.65788 71.270542 
L 171.716811 72.151595 
L 174.775742 73.269185 
L 177.834673 74.611044 
L 180.893604 76.165252 
L 183.952535 77.92023 
L 187.011466 79.864731 
L 190.070397 81.987843 
L 193.129328 84.278973 
L 196.188259 86.72785 
L 202.306122 92.059311 
L 208.423984 97.906201 
L 214.541846 104.197239 
L 220.659708 110.865713 
L 226.77757 117.849311 
L 235.954363 128.789648 
L 245.131156 140.130312 
L 260.425811 159.495906 
L 278.779397 182.751303 
L 291.015121 197.867837 
L 300.191914 208.858303 
L 309.368707 219.476176 
L 318.5455 229.666692 
L 327.722293 239.386019 
L 333.840155 245.586719 
L 339.958017 251.555064 
L 346.075879 257.285023 
L 352.193741 262.772152 
L 358.311603 268.013484 
L 364.429466 273.007428 
L 370.547328 277.753668 
L 376.66519 282.253067 
L 382.783052 286.50757 
L 388.900914 290.520117 
L 395.018776 294.294547 
L 401.136638 297.835522 
L 407.2545 301.148436 
L 413.372362 304.239337 
L 419.490224 307.114854 
L 425.608086 309.782119 
L 431.725948 312.248698 
L 437.84381 314.522519 
L 443.961672 316.611813 
L 450.079534 318.525046 
L 456.197396 320.270863 
L 465.374189 322.594876 
L 474.550982 324.591754 
L 483.727775 326.291278 
L 492.904568 327.722845 
L 502.081361 328.915158 
L 511.258154 329.895945 
L 520.434947 330.691712 
L 532.670672 331.508027 
L 544.906396 332.094685 
L 560.201051 332.579416 
L 578.554637 332.903498 
L 603.026085 333.077965 
L 651.968981 333.123882 
L 667.263636 333.12392 
L 667.263636 333.12392 
" style="fill:none;stroke:#33a02c;stroke-linecap:round;stroke-width:1.5;"/>
   </g>
   <g id="line2d_18">
    <path clip-path="url(#p8140bdd02d)" d="M 58.536364 333.12392 
L 61.595295 319.313609 
L 64.654226 306.057078 
L 67.713157 293.341771 
L 70.772088 281.155306 
L 73.831019 269.485466 
L 76.88995 258.320202 
L 79.948881 247.647632 
L 83.007812 237.456039 
L 86.066743 227.73387 
L 89.125674 218.469734 
L 92.184605 209.652404 
L 95.243536 201.270812 
L 98.302467 193.314051 
L 101.361398 185.771373 
L 104.420329 178.632185 
L 107.47926 171.886054 
L 110.538191 165.522701 
L 113.597122 159.532001 
L 116.656053 153.903983 
L 119.714984 148.628827 
L 122.773915 143.696867 
L 125.832846 139.098583 
L 128.891777 134.824608 
L 131.950708 130.865721 
L 135.009639 127.212847 
L 138.06857 123.857059 
L 141.127501 120.789573 
L 144.186432 118.001749 
L 147.245363 115.48509 
L 150.304294 113.23124 
L 153.363225 111.231984 
L 156.422156 109.479245 
L 159.481087 107.965086 
L 162.540018 106.681706 
L 165.598949 105.62144 
L 168.65788 104.776758 
L 171.716811 104.140266 
L 174.775742 103.704699 
L 177.834673 103.462928 
L 180.893604 103.40795 
L 183.952535 103.532897 
L 187.011466 103.831024 
L 190.070397 104.295718 
L 193.129328 104.92049 
L 196.188259 105.698976 
L 199.24719 106.624938 
L 202.306122 107.69226 
L 205.365053 108.894948 
L 208.423984 110.227129 
L 214.541846 113.257079 
L 220.659708 116.737505 
L 226.77757 120.62567 
L 232.895432 124.88067 
L 239.013294 129.463398 
L 245.131156 134.336508 
L 251.249018 139.464386 
L 257.36688 144.813111 
L 266.543673 153.180159 
L 275.720466 161.86984 
L 287.95619 173.796434 
L 333.840155 218.969903 
L 346.075879 230.457658 
L 355.252672 238.779739 
L 364.429466 246.809476 
L 373.606259 254.516263 
L 382.783052 261.87466 
L 391.959845 268.86414 
L 401.136638 275.46882 
L 410.313431 281.677201 
L 416.431293 285.592152 
L 422.549155 289.326391 
L 428.667017 292.879426 
L 434.784879 296.251455 
L 440.902741 299.443338 
L 447.020603 302.456559 
L 453.138465 305.293192 
L 459.256327 307.955866 
L 465.374189 310.447731 
L 471.492051 312.772423 
L 477.609913 314.934032 
L 486.786706 317.880628 
L 495.963499 320.487303 
L 505.140292 322.772522 
L 514.317085 324.756165 
L 523.493878 326.459265 
L 532.670672 327.903745 
L 541.847465 329.112158 
L 551.024258 330.107423 
L 560.201051 330.912564 
L 572.436775 331.729805 
L 584.672499 332.302574 
L 599.967154 332.751351 
L 618.32074 333.016156 
L 642.792188 333.116891 
L 667.263636 333.12392 
L 667.263636 333.12392 
" style="fill:none;stroke:#fb9a99;stroke-linecap:round;stroke-width:1.5;"/>
   </g>
   <g id="line2d_19">
    <path clip-path="url(#p8140bdd02d)" d="M 58.536364 333.12392 
L 61.595295 319.313609 
L 64.654226 306.057078 
L 67.713157 293.341771 
L 70.772088 281.155306 
L 73.831019 269.485466 
L 76.88995 258.320202 
L 79.948881 247.647632 
L 83.007812 237.456039 
L 86.066743 227.73387 
L 89.125674 218.469734 
L 92.184605 209.652404 
L 95.243536 201.270812 
L 98.302467 193.314051 
L 101.361398 185.771373 
L 104.420329 178.632185 
L 107.47926 171.886054 
L 110.538191 165.522701 
L 113.597122 159.532001 
L 116.656053 153.903983 
L 119.714984 148.628827 
L 122.773915 143.696867 
L 125.832846 139.098583 
L 128.891777 134.824608 
L 131.950708 130.865721 
L 135.009639 127.212847 
L 138.06857 123.857059 
L 141.127501 120.789573 
L 144.186432 118.001749 
L 147.245363 115.48509 
L 150.304294 113.23124 
L 153.363225 111.231984 
L 156.422156 109.479245 
L 159.481087 107.965086 
L 162.540018 106.681706 
L 165.598949 105.62144 
L 168.65788 104.776758 
L 171.716811 104.140266 
L 174.775742 103.704699 
L 177.834673 103.462928 
L 180.893604 103.40795 
L 183.952535 103.532897 
L 187.011466 103.831024 
L 190.070397 104.295718 
L 193.129328 104.92049 
L 196.188259 105.698976 
L 199.24719 106.624938 
L 202.306122 107.69226 
L 205.365053 108.894948 
L 208.423984 110.227129 
L 214.541846 113.257079 
L 220.659708 116.737505 
L 226.77757 120.62567 
L 232.895432 124.88067 
L 239.013294 129.463398 
L 245.131156 134.336508 
L 251.249018 139.464386 
L 257.36688 144.813111 
L 266.543673 153.180159 
L 275.720466 161.86984 
L 287.95619 173.796434 
L 333.840155 218.969903 
L 346.075879 230.457658 
L 355.252672 238.779739 
L 364.429466 246.809476 
L 373.606259 254.516263 
L 382.783052 261.87466 
L 391.959845 268.86414 
L 401.136638 275.46882 
L 410.313431 281.677201 
L 416.431293 285.592152 
L 422.549155 289.326391 
L 428.667017 292.879426 
L 434.784879 296.251455 
L 440.902741 299.443338 
L 447.020603 302.456559 
L 453.138465 305.293192 
L 459.256327 307.955866 
L 465.374189 310.447731 
L 471.492051 312.772423 
L 477.609913 314.934032 
L 486.786706 317.880628 
L 495.963499 320.487303 
L 505.140292 322.772522 
L 514.317085 324.756165 
L 523.493878 326.459265 
L 532.670672 327.903745 
L 541.847465 329.112158 
L 551.024258 330.107423 
L 560.201051 330.912564 
L 572.436775 331.729805 
L 584.672499 332.302574 
L 599.967154 332.751351 
L 618.32074 333.016156 
L 642.792188 333.116891 
L 667.263636 333.12392 
L 667.263636 333.12392 
" style="fill:none;stroke:#e31a1c;stroke-linecap:round;stroke-width:1.5;"/>
   </g>
   <g id="line2d_20">
    <path clip-path="url(#p8140bdd02d)" d="M 58.536364 333.12392 
L 61.595295 313.886643 
L 64.654226 295.611181 
L 67.713157 278.268535 
L 70.772088 261.830294 
L 73.831019 246.268623 
L 76.88995 231.556259 
L 79.948881 217.666502 
L 83.007812 204.57321 
L 86.066743 192.250787 
L 89.125674 180.674183 
L 92.184605 169.81888 
L 95.243536 159.660887 
L 98.302467 150.176735 
L 101.361398 141.343469 
L 104.420329 133.138639 
L 107.47926 125.540296 
L 110.538191 118.526983 
L 113.597122 112.077728 
L 116.656053 106.17204 
L 119.714984 100.789899 
L 122.773915 95.911751 
L 125.832846 91.518501 
L 128.891777 87.591506 
L 131.950708 84.112569 
L 135.009639 81.063933 
L 138.06857 78.428273 
L 141.127501 76.18869 
L 144.186432 74.328705 
L 147.245363 72.832254 
L 150.304294 71.683678 
L 153.363225 70.867722 
L 156.422156 70.369523 
L 159.481087 70.174608 
L 162.540018 70.268887 
L 165.598949 70.638646 
L 168.65788 71.270542 
L 171.716811 72.151595 
L 174.775742 73.269185 
L 177.834673 74.611044 
L 180.893604 76.165252 
L 183.952535 77.92023 
L 187.011466 79.864731 
L 190.070397 81.987843 
L 193.129328 84.278973 
L 196.188259 86.72785 
L 202.306122 92.059311 
L 208.423984 97.906201 
L 214.541846 104.197239 
L 220.659708 110.865713 
L 226.77757 117.849311 
L 235.954363 128.789648 
L 245.131156 140.130312 
L 260.425811 159.495906 
L 278.779397 182.751303 
L 291.015121 197.867837 
L 300.191914 208.858303 
L 309.368707 219.476176 
L 318.5455 229.666692 
L 327.722293 239.386019 
L 333.840155 245.586719 
L 339.958017 251.555064 
L 346.075879 257.285023 
L 352.193741 262.772152 
L 358.311603 268.013484 
L 364.429466 273.007428 
L 370.547328 277.753668 
L 376.66519 282.253067 
L 382.783052 286.50757 
L 388.900914 290.520117 
L 395.018776 294.294547 
L 401.136638 297.835522 
L 407.2545 301.148436 
L 413.372362 304.239337 
L 419.490224 307.114854 
L 425.608086 309.782119 
L 431.725948 312.248698 
L 437.84381 314.522519 
L 443.961672 316.611813 
L 450.079534 318.525046 
L 456.197396 320.270863 
L 465.374189 322.594876 
L 474.550982 324.591754 
L 483.727775 326.291278 
L 492.904568 327.722845 
L 502.081361 328.915158 
L 511.258154 329.895945 
L 520.434947 330.691712 
L 532.670672 331.508027 
L 544.906396 332.094685 
L 560.201051 332.579416 
L 578.554637 332.903498 
L 603.026085 333.077965 
L 651.968981 333.123882 
L 667.263636 333.12392 
L 667.263636 333.12392 
" style="fill:none;stroke:#fdbf6f;stroke-linecap:round;stroke-width:1.5;"/>
   </g>
   <g id="line2d_21">
    <path clip-path="url(#p8140bdd02d)" d="M 58.536364 333.12392 
L 64.654226 314.896165 
L 70.772088 297.767496 
L 76.88995 281.704439 
L 83.007812 266.673978 
L 89.125674 252.643557 
L 95.243536 239.581074 
L 101.361398 227.454886 
L 107.47926 216.23381 
L 113.597122 205.887118 
L 119.714984 196.384541 
L 122.773915 191.940461 
L 125.832846 187.696267 
L 128.891777 183.648303 
L 131.950708 179.792943 
L 135.009639 176.126589 
L 138.06857 172.645672 
L 141.127501 169.346652 
L 144.186432 166.226017 
L 147.245363 163.280284 
L 150.304294 160.505998 
L 153.363225 157.899732 
L 156.422156 155.45809 
L 159.481087 153.177703 
L 162.540018 151.055231 
L 165.598949 149.087361 
L 168.65788 147.270811 
L 171.716811 145.602327 
L 174.775742 144.078682 
L 177.834673 142.696681 
L 180.893604 141.453153 
L 183.952535 140.34496 
L 187.011466 139.368989 
L 190.070397 138.522158 
L 193.129328 137.801414 
L 196.188259 137.20373 
L 199.24719 136.72611 
L 202.306122 136.365585 
L 208.423984 135.984092 
L 214.541846 136.036076 
L 220.659708 136.498821 
L 226.77757 137.35007 
L 232.895432 138.56802 
L 239.013294 140.13133 
L 245.131156 142.019113 
L 251.249018 144.210943 
L 257.36688 146.68685 
L 263.484742 149.427322 
L 269.602604 152.413305 
L 275.720466 155.626202 
L 281.838328 159.047875 
L 287.95619 162.660642 
L 297.132983 168.400546 
L 306.309776 174.475571 
L 315.486569 180.831838 
L 327.722293 189.655563 
L 339.958017 198.772062 
L 358.311603 212.760446 
L 388.900914 236.105891 
L 404.195569 247.444146 
L 416.431293 256.222929 
L 428.667017 264.673882 
L 437.84381 270.763362 
L 447.020603 276.616468 
L 456.197396 282.214853 
L 465.374189 287.542488 
L 474.550982 292.585663 
L 483.727775 297.332983 
L 492.904568 301.775373 
L 502.081361 305.906072 
L 511.258154 309.720639 
L 520.434947 313.21695 
L 529.611741 316.395198 
L 538.788534 319.257893 
L 547.965327 321.809865 
L 557.14212 324.058256 
L 566.318913 326.012532 
L 575.495706 327.68447 
L 584.672499 329.08817 
L 593.849292 330.240046 
L 603.026085 331.158831 
L 612.202878 331.865573 
L 621.379671 332.38364 
L 633.615395 332.825629 
L 645.851119 333.045415 
L 664.204705 333.123684 
L 667.263636 333.12392 
L 667.263636 333.12392 
" style="fill:none;stroke:#ff7f00;stroke-linecap:round;stroke-width:1.5;"/>
   </g>
   <g id="line2d_22">
    <path clip-path="url(#p8140bdd02d)" d="M 368.987273 347.949375 
L 368.987273 21.789375 
" style="fill:none;stroke:#808080;stroke-dasharray:5.55,2.4;stroke-dashoffset:0;stroke-width:1.5;"/>
   </g>
   <g id="line2d_23">
    <path clip-path="url(#p8140bdd02d)" d="M 247.241818 347.949375 
L 247.241818 21.789375 
" style="fill:none;stroke:#000000;stroke-dasharray:5.55,2.4;stroke-dashoffset:0;stroke-width:1.5;"/>
   </g>
   <g id="patch_3">
    <path d="M 28.1 347.949375 
L 28.1 21.789375 
" style="fill:none;stroke:#ffffff;stroke-linecap:square;stroke-linejoin:miter;stroke-width:0.8;"/>
   </g>
   <g id="patch_4">
    <path d="M 697.7 347.949375 
L 697.7 21.789375 
" style="fill:none;stroke:#ffffff;stroke-linecap:square;stroke-linejoin:miter;stroke-width:0.8;"/>
   </g>
   <g id="patch_5">
    <path d="M 28.1 347.949375 
L 697.7 347.949375 
" style="fill:none;stroke:#ffffff;stroke-linecap:square;stroke-linejoin:miter;stroke-width:0.8;"/>
   </g>
   <g id="patch_6">
    <path d="M 28.1 21.789375 
L 697.7 21.789375 
" style="fill:none;stroke:#ffffff;stroke-linecap:square;stroke-linejoin:miter;stroke-width:0.8;"/>
   </g>
   <g id="text_14">
    <!-- Ads distributions after 10.0 views -->
    <defs>
     <path d="M -0.140625 0 
L 27.34375 71.578125 
L 37.546875 71.578125 
L 66.84375 0 
L 56.0625 0 
L 47.703125 21.6875 
L 17.78125 21.6875 
L 9.90625 0 
z
M 20.515625 29.390625 
L 44.78125 29.390625 
L 37.3125 49.21875 
Q 33.890625 58.25 32.234375 64.0625 
Q 30.859375 57.171875 28.375 50.390625 
z
" id="ArialMT-65"/>
     <path d="M 40.234375 0 
L 40.234375 6.546875 
Q 35.296875 -1.171875 25.734375 -1.171875 
Q 19.53125 -1.171875 14.328125 2.25 
Q 9.125 5.671875 6.265625 11.796875 
Q 3.421875 17.921875 3.421875 25.875 
Q 3.421875 33.640625 6 39.96875 
Q 8.59375 46.296875 13.765625 49.65625 
Q 18.953125 53.03125 25.34375 53.03125 
Q 30.03125 53.03125 33.6875 51.046875 
Q 37.359375 49.078125 39.65625 45.90625 
L 39.65625 71.578125 
L 48.390625 71.578125 
L 48.390625 0 
z
M 12.453125 25.875 
Q 12.453125 15.921875 16.640625 10.984375 
Q 20.84375 6.0625 26.5625 6.0625 
Q 32.328125 6.0625 36.34375 10.765625 
Q 40.375 15.484375 40.375 25.140625 
Q 40.375 35.796875 36.265625 40.765625 
Q 32.171875 45.75 26.171875 45.75 
Q 20.3125 45.75 16.375 40.96875 
Q 12.453125 36.1875 12.453125 25.875 
z
" id="ArialMT-100"/>
     <path d="M 3.078125 15.484375 
L 11.765625 16.84375 
Q 12.5 11.625 15.84375 8.84375 
Q 19.1875 6.0625 25.203125 6.0625 
Q 31.25 6.0625 34.171875 8.515625 
Q 37.109375 10.984375 37.109375 14.3125 
Q 37.109375 17.28125 34.515625 19 
Q 32.71875 20.171875 25.53125 21.96875 
Q 15.875 24.421875 12.140625 26.203125 
Q 8.40625 27.984375 6.46875 31.125 
Q 4.546875 34.28125 4.546875 38.09375 
Q 4.546875 41.546875 6.125 44.5 
Q 7.71875 47.46875 10.453125 49.421875 
Q 12.5 50.921875 16.03125 51.96875 
Q 19.578125 53.03125 23.640625 53.03125 
Q 29.734375 53.03125 34.34375 51.265625 
Q 38.96875 49.515625 41.15625 46.5 
Q 43.359375 43.5 44.1875 38.484375 
L 35.59375 37.3125 
Q 35.015625 41.3125 32.203125 43.546875 
Q 29.390625 45.796875 24.265625 45.796875 
Q 18.21875 45.796875 15.625 43.796875 
Q 13.03125 41.796875 13.03125 39.109375 
Q 13.03125 37.40625 14.109375 36.03125 
Q 15.1875 34.625 17.484375 33.6875 
Q 18.796875 33.203125 25.25 31.453125 
Q 34.578125 28.953125 38.25 27.359375 
Q 41.9375 25.78125 44.03125 22.75 
Q 46.140625 19.734375 46.140625 15.234375 
Q 46.140625 10.84375 43.578125 6.953125 
Q 41.015625 3.078125 36.171875 0.953125 
Q 31.34375 -1.171875 25.25 -1.171875 
Q 15.140625 -1.171875 9.84375 3.03125 
Q 4.546875 7.234375 3.078125 15.484375 
z
" id="ArialMT-115"/>
     <path id="ArialMT-32"/>
     <path d="M 6.640625 61.46875 
L 6.640625 71.578125 
L 15.4375 71.578125 
L 15.4375 61.46875 
z
M 6.640625 0 
L 6.640625 51.859375 
L 15.4375 51.859375 
L 15.4375 0 
z
" id="ArialMT-105"/>
     <path d="M 25.78125 7.859375 
L 27.046875 0.09375 
Q 23.34375 -0.6875 20.40625 -0.6875 
Q 15.625 -0.6875 12.984375 0.828125 
Q 10.359375 2.34375 9.28125 4.8125 
Q 8.203125 7.28125 8.203125 15.1875 
L 8.203125 45.015625 
L 1.765625 45.015625 
L 1.765625 51.859375 
L 8.203125 51.859375 
L 8.203125 64.703125 
L 16.9375 69.96875 
L 16.9375 51.859375 
L 25.78125 51.859375 
L 25.78125 45.015625 
L 16.9375 45.015625 
L 16.9375 14.703125 
Q 16.9375 10.9375 17.40625 9.859375 
Q 17.875 8.796875 18.921875 8.15625 
Q 19.96875 7.515625 21.921875 7.515625 
Q 23.390625 7.515625 25.78125 7.859375 
z
" id="ArialMT-116"/>
     <path d="M 6.5 0 
L 6.5 51.859375 
L 14.40625 51.859375 
L 14.40625 44 
Q 17.4375 49.515625 20 51.265625 
Q 22.5625 53.03125 25.640625 53.03125 
Q 30.078125 53.03125 34.671875 50.203125 
L 31.640625 42.046875 
Q 28.421875 43.953125 25.203125 43.953125 
Q 22.3125 43.953125 20.015625 42.21875 
Q 17.71875 40.484375 16.75 37.40625 
Q 15.28125 32.71875 15.28125 27.15625 
L 15.28125 0 
z
" id="ArialMT-114"/>
     <path d="M 14.703125 0 
L 6.546875 0 
L 6.546875 71.578125 
L 15.328125 71.578125 
L 15.328125 46.046875 
Q 20.90625 53.03125 29.546875 53.03125 
Q 34.328125 53.03125 38.59375 51.09375 
Q 42.875 49.171875 45.625 45.671875 
Q 48.390625 42.1875 49.953125 37.25 
Q 51.515625 32.328125 51.515625 26.703125 
Q 51.515625 13.375 44.921875 6.09375 
Q 38.328125 -1.171875 29.109375 -1.171875 
Q 19.921875 -1.171875 14.703125 6.5 
z
M 14.59375 26.3125 
Q 14.59375 17 17.140625 12.84375 
Q 21.296875 6.0625 28.375 6.0625 
Q 34.125 6.0625 38.328125 11.0625 
Q 42.53125 16.0625 42.53125 25.984375 
Q 42.53125 36.140625 38.5 40.96875 
Q 34.46875 45.796875 28.765625 45.796875 
Q 23 45.796875 18.796875 40.796875 
Q 14.59375 35.796875 14.59375 26.3125 
z
" id="ArialMT-98"/>
     <path d="M 40.578125 0 
L 40.578125 7.625 
Q 34.515625 -1.171875 24.125 -1.171875 
Q 19.53125 -1.171875 15.546875 0.578125 
Q 11.578125 2.34375 9.640625 5 
Q 7.71875 7.671875 6.9375 11.53125 
Q 6.390625 14.109375 6.390625 19.734375 
L 6.390625 51.859375 
L 15.1875 51.859375 
L 15.1875 23.09375 
Q 15.1875 16.21875 15.71875 13.8125 
Q 16.546875 10.359375 19.234375 8.375 
Q 21.921875 6.390625 25.875 6.390625 
Q 29.828125 6.390625 33.296875 8.421875 
Q 36.765625 10.453125 38.203125 13.9375 
Q 39.65625 17.4375 39.65625 24.078125 
L 39.65625 51.859375 
L 48.4375 51.859375 
L 48.4375 0 
z
" id="ArialMT-117"/>
     <path d="M 3.328125 25.921875 
Q 3.328125 40.328125 11.328125 47.265625 
Q 18.015625 53.03125 27.640625 53.03125 
Q 38.328125 53.03125 45.109375 46.015625 
Q 51.90625 39.015625 51.90625 26.65625 
Q 51.90625 16.65625 48.90625 10.90625 
Q 45.90625 5.171875 40.15625 2 
Q 34.421875 -1.171875 27.640625 -1.171875 
Q 16.75 -1.171875 10.03125 5.8125 
Q 3.328125 12.796875 3.328125 25.921875 
z
M 12.359375 25.921875 
Q 12.359375 15.96875 16.703125 11.015625 
Q 21.046875 6.0625 27.640625 6.0625 
Q 34.1875 6.0625 38.53125 11.03125 
Q 42.875 16.015625 42.875 26.21875 
Q 42.875 35.84375 38.5 40.796875 
Q 34.125 45.75 27.640625 45.75 
Q 21.046875 45.75 16.703125 40.8125 
Q 12.359375 35.890625 12.359375 25.921875 
z
" id="ArialMT-111"/>
     <path d="M 6.59375 0 
L 6.59375 51.859375 
L 14.5 51.859375 
L 14.5 44.484375 
Q 20.21875 53.03125 31 53.03125 
Q 35.6875 53.03125 39.625 51.34375 
Q 43.5625 49.65625 45.515625 46.921875 
Q 47.46875 44.1875 48.25 40.4375 
Q 48.734375 37.984375 48.734375 31.890625 
L 48.734375 0 
L 39.9375 0 
L 39.9375 31.546875 
Q 39.9375 36.921875 38.90625 39.578125 
Q 37.890625 42.234375 35.28125 43.8125 
Q 32.671875 45.40625 29.15625 45.40625 
Q 23.53125 45.40625 19.453125 41.84375 
Q 15.375 38.28125 15.375 28.328125 
L 15.375 0 
z
" id="ArialMT-110"/>
     <path d="M 40.4375 6.390625 
Q 35.546875 2.25 31.03125 0.53125 
Q 26.515625 -1.171875 21.34375 -1.171875 
Q 12.796875 -1.171875 8.203125 3 
Q 3.609375 7.171875 3.609375 13.671875 
Q 3.609375 17.484375 5.34375 20.625 
Q 7.078125 23.78125 9.890625 25.6875 
Q 12.703125 27.59375 16.21875 28.5625 
Q 18.796875 29.25 24.03125 29.890625 
Q 34.671875 31.15625 39.703125 32.90625 
Q 39.75 34.71875 39.75 35.203125 
Q 39.75 40.578125 37.25 42.78125 
Q 33.890625 45.75 27.25 45.75 
Q 21.046875 45.75 18.09375 43.578125 
Q 15.140625 41.40625 13.71875 35.890625 
L 5.125 37.0625 
Q 6.296875 42.578125 8.984375 45.96875 
Q 11.671875 49.359375 16.75 51.1875 
Q 21.828125 53.03125 28.515625 53.03125 
Q 35.15625 53.03125 39.296875 51.46875 
Q 43.453125 49.90625 45.40625 47.53125 
Q 47.359375 45.171875 48.140625 41.546875 
Q 48.578125 39.3125 48.578125 33.453125 
L 48.578125 21.734375 
Q 48.578125 9.46875 49.140625 6.21875 
Q 49.703125 2.984375 51.375 0 
L 42.1875 0 
Q 40.828125 2.734375 40.4375 6.390625 
z
M 39.703125 26.03125 
Q 34.90625 24.078125 25.34375 22.703125 
Q 19.921875 21.921875 17.671875 20.9375 
Q 15.4375 19.96875 14.203125 18.09375 
Q 12.984375 16.21875 12.984375 13.921875 
Q 12.984375 10.40625 15.640625 8.0625 
Q 18.3125 5.71875 23.4375 5.71875 
Q 28.515625 5.71875 32.46875 7.9375 
Q 36.421875 10.15625 38.28125 14.015625 
Q 39.703125 17 39.703125 22.796875 
z
" id="ArialMT-97"/>
     <path d="M 8.6875 0 
L 8.6875 45.015625 
L 0.921875 45.015625 
L 0.921875 51.859375 
L 8.6875 51.859375 
L 8.6875 57.375 
Q 8.6875 62.59375 9.625 65.140625 
Q 10.890625 68.5625 14.078125 70.671875 
Q 17.28125 72.796875 23.046875 72.796875 
Q 26.765625 72.796875 31.25 71.921875 
L 29.9375 64.265625 
Q 27.203125 64.75 24.75 64.75 
Q 20.75 64.75 19.09375 63.03125 
Q 17.4375 61.328125 17.4375 56.640625 
L 17.4375 51.859375 
L 27.546875 51.859375 
L 27.546875 45.015625 
L 17.4375 45.015625 
L 17.4375 0 
z
" id="ArialMT-102"/>
     <path d="M 42.09375 16.703125 
L 51.171875 15.578125 
Q 49.03125 7.625 43.21875 3.21875 
Q 37.40625 -1.171875 28.375 -1.171875 
Q 17 -1.171875 10.328125 5.828125 
Q 3.65625 12.84375 3.65625 25.484375 
Q 3.65625 38.578125 10.390625 45.796875 
Q 17.140625 53.03125 27.875 53.03125 
Q 38.28125 53.03125 44.875 45.953125 
Q 51.46875 38.875 51.46875 26.03125 
Q 51.46875 25.25 51.421875 23.6875 
L 12.75 23.6875 
Q 13.234375 15.140625 17.578125 10.59375 
Q 21.921875 6.0625 28.421875 6.0625 
Q 33.25 6.0625 36.671875 8.59375 
Q 40.09375 11.140625 42.09375 16.703125 
z
M 13.234375 30.90625 
L 42.1875 30.90625 
Q 41.609375 37.453125 38.875 40.71875 
Q 34.671875 45.796875 27.984375 45.796875 
Q 21.921875 45.796875 17.796875 41.75 
Q 13.671875 37.703125 13.234375 30.90625 
z
" id="ArialMT-101"/>
     <path d="M 21 0 
L 1.265625 51.859375 
L 10.546875 51.859375 
L 21.6875 20.796875 
Q 23.484375 15.765625 25 10.359375 
Q 26.171875 14.453125 28.265625 20.21875 
L 39.796875 51.859375 
L 48.828125 51.859375 
L 29.203125 0 
z
" id="ArialMT-118"/>
     <path d="M 16.15625 0 
L 0.296875 51.859375 
L 9.375 51.859375 
L 17.625 21.921875 
L 20.703125 10.796875 
Q 20.90625 11.625 23.390625 21.484375 
L 31.640625 51.859375 
L 40.671875 51.859375 
L 48.4375 21.78125 
L 51.03125 11.859375 
L 54 21.875 
L 62.890625 51.859375 
L 71.4375 51.859375 
L 55.21875 0 
L 46.09375 0 
L 37.84375 31.0625 
L 35.84375 39.890625 
L 25.34375 0 
z
" id="ArialMT-119"/>
    </defs>
    <g style="fill:#262626;" transform="translate(275.195938 15.789375)scale(0.12 -0.12)">
     <use xlink:href="#ArialMT-65"/>
     <use x="66.699219" xlink:href="#ArialMT-100"/>
     <use x="122.314453" xlink:href="#ArialMT-115"/>
     <use x="172.314453" xlink:href="#ArialMT-32"/>
     <use x="200.097656" xlink:href="#ArialMT-100"/>
     <use x="255.712891" xlink:href="#ArialMT-105"/>
     <use x="277.929688" xlink:href="#ArialMT-115"/>
     <use x="327.929688" xlink:href="#ArialMT-116"/>
     <use x="355.712891" xlink:href="#ArialMT-114"/>
     <use x="389.013672" xlink:href="#ArialMT-105"/>
     <use x="411.230469" xlink:href="#ArialMT-98"/>
     <use x="466.845703" xlink:href="#ArialMT-117"/>
     <use x="522.460938" xlink:href="#ArialMT-116"/>
     <use x="550.244141" xlink:href="#ArialMT-105"/>
     <use x="572.460938" xlink:href="#ArialMT-111"/>
     <use x="628.076172" xlink:href="#ArialMT-110"/>
     <use x="683.691406" xlink:href="#ArialMT-115"/>
     <use x="733.691406" xlink:href="#ArialMT-32"/>
     <use x="761.474609" xlink:href="#ArialMT-97"/>
     <use x="817.089844" xlink:href="#ArialMT-102"/>
     <use x="844.873047" xlink:href="#ArialMT-116"/>
     <use x="872.65625" xlink:href="#ArialMT-101"/>
     <use x="928.271484" xlink:href="#ArialMT-114"/>
     <use x="961.572266" xlink:href="#ArialMT-32"/>
     <use x="989.355469" xlink:href="#ArialMT-49"/>
     <use x="1044.970703" xlink:href="#ArialMT-48"/>
     <use x="1100.585938" xlink:href="#ArialMT-46"/>
     <use x="1128.369141" xlink:href="#ArialMT-48"/>
     <use x="1183.984375" xlink:href="#ArialMT-32"/>
     <use x="1211.767578" xlink:href="#ArialMT-118"/>
     <use x="1261.767578" xlink:href="#ArialMT-105"/>
     <use x="1283.984375" xlink:href="#ArialMT-101"/>
     <use x="1339.599609" xlink:href="#ArialMT-119"/>
     <use x="1411.816406" xlink:href="#ArialMT-115"/>
    </g>
   </g>
   <g id="legend_1">
    <g id="patch_7">
     <path d="M 704.7 257.213125 
L 790.04375 257.213125 
Q 792.04375 257.213125 792.04375 255.213125 
L 792.04375 114.525625 
Q 792.04375 112.525625 790.04375 112.525625 
L 704.7 112.525625 
Q 702.7 112.525625 702.7 114.525625 
L 702.7 255.213125 
Q 702.7 257.213125 704.7 257.213125 
z
" style="fill:#e6e6e6;opacity:0.8;stroke:#cccccc;stroke-linejoin:miter;"/>
    </g>
    <g id="line2d_24">
     <path d="M 706.7 120.183437 
L 726.7 120.183437 
" style="fill:none;stroke:#a6cee3;stroke-linecap:round;stroke-width:1.5;"/>
    </g>
    <g id="line2d_25"/>
    <g id="text_15">
     <!-- A-no_adapt -->
     <defs>
      <path d="M 3.171875 21.484375 
L 3.171875 30.328125 
L 30.171875 30.328125 
L 30.171875 21.484375 
z
" id="ArialMT-45"/>
      <path d="M -1.515625 -19.875 
L -1.515625 -13.53125 
L 56.734375 -13.53125 
L 56.734375 -19.875 
z
" id="ArialMT-95"/>
      <path d="M 6.59375 -19.875 
L 6.59375 51.859375 
L 14.59375 51.859375 
L 14.59375 45.125 
Q 17.4375 49.078125 21 51.046875 
Q 24.5625 53.03125 29.640625 53.03125 
Q 36.28125 53.03125 41.359375 49.609375 
Q 46.4375 46.1875 49.015625 39.953125 
Q 51.609375 33.734375 51.609375 26.3125 
Q 51.609375 18.359375 48.75 11.984375 
Q 45.90625 5.609375 40.453125 2.21875 
Q 35.015625 -1.171875 29 -1.171875 
Q 24.609375 -1.171875 21.109375 0.6875 
Q 17.625 2.546875 15.375 5.375 
L 15.375 -19.875 
z
M 14.546875 25.640625 
Q 14.546875 15.625 18.59375 10.84375 
Q 22.65625 6.0625 28.421875 6.0625 
Q 34.28125 6.0625 38.453125 11.015625 
Q 42.625 15.96875 42.625 26.375 
Q 42.625 36.28125 38.546875 41.203125 
Q 34.46875 46.140625 28.8125 46.140625 
Q 23.1875 46.140625 18.859375 40.890625 
Q 14.546875 35.640625 14.546875 25.640625 
z
" id="ArialMT-112"/>
     </defs>
     <g style="fill:#262626;" transform="translate(734.7 123.683437)scale(0.1 -0.1)">
      <use xlink:href="#ArialMT-65"/>
      <use x="66.699219" xlink:href="#ArialMT-45"/>
      <use x="100" xlink:href="#ArialMT-110"/>
      <use x="155.615234" xlink:href="#ArialMT-111"/>
      <use x="211.230469" xlink:href="#ArialMT-95"/>
      <use x="266.845703" xlink:href="#ArialMT-97"/>
      <use x="322.460938" xlink:href="#ArialMT-100"/>
      <use x="378.076172" xlink:href="#ArialMT-97"/>
      <use x="433.691406" xlink:href="#ArialMT-112"/>
      <use x="489.306641" xlink:href="#ArialMT-116"/>
     </g>
    </g>
    <g id="line2d_26">
     <path d="M 706.7 134.32875 
L 726.7 134.32875 
" style="fill:none;stroke:#1f78b4;stroke-linecap:round;stroke-width:1.5;"/>
    </g>
    <g id="line2d_27"/>
    <g id="text_16">
     <!-- B-no_adapt -->
     <defs>
      <path d="M 7.328125 0 
L 7.328125 71.578125 
L 34.1875 71.578125 
Q 42.390625 71.578125 47.34375 69.40625 
Q 52.296875 67.234375 55.09375 62.71875 
Q 57.90625 58.203125 57.90625 53.265625 
Q 57.90625 48.6875 55.421875 44.625 
Q 52.9375 40.578125 47.90625 38.09375 
Q 54.390625 36.1875 57.875 31.59375 
Q 61.375 27 61.375 20.75 
Q 61.375 15.71875 59.25 11.390625 
Q 57.125 7.078125 54 4.734375 
Q 50.875 2.390625 46.15625 1.1875 
Q 41.453125 0 34.625 0 
z
M 16.796875 41.5 
L 32.28125 41.5 
Q 38.578125 41.5 41.3125 42.328125 
Q 44.921875 43.40625 46.75 45.890625 
Q 48.578125 48.390625 48.578125 52.15625 
Q 48.578125 55.71875 46.875 58.421875 
Q 45.171875 61.140625 41.984375 62.140625 
Q 38.8125 63.140625 31.109375 63.140625 
L 16.796875 63.140625 
z
M 16.796875 8.453125 
L 34.625 8.453125 
Q 39.203125 8.453125 41.0625 8.796875 
Q 44.34375 9.375 46.53125 10.734375 
Q 48.734375 12.109375 50.140625 14.71875 
Q 51.5625 17.328125 51.5625 20.75 
Q 51.5625 24.75 49.515625 27.703125 
Q 47.46875 30.671875 43.828125 31.859375 
Q 40.1875 33.0625 33.34375 33.0625 
L 16.796875 33.0625 
z
" id="ArialMT-66"/>
     </defs>
     <g style="fill:#262626;" transform="translate(734.7 137.82875)scale(0.1 -0.1)">
      <use xlink:href="#ArialMT-66"/>
      <use x="66.699219" xlink:href="#ArialMT-45"/>
      <use x="100" xlink:href="#ArialMT-110"/>
      <use x="155.615234" xlink:href="#ArialMT-111"/>
      <use x="211.230469" xlink:href="#ArialMT-95"/>
      <use x="266.845703" xlink:href="#ArialMT-97"/>
      <use x="322.460938" xlink:href="#ArialMT-100"/>
      <use x="378.076172" xlink:href="#ArialMT-97"/>
      <use x="433.691406" xlink:href="#ArialMT-112"/>
      <use x="489.306641" xlink:href="#ArialMT-116"/>
     </g>
    </g>
    <g id="line2d_28">
     <path d="M 706.7 148.474063 
L 726.7 148.474063 
" style="fill:none;stroke:#b2df8a;stroke-linecap:round;stroke-width:1.5;"/>
    </g>
    <g id="line2d_29"/>
    <g id="text_17">
     <!-- A-epsilon -->
     <defs>
      <path d="M 6.390625 0 
L 6.390625 71.578125 
L 15.1875 71.578125 
L 15.1875 0 
z
" id="ArialMT-108"/>
     </defs>
     <g style="fill:#262626;" transform="translate(734.7 151.974063)scale(0.1 -0.1)">
      <use xlink:href="#ArialMT-65"/>
      <use x="66.699219" xlink:href="#ArialMT-45"/>
      <use x="100" xlink:href="#ArialMT-101"/>
      <use x="155.615234" xlink:href="#ArialMT-112"/>
      <use x="211.230469" xlink:href="#ArialMT-115"/>
      <use x="261.230469" xlink:href="#ArialMT-105"/>
      <use x="283.447266" xlink:href="#ArialMT-108"/>
      <use x="305.664062" xlink:href="#ArialMT-111"/>
      <use x="361.279297" xlink:href="#ArialMT-110"/>
     </g>
    </g>
    <g id="line2d_30">
     <path d="M 706.7 162.619375 
L 726.7 162.619375 
" style="fill:none;stroke:#33a02c;stroke-linecap:round;stroke-width:1.5;"/>
    </g>
    <g id="line2d_31"/>
    <g id="text_18">
     <!-- B-epsilon -->
     <g style="fill:#262626;" transform="translate(734.7 166.119375)scale(0.1 -0.1)">
      <use xlink:href="#ArialMT-66"/>
      <use x="66.699219" xlink:href="#ArialMT-45"/>
      <use x="100" xlink:href="#ArialMT-101"/>
      <use x="155.615234" xlink:href="#ArialMT-112"/>
      <use x="211.230469" xlink:href="#ArialMT-115"/>
      <use x="261.230469" xlink:href="#ArialMT-105"/>
      <use x="283.447266" xlink:href="#ArialMT-108"/>
      <use x="305.664062" xlink:href="#ArialMT-111"/>
      <use x="361.279297" xlink:href="#ArialMT-110"/>
     </g>
    </g>
    <g id="line2d_32">
     <path d="M 706.7 176.764687 
L 726.7 176.764687 
" style="fill:none;stroke:#fb9a99;stroke-linecap:round;stroke-width:1.5;"/>
    </g>
    <g id="line2d_33"/>
    <g id="text_19">
     <!-- A-ucb1 -->
     <defs>
      <path d="M 40.4375 19 
L 49.078125 17.875 
Q 47.65625 8.9375 41.8125 3.875 
Q 35.984375 -1.171875 27.484375 -1.171875 
Q 16.84375 -1.171875 10.375 5.78125 
Q 3.90625 12.75 3.90625 25.734375 
Q 3.90625 34.125 6.6875 40.421875 
Q 9.46875 46.734375 15.15625 49.875 
Q 20.84375 53.03125 27.546875 53.03125 
Q 35.984375 53.03125 41.359375 48.75 
Q 46.734375 44.484375 48.25 36.625 
L 39.703125 35.296875 
Q 38.484375 40.53125 35.375 43.15625 
Q 32.28125 45.796875 27.875 45.796875 
Q 21.234375 45.796875 17.078125 41.03125 
Q 12.9375 36.28125 12.9375 25.984375 
Q 12.9375 15.53125 16.9375 10.796875 
Q 20.953125 6.0625 27.390625 6.0625 
Q 32.5625 6.0625 36.03125 9.234375 
Q 39.5 12.40625 40.4375 19 
z
" id="ArialMT-99"/>
     </defs>
     <g style="fill:#262626;" transform="translate(734.7 180.264687)scale(0.1 -0.1)">
      <use xlink:href="#ArialMT-65"/>
      <use x="66.699219" xlink:href="#ArialMT-45"/>
      <use x="100" xlink:href="#ArialMT-117"/>
      <use x="155.615234" xlink:href="#ArialMT-99"/>
      <use x="205.615234" xlink:href="#ArialMT-98"/>
      <use x="261.230469" xlink:href="#ArialMT-49"/>
     </g>
    </g>
    <g id="line2d_34">
     <path d="M 706.7 190.91 
L 726.7 190.91 
" style="fill:none;stroke:#e31a1c;stroke-linecap:round;stroke-width:1.5;"/>
    </g>
    <g id="line2d_35"/>
    <g id="text_20">
     <!-- B-ucb1 -->
     <g style="fill:#262626;" transform="translate(734.7 194.41)scale(0.1 -0.1)">
      <use xlink:href="#ArialMT-66"/>
      <use x="66.699219" xlink:href="#ArialMT-45"/>
      <use x="100" xlink:href="#ArialMT-117"/>
      <use x="155.615234" xlink:href="#ArialMT-99"/>
      <use x="205.615234" xlink:href="#ArialMT-98"/>
      <use x="261.230469" xlink:href="#ArialMT-49"/>
     </g>
    </g>
    <g id="line2d_36">
     <path d="M 706.7 205.055313 
L 726.7 205.055313 
" style="fill:none;stroke:#fdbf6f;stroke-linecap:round;stroke-width:1.5;"/>
    </g>
    <g id="line2d_37"/>
    <g id="text_21">
     <!-- A-bayesian -->
     <defs>
      <path d="M 6.203125 -19.96875 
L 5.21875 -11.71875 
Q 8.109375 -12.5 10.25 -12.5 
Q 13.1875 -12.5 14.9375 -11.515625 
Q 16.703125 -10.546875 17.828125 -8.796875 
Q 18.65625 -7.46875 20.515625 -2.25 
Q 20.75 -1.515625 21.296875 -0.09375 
L 1.609375 51.859375 
L 11.078125 51.859375 
L 21.875 21.828125 
Q 23.96875 16.109375 25.640625 9.8125 
Q 27.15625 15.875 29.25 21.625 
L 40.328125 51.859375 
L 49.125 51.859375 
L 29.390625 -0.875 
Q 26.21875 -9.421875 24.46875 -12.640625 
Q 22.125 -17 19.09375 -19.015625 
Q 16.0625 -21.046875 11.859375 -21.046875 
Q 9.328125 -21.046875 6.203125 -19.96875 
z
" id="ArialMT-121"/>
     </defs>
     <g style="fill:#262626;" transform="translate(734.7 208.555313)scale(0.1 -0.1)">
      <use xlink:href="#ArialMT-65"/>
      <use x="66.699219" xlink:href="#ArialMT-45"/>
      <use x="100" xlink:href="#ArialMT-98"/>
      <use x="155.615234" xlink:href="#ArialMT-97"/>
      <use x="211.230469" xlink:href="#ArialMT-121"/>
      <use x="261.230469" xlink:href="#ArialMT-101"/>
      <use x="316.845703" xlink:href="#ArialMT-115"/>
      <use x="366.845703" xlink:href="#ArialMT-105"/>
      <use x="389.0625" xlink:href="#ArialMT-97"/>
      <use x="444.677734" xlink:href="#ArialMT-110"/>
     </g>
    </g>
    <g id="line2d_38">
     <path d="M 706.7 219.317813 
L 726.7 219.317813 
" style="fill:none;stroke:#ff7f00;stroke-linecap:round;stroke-width:1.5;"/>
    </g>
    <g id="line2d_39"/>
    <g id="text_22">
     <!-- B-bayesian -->
     <g style="fill:#262626;" transform="translate(734.7 222.817813)scale(0.1 -0.1)">
      <use xlink:href="#ArialMT-66"/>
      <use x="66.699219" xlink:href="#ArialMT-45"/>
      <use x="100" xlink:href="#ArialMT-98"/>
      <use x="155.615234" xlink:href="#ArialMT-97"/>
      <use x="211.230469" xlink:href="#ArialMT-121"/>
      <use x="261.230469" xlink:href="#ArialMT-101"/>
      <use x="316.845703" xlink:href="#ArialMT-115"/>
      <use x="366.845703" xlink:href="#ArialMT-105"/>
      <use x="389.0625" xlink:href="#ArialMT-97"/>
      <use x="444.677734" xlink:href="#ArialMT-110"/>
     </g>
    </g>
    <g id="line2d_40">
     <path d="M 706.7 233.580312 
L 726.7 233.580312 
" style="fill:none;stroke:#808080;stroke-dasharray:5.55,2.4;stroke-dashoffset:0;stroke-width:1.5;"/>
    </g>
    <g id="line2d_41"/>
    <g id="text_23">
     <!-- Real CTR A -->
     <defs>
      <path d="M 7.859375 0 
L 7.859375 71.578125 
L 39.59375 71.578125 
Q 49.171875 71.578125 54.140625 69.640625 
Q 59.125 67.71875 62.109375 62.828125 
Q 65.09375 57.953125 65.09375 52.046875 
Q 65.09375 44.4375 60.15625 39.203125 
Q 55.21875 33.984375 44.921875 32.5625 
Q 48.6875 30.765625 50.640625 29 
Q 54.78125 25.203125 58.5 19.484375 
L 70.953125 0 
L 59.03125 0 
L 49.5625 14.890625 
Q 45.40625 21.34375 42.71875 24.75 
Q 40.046875 28.171875 37.921875 29.53125 
Q 35.796875 30.90625 33.59375 31.453125 
Q 31.984375 31.78125 28.328125 31.78125 
L 17.328125 31.78125 
L 17.328125 0 
z
M 17.328125 39.984375 
L 37.703125 39.984375 
Q 44.1875 39.984375 47.84375 41.328125 
Q 51.515625 42.671875 53.421875 45.625 
Q 55.328125 48.578125 55.328125 52.046875 
Q 55.328125 57.125 51.640625 60.390625 
Q 47.953125 63.671875 39.984375 63.671875 
L 17.328125 63.671875 
z
" id="ArialMT-82"/>
      <path d="M 58.796875 25.09375 
L 68.265625 22.703125 
Q 65.28125 11.03125 57.546875 4.90625 
Q 49.8125 -1.21875 38.625 -1.21875 
Q 27.046875 -1.21875 19.796875 3.484375 
Q 12.546875 8.203125 8.765625 17.140625 
Q 4.984375 26.078125 4.984375 36.328125 
Q 4.984375 47.515625 9.25 55.828125 
Q 13.53125 64.15625 21.40625 68.46875 
Q 29.296875 72.796875 38.765625 72.796875 
Q 49.515625 72.796875 56.828125 67.328125 
Q 64.15625 61.859375 67.046875 51.953125 
L 57.71875 49.75 
Q 55.21875 57.5625 50.484375 61.125 
Q 45.75 64.703125 38.578125 64.703125 
Q 30.328125 64.703125 24.78125 60.734375 
Q 19.234375 56.78125 16.984375 50.109375 
Q 14.75 43.453125 14.75 36.375 
Q 14.75 27.25 17.40625 20.4375 
Q 20.0625 13.625 25.671875 10.25 
Q 31.296875 6.890625 37.84375 6.890625 
Q 45.796875 6.890625 51.3125 11.46875 
Q 56.84375 16.0625 58.796875 25.09375 
z
" id="ArialMT-67"/>
      <path d="M 25.921875 0 
L 25.921875 63.140625 
L 2.34375 63.140625 
L 2.34375 71.578125 
L 59.078125 71.578125 
L 59.078125 63.140625 
L 35.40625 63.140625 
L 35.40625 0 
z
" id="ArialMT-84"/>
     </defs>
     <g style="fill:#262626;" transform="translate(734.7 237.080312)scale(0.1 -0.1)">
      <use xlink:href="#ArialMT-82"/>
      <use x="72.216797" xlink:href="#ArialMT-101"/>
      <use x="127.832031" xlink:href="#ArialMT-97"/>
      <use x="183.447266" xlink:href="#ArialMT-108"/>
      <use x="205.664062" xlink:href="#ArialMT-32"/>
      <use x="233.447266" xlink:href="#ArialMT-67"/>
      <use x="305.664062" xlink:href="#ArialMT-84"/>
      <use x="366.748047" xlink:href="#ArialMT-82"/>
      <use x="438.964844" xlink:href="#ArialMT-32"/>
      <use x="466.669922" xlink:href="#ArialMT-65"/>
     </g>
    </g>
    <g id="line2d_42">
     <path d="M 706.7 247.725625 
L 726.7 247.725625 
" style="fill:none;stroke:#000000;stroke-dasharray:5.55,2.4;stroke-dashoffset:0;stroke-width:1.5;"/>
    </g>
    <g id="line2d_43"/>
    <g id="text_24">
     <!-- Real CTR B -->
     <g style="fill:#262626;" transform="translate(734.7 251.225625)scale(0.1 -0.1)">
      <use xlink:href="#ArialMT-82"/>
      <use x="72.216797" xlink:href="#ArialMT-101"/>
      <use x="127.832031" xlink:href="#ArialMT-97"/>
      <use x="183.447266" xlink:href="#ArialMT-108"/>
      <use x="205.664062" xlink:href="#ArialMT-32"/>
      <use x="233.447266" xlink:href="#ArialMT-67"/>
      <use x="305.664062" xlink:href="#ArialMT-84"/>
      <use x="366.748047" xlink:href="#ArialMT-82"/>
      <use x="438.964844" xlink:href="#ArialMT-32"/>
      <use x="466.748047" xlink:href="#ArialMT-66"/>
     </g>
    </g>
   </g>
  </g>
 </g>
 <defs>
  <clipPath id="p8140bdd02d">
   <rect height="326.16" width="669.6" x="28.1" y="21.789375"/>
  </clipPath>
 </defs>
</svg>
