<?xml version="1.0" encoding="utf-8" standalone="no"?>
<!DOCTYPE svg PUBLIC "-//W3C//DTD SVG 1.1//EN"
  "http://www.w3.org/Graphics/SVG/1.1/DTD/svg11.dtd">
<!-- Created with matplotlib (https://matplotlib.org/) -->
<svg height="371.294688pt" version="1.1" viewBox="0 0 790.904687 371.294688" width="790.904687pt" xmlns="http://www.w3.org/2000/svg" xmlns:xlink="http://www.w3.org/1999/xlink">
 <defs>
  <style type="text/css">
*{stroke-linecap:butt;stroke-linejoin:round;}
  </style>
 </defs>
 <g id="figure_1">
  <g id="patch_1">
   <path d="M 0 371.294688 
L 790.904687 371.294688 
L 790.904687 0 
L 0 0 
z
" style="fill:none;"/>
  </g>
  <g id="axes_1">
   <g id="patch_2">
    <path d="M 19.760937 347.949375 
L 689.360937 347.949375 
L 689.360937 21.789375 
L 19.760937 21.789375 
z
" style="fill:#e6e6e6;"/>
   </g>
   <g id="matplotlib.axis_1">
    <g id="xtick_1">
     <g id="line2d_1">
      <path clip-path="url(#p4e4cb01ea3)" d="M 50.197301 347.949375 
L 50.197301 21.789375 
" style="fill:none;stroke:#ffffff;stroke-linecap:round;stroke-width:0.8;"/>
     </g>
     <g id="text_1">
      <!-- 0.0 -->
      <defs>
       <path d="M 4.15625 35.296875 
Q 4.15625 48 6.765625 55.734375 
Q 9.375 63.484375 14.515625 67.671875 
Q 19.671875 71.875 27.484375 71.875 
Q 33.25 71.875 37.59375 69.546875 
Q 41.9375 67.234375 44.765625 62.859375 
Q 47.609375 58.5 49.21875 52.21875 
Q 50.828125 45.953125 50.828125 35.296875 
Q 50.828125 22.703125 48.234375 14.96875 
Q 45.65625 7.234375 40.5 3 
Q 35.359375 -1.21875 27.484375 -1.21875 
Q 17.140625 -1.21875 11.234375 6.203125 
Q 4.15625 15.140625 4.15625 35.296875 
z
M 13.1875 35.296875 
Q 13.1875 17.671875 17.3125 11.828125 
Q 21.4375 6 27.484375 6 
Q 33.546875 6 37.671875 11.859375 
Q 41.796875 17.71875 41.796875 35.296875 
Q 41.796875 52.984375 37.671875 58.78125 
Q 33.546875 64.59375 27.390625 64.59375 
Q 21.34375 64.59375 17.71875 59.46875 
Q 13.1875 52.9375 13.1875 35.296875 
z
" id="ArialMT-48"/>
       <path d="M 9.078125 0 
L 9.078125 10.015625 
L 19.09375 10.015625 
L 19.09375 0 
z
" id="ArialMT-46"/>
      </defs>
      <g style="fill:#262626;" transform="translate(43.247301 362.107188)scale(0.1 -0.1)">
       <use xlink:href="#ArialMT-48"/>
       <use x="55.615234" xlink:href="#ArialMT-46"/>
       <use x="83.398438" xlink:href="#ArialMT-48"/>
      </g>
     </g>
    </g>
    <g id="xtick_2">
     <g id="line2d_2">
      <path clip-path="url(#p4e4cb01ea3)" d="M 171.942756 347.949375 
L 171.942756 21.789375 
" style="fill:none;stroke:#ffffff;stroke-linecap:round;stroke-width:0.8;"/>
     </g>
     <g id="text_2">
      <!-- 0.2 -->
      <defs>
       <path d="M 50.34375 8.453125 
L 50.34375 0 
L 3.03125 0 
Q 2.9375 3.171875 4.046875 6.109375 
Q 5.859375 10.9375 9.828125 15.625 
Q 13.8125 20.3125 21.34375 26.46875 
Q 33.015625 36.03125 37.109375 41.625 
Q 41.21875 47.21875 41.21875 52.203125 
Q 41.21875 57.421875 37.46875 61 
Q 33.734375 64.59375 27.734375 64.59375 
Q 21.390625 64.59375 17.578125 60.78125 
Q 13.765625 56.984375 13.71875 50.25 
L 4.6875 51.171875 
Q 5.609375 61.28125 11.65625 66.578125 
Q 17.71875 71.875 27.9375 71.875 
Q 38.234375 71.875 44.234375 66.15625 
Q 50.25 60.453125 50.25 52 
Q 50.25 47.703125 48.484375 43.546875 
Q 46.734375 39.40625 42.65625 34.8125 
Q 38.578125 30.21875 29.109375 22.21875 
Q 21.1875 15.578125 18.9375 13.203125 
Q 16.703125 10.84375 15.234375 8.453125 
z
" id="ArialMT-50"/>
      </defs>
      <g style="fill:#262626;" transform="translate(164.992756 362.107188)scale(0.1 -0.1)">
       <use xlink:href="#ArialMT-48"/>
       <use x="55.615234" xlink:href="#ArialMT-46"/>
       <use x="83.398438" xlink:href="#ArialMT-50"/>
      </g>
     </g>
    </g>
    <g id="xtick_3">
     <g id="line2d_3">
      <path clip-path="url(#p4e4cb01ea3)" d="M 293.68821 347.949375 
L 293.68821 21.789375 
" style="fill:none;stroke:#ffffff;stroke-linecap:round;stroke-width:0.8;"/>
     </g>
     <g id="text_3">
      <!-- 0.4 -->
      <defs>
       <path d="M 32.328125 0 
L 32.328125 17.140625 
L 1.265625 17.140625 
L 1.265625 25.203125 
L 33.9375 71.578125 
L 41.109375 71.578125 
L 41.109375 25.203125 
L 50.78125 25.203125 
L 50.78125 17.140625 
L 41.109375 17.140625 
L 41.109375 0 
z
M 32.328125 25.203125 
L 32.328125 57.46875 
L 9.90625 25.203125 
z
" id="ArialMT-52"/>
      </defs>
      <g style="fill:#262626;" transform="translate(286.73821 362.107188)scale(0.1 -0.1)">
       <use xlink:href="#ArialMT-48"/>
       <use x="55.615234" xlink:href="#ArialMT-46"/>
       <use x="83.398438" xlink:href="#ArialMT-52"/>
      </g>
     </g>
    </g>
    <g id="xtick_4">
     <g id="line2d_4">
      <path clip-path="url(#p4e4cb01ea3)" d="M 415.433665 347.949375 
L 415.433665 21.789375 
" style="fill:none;stroke:#ffffff;stroke-linecap:round;stroke-width:0.8;"/>
     </g>
     <g id="text_4">
      <!-- 0.6 -->
      <defs>
       <path d="M 49.75 54.046875 
L 41.015625 53.375 
Q 39.84375 58.546875 37.703125 60.890625 
Q 34.125 64.65625 28.90625 64.65625 
Q 24.703125 64.65625 21.53125 62.3125 
Q 17.390625 59.28125 14.984375 53.46875 
Q 12.59375 47.65625 12.5 36.921875 
Q 15.671875 41.75 20.265625 44.09375 
Q 24.859375 46.4375 29.890625 46.4375 
Q 38.671875 46.4375 44.84375 39.96875 
Q 51.03125 33.5 51.03125 23.25 
Q 51.03125 16.5 48.125 10.71875 
Q 45.21875 4.9375 40.140625 1.859375 
Q 35.0625 -1.21875 28.609375 -1.21875 
Q 17.625 -1.21875 10.6875 6.859375 
Q 3.765625 14.9375 3.765625 33.5 
Q 3.765625 54.25 11.421875 63.671875 
Q 18.109375 71.875 29.4375 71.875 
Q 37.890625 71.875 43.28125 67.140625 
Q 48.6875 62.40625 49.75 54.046875 
z
M 13.875 23.1875 
Q 13.875 18.65625 15.796875 14.5 
Q 17.71875 10.359375 21.1875 8.171875 
Q 24.65625 6 28.46875 6 
Q 34.03125 6 38.03125 10.484375 
Q 42.046875 14.984375 42.046875 22.703125 
Q 42.046875 30.125 38.078125 34.390625 
Q 34.125 38.671875 28.125 38.671875 
Q 22.171875 38.671875 18.015625 34.390625 
Q 13.875 30.125 13.875 23.1875 
z
" id="ArialMT-54"/>
      </defs>
      <g style="fill:#262626;" transform="translate(408.483665 362.107188)scale(0.1 -0.1)">
       <use xlink:href="#ArialMT-48"/>
       <use x="55.615234" xlink:href="#ArialMT-46"/>
       <use x="83.398438" xlink:href="#ArialMT-54"/>
      </g>
     </g>
    </g>
    <g id="xtick_5">
     <g id="line2d_5">
      <path clip-path="url(#p4e4cb01ea3)" d="M 537.179119 347.949375 
L 537.179119 21.789375 
" style="fill:none;stroke:#ffffff;stroke-linecap:round;stroke-width:0.8;"/>
     </g>
     <g id="text_5">
      <!-- 0.8 -->
      <defs>
       <path d="M 17.671875 38.8125 
Q 12.203125 40.828125 9.5625 44.53125 
Q 6.9375 48.25 6.9375 53.421875 
Q 6.9375 61.234375 12.546875 66.546875 
Q 18.171875 71.875 27.484375 71.875 
Q 36.859375 71.875 42.578125 66.421875 
Q 48.296875 60.984375 48.296875 53.171875 
Q 48.296875 48.1875 45.671875 44.5 
Q 43.0625 40.828125 37.75 38.8125 
Q 44.34375 36.671875 47.78125 31.875 
Q 51.21875 27.09375 51.21875 20.453125 
Q 51.21875 11.28125 44.71875 5.03125 
Q 38.234375 -1.21875 27.640625 -1.21875 
Q 17.046875 -1.21875 10.546875 5.046875 
Q 4.046875 11.328125 4.046875 20.703125 
Q 4.046875 27.6875 7.59375 32.390625 
Q 11.140625 37.109375 17.671875 38.8125 
z
M 15.921875 53.71875 
Q 15.921875 48.640625 19.1875 45.40625 
Q 22.46875 42.1875 27.6875 42.1875 
Q 32.765625 42.1875 36.015625 45.375 
Q 39.265625 48.578125 39.265625 53.21875 
Q 39.265625 58.0625 35.90625 61.359375 
Q 32.5625 64.65625 27.59375 64.65625 
Q 22.5625 64.65625 19.234375 61.421875 
Q 15.921875 58.203125 15.921875 53.71875 
z
M 13.09375 20.65625 
Q 13.09375 16.890625 14.875 13.375 
Q 16.65625 9.859375 20.171875 7.921875 
Q 23.6875 6 27.734375 6 
Q 34.03125 6 38.125 10.046875 
Q 42.234375 14.109375 42.234375 20.359375 
Q 42.234375 26.703125 38.015625 30.859375 
Q 33.796875 35.015625 27.4375 35.015625 
Q 21.234375 35.015625 17.15625 30.90625 
Q 13.09375 26.8125 13.09375 20.65625 
z
" id="ArialMT-56"/>
      </defs>
      <g style="fill:#262626;" transform="translate(530.229119 362.107188)scale(0.1 -0.1)">
       <use xlink:href="#ArialMT-48"/>
       <use x="55.615234" xlink:href="#ArialMT-46"/>
       <use x="83.398438" xlink:href="#ArialMT-56"/>
      </g>
     </g>
    </g>
    <g id="xtick_6">
     <g id="line2d_6">
      <path clip-path="url(#p4e4cb01ea3)" d="M 658.924574 347.949375 
L 658.924574 21.789375 
" style="fill:none;stroke:#ffffff;stroke-linecap:round;stroke-width:0.8;"/>
     </g>
     <g id="text_6">
      <!-- 1.0 -->
      <defs>
       <path d="M 37.25 0 
L 28.46875 0 
L 28.46875 56 
Q 25.296875 52.984375 20.140625 49.953125 
Q 14.984375 46.921875 10.890625 45.40625 
L 10.890625 53.90625 
Q 18.265625 57.375 23.78125 62.296875 
Q 29.296875 67.234375 31.59375 71.875 
L 37.25 71.875 
z
" id="ArialMT-49"/>
      </defs>
      <g style="fill:#262626;" transform="translate(651.974574 362.107188)scale(0.1 -0.1)">
       <use xlink:href="#ArialMT-49"/>
       <use x="55.615234" xlink:href="#ArialMT-46"/>
       <use x="83.398438" xlink:href="#ArialMT-48"/>
      </g>
     </g>
    </g>
   </g>
   <g id="matplotlib.axis_2">
    <g id="ytick_1">
     <g id="line2d_7">
      <path clip-path="url(#p4e4cb01ea3)" d="M 19.760937 333.12392 
L 689.360937 333.12392 
" style="fill:none;stroke:#ffffff;stroke-linecap:round;stroke-width:0.8;"/>
     </g>
     <g id="text_7">
      <!-- 0 -->
      <g style="fill:#262626;" transform="translate(7.2 336.702827)scale(0.1 -0.1)">
       <use xlink:href="#ArialMT-48"/>
      </g>
     </g>
    </g>
    <g id="ytick_2">
     <g id="line2d_8">
      <path clip-path="url(#p4e4cb01ea3)" d="M 19.760937 289.549179 
L 689.360937 289.549179 
" style="fill:none;stroke:#ffffff;stroke-linecap:round;stroke-width:0.8;"/>
     </g>
     <g id="text_8">
      <!-- 1 -->
      <g style="fill:#262626;" transform="translate(7.2 293.128085)scale(0.1 -0.1)">
       <use xlink:href="#ArialMT-49"/>
      </g>
     </g>
    </g>
    <g id="ytick_3">
     <g id="line2d_9">
      <path clip-path="url(#p4e4cb01ea3)" d="M 19.760937 245.974437 
L 689.360937 245.974437 
" style="fill:none;stroke:#ffffff;stroke-linecap:round;stroke-width:0.8;"/>
     </g>
     <g id="text_9">
      <!-- 2 -->
      <g style="fill:#262626;" transform="translate(7.2 249.553343)scale(0.1 -0.1)">
       <use xlink:href="#ArialMT-50"/>
      </g>
     </g>
    </g>
    <g id="ytick_4">
     <g id="line2d_10">
      <path clip-path="url(#p4e4cb01ea3)" d="M 19.760937 202.399695 
L 689.360937 202.399695 
" style="fill:none;stroke:#ffffff;stroke-linecap:round;stroke-width:0.8;"/>
     </g>
     <g id="text_10">
      <!-- 3 -->
      <defs>
       <path d="M 4.203125 18.890625 
L 12.984375 20.0625 
Q 14.5 12.59375 18.140625 9.296875 
Q 21.78125 6 27 6 
Q 33.203125 6 37.46875 10.296875 
Q 41.75 14.59375 41.75 20.953125 
Q 41.75 27 37.796875 30.921875 
Q 33.84375 34.859375 27.734375 34.859375 
Q 25.25 34.859375 21.53125 33.890625 
L 22.515625 41.609375 
Q 23.390625 41.5 23.921875 41.5 
Q 29.546875 41.5 34.03125 44.421875 
Q 38.53125 47.359375 38.53125 53.46875 
Q 38.53125 58.296875 35.25 61.46875 
Q 31.984375 64.65625 26.8125 64.65625 
Q 21.6875 64.65625 18.265625 61.421875 
Q 14.84375 58.203125 13.875 51.765625 
L 5.078125 53.328125 
Q 6.6875 62.15625 12.390625 67.015625 
Q 18.109375 71.875 26.609375 71.875 
Q 32.46875 71.875 37.390625 69.359375 
Q 42.328125 66.84375 44.9375 62.5 
Q 47.5625 58.15625 47.5625 53.265625 
Q 47.5625 48.640625 45.0625 44.828125 
Q 42.578125 41.015625 37.703125 38.765625 
Q 44.046875 37.3125 47.5625 32.6875 
Q 51.078125 28.078125 51.078125 21.140625 
Q 51.078125 11.765625 44.234375 5.25 
Q 37.40625 -1.265625 26.953125 -1.265625 
Q 17.53125 -1.265625 11.296875 4.34375 
Q 5.078125 9.96875 4.203125 18.890625 
z
" id="ArialMT-51"/>
      </defs>
      <g style="fill:#262626;" transform="translate(7.2 205.978601)scale(0.1 -0.1)">
       <use xlink:href="#ArialMT-51"/>
      </g>
     </g>
    </g>
    <g id="ytick_5">
     <g id="line2d_11">
      <path clip-path="url(#p4e4cb01ea3)" d="M 19.760937 158.824953 
L 689.360937 158.824953 
" style="fill:none;stroke:#ffffff;stroke-linecap:round;stroke-width:0.8;"/>
     </g>
     <g id="text_11">
      <!-- 4 -->
      <g style="fill:#262626;" transform="translate(7.2 162.40386)scale(0.1 -0.1)">
       <use xlink:href="#ArialMT-52"/>
      </g>
     </g>
    </g>
    <g id="ytick_6">
     <g id="line2d_12">
      <path clip-path="url(#p4e4cb01ea3)" d="M 19.760937 115.250212 
L 689.360937 115.250212 
" style="fill:none;stroke:#ffffff;stroke-linecap:round;stroke-width:0.8;"/>
     </g>
     <g id="text_12">
      <!-- 5 -->
      <defs>
       <path d="M 4.15625 18.75 
L 13.375 19.53125 
Q 14.40625 12.796875 18.140625 9.390625 
Q 21.875 6 27.15625 6 
Q 33.5 6 37.890625 10.78125 
Q 42.28125 15.578125 42.28125 23.484375 
Q 42.28125 31 38.0625 35.34375 
Q 33.84375 39.703125 27 39.703125 
Q 22.75 39.703125 19.328125 37.765625 
Q 15.921875 35.84375 13.96875 32.765625 
L 5.71875 33.84375 
L 12.640625 70.609375 
L 48.25 70.609375 
L 48.25 62.203125 
L 19.671875 62.203125 
L 15.828125 42.96875 
Q 22.265625 47.46875 29.34375 47.46875 
Q 38.71875 47.46875 45.15625 40.96875 
Q 51.609375 34.46875 51.609375 24.265625 
Q 51.609375 14.546875 45.953125 7.46875 
Q 39.0625 -1.21875 27.15625 -1.21875 
Q 17.390625 -1.21875 11.203125 4.25 
Q 5.03125 9.71875 4.15625 18.75 
z
" id="ArialMT-53"/>
      </defs>
      <g style="fill:#262626;" transform="translate(7.2 118.829118)scale(0.1 -0.1)">
       <use xlink:href="#ArialMT-53"/>
      </g>
     </g>
    </g>
    <g id="ytick_7">
     <g id="line2d_13">
      <path clip-path="url(#p4e4cb01ea3)" d="M 19.760937 71.67547 
L 689.360937 71.67547 
" style="fill:none;stroke:#ffffff;stroke-linecap:round;stroke-width:0.8;"/>
     </g>
     <g id="text_13">
      <!-- 6 -->
      <g style="fill:#262626;" transform="translate(7.2 75.254376)scale(0.1 -0.1)">
       <use xlink:href="#ArialMT-54"/>
      </g>
     </g>
    </g>
    <g id="ytick_8">
     <g id="line2d_14">
      <path clip-path="url(#p4e4cb01ea3)" d="M 19.760937 28.100728 
L 689.360937 28.100728 
" style="fill:none;stroke:#ffffff;stroke-linecap:round;stroke-width:0.8;"/>
     </g>
     <g id="text_14">
      <!-- 7 -->
      <defs>
       <path d="M 4.734375 62.203125 
L 4.734375 70.65625 
L 51.078125 70.65625 
L 51.078125 63.8125 
Q 44.234375 56.546875 37.515625 44.484375 
Q 30.8125 32.421875 27.15625 19.671875 
Q 24.515625 10.6875 23.78125 0 
L 14.75 0 
Q 14.890625 8.453125 18.0625 20.40625 
Q 21.234375 32.375 27.171875 43.484375 
Q 33.109375 54.59375 39.796875 62.203125 
z
" id="ArialMT-55"/>
      </defs>
      <g style="fill:#262626;" transform="translate(7.2 31.679635)scale(0.1 -0.1)">
       <use xlink:href="#ArialMT-55"/>
      </g>
     </g>
    </g>
   </g>
   <g id="line2d_15">
    <path clip-path="url(#p4e4cb01ea3)" d="M 50.197301 333.12392 
L 135.84737 333.042049 
L 148.083094 332.832095 
L 157.259887 332.460295 
L 163.377749 332.035183 
L 169.495611 331.403053 
L 175.613473 330.494271 
L 181.731335 329.227569 
L 184.790266 328.43181 
L 187.849197 327.511728 
L 190.908128 326.454834 
L 193.967059 325.248444 
L 197.02599 323.879825 
L 200.084921 322.336369 
L 203.143852 320.605771 
L 206.202783 318.67623 
L 209.261714 316.536643 
L 212.320645 314.176821 
L 215.379576 311.587701 
L 218.438507 308.761554 
L 221.497438 305.692193 
L 224.556369 302.375175 
L 227.6153 298.807988 
L 230.674231 294.99022 
L 233.733162 290.92372 
L 236.792093 286.612721 
L 239.851024 282.063954 
L 242.909955 277.286722 
L 249.027817 267.097194 
L 255.145679 256.171023 
L 261.263541 244.675856 
L 270.440334 226.823652 
L 279.617128 208.978397 
L 285.73499 197.536736 
L 291.852852 186.786684 
L 294.911783 181.757475 
L 297.970714 177.003167 
L 301.029645 172.555327 
L 304.088576 168.443765 
L 307.147507 164.696224 
L 310.206438 161.338091 
L 313.265369 158.392127 
L 316.3243 155.878241 
L 319.383231 153.813273 
L 322.442162 152.210834 
L 325.501093 151.081168 
L 328.560024 150.431052 
L 331.618955 150.263748 
L 334.677886 150.578977 
L 337.736817 151.372949 
L 340.795748 152.638418 
L 343.854679 154.364782 
L 346.91361 156.538223 
L 349.972541 159.141867 
L 353.031472 162.155994 
L 356.090403 165.558255 
L 359.149334 169.323936 
L 362.208265 173.426224 
L 365.267196 177.836502 
L 368.326127 182.524654 
L 371.385058 187.459378 
L 377.50292 197.939319 
L 383.620782 209.014309 
L 408.09223 254.253059 
L 414.210092 264.714539 
L 420.327954 274.504544 
L 423.386885 279.113143 
L 426.445816 283.516809 
L 429.504747 287.707781 
L 432.563678 291.680409 
L 435.622609 295.431078 
L 438.681541 298.958095 
L 441.740472 302.261582 
L 444.799403 305.343335 
L 447.858334 308.206688 
L 450.917265 310.85636 
L 453.976196 313.298303 
L 457.035127 315.539539 
L 460.094058 317.588004 
L 463.152989 319.452389 
L 466.21192 321.141987 
L 469.270851 322.666543 
L 472.329782 324.036115 
L 475.388713 325.260936 
L 478.447644 326.351297 
L 484.565506 328.169414 
L 490.683368 329.5699 
L 496.80123 330.627092 
L 502.919092 331.408323 
L 509.036954 331.972769 
L 518.213747 332.521085 
L 527.39054 332.827884 
L 542.685195 333.04733 
L 570.215574 333.120577 
L 658.924574 333.12392 
L 658.924574 333.12392 
" style="fill:none;stroke:#a6cee3;stroke-linecap:round;stroke-width:1.5;"/>
   </g>
   <g id="line2d_16">
    <path clip-path="url(#p4e4cb01ea3)" d="M 50.197301 333.12392 
L 68.550887 333.060435 
L 74.668749 332.828205 
L 77.72768 332.578473 
L 80.786611 332.190568 
L 83.845542 331.621019 
L 86.904473 330.82264 
L 89.963404 329.74618 
L 93.022335 328.342109 
L 96.081266 326.562445 
L 99.140197 324.362538 
L 102.199128 321.702722 
L 105.258059 318.549794 
L 108.31699 314.878249 
L 111.375922 310.671267 
L 114.434853 305.921412 
L 117.493784 300.631054 
L 120.552715 294.812506 
L 123.611646 288.487899 
L 126.670577 281.688811 
L 129.729508 274.455676 
L 132.788439 266.83701 
L 138.906301 250.67182 
L 148.083094 225.097621 
L 154.200956 208.006539 
L 160.318818 191.568979 
L 163.377749 183.770987 
L 166.43668 176.340369 
L 169.495611 169.336524 
L 172.554542 162.813455 
L 175.613473 156.819234 
L 178.672404 151.39559 
L 181.731335 146.577614 
L 184.790266 142.393583 
L 187.849197 138.864894 
L 190.908128 136.006097 
L 193.967059 133.82503 
L 197.02599 132.323034 
L 200.084921 131.495247 
L 203.143852 131.330962 
L 206.202783 131.814043 
L 209.261714 132.923384 
L 212.320645 134.633399 
L 215.379576 136.914548 
L 218.438507 139.733862 
L 221.497438 143.055491 
L 224.556369 146.841238 
L 227.6153 151.051092 
L 230.674231 155.64374 
L 233.733162 160.577062 
L 236.792093 165.808598 
L 242.909955 176.997358 
L 249.027817 188.879288 
L 261.263541 213.502753 
L 270.440334 231.687222 
L 276.558197 243.276895 
L 282.676059 254.254852 
L 288.793921 264.506019 
L 291.852852 269.333109 
L 294.911783 273.95163 
L 297.970714 278.356865 
L 301.029645 282.545906 
L 304.088576 286.517526 
L 307.147507 290.272029 
L 310.206438 293.811116 
L 313.265369 297.137733 
L 316.3243 300.255936 
L 319.383231 303.17075 
L 322.442162 305.888034 
L 325.501093 308.414351 
L 328.560024 310.75685 
L 331.618955 312.923142 
L 334.677886 314.921195 
L 337.736817 316.759235 
L 340.795748 318.44565 
L 343.854679 319.988905 
L 346.91361 321.397468 
L 353.031472 323.843999 
L 359.149334 325.850633 
L 365.267196 327.479249 
L 371.385058 328.787111 
L 377.50292 329.826178 
L 383.620782 330.642746 
L 389.738644 331.277379 
L 398.915437 331.963266 
L 408.09223 332.413529 
L 420.327954 332.770617 
L 435.622609 332.987221 
L 463.152989 333.104557 
L 557.97985 333.12392 
L 658.924574 333.12392 
L 658.924574 333.12392 
" style="fill:none;stroke:#1f78b4;stroke-linecap:round;stroke-width:1.5;"/>
   </g>
   <g id="line2d_17">
    <path clip-path="url(#p4e4cb01ea3)" d="M 50.197301 333.12392 
L 53.256232 321.226784 
L 56.315163 310.041642 
L 59.374094 299.541732 
L 62.433025 289.701006 
L 65.491956 280.494123 
L 68.550887 271.896436 
L 71.609818 263.883974 
L 74.668749 256.433432 
L 77.72768 249.522159 
L 80.786611 243.128142 
L 83.845542 237.229996 
L 86.904473 231.806949 
L 89.963404 226.838834 
L 93.022335 222.30607 
L 96.081266 218.189659 
L 99.140197 214.471163 
L 102.199128 211.132704 
L 105.258059 208.156942 
L 108.31699 205.527073 
L 111.375922 203.226808 
L 114.434853 201.240372 
L 117.493784 199.552485 
L 120.552715 198.148355 
L 123.611646 197.013665 
L 126.670577 196.134568 
L 129.729508 195.497669 
L 132.788439 195.09002 
L 135.84737 194.899109 
L 138.906301 194.912847 
L 141.965232 195.119564 
L 145.024163 195.507994 
L 148.083094 196.067268 
L 151.142025 196.786905 
L 154.200956 197.656801 
L 157.259887 198.667221 
L 160.318818 199.80879 
L 166.43668 202.449625 
L 172.554542 205.511175 
L 178.672404 208.93052 
L 184.790266 212.649685 
L 190.908128 216.615388 
L 200.084921 222.920532 
L 209.261714 229.52418 
L 224.556369 240.854831 
L 242.909955 254.414754 
L 255.145679 263.144603 
L 264.322472 269.43152 
L 273.499266 275.447613 
L 282.676059 281.160758 
L 291.852852 286.547524 
L 301.029645 291.59216 
L 310.206438 296.28564 
L 319.383231 300.624781 
L 328.560024 304.611424 
L 337.736817 308.251677 
L 346.91361 311.555215 
L 356.090403 314.534644 
L 365.267196 317.204915 
L 374.443989 319.582792 
L 383.620782 321.686374 
L 392.797575 323.534666 
L 401.974368 325.147191 
L 411.151161 326.543655 
L 420.327954 327.743648 
L 432.563678 329.071153 
L 444.799403 330.127317 
L 457.035127 330.953387 
L 472.329782 331.720107 
L 487.624437 332.253126 
L 505.978023 332.664238 
L 530.449471 332.953765 
L 564.097712 333.094481 
L 646.68885 333.12392 
L 658.924574 333.12392 
L 658.924574 333.12392 
" style="fill:none;stroke:#b2df8a;stroke-linecap:round;stroke-width:1.5;"/>
   </g>
   <g id="line2d_18">
    <path clip-path="url(#p4e4cb01ea3)" d="M 50.197301 333.12392 
L 68.550887 333.05889 
L 71.609818 332.937829 
L 74.668749 332.672806 
L 77.72768 332.160724 
L 80.786611 331.263711 
L 83.845542 329.812114 
L 86.904473 327.611975 
L 89.963404 324.456326 
L 93.022335 320.139173 
L 96.081266 314.470753 
L 99.140197 307.292594 
L 102.199128 298.491036 
L 105.258059 288.008099 
L 108.31699 275.848907 
L 111.375922 262.08526 
L 114.434853 246.855241 
L 117.493784 230.359097 
L 120.552715 212.851854 
L 126.670577 176.036116 
L 132.788439 139.122698 
L 135.84737 121.518482 
L 138.906301 104.934795 
L 141.965232 89.67749 
L 145.024163 76.015013 
L 148.083094 64.171765 
L 151.142025 54.323572 
L 154.200956 46.595243 
L 157.259887 41.060109 
L 160.318818 37.741346 
L 163.377749 36.61483 
L 166.43668 37.613265 
L 169.495611 40.631268 
L 172.554542 45.531131 
L 175.613473 52.148966 
L 178.672404 60.30099 
L 181.731335 69.789701 
L 184.790266 80.40977 
L 187.849197 91.953494 
L 190.908128 104.215671 
L 197.02599 130.111894 
L 206.202783 169.773537 
L 212.320645 195.099599 
L 215.379576 207.106998 
L 218.438507 218.575936 
L 221.497438 229.451261 
L 224.556369 239.693219 
L 227.6153 249.276134 
L 230.674231 258.186963 
L 233.733162 266.423784 
L 236.792093 273.994256 
L 239.851024 280.914115 
L 242.909955 287.205716 
L 245.968886 292.896665 
L 249.027817 298.018554 
L 252.086748 302.605811 
L 255.145679 306.694677 
L 258.20461 310.322318 
L 261.263541 313.526055 
L 264.322472 316.342725 
L 267.381403 318.808159 
L 270.440334 320.956769 
L 273.499266 322.82123 
L 276.558197 324.432257 
L 279.617128 325.818457 
L 282.676059 327.006246 
L 285.73499 328.019827 
L 288.793921 328.881209 
L 291.852852 329.610266 
L 297.970714 330.740783 
L 304.088576 331.531517 
L 310.206438 332.075779 
L 319.383231 332.579964 
L 328.560024 332.851298 
L 343.854679 333.044328 
L 374.443989 333.118992 
L 646.68885 333.12392 
L 658.924574 333.12392 
L 658.924574 333.12392 
" style="fill:none;stroke:#33a02c;stroke-linecap:round;stroke-width:1.5;"/>
   </g>
   <g id="line2d_19">
    <path clip-path="url(#p4e4cb01ea3)" d="M 50.197301 333.12392 
L 148.083094 333.022848 
L 160.318818 332.791098 
L 169.495611 332.397524 
L 175.613473 331.956995 
L 181.731335 331.310543 
L 187.849197 330.390498 
L 193.967059 329.117687 
L 197.02599 328.321422 
L 200.084921 327.402807 
L 203.143852 326.349507 
L 206.202783 325.148929 
L 209.261714 323.788367 
L 212.320645 322.255155 
L 215.379576 320.536845 
L 218.438507 318.621391 
L 221.497438 316.497346 
L 224.556369 314.154072 
L 227.6153 311.581951 
L 230.674231 308.772597 
L 233.733162 305.719074 
L 236.792093 302.416101 
L 239.851024 298.860255 
L 242.909955 295.05016 
L 245.968886 290.986656 
L 249.027817 286.672957 
L 252.086748 282.114775 
L 255.145679 277.320427 
L 261.263541 267.069935 
L 267.381403 256.04209 
L 273.499266 244.400408 
L 282.676059 226.242511 
L 291.852852 207.999078 
L 297.970714 196.254238 
L 304.088576 185.185505 
L 307.147507 179.995996 
L 310.206438 175.083613 
L 313.265369 170.48219 
L 316.3243 166.223852 
L 319.383231 162.338673 
L 322.442162 158.854338 
L 325.501093 155.795843 
L 328.560024 153.185216 
L 331.618955 151.041275 
L 334.677886 149.379417 
L 337.736817 148.211452 
L 340.795748 147.545475 
L 343.854679 147.385782 
L 346.91361 147.732828 
L 349.972541 148.583235 
L 353.031472 149.929837 
L 356.090403 151.761778 
L 359.149334 154.064641 
L 362.208265 156.820627 
L 365.267196 160.008763 
L 368.326127 163.605149 
L 371.385058 167.583234 
L 374.443989 171.91412 
L 377.50292 176.566879 
L 380.561851 181.508901 
L 383.620782 186.706242 
L 389.738644 197.726607 
L 395.856506 209.343488 
L 417.269023 250.750066 
L 423.386885 261.805476 
L 429.504747 272.171142 
L 432.563678 277.05423 
L 435.622609 281.720616 
L 438.681541 286.160769 
L 441.740472 290.367592 
L 444.799403 294.336338 
L 447.858334 298.064498 
L 450.917265 301.55167 
L 453.976196 304.79942 
L 457.035127 307.811111 
L 460.094058 310.591737 
L 463.152989 313.147736 
L 466.21192 315.486811 
L 469.270851 317.617736 
L 472.329782 319.550174 
L 475.388713 321.29449 
L 478.447644 322.861577 
L 481.506575 324.262685 
L 484.565506 325.509263 
L 487.624437 326.612814 
L 490.683368 327.58476 
L 496.80123 329.17841 
L 502.919092 330.375782 
L 509.036954 331.255023 
L 515.154816 331.885151 
L 521.272678 332.325193 
L 530.449471 332.733224 
L 542.685195 332.990458 
L 561.038781 333.104553 
L 625.276333 333.12392 
L 658.924574 333.12392 
L 658.924574 333.12392 
" style="fill:none;stroke:#fb9a99;stroke-linecap:round;stroke-width:1.5;"/>
   </g>
   <g id="line2d_20">
    <path clip-path="url(#p4e4cb01ea3)" d="M 50.197301 333.12392 
L 71.609818 333.015121 
L 77.72768 332.712596 
L 80.786611 332.41635 
L 83.845542 331.978518 
L 86.904473 331.360672 
L 89.963404 330.521971 
L 93.022335 329.420472 
L 96.081266 328.014528 
L 99.140197 326.264189 
L 102.199128 324.132551 
L 105.258059 321.58701 
L 108.31699 318.600366 
L 111.375922 315.151763 
L 114.434853 311.227429 
L 117.493784 306.82122 
L 120.552715 301.934946 
L 123.611646 296.578497 
L 126.670577 290.769768 
L 129.729508 284.534405 
L 132.788439 277.905382 
L 135.84737 270.922431 
L 141.965232 256.083219 
L 148.083094 240.441236 
L 160.318818 208.694522 
L 166.43668 193.596298 
L 169.495611 186.452307 
L 172.554542 179.651697 
L 175.613473 173.244582 
L 178.672404 167.276563 
L 181.731335 161.788313 
L 184.790266 156.815258 
L 187.849197 152.387341 
L 190.908128 148.528876 
L 193.967059 145.258493 
L 197.02599 142.589146 
L 200.084921 140.528211 
L 203.143852 139.077645 
L 206.202783 138.234196 
L 209.261714 137.989683 
L 212.320645 138.331305 
L 215.379576 139.241997 
L 218.438507 140.700812 
L 221.497438 142.683329 
L 224.556369 145.16207 
L 227.6153 148.106935 
L 230.674231 151.485633 
L 233.733162 155.264108 
L 236.792093 159.406968 
L 239.851024 163.877886 
L 242.909955 168.639995 
L 245.968886 173.656257 
L 252.086748 184.304286 
L 258.20461 195.534759 
L 279.617128 235.747243 
L 285.73499 246.631073 
L 291.852852 256.957692 
L 297.970714 266.623719 
L 304.088576 275.556987 
L 307.147507 279.73419 
L 310.206438 283.713932 
L 313.265369 287.494708 
L 316.3243 291.076377 
L 319.383231 294.460044 
L 322.442162 297.64794 
L 325.501093 300.643305 
L 328.560024 303.450274 
L 331.618955 306.073756 
L 334.677886 308.519331 
L 337.736817 310.793139 
L 340.795748 312.90178 
L 343.854679 314.852221 
L 346.91361 316.651704 
L 349.972541 318.307662 
L 353.031472 319.827648 
L 359.149334 322.490077 
L 365.267196 324.699248 
L 371.385058 326.513516 
L 377.50292 327.988045 
L 383.620782 329.173891 
L 389.738644 330.117415 
L 395.856506 330.85999 
L 405.033299 331.675168 
L 414.210092 332.220832 
L 426.445816 332.663473 
L 441.740472 332.940025 
L 466.21192 333.089251 
L 527.39054 333.123801 
L 658.924574 333.12392 
L 658.924574 333.12392 
" style="fill:none;stroke:#e31a1c;stroke-linecap:round;stroke-width:1.5;"/>
   </g>
   <g id="line2d_21">
    <path clip-path="url(#p4e4cb01ea3)" d="M 50.197301 333.12392 
L 53.256232 300.806284 
L 56.315163 271.990177 
L 59.374094 246.415646 
L 62.433025 223.83825 
L 65.491956 204.028292 
L 68.550887 186.77007 
L 71.609818 171.861171 
L 74.668749 159.111788 
L 77.72768 148.344065 
L 80.786611 139.39148 
L 83.845542 132.098245 
L 86.904473 126.318736 
L 89.963404 121.916952 
L 93.022335 118.765992 
L 96.081266 116.747558 
L 99.140197 115.751484 
L 102.199128 115.675282 
L 105.258059 116.423711 
L 108.31699 117.908364 
L 111.375922 120.04728 
L 114.434853 122.764569 
L 117.493784 125.990053 
L 120.552715 129.658933 
L 123.611646 133.711465 
L 126.670577 138.092653 
L 129.729508 142.751959 
L 135.84737 152.723415 
L 141.965232 163.300529 
L 154.200956 185.238689 
L 163.377749 201.604651 
L 169.495611 212.201476 
L 175.613473 222.427312 
L 181.731335 232.207569 
L 187.849197 241.488591 
L 193.967059 250.234362 
L 200.084921 258.423606 
L 206.202783 266.047242 
L 212.320645 273.10616 
L 218.438507 279.609281 
L 224.556369 285.571881 
L 230.674231 291.014147 
L 236.792093 295.959934 
L 242.909955 300.435718 
L 249.027817 304.469697 
L 255.145679 308.091056 
L 261.263541 311.329342 
L 267.381403 314.213964 
L 273.499266 316.773785 
L 279.617128 319.036798 
L 285.73499 321.029881 
L 291.852852 322.778615 
L 297.970714 324.307149 
L 304.088576 325.638116 
L 310.206438 326.792593 
L 319.383231 328.235619 
L 328.560024 329.38432 
L 337.736817 330.290359 
L 346.91361 330.998249 
L 359.149334 331.69854 
L 371.385058 332.186967 
L 386.679713 332.585892 
L 408.09223 332.891507 
L 438.681541 333.063583 
L 499.860161 333.121973 
L 658.924574 333.12392 
L 658.924574 333.12392 
" style="fill:none;stroke:#fdbf6f;stroke-linecap:round;stroke-width:1.5;"/>
   </g>
   <g id="line2d_22">
    <path clip-path="url(#p4e4cb01ea3)" d="M 50.197301 333.12392 
L 71.609818 333.057386 
L 77.72768 332.761034 
L 80.786611 332.404345 
L 83.845542 331.808395 
L 86.904473 330.875277 
L 89.963404 329.491823 
L 93.022335 327.534091 
L 96.081266 324.87329 
L 99.140197 321.382654 
L 102.199128 316.944781 
L 105.258059 311.458871 
L 108.31699 304.847375 
L 111.375922 297.061631 
L 114.434853 288.086156 
L 117.493784 277.941362 
L 120.552715 266.68461 
L 123.611646 254.409593 
L 126.670577 241.244147 
L 129.729508 227.34667 
L 135.84737 198.11267 
L 145.024163 153.90065 
L 148.083094 139.964294 
L 151.142025 126.787184 
L 154.200956 114.563227 
L 157.259887 103.465595 
L 160.318818 93.643212 
L 163.377749 85.218156 
L 166.43668 78.284006 
L 169.495611 72.905083 
L 172.554542 69.116547 
L 175.613473 66.925264 
L 178.672404 66.311347 
L 181.731335 67.230254 
L 184.790266 69.615345 
L 187.849197 73.380753 
L 190.908128 78.424489 
L 193.967059 84.631642 
L 197.02599 91.877591 
L 200.084921 100.031147 
L 203.143852 108.957538 
L 206.202783 118.521178 
L 212.320645 139.028617 
L 230.674231 203.143014 
L 236.792093 222.910706 
L 239.851024 232.204923 
L 242.909955 241.05479 
L 245.968886 249.433598 
L 249.027817 257.323223 
L 252.086748 264.713366 
L 255.145679 271.600743 
L 258.20461 277.988262 
L 261.263541 283.884187 
L 264.322472 289.301332 
L 267.381403 294.256271 
L 270.440334 298.768601 
L 273.499266 302.860248 
L 276.558197 306.554839 
L 279.617128 309.877127 
L 282.676059 312.852486 
L 285.73499 315.506468 
L 288.793921 317.86442 
L 291.852852 319.951169 
L 294.911783 321.790757 
L 297.970714 323.406237 
L 301.029645 324.819505 
L 304.088576 326.051195 
L 307.147507 327.120595 
L 310.206438 328.045609 
L 316.3243 329.527114 
L 322.442162 330.611322 
L 328.560024 331.393043 
L 334.677886 331.948314 
L 343.854679 332.483435 
L 353.031472 332.786397 
L 368.326127 333.016473 
L 395.856506 333.113381 
L 539.626264 333.12392 
L 658.924574 333.12392 
L 658.924574 333.12392 
" style="fill:none;stroke:#ff7f00;stroke-linecap:round;stroke-width:1.5;"/>
   </g>
   <g id="line2d_23">
    <path clip-path="url(#p4e4cb01ea3)" d="M 360.64821 347.949375 
L 360.64821 21.789375 
" style="fill:none;stroke:#808080;stroke-dasharray:5.55,2.4;stroke-dashoffset:0;stroke-width:1.5;"/>
   </g>
   <g id="line2d_24">
    <path clip-path="url(#p4e4cb01ea3)" d="M 238.902756 347.949375 
L 238.902756 21.789375 
" style="fill:none;stroke:#000000;stroke-dasharray:5.55,2.4;stroke-dashoffset:0;stroke-width:1.5;"/>
   </g>
   <g id="patch_3">
    <path d="M 19.760937 347.949375 
L 19.760937 21.789375 
" style="fill:none;stroke:#ffffff;stroke-linecap:square;stroke-linejoin:miter;stroke-width:0.8;"/>
   </g>
   <g id="patch_4">
    <path d="M 689.360937 347.949375 
L 689.360937 21.789375 
" style="fill:none;stroke:#ffffff;stroke-linecap:square;stroke-linejoin:miter;stroke-width:0.8;"/>
   </g>
   <g id="patch_5">
    <path d="M 19.760937 347.949375 
L 689.360938 347.949375 
" style="fill:none;stroke:#ffffff;stroke-linecap:square;stroke-linejoin:miter;stroke-width:0.8;"/>
   </g>
   <g id="patch_6">
    <path d="M 19.760937 21.789375 
L 689.360938 21.789375 
" style="fill:none;stroke:#ffffff;stroke-linecap:square;stroke-linejoin:miter;stroke-width:0.8;"/>
   </g>
   <g id="text_15">
    <!-- Ads distributions after 50.0 views -->
    <defs>
     <path d="M -0.140625 0 
L 27.34375 71.578125 
L 37.546875 71.578125 
L 66.84375 0 
L 56.0625 0 
L 47.703125 21.6875 
L 17.78125 21.6875 
L 9.90625 0 
z
M 20.515625 29.390625 
L 44.78125 29.390625 
L 37.3125 49.21875 
Q 33.890625 58.25 32.234375 64.0625 
Q 30.859375 57.171875 28.375 50.390625 
z
" id="ArialMT-65"/>
     <path d="M 40.234375 0 
L 40.234375 6.546875 
Q 35.296875 -1.171875 25.734375 -1.171875 
Q 19.53125 -1.171875 14.328125 2.25 
Q 9.125 5.671875 6.265625 11.796875 
Q 3.421875 17.921875 3.421875 25.875 
Q 3.421875 33.640625 6 39.96875 
Q 8.59375 46.296875 13.765625 49.65625 
Q 18.953125 53.03125 25.34375 53.03125 
Q 30.03125 53.03125 33.6875 51.046875 
Q 37.359375 49.078125 39.65625 45.90625 
L 39.65625 71.578125 
L 48.390625 71.578125 
L 48.390625 0 
z
M 12.453125 25.875 
Q 12.453125 15.921875 16.640625 10.984375 
Q 20.84375 6.0625 26.5625 6.0625 
Q 32.328125 6.0625 36.34375 10.765625 
Q 40.375 15.484375 40.375 25.140625 
Q 40.375 35.796875 36.265625 40.765625 
Q 32.171875 45.75 26.171875 45.75 
Q 20.3125 45.75 16.375 40.96875 
Q 12.453125 36.1875 12.453125 25.875 
z
" id="ArialMT-100"/>
     <path d="M 3.078125 15.484375 
L 11.765625 16.84375 
Q 12.5 11.625 15.84375 8.84375 
Q 19.1875 6.0625 25.203125 6.0625 
Q 31.25 6.0625 34.171875 8.515625 
Q 37.109375 10.984375 37.109375 14.3125 
Q 37.109375 17.28125 34.515625 19 
Q 32.71875 20.171875 25.53125 21.96875 
Q 15.875 24.421875 12.140625 26.203125 
Q 8.40625 27.984375 6.46875 31.125 
Q 4.546875 34.28125 4.546875 38.09375 
Q 4.546875 41.546875 6.125 44.5 
Q 7.71875 47.46875 10.453125 49.421875 
Q 12.5 50.921875 16.03125 51.96875 
Q 19.578125 53.03125 23.640625 53.03125 
Q 29.734375 53.03125 34.34375 51.265625 
Q 38.96875 49.515625 41.15625 46.5 
Q 43.359375 43.5 44.1875 38.484375 
L 35.59375 37.3125 
Q 35.015625 41.3125 32.203125 43.546875 
Q 29.390625 45.796875 24.265625 45.796875 
Q 18.21875 45.796875 15.625 43.796875 
Q 13.03125 41.796875 13.03125 39.109375 
Q 13.03125 37.40625 14.109375 36.03125 
Q 15.1875 34.625 17.484375 33.6875 
Q 18.796875 33.203125 25.25 31.453125 
Q 34.578125 28.953125 38.25 27.359375 
Q 41.9375 25.78125 44.03125 22.75 
Q 46.140625 19.734375 46.140625 15.234375 
Q 46.140625 10.84375 43.578125 6.953125 
Q 41.015625 3.078125 36.171875 0.953125 
Q 31.34375 -1.171875 25.25 -1.171875 
Q 15.140625 -1.171875 9.84375 3.03125 
Q 4.546875 7.234375 3.078125 15.484375 
z
" id="ArialMT-115"/>
     <path id="ArialMT-32"/>
     <path d="M 6.640625 61.46875 
L 6.640625 71.578125 
L 15.4375 71.578125 
L 15.4375 61.46875 
z
M 6.640625 0 
L 6.640625 51.859375 
L 15.4375 51.859375 
L 15.4375 0 
z
" id="ArialMT-105"/>
     <path d="M 25.78125 7.859375 
L 27.046875 0.09375 
Q 23.34375 -0.6875 20.40625 -0.6875 
Q 15.625 -0.6875 12.984375 0.828125 
Q 10.359375 2.34375 9.28125 4.8125 
Q 8.203125 7.28125 8.203125 15.1875 
L 8.203125 45.015625 
L 1.765625 45.015625 
L 1.765625 51.859375 
L 8.203125 51.859375 
L 8.203125 64.703125 
L 16.9375 69.96875 
L 16.9375 51.859375 
L 25.78125 51.859375 
L 25.78125 45.015625 
L 16.9375 45.015625 
L 16.9375 14.703125 
Q 16.9375 10.9375 17.40625 9.859375 
Q 17.875 8.796875 18.921875 8.15625 
Q 19.96875 7.515625 21.921875 7.515625 
Q 23.390625 7.515625 25.78125 7.859375 
z
" id="ArialMT-116"/>
     <path d="M 6.5 0 
L 6.5 51.859375 
L 14.40625 51.859375 
L 14.40625 44 
Q 17.4375 49.515625 20 51.265625 
Q 22.5625 53.03125 25.640625 53.03125 
Q 30.078125 53.03125 34.671875 50.203125 
L 31.640625 42.046875 
Q 28.421875 43.953125 25.203125 43.953125 
Q 22.3125 43.953125 20.015625 42.21875 
Q 17.71875 40.484375 16.75 37.40625 
Q 15.28125 32.71875 15.28125 27.15625 
L 15.28125 0 
z
" id="ArialMT-114"/>
     <path d="M 14.703125 0 
L 6.546875 0 
L 6.546875 71.578125 
L 15.328125 71.578125 
L 15.328125 46.046875 
Q 20.90625 53.03125 29.546875 53.03125 
Q 34.328125 53.03125 38.59375 51.09375 
Q 42.875 49.171875 45.625 45.671875 
Q 48.390625 42.1875 49.953125 37.25 
Q 51.515625 32.328125 51.515625 26.703125 
Q 51.515625 13.375 44.921875 6.09375 
Q 38.328125 -1.171875 29.109375 -1.171875 
Q 19.921875 -1.171875 14.703125 6.5 
z
M 14.59375 26.3125 
Q 14.59375 17 17.140625 12.84375 
Q 21.296875 6.0625 28.375 6.0625 
Q 34.125 6.0625 38.328125 11.0625 
Q 42.53125 16.0625 42.53125 25.984375 
Q 42.53125 36.140625 38.5 40.96875 
Q 34.46875 45.796875 28.765625 45.796875 
Q 23 45.796875 18.796875 40.796875 
Q 14.59375 35.796875 14.59375 26.3125 
z
" id="ArialMT-98"/>
     <path d="M 40.578125 0 
L 40.578125 7.625 
Q 34.515625 -1.171875 24.125 -1.171875 
Q 19.53125 -1.171875 15.546875 0.578125 
Q 11.578125 2.34375 9.640625 5 
Q 7.71875 7.671875 6.9375 11.53125 
Q 6.390625 14.109375 6.390625 19.734375 
L 6.390625 51.859375 
L 15.1875 51.859375 
L 15.1875 23.09375 
Q 15.1875 16.21875 15.71875 13.8125 
Q 16.546875 10.359375 19.234375 8.375 
Q 21.921875 6.390625 25.875 6.390625 
Q 29.828125 6.390625 33.296875 8.421875 
Q 36.765625 10.453125 38.203125 13.9375 
Q 39.65625 17.4375 39.65625 24.078125 
L 39.65625 51.859375 
L 48.4375 51.859375 
L 48.4375 0 
z
" id="ArialMT-117"/>
     <path d="M 3.328125 25.921875 
Q 3.328125 40.328125 11.328125 47.265625 
Q 18.015625 53.03125 27.640625 53.03125 
Q 38.328125 53.03125 45.109375 46.015625 
Q 51.90625 39.015625 51.90625 26.65625 
Q 51.90625 16.65625 48.90625 10.90625 
Q 45.90625 5.171875 40.15625 2 
Q 34.421875 -1.171875 27.640625 -1.171875 
Q 16.75 -1.171875 10.03125 5.8125 
Q 3.328125 12.796875 3.328125 25.921875 
z
M 12.359375 25.921875 
Q 12.359375 15.96875 16.703125 11.015625 
Q 21.046875 6.0625 27.640625 6.0625 
Q 34.1875 6.0625 38.53125 11.03125 
Q 42.875 16.015625 42.875 26.21875 
Q 42.875 35.84375 38.5 40.796875 
Q 34.125 45.75 27.640625 45.75 
Q 21.046875 45.75 16.703125 40.8125 
Q 12.359375 35.890625 12.359375 25.921875 
z
" id="ArialMT-111"/>
     <path d="M 6.59375 0 
L 6.59375 51.859375 
L 14.5 51.859375 
L 14.5 44.484375 
Q 20.21875 53.03125 31 53.03125 
Q 35.6875 53.03125 39.625 51.34375 
Q 43.5625 49.65625 45.515625 46.921875 
Q 47.46875 44.1875 48.25 40.4375 
Q 48.734375 37.984375 48.734375 31.890625 
L 48.734375 0 
L 39.9375 0 
L 39.9375 31.546875 
Q 39.9375 36.921875 38.90625 39.578125 
Q 37.890625 42.234375 35.28125 43.8125 
Q 32.671875 45.40625 29.15625 45.40625 
Q 23.53125 45.40625 19.453125 41.84375 
Q 15.375 38.28125 15.375 28.328125 
L 15.375 0 
z
" id="ArialMT-110"/>
     <path d="M 40.4375 6.390625 
Q 35.546875 2.25 31.03125 0.53125 
Q 26.515625 -1.171875 21.34375 -1.171875 
Q 12.796875 -1.171875 8.203125 3 
Q 3.609375 7.171875 3.609375 13.671875 
Q 3.609375 17.484375 5.34375 20.625 
Q 7.078125 23.78125 9.890625 25.6875 
Q 12.703125 27.59375 16.21875 28.5625 
Q 18.796875 29.25 24.03125 29.890625 
Q 34.671875 31.15625 39.703125 32.90625 
Q 39.75 34.71875 39.75 35.203125 
Q 39.75 40.578125 37.25 42.78125 
Q 33.890625 45.75 27.25 45.75 
Q 21.046875 45.75 18.09375 43.578125 
Q 15.140625 41.40625 13.71875 35.890625 
L 5.125 37.0625 
Q 6.296875 42.578125 8.984375 45.96875 
Q 11.671875 49.359375 16.75 51.1875 
Q 21.828125 53.03125 28.515625 53.03125 
Q 35.15625 53.03125 39.296875 51.46875 
Q 43.453125 49.90625 45.40625 47.53125 
Q 47.359375 45.171875 48.140625 41.546875 
Q 48.578125 39.3125 48.578125 33.453125 
L 48.578125 21.734375 
Q 48.578125 9.46875 49.140625 6.21875 
Q 49.703125 2.984375 51.375 0 
L 42.1875 0 
Q 40.828125 2.734375 40.4375 6.390625 
z
M 39.703125 26.03125 
Q 34.90625 24.078125 25.34375 22.703125 
Q 19.921875 21.921875 17.671875 20.9375 
Q 15.4375 19.96875 14.203125 18.09375 
Q 12.984375 16.21875 12.984375 13.921875 
Q 12.984375 10.40625 15.640625 8.0625 
Q 18.3125 5.71875 23.4375 5.71875 
Q 28.515625 5.71875 32.46875 7.9375 
Q 36.421875 10.15625 38.28125 14.015625 
Q 39.703125 17 39.703125 22.796875 
z
" id="ArialMT-97"/>
     <path d="M 8.6875 0 
L 8.6875 45.015625 
L 0.921875 45.015625 
L 0.921875 51.859375 
L 8.6875 51.859375 
L 8.6875 57.375 
Q 8.6875 62.59375 9.625 65.140625 
Q 10.890625 68.5625 14.078125 70.671875 
Q 17.28125 72.796875 23.046875 72.796875 
Q 26.765625 72.796875 31.25 71.921875 
L 29.9375 64.265625 
Q 27.203125 64.75 24.75 64.75 
Q 20.75 64.75 19.09375 63.03125 
Q 17.4375 61.328125 17.4375 56.640625 
L 17.4375 51.859375 
L 27.546875 51.859375 
L 27.546875 45.015625 
L 17.4375 45.015625 
L 17.4375 0 
z
" id="ArialMT-102"/>
     <path d="M 42.09375 16.703125 
L 51.171875 15.578125 
Q 49.03125 7.625 43.21875 3.21875 
Q 37.40625 -1.171875 28.375 -1.171875 
Q 17 -1.171875 10.328125 5.828125 
Q 3.65625 12.84375 3.65625 25.484375 
Q 3.65625 38.578125 10.390625 45.796875 
Q 17.140625 53.03125 27.875 53.03125 
Q 38.28125 53.03125 44.875 45.953125 
Q 51.46875 38.875 51.46875 26.03125 
Q 51.46875 25.25 51.421875 23.6875 
L 12.75 23.6875 
Q 13.234375 15.140625 17.578125 10.59375 
Q 21.921875 6.0625 28.421875 6.0625 
Q 33.25 6.0625 36.671875 8.59375 
Q 40.09375 11.140625 42.09375 16.703125 
z
M 13.234375 30.90625 
L 42.1875 30.90625 
Q 41.609375 37.453125 38.875 40.71875 
Q 34.671875 45.796875 27.984375 45.796875 
Q 21.921875 45.796875 17.796875 41.75 
Q 13.671875 37.703125 13.234375 30.90625 
z
" id="ArialMT-101"/>
     <path d="M 21 0 
L 1.265625 51.859375 
L 10.546875 51.859375 
L 21.6875 20.796875 
Q 23.484375 15.765625 25 10.359375 
Q 26.171875 14.453125 28.265625 20.21875 
L 39.796875 51.859375 
L 48.828125 51.859375 
L 29.203125 0 
z
" id="ArialMT-118"/>
     <path d="M 16.15625 0 
L 0.296875 51.859375 
L 9.375 51.859375 
L 17.625 21.921875 
L 20.703125 10.796875 
Q 20.90625 11.625 23.390625 21.484375 
L 31.640625 51.859375 
L 40.671875 51.859375 
L 48.4375 21.78125 
L 51.03125 11.859375 
L 54 21.875 
L 62.890625 51.859375 
L 71.4375 51.859375 
L 55.21875 0 
L 46.09375 0 
L 37.84375 31.0625 
L 35.84375 39.890625 
L 25.34375 0 
z
" id="ArialMT-119"/>
    </defs>
    <g style="fill:#262626;" transform="translate(266.856875 15.789375)scale(0.12 -0.12)">
     <use xlink:href="#ArialMT-65"/>
     <use x="66.699219" xlink:href="#ArialMT-100"/>
     <use x="122.314453" xlink:href="#ArialMT-115"/>
     <use x="172.314453" xlink:href="#ArialMT-32"/>
     <use x="200.097656" xlink:href="#ArialMT-100"/>
     <use x="255.712891" xlink:href="#ArialMT-105"/>
     <use x="277.929688" xlink:href="#ArialMT-115"/>
     <use x="327.929688" xlink:href="#ArialMT-116"/>
     <use x="355.712891" xlink:href="#ArialMT-114"/>
     <use x="389.013672" xlink:href="#ArialMT-105"/>
     <use x="411.230469" xlink:href="#ArialMT-98"/>
     <use x="466.845703" xlink:href="#ArialMT-117"/>
     <use x="522.460938" xlink:href="#ArialMT-116"/>
     <use x="550.244141" xlink:href="#ArialMT-105"/>
     <use x="572.460938" xlink:href="#ArialMT-111"/>
     <use x="628.076172" xlink:href="#ArialMT-110"/>
     <use x="683.691406" xlink:href="#ArialMT-115"/>
     <use x="733.691406" xlink:href="#ArialMT-32"/>
     <use x="761.474609" xlink:href="#ArialMT-97"/>
     <use x="817.089844" xlink:href="#ArialMT-102"/>
     <use x="844.873047" xlink:href="#ArialMT-116"/>
     <use x="872.65625" xlink:href="#ArialMT-101"/>
     <use x="928.271484" xlink:href="#ArialMT-114"/>
     <use x="961.572266" xlink:href="#ArialMT-32"/>
     <use x="989.355469" xlink:href="#ArialMT-53"/>
     <use x="1044.970703" xlink:href="#ArialMT-48"/>
     <use x="1100.585938" xlink:href="#ArialMT-46"/>
     <use x="1128.369141" xlink:href="#ArialMT-48"/>
     <use x="1183.984375" xlink:href="#ArialMT-32"/>
     <use x="1211.767578" xlink:href="#ArialMT-118"/>
     <use x="1261.767578" xlink:href="#ArialMT-105"/>
     <use x="1283.984375" xlink:href="#ArialMT-101"/>
     <use x="1339.599609" xlink:href="#ArialMT-119"/>
     <use x="1411.816406" xlink:href="#ArialMT-115"/>
    </g>
   </g>
   <g id="legend_1">
    <g id="patch_7">
     <path d="M 696.360937 257.213125 
L 781.704687 257.213125 
Q 783.704687 257.213125 783.704687 255.213125 
L 783.704687 114.525625 
Q 783.704687 112.525625 781.704687 112.525625 
L 696.360937 112.525625 
Q 694.360937 112.525625 694.360937 114.525625 
L 694.360937 255.213125 
Q 694.360937 257.213125 696.360937 257.213125 
z
" style="fill:#e6e6e6;opacity:0.8;stroke:#cccccc;stroke-linejoin:miter;"/>
    </g>
    <g id="line2d_25">
     <path d="M 698.360937 120.183437 
L 718.360937 120.183437 
" style="fill:none;stroke:#a6cee3;stroke-linecap:round;stroke-width:1.5;"/>
    </g>
    <g id="line2d_26"/>
    <g id="text_16">
     <!-- A-no_adapt -->
     <defs>
      <path d="M 3.171875 21.484375 
L 3.171875 30.328125 
L 30.171875 30.328125 
L 30.171875 21.484375 
z
" id="ArialMT-45"/>
      <path d="M -1.515625 -19.875 
L -1.515625 -13.53125 
L 56.734375 -13.53125 
L 56.734375 -19.875 
z
" id="ArialMT-95"/>
      <path d="M 6.59375 -19.875 
L 6.59375 51.859375 
L 14.59375 51.859375 
L 14.59375 45.125 
Q 17.4375 49.078125 21 51.046875 
Q 24.5625 53.03125 29.640625 53.03125 
Q 36.28125 53.03125 41.359375 49.609375 
Q 46.4375 46.1875 49.015625 39.953125 
Q 51.609375 33.734375 51.609375 26.3125 
Q 51.609375 18.359375 48.75 11.984375 
Q 45.90625 5.609375 40.453125 2.21875 
Q 35.015625 -1.171875 29 -1.171875 
Q 24.609375 -1.171875 21.109375 0.6875 
Q 17.625 2.546875 15.375 5.375 
L 15.375 -19.875 
z
M 14.546875 25.640625 
Q 14.546875 15.625 18.59375 10.84375 
Q 22.65625 6.0625 28.421875 6.0625 
Q 34.28125 6.0625 38.453125 11.015625 
Q 42.625 15.96875 42.625 26.375 
Q 42.625 36.28125 38.546875 41.203125 
Q 34.46875 46.140625 28.8125 46.140625 
Q 23.1875 46.140625 18.859375 40.890625 
Q 14.546875 35.640625 14.546875 25.640625 
z
" id="ArialMT-112"/>
     </defs>
     <g style="fill:#262626;" transform="translate(726.360937 123.683437)scale(0.1 -0.1)">
      <use xlink:href="#ArialMT-65"/>
      <use x="66.699219" xlink:href="#ArialMT-45"/>
      <use x="100" xlink:href="#ArialMT-110"/>
      <use x="155.615234" xlink:href="#ArialMT-111"/>
      <use x="211.230469" xlink:href="#ArialMT-95"/>
      <use x="266.845703" xlink:href="#ArialMT-97"/>
      <use x="322.460938" xlink:href="#ArialMT-100"/>
      <use x="378.076172" xlink:href="#ArialMT-97"/>
      <use x="433.691406" xlink:href="#ArialMT-112"/>
      <use x="489.306641" xlink:href="#ArialMT-116"/>
     </g>
    </g>
    <g id="line2d_27">
     <path d="M 698.360937 134.32875 
L 718.360937 134.32875 
" style="fill:none;stroke:#1f78b4;stroke-linecap:round;stroke-width:1.5;"/>
    </g>
    <g id="line2d_28"/>
    <g id="text_17">
     <!-- B-no_adapt -->
     <defs>
      <path d="M 7.328125 0 
L 7.328125 71.578125 
L 34.1875 71.578125 
Q 42.390625 71.578125 47.34375 69.40625 
Q 52.296875 67.234375 55.09375 62.71875 
Q 57.90625 58.203125 57.90625 53.265625 
Q 57.90625 48.6875 55.421875 44.625 
Q 52.9375 40.578125 47.90625 38.09375 
Q 54.390625 36.1875 57.875 31.59375 
Q 61.375 27 61.375 20.75 
Q 61.375 15.71875 59.25 11.390625 
Q 57.125 7.078125 54 4.734375 
Q 50.875 2.390625 46.15625 1.1875 
Q 41.453125 0 34.625 0 
z
M 16.796875 41.5 
L 32.28125 41.5 
Q 38.578125 41.5 41.3125 42.328125 
Q 44.921875 43.40625 46.75 45.890625 
Q 48.578125 48.390625 48.578125 52.15625 
Q 48.578125 55.71875 46.875 58.421875 
Q 45.171875 61.140625 41.984375 62.140625 
Q 38.8125 63.140625 31.109375 63.140625 
L 16.796875 63.140625 
z
M 16.796875 8.453125 
L 34.625 8.453125 
Q 39.203125 8.453125 41.0625 8.796875 
Q 44.34375 9.375 46.53125 10.734375 
Q 48.734375 12.109375 50.140625 14.71875 
Q 51.5625 17.328125 51.5625 20.75 
Q 51.5625 24.75 49.515625 27.703125 
Q 47.46875 30.671875 43.828125 31.859375 
Q 40.1875 33.0625 33.34375 33.0625 
L 16.796875 33.0625 
z
" id="ArialMT-66"/>
     </defs>
     <g style="fill:#262626;" transform="translate(726.360937 137.82875)scale(0.1 -0.1)">
      <use xlink:href="#ArialMT-66"/>
      <use x="66.699219" xlink:href="#ArialMT-45"/>
      <use x="100" xlink:href="#ArialMT-110"/>
      <use x="155.615234" xlink:href="#ArialMT-111"/>
      <use x="211.230469" xlink:href="#ArialMT-95"/>
      <use x="266.845703" xlink:href="#ArialMT-97"/>
      <use x="322.460938" xlink:href="#ArialMT-100"/>
      <use x="378.076172" xlink:href="#ArialMT-97"/>
      <use x="433.691406" xlink:href="#ArialMT-112"/>
      <use x="489.306641" xlink:href="#ArialMT-116"/>
     </g>
    </g>
    <g id="line2d_29">
     <path d="M 698.360937 148.474063 
L 718.360937 148.474063 
" style="fill:none;stroke:#b2df8a;stroke-linecap:round;stroke-width:1.5;"/>
    </g>
    <g id="line2d_30"/>
    <g id="text_18">
     <!-- A-epsilon -->
     <defs>
      <path d="M 6.390625 0 
L 6.390625 71.578125 
L 15.1875 71.578125 
L 15.1875 0 
z
" id="ArialMT-108"/>
     </defs>
     <g style="fill:#262626;" transform="translate(726.360937 151.974063)scale(0.1 -0.1)">
      <use xlink:href="#ArialMT-65"/>
      <use x="66.699219" xlink:href="#ArialMT-45"/>
      <use x="100" xlink:href="#ArialMT-101"/>
      <use x="155.615234" xlink:href="#ArialMT-112"/>
      <use x="211.230469" xlink:href="#ArialMT-115"/>
      <use x="261.230469" xlink:href="#ArialMT-105"/>
      <use x="283.447266" xlink:href="#ArialMT-108"/>
      <use x="305.664062" xlink:href="#ArialMT-111"/>
      <use x="361.279297" xlink:href="#ArialMT-110"/>
     </g>
    </g>
    <g id="line2d_31">
     <path d="M 698.360937 162.619375 
L 718.360937 162.619375 
" style="fill:none;stroke:#33a02c;stroke-linecap:round;stroke-width:1.5;"/>
    </g>
    <g id="line2d_32"/>
    <g id="text_19">
     <!-- B-epsilon -->
     <g style="fill:#262626;" transform="translate(726.360937 166.119375)scale(0.1 -0.1)">
      <use xlink:href="#ArialMT-66"/>
      <use x="66.699219" xlink:href="#ArialMT-45"/>
      <use x="100" xlink:href="#ArialMT-101"/>
      <use x="155.615234" xlink:href="#ArialMT-112"/>
      <use x="211.230469" xlink:href="#ArialMT-115"/>
      <use x="261.230469" xlink:href="#ArialMT-105"/>
      <use x="283.447266" xlink:href="#ArialMT-108"/>
      <use x="305.664062" xlink:href="#ArialMT-111"/>
      <use x="361.279297" xlink:href="#ArialMT-110"/>
     </g>
    </g>
    <g id="line2d_33">
     <path d="M 698.360937 176.764687 
L 718.360937 176.764687 
" style="fill:none;stroke:#fb9a99;stroke-linecap:round;stroke-width:1.5;"/>
    </g>
    <g id="line2d_34"/>
    <g id="text_20">
     <!-- A-ucb1 -->
     <defs>
      <path d="M 40.4375 19 
L 49.078125 17.875 
Q 47.65625 8.9375 41.8125 3.875 
Q 35.984375 -1.171875 27.484375 -1.171875 
Q 16.84375 -1.171875 10.375 5.78125 
Q 3.90625 12.75 3.90625 25.734375 
Q 3.90625 34.125 6.6875 40.421875 
Q 9.46875 46.734375 15.15625 49.875 
Q 20.84375 53.03125 27.546875 53.03125 
Q 35.984375 53.03125 41.359375 48.75 
Q 46.734375 44.484375 48.25 36.625 
L 39.703125 35.296875 
Q 38.484375 40.53125 35.375 43.15625 
Q 32.28125 45.796875 27.875 45.796875 
Q 21.234375 45.796875 17.078125 41.03125 
Q 12.9375 36.28125 12.9375 25.984375 
Q 12.9375 15.53125 16.9375 10.796875 
Q 20.953125 6.0625 27.390625 6.0625 
Q 32.5625 6.0625 36.03125 9.234375 
Q 39.5 12.40625 40.4375 19 
z
" id="ArialMT-99"/>
     </defs>
     <g style="fill:#262626;" transform="translate(726.360937 180.264687)scale(0.1 -0.1)">
      <use xlink:href="#ArialMT-65"/>
      <use x="66.699219" xlink:href="#ArialMT-45"/>
      <use x="100" xlink:href="#ArialMT-117"/>
      <use x="155.615234" xlink:href="#ArialMT-99"/>
      <use x="205.615234" xlink:href="#ArialMT-98"/>
      <use x="261.230469" xlink:href="#ArialMT-49"/>
     </g>
    </g>
    <g id="line2d_35">
     <path d="M 698.360937 190.91 
L 718.360937 190.91 
" style="fill:none;stroke:#e31a1c;stroke-linecap:round;stroke-width:1.5;"/>
    </g>
    <g id="line2d_36"/>
    <g id="text_21">
     <!-- B-ucb1 -->
     <g style="fill:#262626;" transform="translate(726.360937 194.41)scale(0.1 -0.1)">
      <use xlink:href="#ArialMT-66"/>
      <use x="66.699219" xlink:href="#ArialMT-45"/>
      <use x="100" xlink:href="#ArialMT-117"/>
      <use x="155.615234" xlink:href="#ArialMT-99"/>
      <use x="205.615234" xlink:href="#ArialMT-98"/>
      <use x="261.230469" xlink:href="#ArialMT-49"/>
     </g>
    </g>
    <g id="line2d_37">
     <path d="M 698.360937 205.055313 
L 718.360937 205.055313 
" style="fill:none;stroke:#fdbf6f;stroke-linecap:round;stroke-width:1.5;"/>
    </g>
    <g id="line2d_38"/>
    <g id="text_22">
     <!-- A-bayesian -->
     <defs>
      <path d="M 6.203125 -19.96875 
L 5.21875 -11.71875 
Q 8.109375 -12.5 10.25 -12.5 
Q 13.1875 -12.5 14.9375 -11.515625 
Q 16.703125 -10.546875 17.828125 -8.796875 
Q 18.65625 -7.46875 20.515625 -2.25 
Q 20.75 -1.515625 21.296875 -0.09375 
L 1.609375 51.859375 
L 11.078125 51.859375 
L 21.875 21.828125 
Q 23.96875 16.109375 25.640625 9.8125 
Q 27.15625 15.875 29.25 21.625 
L 40.328125 51.859375 
L 49.125 51.859375 
L 29.390625 -0.875 
Q 26.21875 -9.421875 24.46875 -12.640625 
Q 22.125 -17 19.09375 -19.015625 
Q 16.0625 -21.046875 11.859375 -21.046875 
Q 9.328125 -21.046875 6.203125 -19.96875 
z
" id="ArialMT-121"/>
     </defs>
     <g style="fill:#262626;" transform="translate(726.360937 208.555313)scale(0.1 -0.1)">
      <use xlink:href="#ArialMT-65"/>
      <use x="66.699219" xlink:href="#ArialMT-45"/>
      <use x="100" xlink:href="#ArialMT-98"/>
      <use x="155.615234" xlink:href="#ArialMT-97"/>
      <use x="211.230469" xlink:href="#ArialMT-121"/>
      <use x="261.230469" xlink:href="#ArialMT-101"/>
      <use x="316.845703" xlink:href="#ArialMT-115"/>
      <use x="366.845703" xlink:href="#ArialMT-105"/>
      <use x="389.0625" xlink:href="#ArialMT-97"/>
      <use x="444.677734" xlink:href="#ArialMT-110"/>
     </g>
    </g>
    <g id="line2d_39">
     <path d="M 698.360937 219.317813 
L 718.360937 219.317813 
" style="fill:none;stroke:#ff7f00;stroke-linecap:round;stroke-width:1.5;"/>
    </g>
    <g id="line2d_40"/>
    <g id="text_23">
     <!-- B-bayesian -->
     <g style="fill:#262626;" transform="translate(726.360937 222.817813)scale(0.1 -0.1)">
      <use xlink:href="#ArialMT-66"/>
      <use x="66.699219" xlink:href="#ArialMT-45"/>
      <use x="100" xlink:href="#ArialMT-98"/>
      <use x="155.615234" xlink:href="#ArialMT-97"/>
      <use x="211.230469" xlink:href="#ArialMT-121"/>
      <use x="261.230469" xlink:href="#ArialMT-101"/>
      <use x="316.845703" xlink:href="#ArialMT-115"/>
      <use x="366.845703" xlink:href="#ArialMT-105"/>
      <use x="389.0625" xlink:href="#ArialMT-97"/>
      <use x="444.677734" xlink:href="#ArialMT-110"/>
     </g>
    </g>
    <g id="line2d_41">
     <path d="M 698.360937 233.580312 
L 718.360937 233.580312 
" style="fill:none;stroke:#808080;stroke-dasharray:5.55,2.4;stroke-dashoffset:0;stroke-width:1.5;"/>
    </g>
    <g id="line2d_42"/>
    <g id="text_24">
     <!-- Real CTR A -->
     <defs>
      <path d="M 7.859375 0 
L 7.859375 71.578125 
L 39.59375 71.578125 
Q 49.171875 71.578125 54.140625 69.640625 
Q 59.125 67.71875 62.109375 62.828125 
Q 65.09375 57.953125 65.09375 52.046875 
Q 65.09375 44.4375 60.15625 39.203125 
Q 55.21875 33.984375 44.921875 32.5625 
Q 48.6875 30.765625 50.640625 29 
Q 54.78125 25.203125 58.5 19.484375 
L 70.953125 0 
L 59.03125 0 
L 49.5625 14.890625 
Q 45.40625 21.34375 42.71875 24.75 
Q 40.046875 28.171875 37.921875 29.53125 
Q 35.796875 30.90625 33.59375 31.453125 
Q 31.984375 31.78125 28.328125 31.78125 
L 17.328125 31.78125 
L 17.328125 0 
z
M 17.328125 39.984375 
L 37.703125 39.984375 
Q 44.1875 39.984375 47.84375 41.328125 
Q 51.515625 42.671875 53.421875 45.625 
Q 55.328125 48.578125 55.328125 52.046875 
Q 55.328125 57.125 51.640625 60.390625 
Q 47.953125 63.671875 39.984375 63.671875 
L 17.328125 63.671875 
z
" id="ArialMT-82"/>
      <path d="M 58.796875 25.09375 
L 68.265625 22.703125 
Q 65.28125 11.03125 57.546875 4.90625 
Q 49.8125 -1.21875 38.625 -1.21875 
Q 27.046875 -1.21875 19.796875 3.484375 
Q 12.546875 8.203125 8.765625 17.140625 
Q 4.984375 26.078125 4.984375 36.328125 
Q 4.984375 47.515625 9.25 55.828125 
Q 13.53125 64.15625 21.40625 68.46875 
Q 29.296875 72.796875 38.765625 72.796875 
Q 49.515625 72.796875 56.828125 67.328125 
Q 64.15625 61.859375 67.046875 51.953125 
L 57.71875 49.75 
Q 55.21875 57.5625 50.484375 61.125 
Q 45.75 64.703125 38.578125 64.703125 
Q 30.328125 64.703125 24.78125 60.734375 
Q 19.234375 56.78125 16.984375 50.109375 
Q 14.75 43.453125 14.75 36.375 
Q 14.75 27.25 17.40625 20.4375 
Q 20.0625 13.625 25.671875 10.25 
Q 31.296875 6.890625 37.84375 6.890625 
Q 45.796875 6.890625 51.3125 11.46875 
Q 56.84375 16.0625 58.796875 25.09375 
z
" id="ArialMT-67"/>
      <path d="M 25.921875 0 
L 25.921875 63.140625 
L 2.34375 63.140625 
L 2.34375 71.578125 
L 59.078125 71.578125 
L 59.078125 63.140625 
L 35.40625 63.140625 
L 35.40625 0 
z
" id="ArialMT-84"/>
     </defs>
     <g style="fill:#262626;" transform="translate(726.360937 237.080312)scale(0.1 -0.1)">
      <use xlink:href="#ArialMT-82"/>
      <use x="72.216797" xlink:href="#ArialMT-101"/>
      <use x="127.832031" xlink:href="#ArialMT-97"/>
      <use x="183.447266" xlink:href="#ArialMT-108"/>
      <use x="205.664062" xlink:href="#ArialMT-32"/>
      <use x="233.447266" xlink:href="#ArialMT-67"/>
      <use x="305.664062" xlink:href="#ArialMT-84"/>
      <use x="366.748047" xlink:href="#ArialMT-82"/>
      <use x="438.964844" xlink:href="#ArialMT-32"/>
      <use x="466.669922" xlink:href="#ArialMT-65"/>
     </g>
    </g>
    <g id="line2d_43">
     <path d="M 698.360937 247.725625 
L 718.360937 247.725625 
" style="fill:none;stroke:#000000;stroke-dasharray:5.55,2.4;stroke-dashoffset:0;stroke-width:1.5;"/>
    </g>
    <g id="line2d_44"/>
    <g id="text_25">
     <!-- Real CTR B -->
     <g style="fill:#262626;" transform="translate(726.360937 251.225625)scale(0.1 -0.1)">
      <use xlink:href="#ArialMT-82"/>
      <use x="72.216797" xlink:href="#ArialMT-101"/>
      <use x="127.832031" xlink:href="#ArialMT-97"/>
      <use x="183.447266" xlink:href="#ArialMT-108"/>
      <use x="205.664062" xlink:href="#ArialMT-32"/>
      <use x="233.447266" xlink:href="#ArialMT-67"/>
      <use x="305.664062" xlink:href="#ArialMT-84"/>
      <use x="366.748047" xlink:href="#ArialMT-82"/>
      <use x="438.964844" xlink:href="#ArialMT-32"/>
      <use x="466.748047" xlink:href="#ArialMT-66"/>
     </g>
    </g>
   </g>
  </g>
 </g>
 <defs>
  <clipPath id="p4e4cb01ea3">
   <rect height="326.16" width="669.6" x="19.760937" y="21.789375"/>
  </clipPath>
 </defs>
</svg>
