<?xml version="1.0" encoding="utf-8" standalone="no"?>
<!DOCTYPE svg PUBLIC "-//W3C//DTD SVG 1.1//EN"
  "http://www.w3.org/Graphics/SVG/1.1/DTD/svg11.dtd">
<!-- Created with matplotlib (https://matplotlib.org/) -->
<svg height="371.294688pt" version="1.1" viewBox="0 0 828.70625 371.294688" width="828.70625pt" xmlns="http://www.w3.org/2000/svg" xmlns:xlink="http://www.w3.org/1999/xlink">
 <defs>
  <style type="text/css">
*{stroke-linecap:butt;stroke-linejoin:round;}
  </style>
 </defs>
 <g id="figure_1">
  <g id="patch_1">
   <path d="M 0 371.294688 
L 828.70625 371.294688 
L 828.70625 0 
L 0 0 
z
" style="fill:none;"/>
  </g>
  <g id="axes_1">
   <g id="patch_2">
    <path d="M 25.321875 347.949375 
L 694.921875 347.949375 
L 694.921875 21.789375 
L 25.321875 21.789375 
z
" style="fill:#e6e6e6;"/>
   </g>
   <g id="matplotlib.axis_1">
    <g id="xtick_1">
     <g id="line2d_1">
      <path clip-path="url(#pb71eff7855)" d="M 27.607864 347.949375 
L 27.607864 21.789375 
" style="fill:none;stroke:#ffffff;stroke-linecap:round;stroke-width:0.8;"/>
     </g>
     <g id="text_1">
      <!-- 0.25 -->
      <defs>
       <path d="M 4.15625 35.296875 
Q 4.15625 48 6.765625 55.734375 
Q 9.375 63.484375 14.515625 67.671875 
Q 19.671875 71.875 27.484375 71.875 
Q 33.25 71.875 37.59375 69.546875 
Q 41.9375 67.234375 44.765625 62.859375 
Q 47.609375 58.5 49.21875 52.21875 
Q 50.828125 45.953125 50.828125 35.296875 
Q 50.828125 22.703125 48.234375 14.96875 
Q 45.65625 7.234375 40.5 3 
Q 35.359375 -1.21875 27.484375 -1.21875 
Q 17.140625 -1.21875 11.234375 6.203125 
Q 4.15625 15.140625 4.15625 35.296875 
z
M 13.1875 35.296875 
Q 13.1875 17.671875 17.3125 11.828125 
Q 21.4375 6 27.484375 6 
Q 33.546875 6 37.671875 11.859375 
Q 41.796875 17.71875 41.796875 35.296875 
Q 41.796875 52.984375 37.671875 58.78125 
Q 33.546875 64.59375 27.390625 64.59375 
Q 21.34375 64.59375 17.71875 59.46875 
Q 13.1875 52.9375 13.1875 35.296875 
z
" id="ArialMT-48"/>
       <path d="M 9.078125 0 
L 9.078125 10.015625 
L 19.09375 10.015625 
L 19.09375 0 
z
" id="ArialMT-46"/>
       <path d="M 50.34375 8.453125 
L 50.34375 0 
L 3.03125 0 
Q 2.9375 3.171875 4.046875 6.109375 
Q 5.859375 10.9375 9.828125 15.625 
Q 13.8125 20.3125 21.34375 26.46875 
Q 33.015625 36.03125 37.109375 41.625 
Q 41.21875 47.21875 41.21875 52.203125 
Q 41.21875 57.421875 37.46875 61 
Q 33.734375 64.59375 27.734375 64.59375 
Q 21.390625 64.59375 17.578125 60.78125 
Q 13.765625 56.984375 13.71875 50.25 
L 4.6875 51.171875 
Q 5.609375 61.28125 11.65625 66.578125 
Q 17.71875 71.875 27.9375 71.875 
Q 38.234375 71.875 44.234375 66.15625 
Q 50.25 60.453125 50.25 52 
Q 50.25 47.703125 48.484375 43.546875 
Q 46.734375 39.40625 42.65625 34.8125 
Q 38.578125 30.21875 29.109375 22.21875 
Q 21.1875 15.578125 18.9375 13.203125 
Q 16.703125 10.84375 15.234375 8.453125 
z
" id="ArialMT-50"/>
       <path d="M 4.15625 18.75 
L 13.375 19.53125 
Q 14.40625 12.796875 18.140625 9.390625 
Q 21.875 6 27.15625 6 
Q 33.5 6 37.890625 10.78125 
Q 42.28125 15.578125 42.28125 23.484375 
Q 42.28125 31 38.0625 35.34375 
Q 33.84375 39.703125 27 39.703125 
Q 22.75 39.703125 19.328125 37.765625 
Q 15.921875 35.84375 13.96875 32.765625 
L 5.71875 33.84375 
L 12.640625 70.609375 
L 48.25 70.609375 
L 48.25 62.203125 
L 19.671875 62.203125 
L 15.828125 42.96875 
Q 22.265625 47.46875 29.34375 47.46875 
Q 38.71875 47.46875 45.15625 40.96875 
Q 51.609375 34.46875 51.609375 24.265625 
Q 51.609375 14.546875 45.953125 7.46875 
Q 39.0625 -1.21875 27.15625 -1.21875 
Q 17.390625 -1.21875 11.203125 4.25 
Q 5.03125 9.71875 4.15625 18.75 
z
" id="ArialMT-53"/>
      </defs>
      <g style="fill:#262626;" transform="translate(17.877396 362.107188)scale(0.1 -0.1)">
       <use xlink:href="#ArialMT-48"/>
       <use x="55.615234" xlink:href="#ArialMT-46"/>
       <use x="83.398438" xlink:href="#ArialMT-50"/>
       <use x="139.013672" xlink:href="#ArialMT-53"/>
      </g>
     </g>
    </g>
    <g id="xtick_2">
     <g id="line2d_2">
      <path clip-path="url(#pb71eff7855)" d="M 134.208938 347.949375 
L 134.208938 21.789375 
" style="fill:none;stroke:#ffffff;stroke-linecap:round;stroke-width:0.8;"/>
     </g>
     <g id="text_2">
      <!-- 0.30 -->
      <defs>
       <path d="M 4.203125 18.890625 
L 12.984375 20.0625 
Q 14.5 12.59375 18.140625 9.296875 
Q 21.78125 6 27 6 
Q 33.203125 6 37.46875 10.296875 
Q 41.75 14.59375 41.75 20.953125 
Q 41.75 27 37.796875 30.921875 
Q 33.84375 34.859375 27.734375 34.859375 
Q 25.25 34.859375 21.53125 33.890625 
L 22.515625 41.609375 
Q 23.390625 41.5 23.921875 41.5 
Q 29.546875 41.5 34.03125 44.421875 
Q 38.53125 47.359375 38.53125 53.46875 
Q 38.53125 58.296875 35.25 61.46875 
Q 31.984375 64.65625 26.8125 64.65625 
Q 21.6875 64.65625 18.265625 61.421875 
Q 14.84375 58.203125 13.875 51.765625 
L 5.078125 53.328125 
Q 6.6875 62.15625 12.390625 67.015625 
Q 18.109375 71.875 26.609375 71.875 
Q 32.46875 71.875 37.390625 69.359375 
Q 42.328125 66.84375 44.9375 62.5 
Q 47.5625 58.15625 47.5625 53.265625 
Q 47.5625 48.640625 45.0625 44.828125 
Q 42.578125 41.015625 37.703125 38.765625 
Q 44.046875 37.3125 47.5625 32.6875 
Q 51.078125 28.078125 51.078125 21.140625 
Q 51.078125 11.765625 44.234375 5.25 
Q 37.40625 -1.265625 26.953125 -1.265625 
Q 17.53125 -1.265625 11.296875 4.34375 
Q 5.078125 9.96875 4.203125 18.890625 
z
" id="ArialMT-51"/>
      </defs>
      <g style="fill:#262626;" transform="translate(124.478469 362.107188)scale(0.1 -0.1)">
       <use xlink:href="#ArialMT-48"/>
       <use x="55.615234" xlink:href="#ArialMT-46"/>
       <use x="83.398438" xlink:href="#ArialMT-51"/>
       <use x="139.013672" xlink:href="#ArialMT-48"/>
      </g>
     </g>
    </g>
    <g id="xtick_3">
     <g id="line2d_3">
      <path clip-path="url(#pb71eff7855)" d="M 240.810011 347.949375 
L 240.810011 21.789375 
" style="fill:none;stroke:#ffffff;stroke-linecap:round;stroke-width:0.8;"/>
     </g>
     <g id="text_3">
      <!-- 0.35 -->
      <g style="fill:#262626;" transform="translate(231.079542 362.107188)scale(0.1 -0.1)">
       <use xlink:href="#ArialMT-48"/>
       <use x="55.615234" xlink:href="#ArialMT-46"/>
       <use x="83.398438" xlink:href="#ArialMT-51"/>
       <use x="139.013672" xlink:href="#ArialMT-53"/>
      </g>
     </g>
    </g>
    <g id="xtick_4">
     <g id="line2d_4">
      <path clip-path="url(#pb71eff7855)" d="M 347.411084 347.949375 
L 347.411084 21.789375 
" style="fill:none;stroke:#ffffff;stroke-linecap:round;stroke-width:0.8;"/>
     </g>
     <g id="text_4">
      <!-- 0.40 -->
      <defs>
       <path d="M 32.328125 0 
L 32.328125 17.140625 
L 1.265625 17.140625 
L 1.265625 25.203125 
L 33.9375 71.578125 
L 41.109375 71.578125 
L 41.109375 25.203125 
L 50.78125 25.203125 
L 50.78125 17.140625 
L 41.109375 17.140625 
L 41.109375 0 
z
M 32.328125 25.203125 
L 32.328125 57.46875 
L 9.90625 25.203125 
z
" id="ArialMT-52"/>
      </defs>
      <g style="fill:#262626;" transform="translate(337.680615 362.107188)scale(0.1 -0.1)">
       <use xlink:href="#ArialMT-48"/>
       <use x="55.615234" xlink:href="#ArialMT-46"/>
       <use x="83.398438" xlink:href="#ArialMT-52"/>
       <use x="139.013672" xlink:href="#ArialMT-48"/>
      </g>
     </g>
    </g>
    <g id="xtick_5">
     <g id="line2d_5">
      <path clip-path="url(#pb71eff7855)" d="M 454.012157 347.949375 
L 454.012157 21.789375 
" style="fill:none;stroke:#ffffff;stroke-linecap:round;stroke-width:0.8;"/>
     </g>
     <g id="text_5">
      <!-- 0.45 -->
      <g style="fill:#262626;" transform="translate(444.281688 362.107188)scale(0.1 -0.1)">
       <use xlink:href="#ArialMT-48"/>
       <use x="55.615234" xlink:href="#ArialMT-46"/>
       <use x="83.398438" xlink:href="#ArialMT-52"/>
       <use x="139.013672" xlink:href="#ArialMT-53"/>
      </g>
     </g>
    </g>
    <g id="xtick_6">
     <g id="line2d_6">
      <path clip-path="url(#pb71eff7855)" d="M 560.61323 347.949375 
L 560.61323 21.789375 
" style="fill:none;stroke:#ffffff;stroke-linecap:round;stroke-width:0.8;"/>
     </g>
     <g id="text_6">
      <!-- 0.50 -->
      <g style="fill:#262626;" transform="translate(550.882761 362.107188)scale(0.1 -0.1)">
       <use xlink:href="#ArialMT-48"/>
       <use x="55.615234" xlink:href="#ArialMT-46"/>
       <use x="83.398438" xlink:href="#ArialMT-53"/>
       <use x="139.013672" xlink:href="#ArialMT-48"/>
      </g>
     </g>
    </g>
    <g id="xtick_7">
     <g id="line2d_7">
      <path clip-path="url(#pb71eff7855)" d="M 667.214303 347.949375 
L 667.214303 21.789375 
" style="fill:none;stroke:#ffffff;stroke-linecap:round;stroke-width:0.8;"/>
     </g>
     <g id="text_7">
      <!-- 0.55 -->
      <g style="fill:#262626;" transform="translate(657.483834 362.107188)scale(0.1 -0.1)">
       <use xlink:href="#ArialMT-48"/>
       <use x="55.615234" xlink:href="#ArialMT-46"/>
       <use x="83.398438" xlink:href="#ArialMT-53"/>
       <use x="139.013672" xlink:href="#ArialMT-53"/>
      </g>
     </g>
    </g>
   </g>
   <g id="matplotlib.axis_2">
    <g id="ytick_1">
     <g id="line2d_8">
      <path clip-path="url(#pb71eff7855)" d="M 25.321875 347.949375 
L 694.921875 347.949375 
" style="fill:none;stroke:#ffffff;stroke-linecap:round;stroke-width:0.8;"/>
     </g>
     <g id="text_8">
      <!-- 0 -->
      <g style="fill:#262626;" transform="translate(12.760938 351.528281)scale(0.1 -0.1)">
       <use xlink:href="#ArialMT-48"/>
      </g>
     </g>
    </g>
    <g id="ytick_2">
     <g id="line2d_9">
      <path clip-path="url(#pb71eff7855)" d="M 25.321875 309.092451 
L 694.921875 309.092451 
" style="fill:none;stroke:#ffffff;stroke-linecap:round;stroke-width:0.8;"/>
     </g>
     <g id="text_9">
      <!-- 5 -->
      <g style="fill:#262626;" transform="translate(12.760938 312.671357)scale(0.1 -0.1)">
       <use xlink:href="#ArialMT-53"/>
      </g>
     </g>
    </g>
    <g id="ytick_3">
     <g id="line2d_10">
      <path clip-path="url(#pb71eff7855)" d="M 25.321875 270.235527 
L 694.921875 270.235527 
" style="fill:none;stroke:#ffffff;stroke-linecap:round;stroke-width:0.8;"/>
     </g>
     <g id="text_10">
      <!-- 10 -->
      <defs>
       <path d="M 37.25 0 
L 28.46875 0 
L 28.46875 56 
Q 25.296875 52.984375 20.140625 49.953125 
Q 14.984375 46.921875 10.890625 45.40625 
L 10.890625 53.90625 
Q 18.265625 57.375 23.78125 62.296875 
Q 29.296875 67.234375 31.59375 71.875 
L 37.25 71.875 
z
" id="ArialMT-49"/>
      </defs>
      <g style="fill:#262626;" transform="translate(7.2 273.814433)scale(0.1 -0.1)">
       <use xlink:href="#ArialMT-49"/>
       <use x="55.615234" xlink:href="#ArialMT-48"/>
      </g>
     </g>
    </g>
    <g id="ytick_4">
     <g id="line2d_11">
      <path clip-path="url(#pb71eff7855)" d="M 25.321875 231.378602 
L 694.921875 231.378602 
" style="fill:none;stroke:#ffffff;stroke-linecap:round;stroke-width:0.8;"/>
     </g>
     <g id="text_11">
      <!-- 15 -->
      <g style="fill:#262626;" transform="translate(7.2 234.957509)scale(0.1 -0.1)">
       <use xlink:href="#ArialMT-49"/>
       <use x="55.615234" xlink:href="#ArialMT-53"/>
      </g>
     </g>
    </g>
    <g id="ytick_5">
     <g id="line2d_12">
      <path clip-path="url(#pb71eff7855)" d="M 25.321875 192.521678 
L 694.921875 192.521678 
" style="fill:none;stroke:#ffffff;stroke-linecap:round;stroke-width:0.8;"/>
     </g>
     <g id="text_12">
      <!-- 20 -->
      <g style="fill:#262626;" transform="translate(7.2 196.100584)scale(0.1 -0.1)">
       <use xlink:href="#ArialMT-50"/>
       <use x="55.615234" xlink:href="#ArialMT-48"/>
      </g>
     </g>
    </g>
    <g id="ytick_6">
     <g id="line2d_13">
      <path clip-path="url(#pb71eff7855)" d="M 25.321875 153.664754 
L 694.921875 153.664754 
" style="fill:none;stroke:#ffffff;stroke-linecap:round;stroke-width:0.8;"/>
     </g>
     <g id="text_13">
      <!-- 25 -->
      <g style="fill:#262626;" transform="translate(7.2 157.24366)scale(0.1 -0.1)">
       <use xlink:href="#ArialMT-50"/>
       <use x="55.615234" xlink:href="#ArialMT-53"/>
      </g>
     </g>
    </g>
    <g id="ytick_7">
     <g id="line2d_14">
      <path clip-path="url(#pb71eff7855)" d="M 25.321875 114.80783 
L 694.921875 114.80783 
" style="fill:none;stroke:#ffffff;stroke-linecap:round;stroke-width:0.8;"/>
     </g>
     <g id="text_14">
      <!-- 30 -->
      <g style="fill:#262626;" transform="translate(7.2 118.386736)scale(0.1 -0.1)">
       <use xlink:href="#ArialMT-51"/>
       <use x="55.615234" xlink:href="#ArialMT-48"/>
      </g>
     </g>
    </g>
    <g id="ytick_8">
     <g id="line2d_15">
      <path clip-path="url(#pb71eff7855)" d="M 25.321875 75.950905 
L 694.921875 75.950905 
" style="fill:none;stroke:#ffffff;stroke-linecap:round;stroke-width:0.8;"/>
     </g>
     <g id="text_15">
      <!-- 35 -->
      <g style="fill:#262626;" transform="translate(7.2 79.529812)scale(0.1 -0.1)">
       <use xlink:href="#ArialMT-51"/>
       <use x="55.615234" xlink:href="#ArialMT-53"/>
      </g>
     </g>
    </g>
    <g id="ytick_9">
     <g id="line2d_16">
      <path clip-path="url(#pb71eff7855)" d="M 25.321875 37.093981 
L 694.921875 37.093981 
" style="fill:none;stroke:#ffffff;stroke-linecap:round;stroke-width:0.8;"/>
     </g>
     <g id="text_16">
      <!-- 40 -->
      <g style="fill:#262626;" transform="translate(7.2 40.672887)scale(0.1 -0.1)">
       <use xlink:href="#ArialMT-52"/>
       <use x="55.615234" xlink:href="#ArialMT-48"/>
      </g>
     </g>
    </g>
   </g>
   <g id="patch_3">
    <path clip-path="url(#pb71eff7855)" d="M 487.493393 347.949375 
L 491.866478 347.949375 
L 491.866478 346.686441 
L 487.493393 346.686441 
z
" style="fill:#a6cee3;opacity:0.4;stroke:#ffffff;stroke-linejoin:miter;"/>
   </g>
   <g id="patch_4">
    <path clip-path="url(#pb71eff7855)" d="M 491.866478 347.949375 
L 496.239562 347.949375 
L 496.239562 347.949375 
L 491.866478 347.949375 
z
" style="fill:#a6cee3;opacity:0.4;stroke:#ffffff;stroke-linejoin:miter;"/>
   </g>
   <g id="patch_5">
    <path clip-path="url(#pb71eff7855)" d="M 496.239562 347.949375 
L 500.612647 347.949375 
L 500.612647 345.423506 
L 496.239562 345.423506 
z
" style="fill:#a6cee3;opacity:0.4;stroke:#ffffff;stroke-linejoin:miter;"/>
   </g>
   <g id="patch_6">
    <path clip-path="url(#pb71eff7855)" d="M 500.612647 347.949375 
L 504.985732 347.949375 
L 504.985732 344.160572 
L 500.612647 344.160572 
z
" style="fill:#a6cee3;opacity:0.4;stroke:#ffffff;stroke-linejoin:miter;"/>
   </g>
   <g id="patch_7">
    <path clip-path="url(#pb71eff7855)" d="M 504.985732 347.949375 
L 509.358817 347.949375 
L 509.358817 344.160572 
L 504.985732 344.160572 
z
" style="fill:#a6cee3;opacity:0.4;stroke:#ffffff;stroke-linejoin:miter;"/>
   </g>
   <g id="patch_8">
    <path clip-path="url(#pb71eff7855)" d="M 509.358817 347.949375 
L 513.731902 347.949375 
L 513.731902 344.160572 
L 509.358817 344.160572 
z
" style="fill:#a6cee3;opacity:0.4;stroke:#ffffff;stroke-linejoin:miter;"/>
   </g>
   <g id="patch_9">
    <path clip-path="url(#pb71eff7855)" d="M 513.731902 347.949375 
L 518.104987 347.949375 
L 518.104987 331.531227 
L 513.731902 331.531227 
z
" style="fill:#a6cee3;opacity:0.4;stroke:#ffffff;stroke-linejoin:miter;"/>
   </g>
   <g id="patch_10">
    <path clip-path="url(#pb71eff7855)" d="M 518.104987 347.949375 
L 522.478072 347.949375 
L 522.478072 322.690685 
L 518.104987 322.690685 
z
" style="fill:#a6cee3;opacity:0.4;stroke:#ffffff;stroke-linejoin:miter;"/>
   </g>
   <g id="patch_11">
    <path clip-path="url(#pb71eff7855)" d="M 522.478072 347.949375 
L 526.851157 347.949375 
L 526.851157 326.479489 
L 522.478072 326.479489 
z
" style="fill:#a6cee3;opacity:0.4;stroke:#ffffff;stroke-linejoin:miter;"/>
   </g>
   <g id="patch_12">
    <path clip-path="url(#pb71eff7855)" d="M 526.851157 347.949375 
L 531.224242 347.949375 
L 531.224242 303.746668 
L 526.851157 303.746668 
z
" style="fill:#a6cee3;opacity:0.4;stroke:#ffffff;stroke-linejoin:miter;"/>
   </g>
   <g id="patch_13">
    <path clip-path="url(#pb71eff7855)" d="M 531.224242 347.949375 
L 535.597327 347.949375 
L 535.597327 287.32852 
L 531.224242 287.32852 
z
" style="fill:#a6cee3;opacity:0.4;stroke:#ffffff;stroke-linejoin:miter;"/>
   </g>
   <g id="patch_14">
    <path clip-path="url(#pb71eff7855)" d="M 535.597327 347.949375 
L 539.970412 347.949375 
L 539.970412 264.595699 
L 535.597327 264.595699 
z
" style="fill:#a6cee3;opacity:0.4;stroke:#ffffff;stroke-linejoin:miter;"/>
   </g>
   <g id="patch_15">
    <path clip-path="url(#pb71eff7855)" d="M 539.970412 347.949375 
L 544.343497 347.949375 
L 544.343497 248.177551 
L 539.970412 248.177551 
z
" style="fill:#a6cee3;opacity:0.4;stroke:#ffffff;stroke-linejoin:miter;"/>
   </g>
   <g id="patch_16">
    <path clip-path="url(#pb71eff7855)" d="M 544.343497 347.949375 
L 548.716582 347.949375 
L 548.716582 206.500713 
L 544.343497 206.500713 
z
" style="fill:#a6cee3;opacity:0.4;stroke:#ffffff;stroke-linejoin:miter;"/>
   </g>
   <g id="patch_17">
    <path clip-path="url(#pb71eff7855)" d="M 548.716582 347.949375 
L 553.089667 347.949375 
L 553.089667 203.974844 
L 548.716582 203.974844 
z
" style="fill:#a6cee3;opacity:0.4;stroke:#ffffff;stroke-linejoin:miter;"/>
   </g>
   <g id="patch_18">
    <path clip-path="url(#pb71eff7855)" d="M 553.089667 347.949375 
L 557.462752 347.949375 
L 557.462752 145.879857 
L 553.089667 145.879857 
z
" style="fill:#a6cee3;opacity:0.4;stroke:#ffffff;stroke-linejoin:miter;"/>
   </g>
   <g id="patch_19">
    <path clip-path="url(#pb71eff7855)" d="M 557.462752 347.949375 
L 561.835836 347.949375 
L 561.835836 152.19453 
L 557.462752 152.19453 
z
" style="fill:#a6cee3;opacity:0.4;stroke:#ffffff;stroke-linejoin:miter;"/>
   </g>
   <g id="patch_20">
    <path clip-path="url(#pb71eff7855)" d="M 561.835836 347.949375 
L 566.208921 347.949375 
L 566.208921 85.259002 
L 561.835836 85.259002 
z
" style="fill:#a6cee3;opacity:0.4;stroke:#ffffff;stroke-linejoin:miter;"/>
   </g>
   <g id="patch_21">
    <path clip-path="url(#pb71eff7855)" d="M 566.208921 347.949375 
L 570.582006 347.949375 
L 570.582006 104.20302 
L 566.208921 104.20302 
z
" style="fill:#a6cee3;opacity:0.4;stroke:#ffffff;stroke-linejoin:miter;"/>
   </g>
   <g id="patch_22">
    <path clip-path="url(#pb71eff7855)" d="M 570.582006 347.949375 
L 574.955091 347.949375 
L 574.955091 87.784871 
L 570.582006 87.784871 
z
" style="fill:#a6cee3;opacity:0.4;stroke:#ffffff;stroke-linejoin:miter;"/>
   </g>
   <g id="patch_23">
    <path clip-path="url(#pb71eff7855)" d="M 574.955091 347.949375 
L 579.328176 347.949375 
L 579.328176 76.418461 
L 574.955091 76.418461 
z
" style="fill:#a6cee3;opacity:0.4;stroke:#ffffff;stroke-linejoin:miter;"/>
   </g>
   <g id="patch_24">
    <path clip-path="url(#pb71eff7855)" d="M 579.328176 347.949375 
L 583.701261 347.949375 
L 583.701261 75.155526 
L 579.328176 75.155526 
z
" style="fill:#a6cee3;opacity:0.4;stroke:#ffffff;stroke-linejoin:miter;"/>
   </g>
   <g id="patch_25">
    <path clip-path="url(#pb71eff7855)" d="M 583.701261 347.949375 
L 588.074346 347.949375 
L 588.074346 89.047806 
L 583.701261 89.047806 
z
" style="fill:#a6cee3;opacity:0.4;stroke:#ffffff;stroke-linejoin:miter;"/>
   </g>
   <g id="patch_26">
    <path clip-path="url(#pb71eff7855)" d="M 588.074346 347.949375 
L 592.447431 347.949375 
L 592.447431 91.573675 
L 588.074346 91.573675 
z
" style="fill:#a6cee3;opacity:0.4;stroke:#ffffff;stroke-linejoin:miter;"/>
   </g>
   <g id="patch_27">
    <path clip-path="url(#pb71eff7855)" d="M 592.447431 347.949375 
L 596.820516 347.949375 
L 596.820516 129.461709 
L 592.447431 129.461709 
z
" style="fill:#a6cee3;opacity:0.4;stroke:#ffffff;stroke-linejoin:miter;"/>
   </g>
   <g id="patch_28">
    <path clip-path="url(#pb71eff7855)" d="M 596.820516 347.949375 
L 601.193601 347.949375 
L 601.193601 217.867123 
L 596.820516 217.867123 
z
" style="fill:#a6cee3;opacity:0.4;stroke:#ffffff;stroke-linejoin:miter;"/>
   </g>
   <g id="patch_29">
    <path clip-path="url(#pb71eff7855)" d="M 601.193601 347.949375 
L 605.566686 347.949375 
L 605.566686 198.923106 
L 601.193601 198.923106 
z
" style="fill:#a6cee3;opacity:0.4;stroke:#ffffff;stroke-linejoin:miter;"/>
   </g>
   <g id="patch_30">
    <path clip-path="url(#pb71eff7855)" d="M 605.566686 347.949375 
L 609.939771 347.949375 
L 609.939771 222.918861 
L 605.566686 222.918861 
z
" style="fill:#a6cee3;opacity:0.4;stroke:#ffffff;stroke-linejoin:miter;"/>
   </g>
   <g id="patch_31">
    <path clip-path="url(#pb71eff7855)" d="M 609.939771 347.949375 
L 614.312856 347.949375 
L 614.312856 268.384502 
L 609.939771 268.384502 
z
" style="fill:#a6cee3;opacity:0.4;stroke:#ffffff;stroke-linejoin:miter;"/>
   </g>
   <g id="patch_32">
    <path clip-path="url(#pb71eff7855)" d="M 614.312856 347.949375 
L 618.685941 347.949375 
L 618.685941 263.332765 
L 614.312856 263.332765 
z
" style="fill:#a6cee3;opacity:0.4;stroke:#ffffff;stroke-linejoin:miter;"/>
   </g>
   <g id="patch_33">
    <path clip-path="url(#pb71eff7855)" d="M 618.685941 347.949375 
L 623.059025 347.949375 
L 623.059025 303.746668 
L 618.685941 303.746668 
z
" style="fill:#a6cee3;opacity:0.4;stroke:#ffffff;stroke-linejoin:miter;"/>
   </g>
   <g id="patch_34">
    <path clip-path="url(#pb71eff7855)" d="M 623.059025 347.949375 
L 627.43211 347.949375 
L 627.43211 322.690685 
L 623.059025 322.690685 
z
" style="fill:#a6cee3;opacity:0.4;stroke:#ffffff;stroke-linejoin:miter;"/>
   </g>
   <g id="patch_35">
    <path clip-path="url(#pb71eff7855)" d="M 627.43211 347.949375 
L 631.805195 347.949375 
L 631.805195 330.268292 
L 627.43211 330.268292 
z
" style="fill:#a6cee3;opacity:0.4;stroke:#ffffff;stroke-linejoin:miter;"/>
   </g>
   <g id="patch_36">
    <path clip-path="url(#pb71eff7855)" d="M 631.805195 347.949375 
L 636.17828 347.949375 
L 636.17828 327.742423 
L 631.805195 327.742423 
z
" style="fill:#a6cee3;opacity:0.4;stroke:#ffffff;stroke-linejoin:miter;"/>
   </g>
   <g id="patch_37">
    <path clip-path="url(#pb71eff7855)" d="M 636.17828 347.949375 
L 640.551365 347.949375 
L 640.551365 337.845899 
L 636.17828 337.845899 
z
" style="fill:#a6cee3;opacity:0.4;stroke:#ffffff;stroke-linejoin:miter;"/>
   </g>
   <g id="patch_38">
    <path clip-path="url(#pb71eff7855)" d="M 640.551365 347.949375 
L 644.92445 347.949375 
L 644.92445 341.634703 
L 640.551365 341.634703 
z
" style="fill:#a6cee3;opacity:0.4;stroke:#ffffff;stroke-linejoin:miter;"/>
   </g>
   <g id="patch_39">
    <path clip-path="url(#pb71eff7855)" d="M 644.92445 347.949375 
L 649.297535 347.949375 
L 649.297535 345.423506 
L 644.92445 345.423506 
z
" style="fill:#a6cee3;opacity:0.4;stroke:#ffffff;stroke-linejoin:miter;"/>
   </g>
   <g id="patch_40">
    <path clip-path="url(#pb71eff7855)" d="M 69.438217 347.949375 
L 73.403116 347.949375 
L 73.403116 345.163469 
L 69.438217 345.163469 
z
" style="fill:#1f78b4;opacity:0.4;stroke:#ffffff;stroke-linejoin:miter;"/>
   </g>
   <g id="patch_41">
    <path clip-path="url(#pb71eff7855)" d="M 73.403116 347.949375 
L 77.368016 347.949375 
L 77.368016 343.770515 
L 73.403116 343.770515 
z
" style="fill:#1f78b4;opacity:0.4;stroke:#ffffff;stroke-linejoin:miter;"/>
   </g>
   <g id="patch_42">
    <path clip-path="url(#pb71eff7855)" d="M 77.368016 347.949375 
L 81.332915 347.949375 
L 81.332915 346.556422 
L 77.368016 346.556422 
z
" style="fill:#1f78b4;opacity:0.4;stroke:#ffffff;stroke-linejoin:miter;"/>
   </g>
   <g id="patch_43">
    <path clip-path="url(#pb71eff7855)" d="M 81.332915 347.949375 
L 85.297815 347.949375 
L 85.297815 334.019843 
L 81.332915 334.019843 
z
" style="fill:#1f78b4;opacity:0.4;stroke:#ffffff;stroke-linejoin:miter;"/>
   </g>
   <g id="patch_44">
    <path clip-path="url(#pb71eff7855)" d="M 85.297815 347.949375 
L 89.262715 347.949375 
L 89.262715 338.198702 
L 85.297815 338.198702 
z
" style="fill:#1f78b4;opacity:0.4;stroke:#ffffff;stroke-linejoin:miter;"/>
   </g>
   <g id="patch_45">
    <path clip-path="url(#pb71eff7855)" d="M 89.262715 347.949375 
L 93.227614 347.949375 
L 93.227614 325.662123 
L 89.262715 325.662123 
z
" style="fill:#1f78b4;opacity:0.4;stroke:#ffffff;stroke-linejoin:miter;"/>
   </g>
   <g id="patch_46">
    <path clip-path="url(#pb71eff7855)" d="M 93.227614 347.949375 
L 97.192514 347.949375 
L 97.192514 327.055076 
L 93.227614 327.055076 
z
" style="fill:#1f78b4;opacity:0.4;stroke:#ffffff;stroke-linejoin:miter;"/>
   </g>
   <g id="patch_47">
    <path clip-path="url(#pb71eff7855)" d="M 97.192514 347.949375 
L 101.157414 347.949375 
L 101.157414 313.125544 
L 97.192514 313.125544 
z
" style="fill:#1f78b4;opacity:0.4;stroke:#ffffff;stroke-linejoin:miter;"/>
   </g>
   <g id="patch_48">
    <path clip-path="url(#pb71eff7855)" d="M 101.157414 347.949375 
L 105.122313 347.949375 
L 105.122313 285.266479 
L 101.157414 285.266479 
z
" style="fill:#1f78b4;opacity:0.4;stroke:#ffffff;stroke-linejoin:miter;"/>
   </g>
   <g id="patch_49">
    <path clip-path="url(#pb71eff7855)" d="M 105.122313 347.949375 
L 109.087213 347.949375 
L 109.087213 251.835602 
L 105.122313 251.835602 
z
" style="fill:#1f78b4;opacity:0.4;stroke:#ffffff;stroke-linejoin:miter;"/>
   </g>
   <g id="patch_50">
    <path clip-path="url(#pb71eff7855)" d="M 109.087213 347.949375 
L 113.052112 347.949375 
L 113.052112 235.120163 
L 109.087213 235.120163 
z
" style="fill:#1f78b4;opacity:0.4;stroke:#ffffff;stroke-linejoin:miter;"/>
   </g>
   <g id="patch_51">
    <path clip-path="url(#pb71eff7855)" d="M 113.052112 347.949375 
L 117.017012 347.949375 
L 117.017012 210.047005 
L 113.052112 210.047005 
z
" style="fill:#1f78b4;opacity:0.4;stroke:#ffffff;stroke-linejoin:miter;"/>
   </g>
   <g id="patch_52">
    <path clip-path="url(#pb71eff7855)" d="M 117.017012 347.949375 
L 120.981912 347.949375 
L 120.981912 164.079548 
L 117.017012 164.079548 
z
" style="fill:#1f78b4;opacity:0.4;stroke:#ffffff;stroke-linejoin:miter;"/>
   </g>
   <g id="patch_53">
    <path clip-path="url(#pb71eff7855)" d="M 120.981912 347.949375 
L 124.946811 347.949375 
L 124.946811 113.933232 
L 120.981912 113.933232 
z
" style="fill:#1f78b4;opacity:0.4;stroke:#ffffff;stroke-linejoin:miter;"/>
   </g>
   <g id="patch_54">
    <path clip-path="url(#pb71eff7855)" d="M 124.946811 347.949375 
L 128.911711 347.949375 
L 128.911711 106.968465 
L 124.946811 106.968465 
z
" style="fill:#1f78b4;opacity:0.4;stroke:#ffffff;stroke-linejoin:miter;"/>
   </g>
   <g id="patch_55">
    <path clip-path="url(#pb71eff7855)" d="M 128.911711 347.949375 
L 132.876611 347.949375 
L 132.876611 77.716447 
L 128.911711 77.716447 
z
" style="fill:#1f78b4;opacity:0.4;stroke:#ffffff;stroke-linejoin:miter;"/>
   </g>
   <g id="patch_56">
    <path clip-path="url(#pb71eff7855)" d="M 132.876611 347.949375 
L 136.84151 347.949375 
L 136.84151 40.10671 
L 132.876611 40.10671 
z
" style="fill:#1f78b4;opacity:0.4;stroke:#ffffff;stroke-linejoin:miter;"/>
   </g>
   <g id="patch_57">
    <path clip-path="url(#pb71eff7855)" d="M 136.84151 347.949375 
L 140.80641 347.949375 
L 140.80641 37.320804 
L 136.84151 37.320804 
z
" style="fill:#1f78b4;opacity:0.4;stroke:#ffffff;stroke-linejoin:miter;"/>
   </g>
   <g id="patch_58">
    <path clip-path="url(#pb71eff7855)" d="M 140.80641 347.949375 
L 144.771309 347.949375 
L 144.771309 42.892617 
L 140.80641 42.892617 
z
" style="fill:#1f78b4;opacity:0.4;stroke:#ffffff;stroke-linejoin:miter;"/>
   </g>
   <g id="patch_59">
    <path clip-path="url(#pb71eff7855)" d="M 144.771309 347.949375 
L 148.736209 347.949375 
L 148.736209 56.822149 
L 144.771309 56.822149 
z
" style="fill:#1f78b4;opacity:0.4;stroke:#ffffff;stroke-linejoin:miter;"/>
   </g>
   <g id="patch_60">
    <path clip-path="url(#pb71eff7855)" d="M 148.736209 347.949375 
L 152.701109 347.949375 
L 152.701109 67.965775 
L 148.736209 67.965775 
z
" style="fill:#1f78b4;opacity:0.4;stroke:#ffffff;stroke-linejoin:miter;"/>
   </g>
   <g id="patch_61">
    <path clip-path="url(#pb71eff7855)" d="M 152.701109 347.949375 
L 156.666008 347.949375 
L 156.666008 115.326185 
L 152.701109 115.326185 
z
" style="fill:#1f78b4;opacity:0.4;stroke:#ffffff;stroke-linejoin:miter;"/>
   </g>
   <g id="patch_62">
    <path clip-path="url(#pb71eff7855)" d="M 156.666008 347.949375 
L 160.630908 347.949375 
L 160.630908 113.933232 
L 156.666008 113.933232 
z
" style="fill:#1f78b4;opacity:0.4;stroke:#ffffff;stroke-linejoin:miter;"/>
   </g>
   <g id="patch_63">
    <path clip-path="url(#pb71eff7855)" d="M 160.630908 347.949375 
L 164.595808 347.949375 
L 164.595808 143.185249 
L 160.630908 143.185249 
z
" style="fill:#1f78b4;opacity:0.4;stroke:#ffffff;stroke-linejoin:miter;"/>
   </g>
   <g id="patch_64">
    <path clip-path="url(#pb71eff7855)" d="M 164.595808 347.949375 
L 168.560707 347.949375 
L 168.560707 191.938613 
L 164.595808 191.938613 
z
" style="fill:#1f78b4;opacity:0.4;stroke:#ffffff;stroke-linejoin:miter;"/>
   </g>
   <g id="patch_65">
    <path clip-path="url(#pb71eff7855)" d="M 168.560707 347.949375 
L 172.525607 347.949375 
L 172.525607 240.691976 
L 168.560707 240.691976 
z
" style="fill:#1f78b4;opacity:0.4;stroke:#ffffff;stroke-linejoin:miter;"/>
   </g>
   <g id="patch_66">
    <path clip-path="url(#pb71eff7855)" d="M 172.525607 347.949375 
L 176.490506 347.949375 
L 176.490506 267.158087 
L 172.525607 267.158087 
z
" style="fill:#1f78b4;opacity:0.4;stroke:#ffffff;stroke-linejoin:miter;"/>
   </g>
   <g id="patch_67">
    <path clip-path="url(#pb71eff7855)" d="M 176.490506 347.949375 
L 180.455406 347.949375 
L 180.455406 269.943994 
L 176.490506 269.943994 
z
" style="fill:#1f78b4;opacity:0.4;stroke:#ffffff;stroke-linejoin:miter;"/>
   </g>
   <g id="patch_68">
    <path clip-path="url(#pb71eff7855)" d="M 180.455406 347.949375 
L 184.420306 347.949375 
L 184.420306 304.767825 
L 180.455406 304.767825 
z
" style="fill:#1f78b4;opacity:0.4;stroke:#ffffff;stroke-linejoin:miter;"/>
   </g>
   <g id="patch_69">
    <path clip-path="url(#pb71eff7855)" d="M 184.420306 347.949375 
L 188.385205 347.949375 
L 188.385205 310.339638 
L 184.420306 310.339638 
z
" style="fill:#1f78b4;opacity:0.4;stroke:#ffffff;stroke-linejoin:miter;"/>
   </g>
   <g id="patch_70">
    <path clip-path="url(#pb71eff7855)" d="M 188.385205 347.949375 
L 192.350105 347.949375 
L 192.350105 317.304404 
L 188.385205 317.304404 
z
" style="fill:#1f78b4;opacity:0.4;stroke:#ffffff;stroke-linejoin:miter;"/>
   </g>
   <g id="patch_71">
    <path clip-path="url(#pb71eff7855)" d="M 192.350105 347.949375 
L 196.315005 347.949375 
L 196.315005 339.591656 
L 192.350105 339.591656 
z
" style="fill:#1f78b4;opacity:0.4;stroke:#ffffff;stroke-linejoin:miter;"/>
   </g>
   <g id="patch_72">
    <path clip-path="url(#pb71eff7855)" d="M 196.315005 347.949375 
L 200.279904 347.949375 
L 200.279904 342.377562 
L 196.315005 342.377562 
z
" style="fill:#1f78b4;opacity:0.4;stroke:#ffffff;stroke-linejoin:miter;"/>
   </g>
   <g id="patch_73">
    <path clip-path="url(#pb71eff7855)" d="M 200.279904 347.949375 
L 204.244804 347.949375 
L 204.244804 342.377562 
L 200.279904 342.377562 
z
" style="fill:#1f78b4;opacity:0.4;stroke:#ffffff;stroke-linejoin:miter;"/>
   </g>
   <g id="patch_74">
    <path clip-path="url(#pb71eff7855)" d="M 204.244804 347.949375 
L 208.209703 347.949375 
L 208.209703 339.591656 
L 204.244804 339.591656 
z
" style="fill:#1f78b4;opacity:0.4;stroke:#ffffff;stroke-linejoin:miter;"/>
   </g>
   <g id="patch_75">
    <path clip-path="url(#pb71eff7855)" d="M 208.209703 347.949375 
L 212.174603 347.949375 
L 212.174603 347.949375 
L 208.209703 347.949375 
z
" style="fill:#1f78b4;opacity:0.4;stroke:#ffffff;stroke-linejoin:miter;"/>
   </g>
   <g id="patch_76">
    <path clip-path="url(#pb71eff7855)" d="M 212.174603 347.949375 
L 216.139503 347.949375 
L 216.139503 347.949375 
L 212.174603 347.949375 
z
" style="fill:#1f78b4;opacity:0.4;stroke:#ffffff;stroke-linejoin:miter;"/>
   </g>
   <g id="patch_77">
    <path clip-path="url(#pb71eff7855)" d="M 216.139503 347.949375 
L 220.104402 347.949375 
L 220.104402 346.556422 
L 216.139503 346.556422 
z
" style="fill:#1f78b4;opacity:0.4;stroke:#ffffff;stroke-linejoin:miter;"/>
   </g>
   <g id="patch_78">
    <path clip-path="url(#pb71eff7855)" d="M 220.104402 347.949375 
L 224.069302 347.949375 
L 224.069302 346.556422 
L 220.104402 346.556422 
z
" style="fill:#1f78b4;opacity:0.4;stroke:#ffffff;stroke-linejoin:miter;"/>
   </g>
   <g id="line2d_17">
    <path clip-path="url(#pb71eff7855)" d="M 472.305416 347.942328 
L 479.871562 347.808477 
L 493.490624 347.135712 
L 496.517082 346.546441 
L 499.54354 345.649156 
L 504.083227 344.097893 
L 505.596456 343.489825 
L 507.109685 342.742623 
L 508.622915 341.777751 
L 510.136144 340.529599 
L 511.649373 338.965973 
L 513.162602 337.09841 
L 516.18906 332.67126 
L 519.215518 327.707767 
L 520.728747 325.037992 
L 522.241976 322.137391 
L 523.755206 318.870443 
L 525.268435 315.095964 
L 526.781664 310.70936 
L 528.294893 305.674831 
L 529.808122 300.034556 
L 532.83458 287.379615 
L 537.374267 266.583325 
L 540.400726 251.705373 
L 543.427184 235.4672 
L 546.453642 217.904827 
L 554.019787 171.92781 
L 563.099162 115.644291 
L 564.612391 108.281293 
L 566.12562 102.23075 
L 567.638849 97.399487 
L 569.152078 93.480379 
L 570.665307 90.103444 
L 572.178537 87.015594 
L 573.691766 84.195909 
L 575.204995 81.848982 
L 576.718224 80.286036 
L 578.231453 79.762572 
L 579.744682 80.360405 
L 581.257911 81.974082 
L 582.77114 84.404785 
L 584.284369 87.509857 
L 585.797598 91.330255 
L 587.310828 96.131648 
L 588.824057 102.335831 
L 590.337286 110.364327 
L 591.850515 120.447613 
L 593.363744 132.467 
L 599.41666 185.627354 
L 600.929889 196.137781 
L 602.443118 204.961559 
L 605.469577 219.588741 
L 608.496035 234.141674 
L 616.06218 273.880268 
L 620.601868 295.172512 
L 623.628326 308.26324 
L 625.141555 313.971006 
L 626.654784 318.838306 
L 628.168013 322.775059 
L 629.681242 325.830585 
L 631.194471 328.174721 
L 632.7077 330.04492 
L 643.300304 341.522509 
L 644.813533 342.899273 
L 646.326762 344.0845 
L 647.839991 345.072586 
L 649.35322 345.871344 
L 650.86645 346.497206 
L 652.379679 346.971584 
L 655.406137 347.560905 
L 658.432595 347.824934 
L 662.972282 347.935023 
L 664.485511 347.941826 
L 664.485511 347.941826 
" style="fill:none;stroke:#a6cee3;stroke-linecap:round;stroke-width:1.5;"/>
   </g>
   <g id="line2d_18">
    <path clip-path="url(#pb71eff7855)" d="M 55.758239 347.940128 
L 60.05724 347.867166 
L 62.92324 347.667598 
L 65.789241 347.235576 
L 68.655242 346.565211 
L 72.954243 345.335431 
L 74.387243 344.841849 
L 75.820243 344.229547 
L 77.253244 343.438228 
L 78.686244 342.434292 
L 81.552244 339.88235 
L 85.851245 335.455006 
L 88.717246 332.050541 
L 90.150246 330.077168 
L 91.583247 327.856715 
L 93.016247 325.291345 
L 94.449247 322.211599 
L 95.882248 318.389708 
L 97.315248 313.59344 
L 98.748248 307.658758 
L 100.181249 300.553175 
L 101.614249 292.408091 
L 104.48025 274.216901 
L 111.645251 227.999762 
L 113.078252 217.501912 
L 114.511252 205.861134 
L 117.377253 179.451283 
L 120.243253 151.740969 
L 121.676254 138.751797 
L 123.109254 126.793835 
L 124.542254 115.888001 
L 127.408255 96.406069 
L 130.274256 78.77979 
L 131.707256 70.75557 
L 133.140256 63.563452 
L 134.573257 57.425399 
L 136.006257 52.475725 
L 137.439257 48.776499 
L 138.872257 46.370793 
L 140.305258 45.318814 
L 141.738258 45.695101 
L 143.171258 47.566536 
L 144.604259 50.97576 
L 146.037259 55.925357 
L 147.470259 62.338234 
L 148.90326 69.991677 
L 154.635261 103.380177 
L 158.934262 125.19588 
L 160.367262 134.195048 
L 161.800263 145.010102 
L 163.233263 157.664469 
L 166.099264 186.559431 
L 168.965264 215.275283 
L 170.398265 228.037183 
L 171.831265 239.409717 
L 173.264265 249.452864 
L 174.697266 258.371965 
L 177.563266 273.850643 
L 180.429267 287.407398 
L 183.295268 299.396923 
L 184.728268 304.719232 
L 187.594269 314.096034 
L 190.460269 322.306268 
L 193.32627 329.65797 
L 194.75927 332.843801 
L 196.19227 335.538978 
L 197.625271 337.661176 
L 199.058271 339.215522 
L 200.491271 340.303166 
L 203.357272 341.765326 
L 206.223273 343.264526 
L 210.522274 345.852332 
L 211.955274 346.498538 
L 213.388274 346.939971 
L 214.821275 347.180771 
L 217.687275 347.234542 
L 221.986276 347.081983 
L 224.852277 347.2114 
L 232.017279 347.826101 
L 236.31628 347.933573 
L 237.74928 347.940662 
L 237.74928 347.940662 
" style="fill:none;stroke:#1f78b4;stroke-linecap:round;stroke-width:1.5;"/>
   </g>
   <g id="line2d_19">
    <path clip-path="url(#pb71eff7855)" d="M 581.933445 347.949375 
L 581.933445 21.789375 
" style="fill:none;stroke:#808080;stroke-dasharray:5.55,2.4;stroke-dashoffset:0;stroke-width:1.5;"/>
   </g>
   <g id="line2d_20">
    <path clip-path="url(#pb71eff7855)" d="M 155.529152 347.949375 
L 155.529152 21.789375 
" style="fill:none;stroke:#000000;stroke-dasharray:5.55,2.4;stroke-dashoffset:0;stroke-width:1.5;"/>
   </g>
   <g id="patch_79">
    <path d="M 25.321875 347.949375 
L 25.321875 21.789375 
" style="fill:none;stroke:#ffffff;stroke-linecap:square;stroke-linejoin:miter;stroke-width:0.8;"/>
   </g>
   <g id="patch_80">
    <path d="M 694.921875 347.949375 
L 694.921875 21.789375 
" style="fill:none;stroke:#ffffff;stroke-linecap:square;stroke-linejoin:miter;stroke-width:0.8;"/>
   </g>
   <g id="patch_81">
    <path d="M 25.321875 347.949375 
L 694.921875 347.949375 
" style="fill:none;stroke:#ffffff;stroke-linecap:square;stroke-linejoin:miter;stroke-width:0.8;"/>
   </g>
   <g id="patch_82">
    <path d="M 25.321875 21.789375 
L 694.921875 21.789375 
" style="fill:none;stroke:#ffffff;stroke-linecap:square;stroke-linejoin:miter;stroke-width:0.8;"/>
   </g>
   <g id="text_17">
    <!-- Ads CTR distributions -->
    <defs>
     <path d="M -0.140625 0 
L 27.34375 71.578125 
L 37.546875 71.578125 
L 66.84375 0 
L 56.0625 0 
L 47.703125 21.6875 
L 17.78125 21.6875 
L 9.90625 0 
z
M 20.515625 29.390625 
L 44.78125 29.390625 
L 37.3125 49.21875 
Q 33.890625 58.25 32.234375 64.0625 
Q 30.859375 57.171875 28.375 50.390625 
z
" id="ArialMT-65"/>
     <path d="M 40.234375 0 
L 40.234375 6.546875 
Q 35.296875 -1.171875 25.734375 -1.171875 
Q 19.53125 -1.171875 14.328125 2.25 
Q 9.125 5.671875 6.265625 11.796875 
Q 3.421875 17.921875 3.421875 25.875 
Q 3.421875 33.640625 6 39.96875 
Q 8.59375 46.296875 13.765625 49.65625 
Q 18.953125 53.03125 25.34375 53.03125 
Q 30.03125 53.03125 33.6875 51.046875 
Q 37.359375 49.078125 39.65625 45.90625 
L 39.65625 71.578125 
L 48.390625 71.578125 
L 48.390625 0 
z
M 12.453125 25.875 
Q 12.453125 15.921875 16.640625 10.984375 
Q 20.84375 6.0625 26.5625 6.0625 
Q 32.328125 6.0625 36.34375 10.765625 
Q 40.375 15.484375 40.375 25.140625 
Q 40.375 35.796875 36.265625 40.765625 
Q 32.171875 45.75 26.171875 45.75 
Q 20.3125 45.75 16.375 40.96875 
Q 12.453125 36.1875 12.453125 25.875 
z
" id="ArialMT-100"/>
     <path d="M 3.078125 15.484375 
L 11.765625 16.84375 
Q 12.5 11.625 15.84375 8.84375 
Q 19.1875 6.0625 25.203125 6.0625 
Q 31.25 6.0625 34.171875 8.515625 
Q 37.109375 10.984375 37.109375 14.3125 
Q 37.109375 17.28125 34.515625 19 
Q 32.71875 20.171875 25.53125 21.96875 
Q 15.875 24.421875 12.140625 26.203125 
Q 8.40625 27.984375 6.46875 31.125 
Q 4.546875 34.28125 4.546875 38.09375 
Q 4.546875 41.546875 6.125 44.5 
Q 7.71875 47.46875 10.453125 49.421875 
Q 12.5 50.921875 16.03125 51.96875 
Q 19.578125 53.03125 23.640625 53.03125 
Q 29.734375 53.03125 34.34375 51.265625 
Q 38.96875 49.515625 41.15625 46.5 
Q 43.359375 43.5 44.1875 38.484375 
L 35.59375 37.3125 
Q 35.015625 41.3125 32.203125 43.546875 
Q 29.390625 45.796875 24.265625 45.796875 
Q 18.21875 45.796875 15.625 43.796875 
Q 13.03125 41.796875 13.03125 39.109375 
Q 13.03125 37.40625 14.109375 36.03125 
Q 15.1875 34.625 17.484375 33.6875 
Q 18.796875 33.203125 25.25 31.453125 
Q 34.578125 28.953125 38.25 27.359375 
Q 41.9375 25.78125 44.03125 22.75 
Q 46.140625 19.734375 46.140625 15.234375 
Q 46.140625 10.84375 43.578125 6.953125 
Q 41.015625 3.078125 36.171875 0.953125 
Q 31.34375 -1.171875 25.25 -1.171875 
Q 15.140625 -1.171875 9.84375 3.03125 
Q 4.546875 7.234375 3.078125 15.484375 
z
" id="ArialMT-115"/>
     <path id="ArialMT-32"/>
     <path d="M 58.796875 25.09375 
L 68.265625 22.703125 
Q 65.28125 11.03125 57.546875 4.90625 
Q 49.8125 -1.21875 38.625 -1.21875 
Q 27.046875 -1.21875 19.796875 3.484375 
Q 12.546875 8.203125 8.765625 17.140625 
Q 4.984375 26.078125 4.984375 36.328125 
Q 4.984375 47.515625 9.25 55.828125 
Q 13.53125 64.15625 21.40625 68.46875 
Q 29.296875 72.796875 38.765625 72.796875 
Q 49.515625 72.796875 56.828125 67.328125 
Q 64.15625 61.859375 67.046875 51.953125 
L 57.71875 49.75 
Q 55.21875 57.5625 50.484375 61.125 
Q 45.75 64.703125 38.578125 64.703125 
Q 30.328125 64.703125 24.78125 60.734375 
Q 19.234375 56.78125 16.984375 50.109375 
Q 14.75 43.453125 14.75 36.375 
Q 14.75 27.25 17.40625 20.4375 
Q 20.0625 13.625 25.671875 10.25 
Q 31.296875 6.890625 37.84375 6.890625 
Q 45.796875 6.890625 51.3125 11.46875 
Q 56.84375 16.0625 58.796875 25.09375 
z
" id="ArialMT-67"/>
     <path d="M 25.921875 0 
L 25.921875 63.140625 
L 2.34375 63.140625 
L 2.34375 71.578125 
L 59.078125 71.578125 
L 59.078125 63.140625 
L 35.40625 63.140625 
L 35.40625 0 
z
" id="ArialMT-84"/>
     <path d="M 7.859375 0 
L 7.859375 71.578125 
L 39.59375 71.578125 
Q 49.171875 71.578125 54.140625 69.640625 
Q 59.125 67.71875 62.109375 62.828125 
Q 65.09375 57.953125 65.09375 52.046875 
Q 65.09375 44.4375 60.15625 39.203125 
Q 55.21875 33.984375 44.921875 32.5625 
Q 48.6875 30.765625 50.640625 29 
Q 54.78125 25.203125 58.5 19.484375 
L 70.953125 0 
L 59.03125 0 
L 49.5625 14.890625 
Q 45.40625 21.34375 42.71875 24.75 
Q 40.046875 28.171875 37.921875 29.53125 
Q 35.796875 30.90625 33.59375 31.453125 
Q 31.984375 31.78125 28.328125 31.78125 
L 17.328125 31.78125 
L 17.328125 0 
z
M 17.328125 39.984375 
L 37.703125 39.984375 
Q 44.1875 39.984375 47.84375 41.328125 
Q 51.515625 42.671875 53.421875 45.625 
Q 55.328125 48.578125 55.328125 52.046875 
Q 55.328125 57.125 51.640625 60.390625 
Q 47.953125 63.671875 39.984375 63.671875 
L 17.328125 63.671875 
z
" id="ArialMT-82"/>
     <path d="M 6.640625 61.46875 
L 6.640625 71.578125 
L 15.4375 71.578125 
L 15.4375 61.46875 
z
M 6.640625 0 
L 6.640625 51.859375 
L 15.4375 51.859375 
L 15.4375 0 
z
" id="ArialMT-105"/>
     <path d="M 25.78125 7.859375 
L 27.046875 0.09375 
Q 23.34375 -0.6875 20.40625 -0.6875 
Q 15.625 -0.6875 12.984375 0.828125 
Q 10.359375 2.34375 9.28125 4.8125 
Q 8.203125 7.28125 8.203125 15.1875 
L 8.203125 45.015625 
L 1.765625 45.015625 
L 1.765625 51.859375 
L 8.203125 51.859375 
L 8.203125 64.703125 
L 16.9375 69.96875 
L 16.9375 51.859375 
L 25.78125 51.859375 
L 25.78125 45.015625 
L 16.9375 45.015625 
L 16.9375 14.703125 
Q 16.9375 10.9375 17.40625 9.859375 
Q 17.875 8.796875 18.921875 8.15625 
Q 19.96875 7.515625 21.921875 7.515625 
Q 23.390625 7.515625 25.78125 7.859375 
z
" id="ArialMT-116"/>
     <path d="M 6.5 0 
L 6.5 51.859375 
L 14.40625 51.859375 
L 14.40625 44 
Q 17.4375 49.515625 20 51.265625 
Q 22.5625 53.03125 25.640625 53.03125 
Q 30.078125 53.03125 34.671875 50.203125 
L 31.640625 42.046875 
Q 28.421875 43.953125 25.203125 43.953125 
Q 22.3125 43.953125 20.015625 42.21875 
Q 17.71875 40.484375 16.75 37.40625 
Q 15.28125 32.71875 15.28125 27.15625 
L 15.28125 0 
z
" id="ArialMT-114"/>
     <path d="M 14.703125 0 
L 6.546875 0 
L 6.546875 71.578125 
L 15.328125 71.578125 
L 15.328125 46.046875 
Q 20.90625 53.03125 29.546875 53.03125 
Q 34.328125 53.03125 38.59375 51.09375 
Q 42.875 49.171875 45.625 45.671875 
Q 48.390625 42.1875 49.953125 37.25 
Q 51.515625 32.328125 51.515625 26.703125 
Q 51.515625 13.375 44.921875 6.09375 
Q 38.328125 -1.171875 29.109375 -1.171875 
Q 19.921875 -1.171875 14.703125 6.5 
z
M 14.59375 26.3125 
Q 14.59375 17 17.140625 12.84375 
Q 21.296875 6.0625 28.375 6.0625 
Q 34.125 6.0625 38.328125 11.0625 
Q 42.53125 16.0625 42.53125 25.984375 
Q 42.53125 36.140625 38.5 40.96875 
Q 34.46875 45.796875 28.765625 45.796875 
Q 23 45.796875 18.796875 40.796875 
Q 14.59375 35.796875 14.59375 26.3125 
z
" id="ArialMT-98"/>
     <path d="M 40.578125 0 
L 40.578125 7.625 
Q 34.515625 -1.171875 24.125 -1.171875 
Q 19.53125 -1.171875 15.546875 0.578125 
Q 11.578125 2.34375 9.640625 5 
Q 7.71875 7.671875 6.9375 11.53125 
Q 6.390625 14.109375 6.390625 19.734375 
L 6.390625 51.859375 
L 15.1875 51.859375 
L 15.1875 23.09375 
Q 15.1875 16.21875 15.71875 13.8125 
Q 16.546875 10.359375 19.234375 8.375 
Q 21.921875 6.390625 25.875 6.390625 
Q 29.828125 6.390625 33.296875 8.421875 
Q 36.765625 10.453125 38.203125 13.9375 
Q 39.65625 17.4375 39.65625 24.078125 
L 39.65625 51.859375 
L 48.4375 51.859375 
L 48.4375 0 
z
" id="ArialMT-117"/>
     <path d="M 3.328125 25.921875 
Q 3.328125 40.328125 11.328125 47.265625 
Q 18.015625 53.03125 27.640625 53.03125 
Q 38.328125 53.03125 45.109375 46.015625 
Q 51.90625 39.015625 51.90625 26.65625 
Q 51.90625 16.65625 48.90625 10.90625 
Q 45.90625 5.171875 40.15625 2 
Q 34.421875 -1.171875 27.640625 -1.171875 
Q 16.75 -1.171875 10.03125 5.8125 
Q 3.328125 12.796875 3.328125 25.921875 
z
M 12.359375 25.921875 
Q 12.359375 15.96875 16.703125 11.015625 
Q 21.046875 6.0625 27.640625 6.0625 
Q 34.1875 6.0625 38.53125 11.03125 
Q 42.875 16.015625 42.875 26.21875 
Q 42.875 35.84375 38.5 40.796875 
Q 34.125 45.75 27.640625 45.75 
Q 21.046875 45.75 16.703125 40.8125 
Q 12.359375 35.890625 12.359375 25.921875 
z
" id="ArialMT-111"/>
     <path d="M 6.59375 0 
L 6.59375 51.859375 
L 14.5 51.859375 
L 14.5 44.484375 
Q 20.21875 53.03125 31 53.03125 
Q 35.6875 53.03125 39.625 51.34375 
Q 43.5625 49.65625 45.515625 46.921875 
Q 47.46875 44.1875 48.25 40.4375 
Q 48.734375 37.984375 48.734375 31.890625 
L 48.734375 0 
L 39.9375 0 
L 39.9375 31.546875 
Q 39.9375 36.921875 38.90625 39.578125 
Q 37.890625 42.234375 35.28125 43.8125 
Q 32.671875 45.40625 29.15625 45.40625 
Q 23.53125 45.40625 19.453125 41.84375 
Q 15.375 38.28125 15.375 28.328125 
L 15.375 0 
z
" id="ArialMT-110"/>
    </defs>
    <g style="fill:#262626;" transform="translate(302.104688 15.789375)scale(0.12 -0.12)">
     <use xlink:href="#ArialMT-65"/>
     <use x="66.699219" xlink:href="#ArialMT-100"/>
     <use x="122.314453" xlink:href="#ArialMT-115"/>
     <use x="172.314453" xlink:href="#ArialMT-32"/>
     <use x="200.097656" xlink:href="#ArialMT-67"/>
     <use x="272.314453" xlink:href="#ArialMT-84"/>
     <use x="333.398438" xlink:href="#ArialMT-82"/>
     <use x="405.615234" xlink:href="#ArialMT-32"/>
     <use x="433.398438" xlink:href="#ArialMT-100"/>
     <use x="489.013672" xlink:href="#ArialMT-105"/>
     <use x="511.230469" xlink:href="#ArialMT-115"/>
     <use x="561.230469" xlink:href="#ArialMT-116"/>
     <use x="589.013672" xlink:href="#ArialMT-114"/>
     <use x="622.314453" xlink:href="#ArialMT-105"/>
     <use x="644.53125" xlink:href="#ArialMT-98"/>
     <use x="700.146484" xlink:href="#ArialMT-117"/>
     <use x="755.761719" xlink:href="#ArialMT-116"/>
     <use x="783.544922" xlink:href="#ArialMT-105"/>
     <use x="805.761719" xlink:href="#ArialMT-111"/>
     <use x="861.376953" xlink:href="#ArialMT-110"/>
     <use x="916.992188" xlink:href="#ArialMT-115"/>
    </g>
   </g>
   <g id="legend_1">
    <g id="patch_83">
     <path d="M 701.921875 214.66 
L 819.50625 214.66 
Q 821.50625 214.66 821.50625 212.66 
L 821.50625 157.07875 
Q 821.50625 155.07875 819.50625 155.07875 
L 701.921875 155.07875 
Q 699.921875 155.07875 699.921875 157.07875 
L 699.921875 212.66 
Q 699.921875 214.66 701.921875 214.66 
z
" style="fill:#e6e6e6;opacity:0.8;stroke:#cccccc;stroke-linejoin:miter;"/>
    </g>
    <g id="line2d_21">
     <path d="M 703.921875 162.736562 
L 723.921875 162.736562 
" style="fill:none;stroke:#808080;stroke-dasharray:5.55,2.4;stroke-dashoffset:0;stroke-width:1.5;"/>
    </g>
    <g id="line2d_22"/>
    <g id="text_18">
     <!-- Real CTR A -->
     <defs>
      <path d="M 42.09375 16.703125 
L 51.171875 15.578125 
Q 49.03125 7.625 43.21875 3.21875 
Q 37.40625 -1.171875 28.375 -1.171875 
Q 17 -1.171875 10.328125 5.828125 
Q 3.65625 12.84375 3.65625 25.484375 
Q 3.65625 38.578125 10.390625 45.796875 
Q 17.140625 53.03125 27.875 53.03125 
Q 38.28125 53.03125 44.875 45.953125 
Q 51.46875 38.875 51.46875 26.03125 
Q 51.46875 25.25 51.421875 23.6875 
L 12.75 23.6875 
Q 13.234375 15.140625 17.578125 10.59375 
Q 21.921875 6.0625 28.421875 6.0625 
Q 33.25 6.0625 36.671875 8.59375 
Q 40.09375 11.140625 42.09375 16.703125 
z
M 13.234375 30.90625 
L 42.1875 30.90625 
Q 41.609375 37.453125 38.875 40.71875 
Q 34.671875 45.796875 27.984375 45.796875 
Q 21.921875 45.796875 17.796875 41.75 
Q 13.671875 37.703125 13.234375 30.90625 
z
" id="ArialMT-101"/>
      <path d="M 40.4375 6.390625 
Q 35.546875 2.25 31.03125 0.53125 
Q 26.515625 -1.171875 21.34375 -1.171875 
Q 12.796875 -1.171875 8.203125 3 
Q 3.609375 7.171875 3.609375 13.671875 
Q 3.609375 17.484375 5.34375 20.625 
Q 7.078125 23.78125 9.890625 25.6875 
Q 12.703125 27.59375 16.21875 28.5625 
Q 18.796875 29.25 24.03125 29.890625 
Q 34.671875 31.15625 39.703125 32.90625 
Q 39.75 34.71875 39.75 35.203125 
Q 39.75 40.578125 37.25 42.78125 
Q 33.890625 45.75 27.25 45.75 
Q 21.046875 45.75 18.09375 43.578125 
Q 15.140625 41.40625 13.71875 35.890625 
L 5.125 37.0625 
Q 6.296875 42.578125 8.984375 45.96875 
Q 11.671875 49.359375 16.75 51.1875 
Q 21.828125 53.03125 28.515625 53.03125 
Q 35.15625 53.03125 39.296875 51.46875 
Q 43.453125 49.90625 45.40625 47.53125 
Q 47.359375 45.171875 48.140625 41.546875 
Q 48.578125 39.3125 48.578125 33.453125 
L 48.578125 21.734375 
Q 48.578125 9.46875 49.140625 6.21875 
Q 49.703125 2.984375 51.375 0 
L 42.1875 0 
Q 40.828125 2.734375 40.4375 6.390625 
z
M 39.703125 26.03125 
Q 34.90625 24.078125 25.34375 22.703125 
Q 19.921875 21.921875 17.671875 20.9375 
Q 15.4375 19.96875 14.203125 18.09375 
Q 12.984375 16.21875 12.984375 13.921875 
Q 12.984375 10.40625 15.640625 8.0625 
Q 18.3125 5.71875 23.4375 5.71875 
Q 28.515625 5.71875 32.46875 7.9375 
Q 36.421875 10.15625 38.28125 14.015625 
Q 39.703125 17 39.703125 22.796875 
z
" id="ArialMT-97"/>
      <path d="M 6.390625 0 
L 6.390625 71.578125 
L 15.1875 71.578125 
L 15.1875 0 
z
" id="ArialMT-108"/>
     </defs>
     <g style="fill:#262626;" transform="translate(731.921875 166.236562)scale(0.1 -0.1)">
      <use xlink:href="#ArialMT-82"/>
      <use x="72.216797" xlink:href="#ArialMT-101"/>
      <use x="127.832031" xlink:href="#ArialMT-97"/>
      <use x="183.447266" xlink:href="#ArialMT-108"/>
      <use x="205.664062" xlink:href="#ArialMT-32"/>
      <use x="233.447266" xlink:href="#ArialMT-67"/>
      <use x="305.664062" xlink:href="#ArialMT-84"/>
      <use x="366.748047" xlink:href="#ArialMT-82"/>
      <use x="438.964844" xlink:href="#ArialMT-32"/>
      <use x="466.669922" xlink:href="#ArialMT-65"/>
     </g>
    </g>
    <g id="line2d_23">
     <path d="M 703.921875 176.881875 
L 723.921875 176.881875 
" style="fill:none;stroke:#000000;stroke-dasharray:5.55,2.4;stroke-dashoffset:0;stroke-width:1.5;"/>
    </g>
    <g id="line2d_24"/>
    <g id="text_19">
     <!-- Real CTR B -->
     <defs>
      <path d="M 7.328125 0 
L 7.328125 71.578125 
L 34.1875 71.578125 
Q 42.390625 71.578125 47.34375 69.40625 
Q 52.296875 67.234375 55.09375 62.71875 
Q 57.90625 58.203125 57.90625 53.265625 
Q 57.90625 48.6875 55.421875 44.625 
Q 52.9375 40.578125 47.90625 38.09375 
Q 54.390625 36.1875 57.875 31.59375 
Q 61.375 27 61.375 20.75 
Q 61.375 15.71875 59.25 11.390625 
Q 57.125 7.078125 54 4.734375 
Q 50.875 2.390625 46.15625 1.1875 
Q 41.453125 0 34.625 0 
z
M 16.796875 41.5 
L 32.28125 41.5 
Q 38.578125 41.5 41.3125 42.328125 
Q 44.921875 43.40625 46.75 45.890625 
Q 48.578125 48.390625 48.578125 52.15625 
Q 48.578125 55.71875 46.875 58.421875 
Q 45.171875 61.140625 41.984375 62.140625 
Q 38.8125 63.140625 31.109375 63.140625 
L 16.796875 63.140625 
z
M 16.796875 8.453125 
L 34.625 8.453125 
Q 39.203125 8.453125 41.0625 8.796875 
Q 44.34375 9.375 46.53125 10.734375 
Q 48.734375 12.109375 50.140625 14.71875 
Q 51.5625 17.328125 51.5625 20.75 
Q 51.5625 24.75 49.515625 27.703125 
Q 47.46875 30.671875 43.828125 31.859375 
Q 40.1875 33.0625 33.34375 33.0625 
L 16.796875 33.0625 
z
" id="ArialMT-66"/>
     </defs>
     <g style="fill:#262626;" transform="translate(731.921875 180.381875)scale(0.1 -0.1)">
      <use xlink:href="#ArialMT-82"/>
      <use x="72.216797" xlink:href="#ArialMT-101"/>
      <use x="127.832031" xlink:href="#ArialMT-97"/>
      <use x="183.447266" xlink:href="#ArialMT-108"/>
      <use x="205.664062" xlink:href="#ArialMT-32"/>
      <use x="233.447266" xlink:href="#ArialMT-67"/>
      <use x="305.664062" xlink:href="#ArialMT-84"/>
      <use x="366.748047" xlink:href="#ArialMT-82"/>
      <use x="438.964844" xlink:href="#ArialMT-32"/>
      <use x="466.748047" xlink:href="#ArialMT-66"/>
     </g>
    </g>
    <g id="patch_84">
     <path d="M 703.921875 194.527187 
L 723.921875 194.527187 
L 723.921875 187.527187 
L 703.921875 187.527187 
z
" style="fill:#a6cee3;opacity:0.4;stroke:#ffffff;stroke-linejoin:miter;"/>
    </g>
    <g id="text_20">
     <!-- Distribution of Ad A -->
     <defs>
      <path d="M 7.71875 0 
L 7.71875 71.578125 
L 32.375 71.578125 
Q 40.71875 71.578125 45.125 70.5625 
Q 51.265625 69.140625 55.609375 65.4375 
Q 61.28125 60.640625 64.078125 53.1875 
Q 66.890625 45.75 66.890625 36.1875 
Q 66.890625 28.03125 64.984375 21.734375 
Q 63.09375 15.4375 60.109375 11.296875 
Q 57.125 7.171875 53.578125 4.796875 
Q 50.046875 2.4375 45.046875 1.21875 
Q 40.046875 0 33.546875 0 
z
M 17.1875 8.453125 
L 32.46875 8.453125 
Q 39.546875 8.453125 43.578125 9.765625 
Q 47.609375 11.078125 50 13.484375 
Q 53.375 16.84375 55.25 22.53125 
Q 57.125 28.21875 57.125 36.328125 
Q 57.125 47.5625 53.4375 53.59375 
Q 49.75 59.625 44.484375 61.671875 
Q 40.671875 63.140625 32.234375 63.140625 
L 17.1875 63.140625 
z
" id="ArialMT-68"/>
      <path d="M 8.6875 0 
L 8.6875 45.015625 
L 0.921875 45.015625 
L 0.921875 51.859375 
L 8.6875 51.859375 
L 8.6875 57.375 
Q 8.6875 62.59375 9.625 65.140625 
Q 10.890625 68.5625 14.078125 70.671875 
Q 17.28125 72.796875 23.046875 72.796875 
Q 26.765625 72.796875 31.25 71.921875 
L 29.9375 64.265625 
Q 27.203125 64.75 24.75 64.75 
Q 20.75 64.75 19.09375 63.03125 
Q 17.4375 61.328125 17.4375 56.640625 
L 17.4375 51.859375 
L 27.546875 51.859375 
L 27.546875 45.015625 
L 17.4375 45.015625 
L 17.4375 0 
z
" id="ArialMT-102"/>
     </defs>
     <g style="fill:#262626;" transform="translate(731.921875 194.527187)scale(0.1 -0.1)">
      <use xlink:href="#ArialMT-68"/>
      <use x="72.216797" xlink:href="#ArialMT-105"/>
      <use x="94.433594" xlink:href="#ArialMT-115"/>
      <use x="144.433594" xlink:href="#ArialMT-116"/>
      <use x="172.216797" xlink:href="#ArialMT-114"/>
      <use x="205.517578" xlink:href="#ArialMT-105"/>
      <use x="227.734375" xlink:href="#ArialMT-98"/>
      <use x="283.349609" xlink:href="#ArialMT-117"/>
      <use x="338.964844" xlink:href="#ArialMT-116"/>
      <use x="366.748047" xlink:href="#ArialMT-105"/>
      <use x="388.964844" xlink:href="#ArialMT-111"/>
      <use x="444.580078" xlink:href="#ArialMT-110"/>
      <use x="500.195312" xlink:href="#ArialMT-32"/>
      <use x="527.978516" xlink:href="#ArialMT-111"/>
      <use x="583.59375" xlink:href="#ArialMT-102"/>
      <use x="611.376953" xlink:href="#ArialMT-32"/>
      <use x="639.082031" xlink:href="#ArialMT-65"/>
      <use x="705.78125" xlink:href="#ArialMT-100"/>
      <use x="761.396484" xlink:href="#ArialMT-32"/>
      <use x="789.101562" xlink:href="#ArialMT-65"/>
     </g>
    </g>
    <g id="patch_85">
     <path d="M 703.921875 208.6725 
L 723.921875 208.6725 
L 723.921875 201.6725 
L 703.921875 201.6725 
z
" style="fill:#1f78b4;opacity:0.4;stroke:#ffffff;stroke-linejoin:miter;"/>
    </g>
    <g id="text_21">
     <!-- Distribution of Ad B -->
     <g style="fill:#262626;" transform="translate(731.921875 208.6725)scale(0.1 -0.1)">
      <use xlink:href="#ArialMT-68"/>
      <use x="72.216797" xlink:href="#ArialMT-105"/>
      <use x="94.433594" xlink:href="#ArialMT-115"/>
      <use x="144.433594" xlink:href="#ArialMT-116"/>
      <use x="172.216797" xlink:href="#ArialMT-114"/>
      <use x="205.517578" xlink:href="#ArialMT-105"/>
      <use x="227.734375" xlink:href="#ArialMT-98"/>
      <use x="283.349609" xlink:href="#ArialMT-117"/>
      <use x="338.964844" xlink:href="#ArialMT-116"/>
      <use x="366.748047" xlink:href="#ArialMT-105"/>
      <use x="388.964844" xlink:href="#ArialMT-111"/>
      <use x="444.580078" xlink:href="#ArialMT-110"/>
      <use x="500.195312" xlink:href="#ArialMT-32"/>
      <use x="527.978516" xlink:href="#ArialMT-111"/>
      <use x="583.59375" xlink:href="#ArialMT-102"/>
      <use x="611.376953" xlink:href="#ArialMT-32"/>
      <use x="639.082031" xlink:href="#ArialMT-65"/>
      <use x="705.78125" xlink:href="#ArialMT-100"/>
      <use x="761.396484" xlink:href="#ArialMT-32"/>
      <use x="789.179688" xlink:href="#ArialMT-66"/>
     </g>
    </g>
   </g>
  </g>
 </g>
 <defs>
  <clipPath id="pb71eff7855">
   <rect height="326.16" width="669.6" x="25.321875" y="21.789375"/>
  </clipPath>
 </defs>
</svg>
