<?xml version="1.0" encoding="utf-8" standalone="no"?>
<!DOCTYPE svg PUBLIC "-//W3C//DTD SVG 1.1//EN"
  "http://www.w3.org/Graphics/SVG/1.1/DTD/svg11.dtd">
<!-- Created with matplotlib (https://matplotlib.org/) -->
<svg height="371.294688pt" version="1.1" viewBox="0 0 790.904687 371.294688" width="790.904687pt" xmlns="http://www.w3.org/2000/svg" xmlns:xlink="http://www.w3.org/1999/xlink">
 <defs>
  <style type="text/css">
*{stroke-linecap:butt;stroke-linejoin:round;}
  </style>
 </defs>
 <g id="figure_1">
  <g id="patch_1">
   <path d="M 0 371.294688 
L 790.904687 371.294688 
L 790.904687 0 
L 0 0 
z
" style="fill:none;"/>
  </g>
  <g id="axes_1">
   <g id="patch_2">
    <path d="M 19.760937 347.949375 
L 689.360937 347.949375 
L 689.360937 21.789375 
L 19.760937 21.789375 
z
" style="fill:#e6e6e6;"/>
   </g>
   <g id="matplotlib.axis_1">
    <g id="xtick_1">
     <g id="line2d_1">
      <path clip-path="url(#p6e0db7fef2)" d="M 50.197301 347.949375 
L 50.197301 21.789375 
" style="fill:none;stroke:#ffffff;stroke-linecap:round;stroke-width:0.8;"/>
     </g>
     <g id="text_1">
      <!-- 0.0 -->
      <defs>
       <path d="M 4.15625 35.296875 
Q 4.15625 48 6.765625 55.734375 
Q 9.375 63.484375 14.515625 67.671875 
Q 19.671875 71.875 27.484375 71.875 
Q 33.25 71.875 37.59375 69.546875 
Q 41.9375 67.234375 44.765625 62.859375 
Q 47.609375 58.5 49.21875 52.21875 
Q 50.828125 45.953125 50.828125 35.296875 
Q 50.828125 22.703125 48.234375 14.96875 
Q 45.65625 7.234375 40.5 3 
Q 35.359375 -1.21875 27.484375 -1.21875 
Q 17.140625 -1.21875 11.234375 6.203125 
Q 4.15625 15.140625 4.15625 35.296875 
z
M 13.1875 35.296875 
Q 13.1875 17.671875 17.3125 11.828125 
Q 21.4375 6 27.484375 6 
Q 33.546875 6 37.671875 11.859375 
Q 41.796875 17.71875 41.796875 35.296875 
Q 41.796875 52.984375 37.671875 58.78125 
Q 33.546875 64.59375 27.390625 64.59375 
Q 21.34375 64.59375 17.71875 59.46875 
Q 13.1875 52.9375 13.1875 35.296875 
z
" id="ArialMT-48"/>
       <path d="M 9.078125 0 
L 9.078125 10.015625 
L 19.09375 10.015625 
L 19.09375 0 
z
" id="ArialMT-46"/>
      </defs>
      <g style="fill:#262626;" transform="translate(43.247301 362.107188)scale(0.1 -0.1)">
       <use xlink:href="#ArialMT-48"/>
       <use x="55.615234" xlink:href="#ArialMT-46"/>
       <use x="83.398438" xlink:href="#ArialMT-48"/>
      </g>
     </g>
    </g>
    <g id="xtick_2">
     <g id="line2d_2">
      <path clip-path="url(#p6e0db7fef2)" d="M 171.942756 347.949375 
L 171.942756 21.789375 
" style="fill:none;stroke:#ffffff;stroke-linecap:round;stroke-width:0.8;"/>
     </g>
     <g id="text_2">
      <!-- 0.2 -->
      <defs>
       <path d="M 50.34375 8.453125 
L 50.34375 0 
L 3.03125 0 
Q 2.9375 3.171875 4.046875 6.109375 
Q 5.859375 10.9375 9.828125 15.625 
Q 13.8125 20.3125 21.34375 26.46875 
Q 33.015625 36.03125 37.109375 41.625 
Q 41.21875 47.21875 41.21875 52.203125 
Q 41.21875 57.421875 37.46875 61 
Q 33.734375 64.59375 27.734375 64.59375 
Q 21.390625 64.59375 17.578125 60.78125 
Q 13.765625 56.984375 13.71875 50.25 
L 4.6875 51.171875 
Q 5.609375 61.28125 11.65625 66.578125 
Q 17.71875 71.875 27.9375 71.875 
Q 38.234375 71.875 44.234375 66.15625 
Q 50.25 60.453125 50.25 52 
Q 50.25 47.703125 48.484375 43.546875 
Q 46.734375 39.40625 42.65625 34.8125 
Q 38.578125 30.21875 29.109375 22.21875 
Q 21.1875 15.578125 18.9375 13.203125 
Q 16.703125 10.84375 15.234375 8.453125 
z
" id="ArialMT-50"/>
      </defs>
      <g style="fill:#262626;" transform="translate(164.992756 362.107188)scale(0.1 -0.1)">
       <use xlink:href="#ArialMT-48"/>
       <use x="55.615234" xlink:href="#ArialMT-46"/>
       <use x="83.398438" xlink:href="#ArialMT-50"/>
      </g>
     </g>
    </g>
    <g id="xtick_3">
     <g id="line2d_3">
      <path clip-path="url(#p6e0db7fef2)" d="M 293.68821 347.949375 
L 293.68821 21.789375 
" style="fill:none;stroke:#ffffff;stroke-linecap:round;stroke-width:0.8;"/>
     </g>
     <g id="text_3">
      <!-- 0.4 -->
      <defs>
       <path d="M 32.328125 0 
L 32.328125 17.140625 
L 1.265625 17.140625 
L 1.265625 25.203125 
L 33.9375 71.578125 
L 41.109375 71.578125 
L 41.109375 25.203125 
L 50.78125 25.203125 
L 50.78125 17.140625 
L 41.109375 17.140625 
L 41.109375 0 
z
M 32.328125 25.203125 
L 32.328125 57.46875 
L 9.90625 25.203125 
z
" id="ArialMT-52"/>
      </defs>
      <g style="fill:#262626;" transform="translate(286.73821 362.107188)scale(0.1 -0.1)">
       <use xlink:href="#ArialMT-48"/>
       <use x="55.615234" xlink:href="#ArialMT-46"/>
       <use x="83.398438" xlink:href="#ArialMT-52"/>
      </g>
     </g>
    </g>
    <g id="xtick_4">
     <g id="line2d_4">
      <path clip-path="url(#p6e0db7fef2)" d="M 415.433665 347.949375 
L 415.433665 21.789375 
" style="fill:none;stroke:#ffffff;stroke-linecap:round;stroke-width:0.8;"/>
     </g>
     <g id="text_4">
      <!-- 0.6 -->
      <defs>
       <path d="M 49.75 54.046875 
L 41.015625 53.375 
Q 39.84375 58.546875 37.703125 60.890625 
Q 34.125 64.65625 28.90625 64.65625 
Q 24.703125 64.65625 21.53125 62.3125 
Q 17.390625 59.28125 14.984375 53.46875 
Q 12.59375 47.65625 12.5 36.921875 
Q 15.671875 41.75 20.265625 44.09375 
Q 24.859375 46.4375 29.890625 46.4375 
Q 38.671875 46.4375 44.84375 39.96875 
Q 51.03125 33.5 51.03125 23.25 
Q 51.03125 16.5 48.125 10.71875 
Q 45.21875 4.9375 40.140625 1.859375 
Q 35.0625 -1.21875 28.609375 -1.21875 
Q 17.625 -1.21875 10.6875 6.859375 
Q 3.765625 14.9375 3.765625 33.5 
Q 3.765625 54.25 11.421875 63.671875 
Q 18.109375 71.875 29.4375 71.875 
Q 37.890625 71.875 43.28125 67.140625 
Q 48.6875 62.40625 49.75 54.046875 
z
M 13.875 23.1875 
Q 13.875 18.65625 15.796875 14.5 
Q 17.71875 10.359375 21.1875 8.171875 
Q 24.65625 6 28.46875 6 
Q 34.03125 6 38.03125 10.484375 
Q 42.046875 14.984375 42.046875 22.703125 
Q 42.046875 30.125 38.078125 34.390625 
Q 34.125 38.671875 28.125 38.671875 
Q 22.171875 38.671875 18.015625 34.390625 
Q 13.875 30.125 13.875 23.1875 
z
" id="ArialMT-54"/>
      </defs>
      <g style="fill:#262626;" transform="translate(408.483665 362.107188)scale(0.1 -0.1)">
       <use xlink:href="#ArialMT-48"/>
       <use x="55.615234" xlink:href="#ArialMT-46"/>
       <use x="83.398438" xlink:href="#ArialMT-54"/>
      </g>
     </g>
    </g>
    <g id="xtick_5">
     <g id="line2d_5">
      <path clip-path="url(#p6e0db7fef2)" d="M 537.179119 347.949375 
L 537.179119 21.789375 
" style="fill:none;stroke:#ffffff;stroke-linecap:round;stroke-width:0.8;"/>
     </g>
     <g id="text_5">
      <!-- 0.8 -->
      <defs>
       <path d="M 17.671875 38.8125 
Q 12.203125 40.828125 9.5625 44.53125 
Q 6.9375 48.25 6.9375 53.421875 
Q 6.9375 61.234375 12.546875 66.546875 
Q 18.171875 71.875 27.484375 71.875 
Q 36.859375 71.875 42.578125 66.421875 
Q 48.296875 60.984375 48.296875 53.171875 
Q 48.296875 48.1875 45.671875 44.5 
Q 43.0625 40.828125 37.75 38.8125 
Q 44.34375 36.671875 47.78125 31.875 
Q 51.21875 27.09375 51.21875 20.453125 
Q 51.21875 11.28125 44.71875 5.03125 
Q 38.234375 -1.21875 27.640625 -1.21875 
Q 17.046875 -1.21875 10.546875 5.046875 
Q 4.046875 11.328125 4.046875 20.703125 
Q 4.046875 27.6875 7.59375 32.390625 
Q 11.140625 37.109375 17.671875 38.8125 
z
M 15.921875 53.71875 
Q 15.921875 48.640625 19.1875 45.40625 
Q 22.46875 42.1875 27.6875 42.1875 
Q 32.765625 42.1875 36.015625 45.375 
Q 39.265625 48.578125 39.265625 53.21875 
Q 39.265625 58.0625 35.90625 61.359375 
Q 32.5625 64.65625 27.59375 64.65625 
Q 22.5625 64.65625 19.234375 61.421875 
Q 15.921875 58.203125 15.921875 53.71875 
z
M 13.09375 20.65625 
Q 13.09375 16.890625 14.875 13.375 
Q 16.65625 9.859375 20.171875 7.921875 
Q 23.6875 6 27.734375 6 
Q 34.03125 6 38.125 10.046875 
Q 42.234375 14.109375 42.234375 20.359375 
Q 42.234375 26.703125 38.015625 30.859375 
Q 33.796875 35.015625 27.4375 35.015625 
Q 21.234375 35.015625 17.15625 30.90625 
Q 13.09375 26.8125 13.09375 20.65625 
z
" id="ArialMT-56"/>
      </defs>
      <g style="fill:#262626;" transform="translate(530.229119 362.107188)scale(0.1 -0.1)">
       <use xlink:href="#ArialMT-48"/>
       <use x="55.615234" xlink:href="#ArialMT-46"/>
       <use x="83.398438" xlink:href="#ArialMT-56"/>
      </g>
     </g>
    </g>
    <g id="xtick_6">
     <g id="line2d_6">
      <path clip-path="url(#p6e0db7fef2)" d="M 658.924574 347.949375 
L 658.924574 21.789375 
" style="fill:none;stroke:#ffffff;stroke-linecap:round;stroke-width:0.8;"/>
     </g>
     <g id="text_6">
      <!-- 1.0 -->
      <defs>
       <path d="M 37.25 0 
L 28.46875 0 
L 28.46875 56 
Q 25.296875 52.984375 20.140625 49.953125 
Q 14.984375 46.921875 10.890625 45.40625 
L 10.890625 53.90625 
Q 18.265625 57.375 23.78125 62.296875 
Q 29.296875 67.234375 31.59375 71.875 
L 37.25 71.875 
z
" id="ArialMT-49"/>
      </defs>
      <g style="fill:#262626;" transform="translate(651.974574 362.107188)scale(0.1 -0.1)">
       <use xlink:href="#ArialMT-49"/>
       <use x="55.615234" xlink:href="#ArialMT-46"/>
       <use x="83.398438" xlink:href="#ArialMT-48"/>
      </g>
     </g>
    </g>
   </g>
   <g id="matplotlib.axis_2">
    <g id="ytick_1">
     <g id="line2d_7">
      <path clip-path="url(#p6e0db7fef2)" d="M 19.760937 333.12392 
L 689.360937 333.12392 
" style="fill:none;stroke:#ffffff;stroke-linecap:round;stroke-width:0.8;"/>
     </g>
     <g id="text_7">
      <!-- 0 -->
      <g style="fill:#262626;" transform="translate(7.2 336.702827)scale(0.1 -0.1)">
       <use xlink:href="#ArialMT-48"/>
      </g>
     </g>
    </g>
    <g id="ytick_2">
     <g id="line2d_8">
      <path clip-path="url(#p6e0db7fef2)" d="M 19.760937 268.985708 
L 689.360937 268.985708 
" style="fill:none;stroke:#ffffff;stroke-linecap:round;stroke-width:0.8;"/>
     </g>
     <g id="text_8">
      <!-- 2 -->
      <g style="fill:#262626;" transform="translate(7.2 272.564614)scale(0.1 -0.1)">
       <use xlink:href="#ArialMT-50"/>
      </g>
     </g>
    </g>
    <g id="ytick_3">
     <g id="line2d_9">
      <path clip-path="url(#p6e0db7fef2)" d="M 19.760937 204.847495 
L 689.360937 204.847495 
" style="fill:none;stroke:#ffffff;stroke-linecap:round;stroke-width:0.8;"/>
     </g>
     <g id="text_9">
      <!-- 4 -->
      <g style="fill:#262626;" transform="translate(7.2 208.426401)scale(0.1 -0.1)">
       <use xlink:href="#ArialMT-52"/>
      </g>
     </g>
    </g>
    <g id="ytick_4">
     <g id="line2d_10">
      <path clip-path="url(#p6e0db7fef2)" d="M 19.760937 140.709282 
L 689.360937 140.709282 
" style="fill:none;stroke:#ffffff;stroke-linecap:round;stroke-width:0.8;"/>
     </g>
     <g id="text_10">
      <!-- 6 -->
      <g style="fill:#262626;" transform="translate(7.2 144.288188)scale(0.1 -0.1)">
       <use xlink:href="#ArialMT-54"/>
      </g>
     </g>
    </g>
    <g id="ytick_5">
     <g id="line2d_11">
      <path clip-path="url(#p6e0db7fef2)" d="M 19.760937 76.571069 
L 689.360937 76.571069 
" style="fill:none;stroke:#ffffff;stroke-linecap:round;stroke-width:0.8;"/>
     </g>
     <g id="text_11">
      <!-- 8 -->
      <g style="fill:#262626;" transform="translate(7.2 80.149976)scale(0.1 -0.1)">
       <use xlink:href="#ArialMT-56"/>
      </g>
     </g>
    </g>
   </g>
   <g id="line2d_12">
    <path clip-path="url(#p6e0db7fef2)" d="M 50.197301 333.12392 
L 172.554542 333.036693 
L 181.731335 332.867896 
L 190.908128 332.45565 
L 197.02599 331.929117 
L 203.143852 331.077566 
L 206.202783 330.486242 
L 209.261714 329.756842 
L 212.320645 328.865899 
L 215.379576 327.787987 
L 218.438507 326.495988 
L 221.497438 324.961458 
L 224.556369 323.155101 
L 227.6153 321.047353 
L 230.674231 318.609061 
L 233.733162 315.81226 
L 236.792093 312.631026 
L 239.851024 309.04239 
L 242.909955 305.027291 
L 245.968886 300.571538 
L 249.027817 295.666747 
L 252.086748 290.311233 
L 255.145679 284.510811 
L 258.20461 278.279473 
L 261.263541 271.639921 
L 264.322472 264.623906 
L 270.440334 249.635357 
L 276.558197 233.748315 
L 285.73499 209.494172 
L 291.852852 194.032208 
L 294.911783 186.785193 
L 297.970714 179.98125 
L 301.029645 173.706924 
L 304.088576 168.043584 
L 307.147507 163.065717 
L 310.206438 158.839344 
L 313.265369 155.420616 
L 316.3243 152.85462 
L 319.383231 151.174441 
L 322.442162 150.400486 
L 325.501093 150.540115 
L 328.560024 151.587557 
L 331.618955 153.52414 
L 334.677886 156.318802 
L 337.736817 159.928878 
L 340.795748 164.301128 
L 343.854679 169.372982 
L 346.91361 175.073959 
L 349.972541 181.32721 
L 353.031472 188.051157 
L 356.090403 195.161166 
L 362.208265 210.195527 
L 377.50292 248.727107 
L 383.620782 263.052275 
L 386.679713 269.768926 
L 389.738644 276.140399 
L 392.797575 282.140623 
L 395.856506 287.751124 
L 398.915437 292.960626 
L 401.974368 297.764526 
L 405.033299 302.164283 
L 408.09223 306.166733 
L 411.151161 309.78336 
L 414.210092 313.02955 
L 417.269023 315.92384 
L 420.327954 318.487192 
L 423.386885 320.742301 
L 426.445816 322.712954 
L 429.504747 324.423449 
L 432.563678 325.898081 
L 435.622609 327.160701 
L 438.681541 328.234348 
L 441.740472 329.140957 
L 444.799403 329.901128 
L 450.917265 331.057014 
L 457.035127 331.83557 
L 463.152989 332.344425 
L 472.329782 332.778095 
L 484.565506 333.02003 
L 505.978023 333.115213 
L 631.394195 333.12392 
L 658.924574 333.12392 
L 658.924574 333.12392 
" style="fill:none;stroke:#a6cee3;stroke-linecap:round;stroke-width:1.5;"/>
   </g>
   <g id="line2d_13">
    <path clip-path="url(#p6e0db7fef2)" d="M 50.197301 333.12392 
L 74.668749 333.080238 
L 80.786611 332.859698 
L 83.845542 332.572561 
L 86.904473 332.066239 
L 89.963404 331.233751 
L 93.022335 329.944429 
L 96.081266 328.04841 
L 99.140197 325.3841 
L 102.199128 321.788112 
L 105.258059 317.106853 
L 108.31699 311.208737 
L 111.375922 303.995923 
L 114.434853 295.414536 
L 117.493784 285.462484 
L 120.552715 274.194233 
L 123.611646 261.722178 
L 126.670577 248.214542 
L 129.729508 233.89001 
L 145.024163 160.009245 
L 148.083094 146.95315 
L 151.142025 135.150264 
L 154.200956 124.834468 
L 157.259887 116.196421 
L 160.318818 109.379 
L 163.377749 104.474959 
L 166.43668 101.526734 
L 169.495611 100.528181 
L 172.554542 101.42799 
L 175.613473 104.134442 
L 178.672404 108.521181 
L 181.731335 114.433639 
L 184.790266 121.695782 
L 187.849197 130.116886 
L 190.908128 139.498053 
L 193.967059 149.63828 
L 200.084921 171.413198 
L 212.320645 216.103359 
L 215.379576 226.694405 
L 218.438507 236.846274 
L 221.497438 246.488756 
L 224.556369 255.569408 
L 227.6153 264.052251 
L 230.674231 271.916232 
L 233.733162 279.153511 
L 236.792093 285.767672 
L 239.851024 291.771918 
L 242.909955 297.187308 
L 245.968886 302.041084 
L 249.027817 306.365117 
L 252.086748 310.194502 
L 255.145679 313.566319 
L 258.20461 316.518547 
L 261.263541 319.089168 
L 264.322472 321.315415 
L 267.381403 323.233184 
L 270.440334 324.87658 
L 273.499266 326.277598 
L 276.558197 327.465905 
L 279.617128 328.468723 
L 282.676059 329.310788 
L 285.73499 330.014376 
L 291.852852 331.083412 
L 297.970714 331.808548 
L 304.088576 332.291017 
L 313.265369 332.71819 
L 325.501093 332.978057 
L 343.854679 333.096626 
L 401.974368 333.123882 
L 658.924574 333.12392 
L 658.924574 333.12392 
" style="fill:none;stroke:#1f78b4;stroke-linecap:round;stroke-width:1.5;"/>
   </g>
   <g id="line2d_14">
    <path clip-path="url(#p6e0db7fef2)" d="M 50.197301 333.12392 
L 53.256232 319.193212 
L 56.315163 306.368518 
L 59.374094 294.591925 
L 62.433025 283.807839 
L 65.491956 273.962918 
L 68.550887 265.005997 
L 71.609818 256.888017 
L 74.668749 249.561963 
L 77.72768 242.982791 
L 80.786611 237.107367 
L 83.845542 231.894405 
L 86.904473 227.304403 
L 89.963404 223.299584 
L 93.022335 219.843842 
L 96.081266 216.902676 
L 99.140197 214.443144 
L 102.199128 212.433804 
L 105.258059 210.844665 
L 108.31699 209.647133 
L 111.375922 208.813961 
L 114.434853 208.319205 
L 117.493784 208.138173 
L 120.552715 208.24738 
L 123.611646 208.624505 
L 126.670577 209.248348 
L 129.729508 210.098785 
L 132.788439 211.15673 
L 135.84737 212.404096 
L 138.906301 213.823754 
L 141.965232 215.399497 
L 148.083094 218.958803 
L 154.200956 222.969444 
L 160.318818 227.331387 
L 166.43668 231.956125 
L 175.613473 239.21816 
L 206.202783 263.890533 
L 215.379576 270.895403 
L 224.556369 277.55483 
L 230.674231 281.775395 
L 236.792093 285.807247 
L 242.909955 289.642523 
L 249.027817 293.276205 
L 255.145679 296.705766 
L 261.263541 299.930838 
L 267.381403 302.952915 
L 273.499266 305.775081 
L 279.617128 308.40176 
L 285.73499 310.838489 
L 291.852852 313.091716 
L 297.970714 315.168617 
L 304.088576 317.076927 
L 310.206438 318.824797 
L 319.383231 321.164278 
L 328.560024 323.190859 
L 337.736817 324.933731 
L 346.91361 326.421606 
L 356.090403 327.682237 
L 365.267196 328.742058 
L 377.50292 329.885464 
L 389.738644 330.76976 
L 401.974368 331.442858 
L 417.269023 332.050303 
L 435.622609 332.524675 
L 457.035127 332.841527 
L 487.624437 333.042358 
L 542.685195 333.119792 
L 658.924574 333.12392 
L 658.924574 333.12392 
" style="fill:none;stroke:#b2df8a;stroke-linecap:round;stroke-width:1.5;"/>
   </g>
   <g id="line2d_15">
    <path clip-path="url(#p6e0db7fef2)" d="M 50.197301 333.12392 
L 99.140197 333.059967 
L 105.258059 332.814846 
L 108.31699 332.508951 
L 111.375922 331.968875 
L 114.434853 331.064998 
L 117.493784 329.624554 
L 120.552715 327.43028 
L 123.611646 324.224531 
L 126.670577 319.720035 
L 129.729508 313.617652 
L 132.788439 305.63049 
L 135.84737 295.512618 
L 138.906301 283.089683 
L 141.965232 268.288096 
L 145.024163 251.159232 
L 148.083094 231.89539 
L 151.142025 210.835042 
L 157.259887 165.356351 
L 163.377749 119.802519 
L 166.43668 98.839697 
L 169.495611 80.051498 
L 172.554542 64.076045 
L 175.613473 51.438596 
L 178.672404 42.5243 
L 181.731335 37.5613 
L 184.790266 36.61483 
L 187.849197 39.591978 
L 190.908128 46.255901 
L 193.967059 56.247599 
L 197.02599 69.112983 
L 200.084921 84.332782 
L 203.143852 101.35294 
L 206.202783 119.613425 
L 218.438507 194.950458 
L 221.497438 212.327765 
L 224.556369 228.554794 
L 227.6153 243.473819 
L 230.674231 256.992369 
L 233.733162 269.075306 
L 236.792093 279.735663 
L 239.851024 289.024999 
L 242.909955 297.023904 
L 245.968886 303.833139 
L 249.027817 309.565741 
L 252.086748 314.340307 
L 255.145679 318.27554 
L 258.20461 321.486033 
L 261.263541 324.079229 
L 264.322472 326.153417 
L 267.381403 327.796601 
L 270.440334 329.08609 
L 273.499266 330.088633 
L 276.558197 330.860948 
L 279.617128 331.450524 
L 285.73499 332.231034 
L 291.852852 332.662768 
L 301.029645 332.96289 
L 316.3243 333.100245 
L 365.267196 333.123908 
L 658.924574 333.12392 
L 658.924574 333.12392 
" style="fill:none;stroke:#33a02c;stroke-linecap:round;stroke-width:1.5;"/>
   </g>
   <g id="line2d_16">
    <path clip-path="url(#p6e0db7fef2)" d="M 50.197301 333.12392 
L 197.02599 333.024134 
L 206.202783 332.79331 
L 212.320645 332.441189 
L 218.438507 331.788862 
L 221.497438 331.292962 
L 224.556369 330.64401 
L 227.6153 329.805585 
L 230.674231 328.735888 
L 233.733162 327.38784 
L 236.792093 325.709452 
L 239.851024 323.64453 
L 242.909955 321.13372 
L 245.968886 318.115953 
L 249.027817 314.530269 
L 252.086748 310.318006 
L 255.145679 305.425327 
L 258.20461 299.805997 
L 261.263541 293.424326 
L 264.322472 286.258155 
L 267.381403 278.301743 
L 270.440334 269.568411 
L 273.499266 260.092765 
L 276.558197 249.932363 
L 279.617128 239.168664 
L 285.73499 216.276496 
L 297.970714 169.32241 
L 301.029645 158.411579 
L 304.088576 148.227457 
L 307.147507 138.962903 
L 310.206438 130.798436 
L 313.265369 123.896492 
L 316.3243 118.396143 
L 319.383231 114.408543 
L 322.442162 112.013296 
L 325.501093 111.255897 
L 328.560024 112.146372 
L 331.618955 114.659159 
L 334.677886 118.734229 
L 337.736817 124.279384 
L 340.795748 131.173607 
L 343.854679 139.271305 
L 346.91361 148.407252 
L 349.972541 158.401984 
L 353.031472 169.067433 
L 359.149334 191.64871 
L 368.326127 225.95314 
L 371.385058 236.875636 
L 374.443989 247.332574 
L 377.50292 257.229518 
L 380.561851 266.493645 
L 383.620782 275.073309 
L 386.679713 282.936964 
L 389.738644 290.07154 
L 392.797575 296.48043 
L 395.856506 302.181187 
L 398.915437 307.203078 
L 401.974368 311.584592 
L 405.033299 315.37102 
L 408.09223 318.612179 
L 411.151161 321.360355 
L 414.210092 323.668492 
L 417.269023 325.588686 
L 420.327954 327.170956 
L 423.386885 328.462316 
L 426.445816 329.506122 
L 429.504747 330.341658 
L 432.563678 331.003943 
L 435.622609 331.52372 
L 441.740472 332.238204 
L 447.858334 332.652806 
L 457.035127 332.954918 
L 469.270851 333.087067 
L 502.919092 333.12373 
L 658.924574 333.12392 
L 658.924574 333.12392 
" style="fill:none;stroke:#fb9a99;stroke-linecap:round;stroke-width:1.5;"/>
   </g>
   <g id="line2d_17">
    <path clip-path="url(#p6e0db7fef2)" d="M 50.197301 333.12392 
L 68.550887 333.018935 
L 74.668749 332.649942 
L 77.72768 332.263325 
L 80.786611 331.674428 
L 83.845542 330.826772 
L 86.904473 329.6623 
L 89.963404 328.124149 
L 93.022335 326.159376 
L 96.081266 323.721492 
L 99.140197 320.772668 
L 102.199128 317.285536 
L 105.258059 313.244519 
L 108.31699 308.646682 
L 111.375922 303.502094 
L 114.434853 297.833728 
L 117.493784 291.676941 
L 120.552715 285.078583 
L 123.611646 278.0958 
L 129.729508 263.248174 
L 145.024163 224.685474 
L 148.083094 217.389118 
L 151.142025 210.416254 
L 154.200956 203.837015 
L 157.259887 197.714997 
L 160.318818 192.106454 
L 163.377749 187.059695 
L 166.43668 182.614672 
L 169.495611 178.802757 
L 172.554542 175.64669 
L 175.613473 173.160686 
L 178.672404 171.350692 
L 181.731335 170.214759 
L 184.790266 169.74353 
L 187.849197 169.920811 
L 190.908128 170.724211 
L 193.967059 172.125838 
L 197.02599 174.093017 
L 200.084921 176.589039 
L 203.143852 179.573902 
L 206.202783 183.005049 
L 209.261714 186.838077 
L 212.320645 191.027415 
L 215.379576 195.526968 
L 218.438507 200.290707 
L 224.556369 210.430132 
L 230.674231 221.097869 
L 245.968886 248.087065 
L 252.086748 258.364439 
L 258.20461 268.070686 
L 264.322472 277.084922 
L 267.381403 281.306276 
L 270.440334 285.327945 
L 273.499266 289.145784 
L 276.558197 292.757634 
L 279.617128 296.163136 
L 282.676059 299.363558 
L 285.73499 302.361606 
L 288.793921 305.161253 
L 291.852852 307.76756 
L 294.911783 310.186513 
L 297.970714 312.424867 
L 301.029645 314.489992 
L 304.088576 316.389737 
L 307.147507 318.1323 
L 310.206438 319.726116 
L 313.265369 321.179743 
L 316.3243 322.501776 
L 322.442162 324.7851 
L 328.560024 326.642571 
L 334.677886 328.136924 
L 340.795748 329.325877 
L 346.91361 330.261376 
L 353.031472 330.989257 
L 362.208265 331.777051 
L 371.385058 332.295332 
L 383.620782 332.707847 
L 398.915437 332.959958 
L 423.386885 333.093019 
L 490.683368 333.123849 
L 658.924574 333.12392 
L 658.924574 333.12392 
" style="fill:none;stroke:#e31a1c;stroke-linecap:round;stroke-width:1.5;"/>
   </g>
   <g id="line2d_18">
    <path clip-path="url(#p6e0db7fef2)" d="M 50.197301 333.12392 
L 175.613473 333.040387 
L 184.790266 332.867973 
L 190.908128 332.620111 
L 197.02599 332.18109 
L 203.143852 331.440456 
L 206.202783 330.911481 
L 209.261714 330.246946 
L 212.320645 329.421018 
L 215.379576 328.405181 
L 218.438507 327.168465 
L 221.497438 325.67781 
L 224.556369 323.898577 
L 227.6153 321.795198 
L 230.674231 319.33199 
L 233.733162 316.474094 
L 236.792093 313.188549 
L 239.851024 309.445471 
L 242.909955 305.219299 
L 245.968886 300.490084 
L 249.027817 295.244772 
L 252.086748 289.47843 
L 255.145679 283.195377 
L 258.20461 276.410156 
L 261.263541 269.148309 
L 264.322472 261.446896 
L 267.381403 253.354735 
L 273.499266 236.251379 
L 288.793921 192.14075 
L 291.852852 183.905214 
L 294.911783 176.122266 
L 297.970714 168.900017 
L 301.029645 162.341168 
L 304.088576 156.540635 
L 307.147507 151.583317 
L 310.206438 147.542089 
L 313.265369 144.476082 
L 316.3243 142.4293 
L 319.383231 141.429623 
L 322.442162 141.488223 
L 325.501093 142.599406 
L 328.560024 144.74089 
L 331.618955 147.874488 
L 334.677886 151.947189 
L 337.736817 156.892575 
L 340.795748 162.632549 
L 343.854679 169.079285 
L 346.91361 176.13736 
L 349.972541 183.705986 
L 356.090403 199.958478 
L 374.443989 250.488751 
L 377.50292 258.275751 
L 380.561851 265.710308 
L 383.620782 272.75034 
L 386.679713 279.363787 
L 389.738644 285.52826 
L 392.797575 291.2305 
L 395.856506 296.465658 
L 398.915437 301.236462 
L 401.974368 305.55229 
L 405.033299 309.428184 
L 408.09223 312.883853 
L 411.151161 315.942683 
L 414.210092 318.630784 
L 417.269023 320.976101 
L 420.327954 323.007598 
L 423.386885 324.754538 
L 426.445816 326.245858 
L 429.504747 327.509641 
L 432.563678 328.572703 
L 435.622609 329.460265 
L 438.681541 330.195726 
L 444.799403 331.29401 
L 450.917265 332.014454 
L 457.035127 332.472152 
L 466.21192 332.848189 
L 478.447644 333.046658 
L 502.919092 333.120216 
L 658.924574 333.12392 
L 658.924574 333.12392 
" style="fill:none;stroke:#fdbf6f;stroke-linecap:round;stroke-width:1.5;"/>
   </g>
   <g id="line2d_19">
    <path clip-path="url(#p6e0db7fef2)" d="M 50.197301 333.12392 
L 74.668749 333.024137 
L 77.72768 332.88674 
L 80.786611 332.620304 
L 83.845542 332.14806 
L 86.904473 331.370913 
L 89.963404 330.169433 
L 93.022335 328.408513 
L 96.081266 325.944428 
L 99.140197 322.633735 
L 102.199128 318.343233 
L 105.258059 312.960101 
L 108.31699 306.401359 
L 111.375922 298.621855 
L 114.434853 289.620167 
L 117.493784 279.442009 
L 120.552715 268.180939 
L 123.611646 255.976401 
L 126.670577 243.009301 
L 132.788439 215.677604 
L 138.906301 188.178312 
L 141.965232 175.031026 
L 145.024163 162.628917 
L 148.083094 151.207364 
L 151.142025 140.975108 
L 154.200956 132.108591 
L 157.259887 124.747888 
L 160.318818 118.994245 
L 163.377749 114.909201 
L 166.43668 112.515152 
L 169.495611 111.79722 
L 172.554542 112.706198 
L 175.613473 115.162356 
L 178.672404 119.059869 
L 181.731335 124.271637 
L 184.790266 130.654281 
L 187.849197 138.053112 
L 190.908128 146.306912 
L 193.967059 155.252381 
L 197.02599 164.728152 
L 203.143852 184.655202 
L 212.320645 214.941881 
L 218.438507 234.111563 
L 221.497438 243.145448 
L 224.556369 251.736847 
L 227.6153 259.846175 
L 230.674231 267.446148 
L 233.733162 274.52065 
L 236.792093 281.063497 
L 239.851024 287.07715 
L 242.909955 292.571429 
L 245.968886 297.562247 
L 249.027817 302.070407 
L 252.086748 306.120479 
L 255.145679 309.739766 
L 258.20461 312.957392 
L 261.263541 315.803484 
L 264.322472 318.308478 
L 267.381403 320.502536 
L 270.440334 322.415063 
L 273.499266 324.074331 
L 276.558197 325.507184 
L 279.617128 326.738835 
L 282.676059 327.792727 
L 285.73499 328.690456 
L 288.793921 329.451748 
L 294.911783 330.634717 
L 301.029645 331.463513 
L 307.147507 332.034121 
L 316.3243 332.561899 
L 325.501093 332.844682 
L 340.795748 333.043981 
L 371.385058 333.119249 
L 652.806712 333.12392 
L 658.924574 333.12392 
L 658.924574 333.12392 
" style="fill:none;stroke:#ff7f00;stroke-linecap:round;stroke-width:1.5;"/>
   </g>
   <g id="line2d_20">
    <path clip-path="url(#p6e0db7fef2)" d="M 360.64821 347.949375 
L 360.64821 21.789375 
" style="fill:none;stroke:#808080;stroke-dasharray:5.55,2.4;stroke-dashoffset:0;stroke-width:1.5;"/>
   </g>
   <g id="line2d_21">
    <path clip-path="url(#p6e0db7fef2)" d="M 238.902756 347.949375 
L 238.902756 21.789375 
" style="fill:none;stroke:#000000;stroke-dasharray:5.55,2.4;stroke-dashoffset:0;stroke-width:1.5;"/>
   </g>
   <g id="patch_3">
    <path d="M 19.760937 347.949375 
L 19.760937 21.789375 
" style="fill:none;stroke:#ffffff;stroke-linecap:square;stroke-linejoin:miter;stroke-width:0.8;"/>
   </g>
   <g id="patch_4">
    <path d="M 689.360937 347.949375 
L 689.360937 21.789375 
" style="fill:none;stroke:#ffffff;stroke-linecap:square;stroke-linejoin:miter;stroke-width:0.8;"/>
   </g>
   <g id="patch_5">
    <path d="M 19.760937 347.949375 
L 689.360938 347.949375 
" style="fill:none;stroke:#ffffff;stroke-linecap:square;stroke-linejoin:miter;stroke-width:0.8;"/>
   </g>
   <g id="patch_6">
    <path d="M 19.760937 21.789375 
L 689.360938 21.789375 
" style="fill:none;stroke:#ffffff;stroke-linecap:square;stroke-linejoin:miter;stroke-width:0.8;"/>
   </g>
   <g id="text_12">
    <!-- Ads distributions after 100.0 views -->
    <defs>
     <path d="M -0.140625 0 
L 27.34375 71.578125 
L 37.546875 71.578125 
L 66.84375 0 
L 56.0625 0 
L 47.703125 21.6875 
L 17.78125 21.6875 
L 9.90625 0 
z
M 20.515625 29.390625 
L 44.78125 29.390625 
L 37.3125 49.21875 
Q 33.890625 58.25 32.234375 64.0625 
Q 30.859375 57.171875 28.375 50.390625 
z
" id="ArialMT-65"/>
     <path d="M 40.234375 0 
L 40.234375 6.546875 
Q 35.296875 -1.171875 25.734375 -1.171875 
Q 19.53125 -1.171875 14.328125 2.25 
Q 9.125 5.671875 6.265625 11.796875 
Q 3.421875 17.921875 3.421875 25.875 
Q 3.421875 33.640625 6 39.96875 
Q 8.59375 46.296875 13.765625 49.65625 
Q 18.953125 53.03125 25.34375 53.03125 
Q 30.03125 53.03125 33.6875 51.046875 
Q 37.359375 49.078125 39.65625 45.90625 
L 39.65625 71.578125 
L 48.390625 71.578125 
L 48.390625 0 
z
M 12.453125 25.875 
Q 12.453125 15.921875 16.640625 10.984375 
Q 20.84375 6.0625 26.5625 6.0625 
Q 32.328125 6.0625 36.34375 10.765625 
Q 40.375 15.484375 40.375 25.140625 
Q 40.375 35.796875 36.265625 40.765625 
Q 32.171875 45.75 26.171875 45.75 
Q 20.3125 45.75 16.375 40.96875 
Q 12.453125 36.1875 12.453125 25.875 
z
" id="ArialMT-100"/>
     <path d="M 3.078125 15.484375 
L 11.765625 16.84375 
Q 12.5 11.625 15.84375 8.84375 
Q 19.1875 6.0625 25.203125 6.0625 
Q 31.25 6.0625 34.171875 8.515625 
Q 37.109375 10.984375 37.109375 14.3125 
Q 37.109375 17.28125 34.515625 19 
Q 32.71875 20.171875 25.53125 21.96875 
Q 15.875 24.421875 12.140625 26.203125 
Q 8.40625 27.984375 6.46875 31.125 
Q 4.546875 34.28125 4.546875 38.09375 
Q 4.546875 41.546875 6.125 44.5 
Q 7.71875 47.46875 10.453125 49.421875 
Q 12.5 50.921875 16.03125 51.96875 
Q 19.578125 53.03125 23.640625 53.03125 
Q 29.734375 53.03125 34.34375 51.265625 
Q 38.96875 49.515625 41.15625 46.5 
Q 43.359375 43.5 44.1875 38.484375 
L 35.59375 37.3125 
Q 35.015625 41.3125 32.203125 43.546875 
Q 29.390625 45.796875 24.265625 45.796875 
Q 18.21875 45.796875 15.625 43.796875 
Q 13.03125 41.796875 13.03125 39.109375 
Q 13.03125 37.40625 14.109375 36.03125 
Q 15.1875 34.625 17.484375 33.6875 
Q 18.796875 33.203125 25.25 31.453125 
Q 34.578125 28.953125 38.25 27.359375 
Q 41.9375 25.78125 44.03125 22.75 
Q 46.140625 19.734375 46.140625 15.234375 
Q 46.140625 10.84375 43.578125 6.953125 
Q 41.015625 3.078125 36.171875 0.953125 
Q 31.34375 -1.171875 25.25 -1.171875 
Q 15.140625 -1.171875 9.84375 3.03125 
Q 4.546875 7.234375 3.078125 15.484375 
z
" id="ArialMT-115"/>
     <path id="ArialMT-32"/>
     <path d="M 6.640625 61.46875 
L 6.640625 71.578125 
L 15.4375 71.578125 
L 15.4375 61.46875 
z
M 6.640625 0 
L 6.640625 51.859375 
L 15.4375 51.859375 
L 15.4375 0 
z
" id="ArialMT-105"/>
     <path d="M 25.78125 7.859375 
L 27.046875 0.09375 
Q 23.34375 -0.6875 20.40625 -0.6875 
Q 15.625 -0.6875 12.984375 0.828125 
Q 10.359375 2.34375 9.28125 4.8125 
Q 8.203125 7.28125 8.203125 15.1875 
L 8.203125 45.015625 
L 1.765625 45.015625 
L 1.765625 51.859375 
L 8.203125 51.859375 
L 8.203125 64.703125 
L 16.9375 69.96875 
L 16.9375 51.859375 
L 25.78125 51.859375 
L 25.78125 45.015625 
L 16.9375 45.015625 
L 16.9375 14.703125 
Q 16.9375 10.9375 17.40625 9.859375 
Q 17.875 8.796875 18.921875 8.15625 
Q 19.96875 7.515625 21.921875 7.515625 
Q 23.390625 7.515625 25.78125 7.859375 
z
" id="ArialMT-116"/>
     <path d="M 6.5 0 
L 6.5 51.859375 
L 14.40625 51.859375 
L 14.40625 44 
Q 17.4375 49.515625 20 51.265625 
Q 22.5625 53.03125 25.640625 53.03125 
Q 30.078125 53.03125 34.671875 50.203125 
L 31.640625 42.046875 
Q 28.421875 43.953125 25.203125 43.953125 
Q 22.3125 43.953125 20.015625 42.21875 
Q 17.71875 40.484375 16.75 37.40625 
Q 15.28125 32.71875 15.28125 27.15625 
L 15.28125 0 
z
" id="ArialMT-114"/>
     <path d="M 14.703125 0 
L 6.546875 0 
L 6.546875 71.578125 
L 15.328125 71.578125 
L 15.328125 46.046875 
Q 20.90625 53.03125 29.546875 53.03125 
Q 34.328125 53.03125 38.59375 51.09375 
Q 42.875 49.171875 45.625 45.671875 
Q 48.390625 42.1875 49.953125 37.25 
Q 51.515625 32.328125 51.515625 26.703125 
Q 51.515625 13.375 44.921875 6.09375 
Q 38.328125 -1.171875 29.109375 -1.171875 
Q 19.921875 -1.171875 14.703125 6.5 
z
M 14.59375 26.3125 
Q 14.59375 17 17.140625 12.84375 
Q 21.296875 6.0625 28.375 6.0625 
Q 34.125 6.0625 38.328125 11.0625 
Q 42.53125 16.0625 42.53125 25.984375 
Q 42.53125 36.140625 38.5 40.96875 
Q 34.46875 45.796875 28.765625 45.796875 
Q 23 45.796875 18.796875 40.796875 
Q 14.59375 35.796875 14.59375 26.3125 
z
" id="ArialMT-98"/>
     <path d="M 40.578125 0 
L 40.578125 7.625 
Q 34.515625 -1.171875 24.125 -1.171875 
Q 19.53125 -1.171875 15.546875 0.578125 
Q 11.578125 2.34375 9.640625 5 
Q 7.71875 7.671875 6.9375 11.53125 
Q 6.390625 14.109375 6.390625 19.734375 
L 6.390625 51.859375 
L 15.1875 51.859375 
L 15.1875 23.09375 
Q 15.1875 16.21875 15.71875 13.8125 
Q 16.546875 10.359375 19.234375 8.375 
Q 21.921875 6.390625 25.875 6.390625 
Q 29.828125 6.390625 33.296875 8.421875 
Q 36.765625 10.453125 38.203125 13.9375 
Q 39.65625 17.4375 39.65625 24.078125 
L 39.65625 51.859375 
L 48.4375 51.859375 
L 48.4375 0 
z
" id="ArialMT-117"/>
     <path d="M 3.328125 25.921875 
Q 3.328125 40.328125 11.328125 47.265625 
Q 18.015625 53.03125 27.640625 53.03125 
Q 38.328125 53.03125 45.109375 46.015625 
Q 51.90625 39.015625 51.90625 26.65625 
Q 51.90625 16.65625 48.90625 10.90625 
Q 45.90625 5.171875 40.15625 2 
Q 34.421875 -1.171875 27.640625 -1.171875 
Q 16.75 -1.171875 10.03125 5.8125 
Q 3.328125 12.796875 3.328125 25.921875 
z
M 12.359375 25.921875 
Q 12.359375 15.96875 16.703125 11.015625 
Q 21.046875 6.0625 27.640625 6.0625 
Q 34.1875 6.0625 38.53125 11.03125 
Q 42.875 16.015625 42.875 26.21875 
Q 42.875 35.84375 38.5 40.796875 
Q 34.125 45.75 27.640625 45.75 
Q 21.046875 45.75 16.703125 40.8125 
Q 12.359375 35.890625 12.359375 25.921875 
z
" id="ArialMT-111"/>
     <path d="M 6.59375 0 
L 6.59375 51.859375 
L 14.5 51.859375 
L 14.5 44.484375 
Q 20.21875 53.03125 31 53.03125 
Q 35.6875 53.03125 39.625 51.34375 
Q 43.5625 49.65625 45.515625 46.921875 
Q 47.46875 44.1875 48.25 40.4375 
Q 48.734375 37.984375 48.734375 31.890625 
L 48.734375 0 
L 39.9375 0 
L 39.9375 31.546875 
Q 39.9375 36.921875 38.90625 39.578125 
Q 37.890625 42.234375 35.28125 43.8125 
Q 32.671875 45.40625 29.15625 45.40625 
Q 23.53125 45.40625 19.453125 41.84375 
Q 15.375 38.28125 15.375 28.328125 
L 15.375 0 
z
" id="ArialMT-110"/>
     <path d="M 40.4375 6.390625 
Q 35.546875 2.25 31.03125 0.53125 
Q 26.515625 -1.171875 21.34375 -1.171875 
Q 12.796875 -1.171875 8.203125 3 
Q 3.609375 7.171875 3.609375 13.671875 
Q 3.609375 17.484375 5.34375 20.625 
Q 7.078125 23.78125 9.890625 25.6875 
Q 12.703125 27.59375 16.21875 28.5625 
Q 18.796875 29.25 24.03125 29.890625 
Q 34.671875 31.15625 39.703125 32.90625 
Q 39.75 34.71875 39.75 35.203125 
Q 39.75 40.578125 37.25 42.78125 
Q 33.890625 45.75 27.25 45.75 
Q 21.046875 45.75 18.09375 43.578125 
Q 15.140625 41.40625 13.71875 35.890625 
L 5.125 37.0625 
Q 6.296875 42.578125 8.984375 45.96875 
Q 11.671875 49.359375 16.75 51.1875 
Q 21.828125 53.03125 28.515625 53.03125 
Q 35.15625 53.03125 39.296875 51.46875 
Q 43.453125 49.90625 45.40625 47.53125 
Q 47.359375 45.171875 48.140625 41.546875 
Q 48.578125 39.3125 48.578125 33.453125 
L 48.578125 21.734375 
Q 48.578125 9.46875 49.140625 6.21875 
Q 49.703125 2.984375 51.375 0 
L 42.1875 0 
Q 40.828125 2.734375 40.4375 6.390625 
z
M 39.703125 26.03125 
Q 34.90625 24.078125 25.34375 22.703125 
Q 19.921875 21.921875 17.671875 20.9375 
Q 15.4375 19.96875 14.203125 18.09375 
Q 12.984375 16.21875 12.984375 13.921875 
Q 12.984375 10.40625 15.640625 8.0625 
Q 18.3125 5.71875 23.4375 5.71875 
Q 28.515625 5.71875 32.46875 7.9375 
Q 36.421875 10.15625 38.28125 14.015625 
Q 39.703125 17 39.703125 22.796875 
z
" id="ArialMT-97"/>
     <path d="M 8.6875 0 
L 8.6875 45.015625 
L 0.921875 45.015625 
L 0.921875 51.859375 
L 8.6875 51.859375 
L 8.6875 57.375 
Q 8.6875 62.59375 9.625 65.140625 
Q 10.890625 68.5625 14.078125 70.671875 
Q 17.28125 72.796875 23.046875 72.796875 
Q 26.765625 72.796875 31.25 71.921875 
L 29.9375 64.265625 
Q 27.203125 64.75 24.75 64.75 
Q 20.75 64.75 19.09375 63.03125 
Q 17.4375 61.328125 17.4375 56.640625 
L 17.4375 51.859375 
L 27.546875 51.859375 
L 27.546875 45.015625 
L 17.4375 45.015625 
L 17.4375 0 
z
" id="ArialMT-102"/>
     <path d="M 42.09375 16.703125 
L 51.171875 15.578125 
Q 49.03125 7.625 43.21875 3.21875 
Q 37.40625 -1.171875 28.375 -1.171875 
Q 17 -1.171875 10.328125 5.828125 
Q 3.65625 12.84375 3.65625 25.484375 
Q 3.65625 38.578125 10.390625 45.796875 
Q 17.140625 53.03125 27.875 53.03125 
Q 38.28125 53.03125 44.875 45.953125 
Q 51.46875 38.875 51.46875 26.03125 
Q 51.46875 25.25 51.421875 23.6875 
L 12.75 23.6875 
Q 13.234375 15.140625 17.578125 10.59375 
Q 21.921875 6.0625 28.421875 6.0625 
Q 33.25 6.0625 36.671875 8.59375 
Q 40.09375 11.140625 42.09375 16.703125 
z
M 13.234375 30.90625 
L 42.1875 30.90625 
Q 41.609375 37.453125 38.875 40.71875 
Q 34.671875 45.796875 27.984375 45.796875 
Q 21.921875 45.796875 17.796875 41.75 
Q 13.671875 37.703125 13.234375 30.90625 
z
" id="ArialMT-101"/>
     <path d="M 21 0 
L 1.265625 51.859375 
L 10.546875 51.859375 
L 21.6875 20.796875 
Q 23.484375 15.765625 25 10.359375 
Q 26.171875 14.453125 28.265625 20.21875 
L 39.796875 51.859375 
L 48.828125 51.859375 
L 29.203125 0 
z
" id="ArialMT-118"/>
     <path d="M 16.15625 0 
L 0.296875 51.859375 
L 9.375 51.859375 
L 17.625 21.921875 
L 20.703125 10.796875 
Q 20.90625 11.625 23.390625 21.484375 
L 31.640625 51.859375 
L 40.671875 51.859375 
L 48.4375 21.78125 
L 51.03125 11.859375 
L 54 21.875 
L 62.890625 51.859375 
L 71.4375 51.859375 
L 55.21875 0 
L 46.09375 0 
L 37.84375 31.0625 
L 35.84375 39.890625 
L 25.34375 0 
z
" id="ArialMT-119"/>
    </defs>
    <g style="fill:#262626;" transform="translate(263.520313 15.789375)scale(0.12 -0.12)">
     <use xlink:href="#ArialMT-65"/>
     <use x="66.699219" xlink:href="#ArialMT-100"/>
     <use x="122.314453" xlink:href="#ArialMT-115"/>
     <use x="172.314453" xlink:href="#ArialMT-32"/>
     <use x="200.097656" xlink:href="#ArialMT-100"/>
     <use x="255.712891" xlink:href="#ArialMT-105"/>
     <use x="277.929688" xlink:href="#ArialMT-115"/>
     <use x="327.929688" xlink:href="#ArialMT-116"/>
     <use x="355.712891" xlink:href="#ArialMT-114"/>
     <use x="389.013672" xlink:href="#ArialMT-105"/>
     <use x="411.230469" xlink:href="#ArialMT-98"/>
     <use x="466.845703" xlink:href="#ArialMT-117"/>
     <use x="522.460938" xlink:href="#ArialMT-116"/>
     <use x="550.244141" xlink:href="#ArialMT-105"/>
     <use x="572.460938" xlink:href="#ArialMT-111"/>
     <use x="628.076172" xlink:href="#ArialMT-110"/>
     <use x="683.691406" xlink:href="#ArialMT-115"/>
     <use x="733.691406" xlink:href="#ArialMT-32"/>
     <use x="761.474609" xlink:href="#ArialMT-97"/>
     <use x="817.089844" xlink:href="#ArialMT-102"/>
     <use x="844.873047" xlink:href="#ArialMT-116"/>
     <use x="872.65625" xlink:href="#ArialMT-101"/>
     <use x="928.271484" xlink:href="#ArialMT-114"/>
     <use x="961.572266" xlink:href="#ArialMT-32"/>
     <use x="989.355469" xlink:href="#ArialMT-49"/>
     <use x="1044.970703" xlink:href="#ArialMT-48"/>
     <use x="1100.585938" xlink:href="#ArialMT-48"/>
     <use x="1156.201172" xlink:href="#ArialMT-46"/>
     <use x="1183.984375" xlink:href="#ArialMT-48"/>
     <use x="1239.599609" xlink:href="#ArialMT-32"/>
     <use x="1267.382812" xlink:href="#ArialMT-118"/>
     <use x="1317.382812" xlink:href="#ArialMT-105"/>
     <use x="1339.599609" xlink:href="#ArialMT-101"/>
     <use x="1395.214844" xlink:href="#ArialMT-119"/>
     <use x="1467.431641" xlink:href="#ArialMT-115"/>
    </g>
   </g>
   <g id="legend_1">
    <g id="patch_7">
     <path d="M 696.360937 257.213125 
L 781.704687 257.213125 
Q 783.704687 257.213125 783.704687 255.213125 
L 783.704687 114.525625 
Q 783.704687 112.525625 781.704687 112.525625 
L 696.360937 112.525625 
Q 694.360937 112.525625 694.360937 114.525625 
L 694.360937 255.213125 
Q 694.360937 257.213125 696.360937 257.213125 
z
" style="fill:#e6e6e6;opacity:0.8;stroke:#cccccc;stroke-linejoin:miter;"/>
    </g>
    <g id="line2d_22">
     <path d="M 698.360937 120.183437 
L 718.360937 120.183437 
" style="fill:none;stroke:#a6cee3;stroke-linecap:round;stroke-width:1.5;"/>
    </g>
    <g id="line2d_23"/>
    <g id="text_13">
     <!-- A-no_adapt -->
     <defs>
      <path d="M 3.171875 21.484375 
L 3.171875 30.328125 
L 30.171875 30.328125 
L 30.171875 21.484375 
z
" id="ArialMT-45"/>
      <path d="M -1.515625 -19.875 
L -1.515625 -13.53125 
L 56.734375 -13.53125 
L 56.734375 -19.875 
z
" id="ArialMT-95"/>
      <path d="M 6.59375 -19.875 
L 6.59375 51.859375 
L 14.59375 51.859375 
L 14.59375 45.125 
Q 17.4375 49.078125 21 51.046875 
Q 24.5625 53.03125 29.640625 53.03125 
Q 36.28125 53.03125 41.359375 49.609375 
Q 46.4375 46.1875 49.015625 39.953125 
Q 51.609375 33.734375 51.609375 26.3125 
Q 51.609375 18.359375 48.75 11.984375 
Q 45.90625 5.609375 40.453125 2.21875 
Q 35.015625 -1.171875 29 -1.171875 
Q 24.609375 -1.171875 21.109375 0.6875 
Q 17.625 2.546875 15.375 5.375 
L 15.375 -19.875 
z
M 14.546875 25.640625 
Q 14.546875 15.625 18.59375 10.84375 
Q 22.65625 6.0625 28.421875 6.0625 
Q 34.28125 6.0625 38.453125 11.015625 
Q 42.625 15.96875 42.625 26.375 
Q 42.625 36.28125 38.546875 41.203125 
Q 34.46875 46.140625 28.8125 46.140625 
Q 23.1875 46.140625 18.859375 40.890625 
Q 14.546875 35.640625 14.546875 25.640625 
z
" id="ArialMT-112"/>
     </defs>
     <g style="fill:#262626;" transform="translate(726.360937 123.683437)scale(0.1 -0.1)">
      <use xlink:href="#ArialMT-65"/>
      <use x="66.699219" xlink:href="#ArialMT-45"/>
      <use x="100" xlink:href="#ArialMT-110"/>
      <use x="155.615234" xlink:href="#ArialMT-111"/>
      <use x="211.230469" xlink:href="#ArialMT-95"/>
      <use x="266.845703" xlink:href="#ArialMT-97"/>
      <use x="322.460938" xlink:href="#ArialMT-100"/>
      <use x="378.076172" xlink:href="#ArialMT-97"/>
      <use x="433.691406" xlink:href="#ArialMT-112"/>
      <use x="489.306641" xlink:href="#ArialMT-116"/>
     </g>
    </g>
    <g id="line2d_24">
     <path d="M 698.360937 134.32875 
L 718.360937 134.32875 
" style="fill:none;stroke:#1f78b4;stroke-linecap:round;stroke-width:1.5;"/>
    </g>
    <g id="line2d_25"/>
    <g id="text_14">
     <!-- B-no_adapt -->
     <defs>
      <path d="M 7.328125 0 
L 7.328125 71.578125 
L 34.1875 71.578125 
Q 42.390625 71.578125 47.34375 69.40625 
Q 52.296875 67.234375 55.09375 62.71875 
Q 57.90625 58.203125 57.90625 53.265625 
Q 57.90625 48.6875 55.421875 44.625 
Q 52.9375 40.578125 47.90625 38.09375 
Q 54.390625 36.1875 57.875 31.59375 
Q 61.375 27 61.375 20.75 
Q 61.375 15.71875 59.25 11.390625 
Q 57.125 7.078125 54 4.734375 
Q 50.875 2.390625 46.15625 1.1875 
Q 41.453125 0 34.625 0 
z
M 16.796875 41.5 
L 32.28125 41.5 
Q 38.578125 41.5 41.3125 42.328125 
Q 44.921875 43.40625 46.75 45.890625 
Q 48.578125 48.390625 48.578125 52.15625 
Q 48.578125 55.71875 46.875 58.421875 
Q 45.171875 61.140625 41.984375 62.140625 
Q 38.8125 63.140625 31.109375 63.140625 
L 16.796875 63.140625 
z
M 16.796875 8.453125 
L 34.625 8.453125 
Q 39.203125 8.453125 41.0625 8.796875 
Q 44.34375 9.375 46.53125 10.734375 
Q 48.734375 12.109375 50.140625 14.71875 
Q 51.5625 17.328125 51.5625 20.75 
Q 51.5625 24.75 49.515625 27.703125 
Q 47.46875 30.671875 43.828125 31.859375 
Q 40.1875 33.0625 33.34375 33.0625 
L 16.796875 33.0625 
z
" id="ArialMT-66"/>
     </defs>
     <g style="fill:#262626;" transform="translate(726.360937 137.82875)scale(0.1 -0.1)">
      <use xlink:href="#ArialMT-66"/>
      <use x="66.699219" xlink:href="#ArialMT-45"/>
      <use x="100" xlink:href="#ArialMT-110"/>
      <use x="155.615234" xlink:href="#ArialMT-111"/>
      <use x="211.230469" xlink:href="#ArialMT-95"/>
      <use x="266.845703" xlink:href="#ArialMT-97"/>
      <use x="322.460938" xlink:href="#ArialMT-100"/>
      <use x="378.076172" xlink:href="#ArialMT-97"/>
      <use x="433.691406" xlink:href="#ArialMT-112"/>
      <use x="489.306641" xlink:href="#ArialMT-116"/>
     </g>
    </g>
    <g id="line2d_26">
     <path d="M 698.360937 148.474063 
L 718.360937 148.474063 
" style="fill:none;stroke:#b2df8a;stroke-linecap:round;stroke-width:1.5;"/>
    </g>
    <g id="line2d_27"/>
    <g id="text_15">
     <!-- A-epsilon -->
     <defs>
      <path d="M 6.390625 0 
L 6.390625 71.578125 
L 15.1875 71.578125 
L 15.1875 0 
z
" id="ArialMT-108"/>
     </defs>
     <g style="fill:#262626;" transform="translate(726.360937 151.974063)scale(0.1 -0.1)">
      <use xlink:href="#ArialMT-65"/>
      <use x="66.699219" xlink:href="#ArialMT-45"/>
      <use x="100" xlink:href="#ArialMT-101"/>
      <use x="155.615234" xlink:href="#ArialMT-112"/>
      <use x="211.230469" xlink:href="#ArialMT-115"/>
      <use x="261.230469" xlink:href="#ArialMT-105"/>
      <use x="283.447266" xlink:href="#ArialMT-108"/>
      <use x="305.664062" xlink:href="#ArialMT-111"/>
      <use x="361.279297" xlink:href="#ArialMT-110"/>
     </g>
    </g>
    <g id="line2d_28">
     <path d="M 698.360937 162.619375 
L 718.360937 162.619375 
" style="fill:none;stroke:#33a02c;stroke-linecap:round;stroke-width:1.5;"/>
    </g>
    <g id="line2d_29"/>
    <g id="text_16">
     <!-- B-epsilon -->
     <g style="fill:#262626;" transform="translate(726.360937 166.119375)scale(0.1 -0.1)">
      <use xlink:href="#ArialMT-66"/>
      <use x="66.699219" xlink:href="#ArialMT-45"/>
      <use x="100" xlink:href="#ArialMT-101"/>
      <use x="155.615234" xlink:href="#ArialMT-112"/>
      <use x="211.230469" xlink:href="#ArialMT-115"/>
      <use x="261.230469" xlink:href="#ArialMT-105"/>
      <use x="283.447266" xlink:href="#ArialMT-108"/>
      <use x="305.664062" xlink:href="#ArialMT-111"/>
      <use x="361.279297" xlink:href="#ArialMT-110"/>
     </g>
    </g>
    <g id="line2d_30">
     <path d="M 698.360937 176.764687 
L 718.360937 176.764687 
" style="fill:none;stroke:#fb9a99;stroke-linecap:round;stroke-width:1.5;"/>
    </g>
    <g id="line2d_31"/>
    <g id="text_17">
     <!-- A-ucb1 -->
     <defs>
      <path d="M 40.4375 19 
L 49.078125 17.875 
Q 47.65625 8.9375 41.8125 3.875 
Q 35.984375 -1.171875 27.484375 -1.171875 
Q 16.84375 -1.171875 10.375 5.78125 
Q 3.90625 12.75 3.90625 25.734375 
Q 3.90625 34.125 6.6875 40.421875 
Q 9.46875 46.734375 15.15625 49.875 
Q 20.84375 53.03125 27.546875 53.03125 
Q 35.984375 53.03125 41.359375 48.75 
Q 46.734375 44.484375 48.25 36.625 
L 39.703125 35.296875 
Q 38.484375 40.53125 35.375 43.15625 
Q 32.28125 45.796875 27.875 45.796875 
Q 21.234375 45.796875 17.078125 41.03125 
Q 12.9375 36.28125 12.9375 25.984375 
Q 12.9375 15.53125 16.9375 10.796875 
Q 20.953125 6.0625 27.390625 6.0625 
Q 32.5625 6.0625 36.03125 9.234375 
Q 39.5 12.40625 40.4375 19 
z
" id="ArialMT-99"/>
     </defs>
     <g style="fill:#262626;" transform="translate(726.360937 180.264687)scale(0.1 -0.1)">
      <use xlink:href="#ArialMT-65"/>
      <use x="66.699219" xlink:href="#ArialMT-45"/>
      <use x="100" xlink:href="#ArialMT-117"/>
      <use x="155.615234" xlink:href="#ArialMT-99"/>
      <use x="205.615234" xlink:href="#ArialMT-98"/>
      <use x="261.230469" xlink:href="#ArialMT-49"/>
     </g>
    </g>
    <g id="line2d_32">
     <path d="M 698.360937 190.91 
L 718.360937 190.91 
" style="fill:none;stroke:#e31a1c;stroke-linecap:round;stroke-width:1.5;"/>
    </g>
    <g id="line2d_33"/>
    <g id="text_18">
     <!-- B-ucb1 -->
     <g style="fill:#262626;" transform="translate(726.360937 194.41)scale(0.1 -0.1)">
      <use xlink:href="#ArialMT-66"/>
      <use x="66.699219" xlink:href="#ArialMT-45"/>
      <use x="100" xlink:href="#ArialMT-117"/>
      <use x="155.615234" xlink:href="#ArialMT-99"/>
      <use x="205.615234" xlink:href="#ArialMT-98"/>
      <use x="261.230469" xlink:href="#ArialMT-49"/>
     </g>
    </g>
    <g id="line2d_34">
     <path d="M 698.360937 205.055313 
L 718.360937 205.055313 
" style="fill:none;stroke:#fdbf6f;stroke-linecap:round;stroke-width:1.5;"/>
    </g>
    <g id="line2d_35"/>
    <g id="text_19">
     <!-- A-bayesian -->
     <defs>
      <path d="M 6.203125 -19.96875 
L 5.21875 -11.71875 
Q 8.109375 -12.5 10.25 -12.5 
Q 13.1875 -12.5 14.9375 -11.515625 
Q 16.703125 -10.546875 17.828125 -8.796875 
Q 18.65625 -7.46875 20.515625 -2.25 
Q 20.75 -1.515625 21.296875 -0.09375 
L 1.609375 51.859375 
L 11.078125 51.859375 
L 21.875 21.828125 
Q 23.96875 16.109375 25.640625 9.8125 
Q 27.15625 15.875 29.25 21.625 
L 40.328125 51.859375 
L 49.125 51.859375 
L 29.390625 -0.875 
Q 26.21875 -9.421875 24.46875 -12.640625 
Q 22.125 -17 19.09375 -19.015625 
Q 16.0625 -21.046875 11.859375 -21.046875 
Q 9.328125 -21.046875 6.203125 -19.96875 
z
" id="ArialMT-121"/>
     </defs>
     <g style="fill:#262626;" transform="translate(726.360937 208.555313)scale(0.1 -0.1)">
      <use xlink:href="#ArialMT-65"/>
      <use x="66.699219" xlink:href="#ArialMT-45"/>
      <use x="100" xlink:href="#ArialMT-98"/>
      <use x="155.615234" xlink:href="#ArialMT-97"/>
      <use x="211.230469" xlink:href="#ArialMT-121"/>
      <use x="261.230469" xlink:href="#ArialMT-101"/>
      <use x="316.845703" xlink:href="#ArialMT-115"/>
      <use x="366.845703" xlink:href="#ArialMT-105"/>
      <use x="389.0625" xlink:href="#ArialMT-97"/>
      <use x="444.677734" xlink:href="#ArialMT-110"/>
     </g>
    </g>
    <g id="line2d_36">
     <path d="M 698.360937 219.317813 
L 718.360937 219.317813 
" style="fill:none;stroke:#ff7f00;stroke-linecap:round;stroke-width:1.5;"/>
    </g>
    <g id="line2d_37"/>
    <g id="text_20">
     <!-- B-bayesian -->
     <g style="fill:#262626;" transform="translate(726.360937 222.817813)scale(0.1 -0.1)">
      <use xlink:href="#ArialMT-66"/>
      <use x="66.699219" xlink:href="#ArialMT-45"/>
      <use x="100" xlink:href="#ArialMT-98"/>
      <use x="155.615234" xlink:href="#ArialMT-97"/>
      <use x="211.230469" xlink:href="#ArialMT-121"/>
      <use x="261.230469" xlink:href="#ArialMT-101"/>
      <use x="316.845703" xlink:href="#ArialMT-115"/>
      <use x="366.845703" xlink:href="#ArialMT-105"/>
      <use x="389.0625" xlink:href="#ArialMT-97"/>
      <use x="444.677734" xlink:href="#ArialMT-110"/>
     </g>
    </g>
    <g id="line2d_38">
     <path d="M 698.360937 233.580312 
L 718.360937 233.580312 
" style="fill:none;stroke:#808080;stroke-dasharray:5.55,2.4;stroke-dashoffset:0;stroke-width:1.5;"/>
    </g>
    <g id="line2d_39"/>
    <g id="text_21">
     <!-- Real CTR A -->
     <defs>
      <path d="M 7.859375 0 
L 7.859375 71.578125 
L 39.59375 71.578125 
Q 49.171875 71.578125 54.140625 69.640625 
Q 59.125 67.71875 62.109375 62.828125 
Q 65.09375 57.953125 65.09375 52.046875 
Q 65.09375 44.4375 60.15625 39.203125 
Q 55.21875 33.984375 44.921875 32.5625 
Q 48.6875 30.765625 50.640625 29 
Q 54.78125 25.203125 58.5 19.484375 
L 70.953125 0 
L 59.03125 0 
L 49.5625 14.890625 
Q 45.40625 21.34375 42.71875 24.75 
Q 40.046875 28.171875 37.921875 29.53125 
Q 35.796875 30.90625 33.59375 31.453125 
Q 31.984375 31.78125 28.328125 31.78125 
L 17.328125 31.78125 
L 17.328125 0 
z
M 17.328125 39.984375 
L 37.703125 39.984375 
Q 44.1875 39.984375 47.84375 41.328125 
Q 51.515625 42.671875 53.421875 45.625 
Q 55.328125 48.578125 55.328125 52.046875 
Q 55.328125 57.125 51.640625 60.390625 
Q 47.953125 63.671875 39.984375 63.671875 
L 17.328125 63.671875 
z
" id="ArialMT-82"/>
      <path d="M 58.796875 25.09375 
L 68.265625 22.703125 
Q 65.28125 11.03125 57.546875 4.90625 
Q 49.8125 -1.21875 38.625 -1.21875 
Q 27.046875 -1.21875 19.796875 3.484375 
Q 12.546875 8.203125 8.765625 17.140625 
Q 4.984375 26.078125 4.984375 36.328125 
Q 4.984375 47.515625 9.25 55.828125 
Q 13.53125 64.15625 21.40625 68.46875 
Q 29.296875 72.796875 38.765625 72.796875 
Q 49.515625 72.796875 56.828125 67.328125 
Q 64.15625 61.859375 67.046875 51.953125 
L 57.71875 49.75 
Q 55.21875 57.5625 50.484375 61.125 
Q 45.75 64.703125 38.578125 64.703125 
Q 30.328125 64.703125 24.78125 60.734375 
Q 19.234375 56.78125 16.984375 50.109375 
Q 14.75 43.453125 14.75 36.375 
Q 14.75 27.25 17.40625 20.4375 
Q 20.0625 13.625 25.671875 10.25 
Q 31.296875 6.890625 37.84375 6.890625 
Q 45.796875 6.890625 51.3125 11.46875 
Q 56.84375 16.0625 58.796875 25.09375 
z
" id="ArialMT-67"/>
      <path d="M 25.921875 0 
L 25.921875 63.140625 
L 2.34375 63.140625 
L 2.34375 71.578125 
L 59.078125 71.578125 
L 59.078125 63.140625 
L 35.40625 63.140625 
L 35.40625 0 
z
" id="ArialMT-84"/>
     </defs>
     <g style="fill:#262626;" transform="translate(726.360937 237.080312)scale(0.1 -0.1)">
      <use xlink:href="#ArialMT-82"/>
      <use x="72.216797" xlink:href="#ArialMT-101"/>
      <use x="127.832031" xlink:href="#ArialMT-97"/>
      <use x="183.447266" xlink:href="#ArialMT-108"/>
      <use x="205.664062" xlink:href="#ArialMT-32"/>
      <use x="233.447266" xlink:href="#ArialMT-67"/>
      <use x="305.664062" xlink:href="#ArialMT-84"/>
      <use x="366.748047" xlink:href="#ArialMT-82"/>
      <use x="438.964844" xlink:href="#ArialMT-32"/>
      <use x="466.669922" xlink:href="#ArialMT-65"/>
     </g>
    </g>
    <g id="line2d_40">
     <path d="M 698.360937 247.725625 
L 718.360937 247.725625 
" style="fill:none;stroke:#000000;stroke-dasharray:5.55,2.4;stroke-dashoffset:0;stroke-width:1.5;"/>
    </g>
    <g id="line2d_41"/>
    <g id="text_22">
     <!-- Real CTR B -->
     <g style="fill:#262626;" transform="translate(726.360937 251.225625)scale(0.1 -0.1)">
      <use xlink:href="#ArialMT-82"/>
      <use x="72.216797" xlink:href="#ArialMT-101"/>
      <use x="127.832031" xlink:href="#ArialMT-97"/>
      <use x="183.447266" xlink:href="#ArialMT-108"/>
      <use x="205.664062" xlink:href="#ArialMT-32"/>
      <use x="233.447266" xlink:href="#ArialMT-67"/>
      <use x="305.664062" xlink:href="#ArialMT-84"/>
      <use x="366.748047" xlink:href="#ArialMT-82"/>
      <use x="438.964844" xlink:href="#ArialMT-32"/>
      <use x="466.748047" xlink:href="#ArialMT-66"/>
     </g>
    </g>
   </g>
  </g>
 </g>
 <defs>
  <clipPath id="p6e0db7fef2">
   <rect height="326.16" width="669.6" x="19.760937" y="21.789375"/>
  </clipPath>
 </defs>
</svg>
